<?xml version="1.0" encoding="UTF-8" standalone="no"?>
<!DOCTYPE svg PUBLIC "-//W3C//DTD SVG 1.1//EN" "http://www.w3.org/Graphics/SVG/1.1/DTD/svg11.dtd">
<svg width="100%" height="100%" viewBox="0 0 888 638" version="1.1" xmlns="http://www.w3.org/2000/svg" xmlns:xlink="http://www.w3.org/1999/xlink" xml:space="preserve" xmlns:serif="http://www.serif.com/" style="fill-rule:evenodd;clip-rule:evenodd;">
    <g transform="matrix(1,0,0,1,-5034.84,-1928.14)">
        <g>
            <g transform="matrix(0.950741,0,0,0.911639,269.879,203.999)">
                <path d="M5078,2146C5105.07,2107.34 5148.81,2079.97 5193,2063.41C5244.17,2044.25 5332.17,2036.4 5385,2031C5426.45,2026.76 5476.17,2025.6 5510,2031C5537.8,2035.44 5560.63,2056.8 5588,2063.41C5629,2073.33 5711.33,2077.22 5756,2090.49C5792.09,2101.21 5828.24,2117.57 5856,2143C5886.83,2171.25 5929.67,2213.88 5941,2260C5952.33,2306.12 5941.67,2375.53 5924,2419.7C5906.93,2462.37 5861.83,2500.28 5835,2525C5814.44,2543.94 5790.88,2565.91 5763,2568C5718.33,2571.35 5626.33,2541.43 5567,2545.1C5511.71,2548.52 5462.39,2590 5407,2590C5338.79,2590 5219.25,2566.93 5157.75,2545.1C5111.42,2528.65 5061.96,2496.68 5038,2459C5014.04,2421.32 5008,2365.97 5014,2319C5020.67,2266.83 5048.17,2188.6 5078,2146Z" style="fill:rgb(242,242,242);"/>
                <clipPath id="_clip1">
                    <path d="M5078,2146C5105.07,2107.34 5148.81,2079.97 5193,2063.41C5244.17,2044.25 5332.17,2036.4 5385,2031C5426.45,2026.76 5476.17,2025.6 5510,2031C5537.8,2035.44 5560.63,2056.8 5588,2063.41C5629,2073.33 5711.33,2077.22 5756,2090.49C5792.09,2101.21 5828.24,2117.57 5856,2143C5886.83,2171.25 5929.67,2213.88 5941,2260C5952.33,2306.12 5941.67,2375.53 5924,2419.7C5906.93,2462.37 5861.83,2500.28 5835,2525C5814.44,2543.94 5790.88,2565.91 5763,2568C5718.33,2571.35 5626.33,2541.43 5567,2545.1C5511.71,2548.52 5462.39,2590 5407,2590C5338.79,2590 5219.25,2566.93 5157.75,2545.1C5111.42,2528.65 5061.96,2496.68 5038,2459C5014.04,2421.32 5008,2365.97 5014,2319C5020.67,2266.83 5048.17,2188.6 5078,2146Z"/>
                </clipPath>
                <g clip-path="url(#_clip1)">
                    <g transform="matrix(1.01921,0,0,1.13154,-105.244,-282.028)">
                        <path d="M5157.75,2469C5212.25,2489.3 5325.62,2508.67 5393,2507C5451.54,2505.55 5503.58,2463.08 5562,2459C5621.67,2454.83 5697.5,2494.3 5751,2482C5804.18,2469.77 5861.17,2428.18 5883,2385.18C5904.83,2342.18 5904.33,2266.2 5882,2224C5859.67,2181.8 5799.66,2150.43 5749,2132C5698.17,2113.5 5624.83,2124.33 5577,2113C5536.45,2103.39 5503.53,2067.41 5462,2064C5416.33,2060.25 5353.71,2075.16 5303,2090.49C5252.29,2105.82 5195.08,2128.25 5157.75,2156C5123.49,2181.47 5094.29,2218.8 5079,2257C5063.71,2295.2 5052.88,2349.84 5066,2385.18C5079.12,2420.51 5118.93,2454.54 5157.75,2469Z" style="fill:rgb(233,233,233);"/>
                    </g>
                    <g transform="matrix(3.41462,0,0,3.56108,5495.62,2315.74)">
                        <g transform="matrix(1,0,0,1,-226.772,-170.079)">
                            <g id="Layer_x0020_1">
                                <path d="M207.354,96.066C213.08,94.479 222.888,95.159 228.728,96.123C234.539,97.115 236.353,98.391 237.543,104.825C238.706,111.26 239.244,122.825 240.066,132.435C240.888,142.016 242.022,149.669 242.901,154.12C243.78,158.57 244.375,159.874 243.553,160.214C242.702,160.554 240.435,159.931 236.665,159.704C232.894,159.477 227.594,159.647 221.357,160.611C215.121,161.603 207.921,163.417 202.677,164.693C197.433,165.997 194.088,166.734 192.926,166.11C191.764,165.458 192.728,163.417 193.72,161.518C194.712,159.647 195.676,157.89 196.016,154.828C196.356,151.767 196.072,147.402 195.789,142.328C195.534,137.254 195.307,131.528 195.761,125.235C196.214,118.97 197.348,112.167 198.709,106.838C200.069,101.509 201.657,97.654 207.354,96.066Z" style="fill:none;stroke:rgb(51,44,43);stroke-width:0.57px;"/>
                                <path d="M197.405,114.973C200.409,116.901 203.443,118.857 207.808,120.983C212.173,123.109 217.899,125.433 222.406,126.907C226.885,128.381 230.145,129.033 232.838,129.231C235.531,129.458 237.685,129.26 239.811,129.09" style="fill:none;stroke:rgb(51,44,43);stroke-width:0.57px;"/>
                                <path d="M240.435,136.375C239.244,138.926 238.054,141.506 236.891,143.235C235.701,144.992 234.539,145.899 231.704,145.389C228.898,144.879 224.447,142.951 219.26,141.307C214.072,139.663 208.176,138.302 204.094,136.743C200.013,135.156 197.773,133.37 195.506,131.613" style="fill:none;stroke:rgb(51,44,43);stroke-width:0.57px;"/>
                                <path d="M158.457,163.162C156.586,180.142 154.715,197.15 152.844,209.367C150.945,221.556 149.074,228.983 148.394,232.469C147.713,235.928 148.224,235.474 150.321,234.283C152.391,233.065 156.019,231.08 160.129,231.08C164.268,231.08 168.86,233.065 173.48,234.737C178.101,236.381 182.693,237.742 186.406,237.6C190.091,237.458 192.869,235.786 195.619,234.113" style="fill:none;stroke:rgb(51,44,43);stroke-width:0.57px;"/>
                                <path d="M256.564,145.049C253.247,173.906 249.931,202.762 248.343,225.694C246.784,248.627 246.926,265.635 247.72,274.11C248.513,282.586 249.959,282.501 251.773,282.472C253.587,282.416 255.77,282.416 256.989,281.48C258.18,280.545 258.406,278.646 259.965,264.387C261.524,250.157 264.387,223.54 266.995,207.383C269.603,191.254 271.956,185.584 273.118,181.928C274.28,178.243 274.28,176.598 274.28,174.926" style="fill:none;stroke:rgb(223,147,133);stroke-width:0.57px;"/>
                                <path d="M286.583,144.34C287.773,149.783 288.964,155.197 290.013,168.236C291.09,181.276 291.997,201.912 293.584,221.953C295.172,241.994 297.439,261.411 297.808,271.474C298.176,281.509 296.674,282.189 294.605,282.586C292.507,282.954 289.871,283.039 288.085,280.233C286.299,277.427 285.392,271.757 282.926,255.288C280.46,238.791 276.406,211.493 272.353,184.195" style="fill:none;stroke:rgb(223,147,133);stroke-width:0.57px;"/>
                                <path d="M259.37,89.745C260.334,90.737 262.375,92.069 263.849,92.721C265.294,93.345 266.173,93.317 266.967,93.543C267.761,93.742 268.469,94.224 270.397,94.337C272.353,94.45 275.528,94.195 277.795,94.11C280.035,94.025 281.367,94.11 282.444,93.742C283.55,93.402 284.428,92.608 284.91,91.644C285.392,90.68 285.506,89.546 285.477,87.761C285.392,85.975 285.165,83.565 284.825,81.553C284.457,79.569 283.975,77.981 283.266,76.989C282.557,75.997 281.65,75.628 280.828,74.608C280.006,73.587 279.241,71.915 277.143,70.98C275.046,70.044 271.616,69.817 268.98,70.441C266.343,71.093 264.529,72.595 263.31,74.239C262.091,75.855 261.439,77.584 260.447,79.172C259.483,80.759 258.151,82.205 257.783,83.537C257.443,84.898 258.038,86.145 258.293,87.109C258.52,88.072 258.406,88.753 259.37,89.745Z" style="fill:none;stroke:rgb(84,47,37);stroke-width:0.57px;"/>
                                <path d="M195.761,125.235C196.016,121.861 196.441,118.346 197.008,114.973C189.326,114.548 181.616,114.123 175.55,113.528C169.483,112.932 165.005,112.167 160.129,110.75C155.254,109.304 149.981,107.178 146.835,104.967C144.765,108.822 142.668,112.677 143.008,115.427C143.32,118.176 146.041,119.849 147.827,120.784C148.507,121.153 149.074,121.38 149.499,121.606C150.18,121.975 150.576,122.287 150.775,122.91C151.143,123.931 151.03,125.773 150.661,128.324C150.321,130.876 149.698,134.135 151.115,136.233C151.654,137.027 152.504,137.65 153.439,138.217C154.942,139.068 156.671,139.72 157.89,140.542C159.874,141.846 160.441,143.603 160.753,145.899C161.093,148.195 161.15,151.087 163.984,152.844C166.791,154.63 172.346,155.31 176.06,153.78C179.802,152.249 181.672,148.507 182.721,145.134C183.77,141.789 183.94,138.784 184.762,136.913C185.584,135.043 187.002,134.306 188.674,133.852C190.346,133.427 192.217,133.313 193.408,132.888C194.598,132.463 195.052,131.754 195.506,131.046C195.534,129.175 195.619,127.219 195.761,125.235Z" style="fill:rgb(255,223,176);stroke:rgb(255,223,176);stroke-width:0.22px;"/>
                                <path d="M210.047,75.742C210.416,78.888 211.153,83.82 211.606,86.428C212.06,89.065 212.23,89.376 213.279,89.943C213.307,89.972 213.335,90 213.364,90C214.441,90.567 216.312,91.332 218.069,91.616C219.883,91.928 221.584,91.701 223.115,91.247C224.674,90.822 226.063,90.17 227.367,89.235C227.82,88.923 228.274,88.554 228.699,88.157C229.521,87.392 230.343,86.457 231.194,85.323C232.498,83.565 233.915,81.269 234.709,79.682C235.502,78.094 235.644,77.216 235.276,76.054C234.935,74.92 234.057,73.502 233.093,72.567C232.157,71.631 231.109,71.178 230.655,70.243C230.173,69.335 230.287,67.946 229.606,66.643C228.898,65.339 227.395,64.12 226.006,63.581C224.617,63.043 223.37,63.184 222.321,63.043C221.272,62.872 220.394,62.391 219.742,62.22C219.118,62.05 218.721,62.192 218.523,62.759C218.296,63.326 218.296,64.318 217.077,64.857C215.858,65.367 213.42,65.395 212.031,66.161C210.614,66.926 210.217,68.4 209.991,69.817C209.764,71.235 209.707,72.595 210.047,75.742Z" style="fill:rgb(143,97,24);"/>
                                <path d="M227.367,89.235C226.063,90.17 224.674,90.822 223.115,91.247C221.584,91.701 219.883,91.928 218.069,91.616C216.312,91.332 214.441,90.567 213.364,90C213.449,90.454 213.506,90.935 213.534,91.389C213.591,92.069 213.534,92.75 213.392,93.402C213.25,94.054 213.024,94.649 212.769,95.216C217.984,94.876 224.192,95.386 228.444,96.094C228.217,95.386 227.962,94.677 227.792,93.94C227.594,93.231 227.424,92.494 227.65,91.417C227.82,90.51 228.246,89.348 228.699,88.157C228.274,88.554 227.82,88.923 227.367,89.235Z" style="fill:rgb(235,191,159);"/>
                                <path d="M228.444,96.094C224.192,95.386 217.984,94.876 212.769,95.216C210.784,95.357 208.913,95.641 207.354,96.066C201.657,97.654 200.069,101.509 198.709,106.838C198.085,109.304 197.49,112.082 197.008,114.973C196.441,118.346 196.016,121.861 195.761,125.235C195.619,127.219 195.534,129.175 195.506,131.046C195.506,131.216 195.506,131.414 195.506,131.613C197.773,133.37 200.013,135.156 204.094,136.743C208.176,138.302 214.072,139.663 219.26,141.307C224.447,142.951 228.898,144.879 231.704,145.389C234.539,145.899 235.701,144.992 236.891,143.235C238.054,141.506 239.244,138.926 240.435,136.375C240.293,135.099 240.18,133.767 240.066,132.435C239.981,131.329 239.868,130.224 239.783,129.09C239.754,128.721 239.726,128.353 239.698,127.984C239.613,126.595 239.499,125.235 239.386,123.846C239.131,119.991 238.847,116.164 238.535,112.734C238.45,111.969 238.394,111.231 238.309,110.494C238.082,108.369 237.827,106.441 237.543,104.825C236.778,100.715 235.786,98.731 233.631,97.54C232.413,96.888 230.825,96.491 228.728,96.123C228.614,96.123 228.529,96.094 228.444,96.094Z" style="fill:rgb(38,46,66);"/>
                                <path d="M233.631,97.54C235.786,98.731 236.778,100.715 237.543,104.825C237.827,106.441 238.082,108.369 238.309,110.494C242.929,108.624 247.55,106.724 252.283,104.769C249.08,103.124 246.019,101.055 243.383,99.78C239.499,97.88 236.551,97.71 233.631,97.54Z" style="fill:rgb(38,46,66);"/>
                                <path d="M252.028,104.769C247.266,106.724 242.674,108.624 238.054,110.494C238.11,111.231 238.195,111.94 238.28,112.706L238.28,112.734C240.18,113.868 242.079,115.03 246.161,115.994C248.627,116.561 251.858,117.071 255.175,117.184C255.543,112.592 256.28,109.559 257.698,106.894C257.386,106.809 257.046,106.753 256.734,106.668C255.146,106.214 253.559,105.534 252.028,104.769Z" style="fill:rgb(38,46,66);"/>
                                <path d="M282.529,99.95C282.331,100.176 282.246,100.346 282.359,100.573C283.663,101.395 284.712,102.416 285.534,103.748C286.157,104.372 286.668,105.052 286.724,105.732L286.753,105.732C286.809,105.761 286.866,105.732 286.894,105.704C287.206,104.995 287.49,104.287 287.688,103.635C287.745,103.181 287.773,102.699 287.745,102.189C287.688,101.112 287.376,99.978 286.951,99.298C286.951,99.298 286.923,99.298 286.923,99.269C286.413,98.844 285.704,98.532 285.024,98.476C284.485,98.561 283.975,98.787 283.55,99.043C283.068,99.326 282.728,99.666 282.529,99.95Z" style="fill:rgb(235,191,159);"/>
                                <path d="M257.698,106.894C256.28,109.559 255.543,112.592 255.175,117.184C257.357,117.298 259.597,117.213 261.638,116.901C266.74,116.107 270.68,113.754 275.046,111.883C279.439,109.984 284.287,108.539 286.072,107.121C286.554,106.753 286.809,106.384 286.923,106.016C286.838,105.761 286.753,105.506 286.668,105.25C286.413,104.627 286.129,104.031 285.789,103.493C285.676,103.38 285.534,103.238 285.392,103.096C284.145,101.877 282.869,100.828 282.246,100.318C281.594,99.78 281.594,99.78 279.865,100.8C278.135,101.849 274.677,103.918 270.539,105.449C266.655,106.866 262.205,107.83 257.698,106.894Z" style="fill:rgb(38,46,66);stroke:rgb(38,46,66);stroke-width:0.22px;"/>
                                <path d="M255.43,117.184C252.113,117.071 248.882,116.561 246.416,115.994C242.334,115.03 240.435,113.868 238.535,112.734C238.847,116.164 239.131,119.991 239.386,123.846L255.43,117.184Z" style="fill:rgb(242,182,98);"/>
                                <path d="M252.283,105.024C253.814,105.789 255.402,106.469 256.989,106.923C257.301,107.008 257.641,107.093 257.953,107.15C258.038,106.98 258.123,106.809 258.236,106.639C260.05,103.521 262.913,100.8 265.606,99.383C265.663,99.354 265.72,99.326 265.776,99.298C261.298,101.197 256.819,103.124 252.454,104.939C252.397,104.967 252.34,104.995 252.283,105.024Z" style="fill:rgb(242,182,98);"/>
                                <path d="M265.606,99.383C262.913,100.8 260.05,103.521 258.236,106.639C258.123,106.809 258.038,106.98 257.953,107.15C262.46,108.113 266.91,107.121 270.794,105.704C274.932,104.173 278.391,102.104 280.12,101.083C281.849,100.035 281.849,100.035 282.501,100.573C282.529,100.517 282.557,100.46 282.586,100.431C282.359,100.29 282.104,100.148 281.849,100.035C281.282,99.78 280.687,99.524 280.035,99.326C279.723,99.241 279.411,99.156 279.128,99.071C277.342,98.561 275.386,98.306 273.572,98.135C271.616,97.994 269.802,97.965 267.959,98.476C267.676,98.532 267.392,98.646 267.109,98.731C266.683,98.929 266.23,99.099 265.776,99.298L265.606,99.383Z" style="fill:rgb(242,182,98);"/>
                                <path d="M275.301,111.883C270.935,113.754 266.995,116.107 261.893,116.901C259.852,117.213 257.613,117.298 255.43,117.184C255.373,117.808 255.317,118.46 255.288,119.14C254.891,125.178 254.891,133.71 254.75,138.756C254.608,143.773 254.296,145.304 254.778,145.587C255.09,145.786 255.713,145.502 256.564,145.049C257.074,144.794 257.641,144.454 258.265,144.17C259.965,143.32 262.091,142.583 265.946,142.639C269.802,142.724 275.386,143.631 279.354,144.283C283.323,144.907 285.676,145.304 286.583,144.34C287.49,143.405 286.951,141.137 287.065,136.006C287.093,135.184 287.121,134.334 287.15,133.427C287.405,128.438 287.972,121.946 288.113,117.099C288.283,111.883 288,108.539 287.178,106.016C287.093,106.384 286.809,106.753 286.328,107.121C284.542,108.539 279.694,109.984 275.301,111.883Z" style="fill:rgb(244,185,95);"/>
                                <path d="M273.572,98.419C275.386,98.561 277.342,98.816 279.128,99.326C278.759,99.184 278.447,98.986 278.277,98.702C278.022,98.192 278.249,97.427 278.419,96.661C278.561,95.953 278.617,95.272 278.702,94.592C278.419,94.62 278.107,94.62 277.795,94.62C275.528,94.706 272.353,94.961 270.397,94.847C269.887,94.819 269.461,94.762 269.093,94.677C269.15,95.102 269.235,95.528 269.263,95.783C269.291,96.094 269.291,96.236 269.093,96.718C268.866,97.172 268.413,97.965 267.959,98.731C269.802,98.249 271.616,98.249 273.572,98.419Z" style="fill:rgb(236,161,138);stroke:rgb(236,161,138);stroke-width:0.22px;"/>
                                <path d="M270.397,94.847C272.353,94.961 275.528,94.706 277.795,94.62C278.107,94.62 278.419,94.62 278.702,94.592C280.403,94.564 281.509,94.564 282.444,94.252C283.55,93.912 284.428,93.118 284.91,92.154C285.392,91.191 285.506,90.057 285.477,88.271C285.392,86.485 285.165,84.076 284.825,82.063C284.457,80.079 283.975,78.491 283.266,77.499C282.557,76.507 281.65,76.139 280.828,75.118C280.006,74.098 279.241,72.425 277.143,71.49C275.046,70.554 271.616,70.328 268.98,70.951C266.343,71.603 264.529,73.106 263.31,74.75C262.091,76.365 261.439,78.094 260.447,79.682C259.483,81.269 258.151,82.715 257.783,84.047C257.443,85.408 258.038,86.655 258.293,87.619C258.52,88.583 258.406,89.263 259.37,90.255C260.334,91.247 262.375,92.58 263.849,93.231C265.294,93.855 266.173,93.827 266.967,94.054C267.534,94.195 268.072,94.507 269.093,94.677C269.461,94.762 269.887,94.819 270.397,94.847Z" style="fill:rgb(84,47,37);"/>
                                <path d="M287.858,117.099C287.717,121.946 287.15,128.438 286.894,133.427C287.972,136.602 289.049,139.776 291.26,140.712C293.471,141.647 296.787,140.372 299.395,139.38C302.003,138.416 303.902,137.735 302.939,135.609C302.003,133.483 298.233,129.94 295.087,124.781C291.94,119.594 289.446,112.819 286.923,106.016C287.745,108.539 288.028,111.883 287.858,117.099Z" style="fill:rgb(244,185,95);"/>
                                <path d="M286.583,144.34C285.676,145.304 283.323,144.907 279.354,144.283C275.386,143.631 269.802,142.724 265.946,142.639C262.091,142.583 259.965,143.32 258.265,144.17C257.641,144.454 257.074,144.794 256.564,145.049C253.247,173.906 249.931,202.762 248.343,225.694C246.784,248.627 246.926,265.635 247.72,274.11C247.918,276.378 248.202,278.022 248.485,279.213C249.307,282.529 250.441,282.501 251.773,282.472C253.587,282.416 255.77,282.416 256.989,281.48C257.131,281.367 257.272,281.225 257.414,281.055C258.265,279.836 258.605,276.803 259.965,264.387C261.524,250.157 264.387,223.54 266.995,207.383C269.121,194.202 271.077,188.022 272.353,184.195C276.406,211.493 280.46,238.791 282.926,255.288C285.392,271.757 286.299,277.427 288.085,280.233C288.907,281.509 289.899,282.189 290.92,282.501C292.167,282.898 293.471,282.784 294.605,282.586C295.597,282.387 296.476,282.132 297.071,280.743C297.694,279.298 298.006,276.605 297.808,271.474C297.439,261.411 295.172,241.994 293.584,221.953C291.997,201.912 291.09,181.276 290.013,168.236C288.964,155.197 287.773,149.783 286.583,144.34Z" style="fill:rgb(223,147,133);"/>
                                <path d="M244.346,134.589C244.772,133.569 245.083,132.35 245.14,130.932C245.225,129.515 245.083,127.899 244.431,126.822C243.78,125.745 242.646,125.206 241.795,125.49C240.917,125.773 240.321,126.879 239.698,127.984C239.726,128.353 239.754,128.721 239.783,129.09L240.066,132.435C240.18,133.767 240.293,135.099 240.435,136.375C240.463,136.545 240.463,136.743 240.491,136.942C241.257,137.055 242.022,137.169 242.674,136.8C243.326,136.46 243.893,135.609 244.346,134.589Z" style="fill:rgb(235,191,159);"/>
                                <path d="M236.891,143.235C235.701,144.992 234.539,145.899 231.704,145.389C228.898,144.879 224.447,142.951 219.26,141.307C214.072,139.663 208.176,138.302 204.094,136.743C200.013,135.156 197.773,133.37 195.506,131.613C195.477,135.439 195.619,139.039 195.789,142.328C196.072,147.402 196.356,151.767 196.016,154.828C195.676,157.89 194.712,159.647 193.72,161.518C193.096,162.737 192.444,164.041 192.387,164.976C192.359,165.458 192.501,165.883 192.926,166.11C193.691,166.507 195.335,166.337 197.83,165.827C199.191,165.543 200.806,165.146 202.677,164.693C207.921,163.417 215.121,161.603 221.357,160.611C227.594,159.647 232.894,159.477 236.665,159.704C237.997,159.789 239.131,159.931 240.094,160.044C241.852,160.243 243.014,160.413 243.553,160.214C244.375,159.874 243.78,158.57 242.901,154.12C242.164,150.378 241.257,144.425 240.491,136.942C240.463,136.743 240.463,136.545 240.435,136.375C239.244,138.926 238.054,141.506 236.891,143.235Z" style="fill:rgb(38,46,66);"/>
                                <path d="M196.016,154.828C196.356,151.767 196.072,147.402 195.789,142.328C195.619,139.039 195.477,135.439 195.506,131.613C195.506,131.414 195.506,131.216 195.506,131.046C195.052,131.754 194.598,132.463 193.408,132.888C192.217,133.313 190.346,133.427 188.674,133.852C187.002,134.306 185.584,135.043 184.762,136.913C183.94,138.784 183.77,141.789 182.721,145.134C181.672,148.507 179.802,152.249 176.06,153.78C172.346,155.31 166.791,154.63 163.984,152.844C161.15,151.087 161.093,148.195 160.753,145.899C160.441,143.603 159.874,141.846 157.89,140.542C156.671,139.72 154.942,139.068 153.439,138.217C153.241,140.372 152.929,142.611 151.88,145.587C150.775,148.734 148.819,152.702 147.77,156.076C147.685,156.331 147.628,156.557 147.543,156.813C146.58,160.328 146.75,163.106 146.863,164.75C146.948,166.394 146.948,166.904 149.131,166.11C150.973,165.458 154.346,163.871 158.457,163.162C159.25,163.02 160.101,162.907 160.951,162.85C166.195,162.482 172.261,163.899 177.109,164.778C181.956,165.657 185.528,166.054 187.88,165.997C190.233,165.94 191.31,165.458 192.387,164.976C192.444,164.041 193.096,162.737 193.72,161.518C194.712,159.647 195.676,157.89 196.016,154.828Z" style="fill:rgb(155,83,70);"/>
                                <path d="M192.387,164.976C191.31,165.458 190.233,165.94 187.88,165.997C185.528,166.054 181.956,165.657 177.109,164.778C172.261,163.899 166.195,162.482 160.951,162.85C160.101,162.907 159.25,163.02 158.457,163.162C156.586,180.142 154.715,197.15 152.844,209.367C150.945,221.556 149.074,228.983 148.394,232.469C147.713,235.928 148.224,235.474 150.321,234.283C152.079,233.235 154.97,231.676 158.315,231.222C158.91,231.137 159.534,231.08 160.129,231.08C163.332,231.08 166.819,232.271 170.362,233.575C171.411,233.943 172.431,234.34 173.48,234.737C175.635,235.502 177.761,236.211 179.83,236.721C182.183,237.317 184.422,237.685 186.406,237.6C190.091,237.458 192.869,235.786 195.619,234.113C196.157,222.18 196.157,218.381 196.441,208.375C196.724,198.34 197.263,182.098 197.83,165.827C195.335,166.337 193.691,166.507 192.926,166.11C192.501,165.883 192.359,165.458 192.387,164.976Z" style="fill:rgb(37,44,71);"/>
                                <path d="M197.83,165.827C197.263,182.098 196.724,198.34 196.441,208.375C196.157,218.381 196.157,222.18 195.619,234.113C195.109,246.076 194.031,266.173 193.521,276.917C193.38,279.751 193.266,281.934 193.238,283.606C193.124,288.312 193.521,289.134 195.024,289.531C196.129,289.814 197.802,289.871 199.446,289.474C200.863,289.134 202.28,288.454 203.272,287.348C205.37,284.91 205.54,280.375 206.589,270.113C207.638,259.824 209.622,243.808 211.89,228.756C214.157,213.704 216.737,199.644 218.466,192.614C220.195,185.584 221.102,185.584 221.414,189.524C221.726,193.436 221.414,201.317 222.406,218.92C223.37,236.551 225.638,263.906 227.537,277.654C229.436,291.43 230.939,291.572 233.291,291.203C235.616,290.806 238.791,289.899 240.463,282.954C242.135,276.009 242.277,262.998 241.739,244.488C241.228,225.95 240.009,201.912 239.613,186.917C239.244,171.921 239.669,165.969 240.094,160.044C239.131,159.931 237.997,159.789 236.665,159.704C232.894,159.477 227.594,159.647 221.357,160.611C215.121,161.603 207.921,163.417 202.677,164.693C200.806,165.146 199.191,165.543 197.83,165.827Z" style="fill:rgb(244,185,95);stroke:rgb(244,185,95);stroke-width:0.22px;"/>
                                <path d="M195.619,234.113C192.869,235.786 190.091,237.458 186.406,237.6C184.422,237.685 182.183,237.317 179.83,236.721C181.729,248.797 183.6,260.844 184.139,268.384C184.677,275.924 183.827,278.957 183.883,280.8C183.883,281.707 184.139,282.359 184.564,282.784C185.017,283.238 185.669,283.465 186.52,283.606C188.22,283.89 190.743,283.748 193.238,283.606C193.266,281.934 193.38,279.751 193.521,276.917C194.031,266.173 195.109,246.076 195.619,234.113Z" style="fill:rgb(239,200,165);"/>
                                <path d="M171.014,264.019C171.071,255.997 170.731,244.857 170.362,233.575C166.819,232.271 163.332,231.08 160.129,231.08C159.534,231.08 158.91,231.137 158.315,231.222C159.137,249.194 159.959,267.165 160.384,275.981C160.583,280.205 160.668,282.302 160.894,283.294C161.15,284.4 161.518,284.173 162.34,283.946C163.871,283.493 166.989,282.954 168.746,280.205C170.532,277.427 170.986,272.438 171.014,264.019Z" style="fill:rgb(239,200,165);"/>
                                <path d="M294.888,140.882C296.816,144.425 298.772,147.94 299.622,151.143C300.501,154.375 300.274,157.266 301.351,158.57C302.428,159.874 304.809,159.591 306.34,158.712C307.899,157.833 308.608,156.416 308.268,154.913C307.928,153.411 306.539,151.88 305.603,150.491C304.639,149.102 304.157,147.883 303.364,146.013C302.598,144.142 301.521,141.619 300.472,139.096" style="fill:none;stroke:rgb(236,161,138);stroke-width:0.57px;"/>
                                <path d="M294.888,140.627C296.816,144.142 298.772,147.685 299.622,150.888C300.501,154.091 300.274,157.011 301.351,158.315C302.428,159.619 304.809,159.307 306.34,158.457C307.899,157.578 308.608,156.132 308.268,154.658C307.928,153.156 306.539,151.597 305.603,150.236C304.639,148.847 304.157,147.628 303.364,145.757C302.598,143.887 301.521,141.364 300.472,138.841C300.189,138.926 299.934,139.039 299.65,139.124C298.176,139.691 296.476,140.343 294.888,140.627Z" style="fill:rgb(236,161,138);"/>
                                <path d="M148.025,156.076C149.074,152.702 151.03,148.734 152.135,145.587C153.184,142.611 153.496,140.372 153.694,138.217C152.759,137.65 151.909,137.027 151.37,136.233C149.953,134.135 150.576,130.876 150.917,128.324C151.285,125.773 151.398,123.931 151.03,122.91C150.831,122.287 150.435,121.975 149.754,121.606L135.921,149.584C133.143,155.197 133.143,155.197 135.099,154.97C137.083,154.743 140.995,154.29 143.717,154.602C145.616,154.8 146.891,155.395 148.025,156.076Z" style="fill:rgb(155,83,70);"/>
                                <path d="M143.461,154.602C142.696,159.392 141.931,164.211 140.627,167.641C139.351,171.071 137.537,173.112 136.772,175.266C136.035,177.42 136.318,179.688 138.302,180.794C140.258,181.871 143.887,181.814 145.729,180.85C147.6,179.915 147.657,178.101 147.402,176.485C147.146,174.841 146.523,173.424 146.778,171.723C147.005,170.022 148.082,168.066 149.131,166.11C146.948,166.904 146.948,166.394 146.863,164.75C146.75,163.106 146.58,160.328 147.543,156.813C147.628,156.557 147.685,156.331 147.77,156.104L147.77,156.076C146.636,155.395 145.361,154.8 143.461,154.602Z" style="fill:rgb(239,200,165);stroke:rgb(239,200,165);stroke-width:0.22px;"/>
                                <g>
                                    <path d="M148.961,95.386L148.932,95.386C148.904,95.357 148.847,95.329 148.422,94.62C147.997,93.855 147.146,92.381 145.843,91.616C144.539,90.879 142.809,90.879 141.732,91.587C140.655,92.296 140.23,93.742 140.627,95.216C141.024,96.69 142.271,98.22 143.49,99.723C143.461,99.496 143.461,99.298 143.461,99.099C143.461,99.326 143.461,99.581 143.518,99.865L148.961,95.386ZM143.461,99.099L143.461,99.071C143.518,97.143 144.85,95.669 146.806,95.329C145.02,95.641 143.66,97.002 143.49,98.844C143.461,98.929 143.461,99.014 143.461,99.071L143.461,99.099Z" style="fill:rgb(235,191,159);"/>
                                    <path id="_1" serif:id="1" d="M148.961,95.386L148.932,95.386C148.904,95.357 148.847,95.329 148.422,94.62C147.997,93.855 147.146,92.381 145.843,91.616C144.539,90.879 142.809,90.879 141.732,91.587C140.655,92.296 140.23,93.742 140.627,95.216C141.024,96.69 142.271,98.22 143.49,99.723C143.461,99.496 143.461,99.298 143.461,99.099C143.461,99.326 143.461,99.581 143.518,99.865M143.461,99.099L143.461,99.071C143.518,97.143 144.85,95.669 146.806,95.329C145.02,95.641 143.66,97.002 143.49,98.844C143.461,98.929 143.461,99.014 143.461,99.071L143.461,99.099Z" style="fill:none;stroke:rgb(235,191,159);stroke-width:0.22px;"/>
                                </g>
                                <path d="M143.178,99.553L148.649,95.074C148.762,95.102 148.904,95.102 149.046,95.131C150.265,95.386 151.654,95.839 153.298,96.321C153.326,96.321 153.326,96.321 153.354,96.35L153.383,96.35C155.055,96.86 156.983,97.398 159.392,97.965C159.534,97.994 159.676,98.022 159.817,98.05C159.987,98.079 160.129,98.107 160.271,98.164C161.178,98.362 162.17,98.561 163.219,98.787L163.247,98.787C163.956,98.929 164.721,99.071 165.487,99.213C164.721,99.071 163.956,98.929 163.247,98.787L163.219,98.787C162.227,98.589 161.235,98.362 160.271,98.135C160.271,98.107 160.271,98.107 160.299,98.079L188.901,99.751C188.929,99.78 188.929,99.836 188.929,99.865C187.625,100.233 186.208,100.517 184.649,100.687C184.62,100.687 184.592,100.715 184.564,100.715C184.507,100.715 184.422,100.715 184.365,100.715C184.422,100.715 184.507,100.715 184.564,100.715C184.592,100.715 184.62,100.687 184.649,100.687C186.86,100.46 188.674,100.006 190.318,99.468C193.039,98.617 195.335,97.569 197.49,96.917C201.061,95.868 204.35,95.953 207.609,96.066C201.912,97.654 200.324,101.509 198.964,106.838C198.34,109.304 197.745,112.082 197.263,114.973C189.581,114.548 181.899,114.123 175.805,113.528C169.739,112.932 165.26,112.167 160.384,110.75C155.509,109.304 150.236,107.178 147.09,104.967C144.595,103.181 143.405,101.225 143.178,99.553Z" style="fill:rgb(38,46,66);"/>
                                <path d="M160.271,98.22L188.872,99.95C188.391,97.398 187.909,94.876 187.654,92.324C187.398,89.688 187.342,87.052 186.888,84.302C186.406,81.524 185.499,78.661 183.997,76.422C182.466,74.211 180.369,72.624 177.732,72.113C175.096,71.631 171.978,72.227 169.512,73.162C167.046,74.098 165.288,75.345 163.984,77.386C162.68,79.427 161.83,82.261 161.49,85.209C161.121,88.157 161.235,91.219 161.093,93.43C160.98,95.556 160.639,96.888 160.271,98.22Z" style="fill:rgb(255,223,176);"/>
                                <path d="M218.409,126.198C211.153,124.724 203.811,121.578 196.469,118.431C196.157,120.728 195.931,123.024 195.761,125.235C195.619,127.219 195.534,129.175 195.506,131.046C195.506,131.216 195.506,131.414 195.506,131.613C197.773,133.37 200.013,135.156 204.094,136.743C208.176,138.302 214.072,139.663 219.26,141.307C224.447,142.951 228.898,144.879 231.704,145.389C234.539,145.899 235.701,144.992 236.891,143.235C238.054,141.506 239.244,138.926 240.435,136.375C240.293,135.099 240.18,133.767 240.066,132.435C239.981,131.329 239.868,130.224 239.783,129.09C239.754,128.721 239.726,128.353 239.698,127.984C239.698,127.757 239.669,127.531 239.669,127.332C233.858,127.474 228.047,127.587 222.18,126.822C220.932,126.68 219.685,126.454 218.409,126.198Z" style="fill:rgb(155,83,70);stroke:rgb(155,83,70);stroke-width:0.22px;"/>
                            </g>
                        </g>
                    </g>
                </g>
            </g>
            <g transform="matrix(3.24642,0,0,3.24642,5494.79,2315.12)">
                <clipPath id="_clip2">
                    <rect x="-103.819" y="-119.202" width="198.215" height="124.148"/>
                </clipPath>
                <g clip-path="url(#_clip2)">
                    <g transform="matrix(1,0,0,1,-226.772,-170.079)">
                        <g id="Layer_x0020_11" serif:id="Layer_x0020_1">
                            <path d="M207.354,96.066C213.08,94.479 222.888,95.159 228.728,96.123C234.539,97.115 236.353,98.391 237.543,104.825C238.706,111.26 239.244,122.825 240.066,132.435C240.888,142.016 242.022,149.669 242.901,154.12C243.78,158.57 244.375,159.874 243.553,160.214C242.702,160.554 240.435,159.931 236.665,159.704C232.894,159.477 227.594,159.647 221.357,160.611C215.121,161.603 207.921,163.417 202.677,164.693C197.433,165.997 194.088,166.734 192.926,166.11C191.764,165.458 192.728,163.417 193.72,161.518C194.712,159.647 195.676,157.89 196.016,154.828C196.356,151.767 196.072,147.402 195.789,142.328C195.534,137.254 195.307,131.528 195.761,125.235C196.214,118.97 197.348,112.167 198.709,106.838C200.069,101.509 201.657,97.654 207.354,96.066Z" style="fill:none;stroke:rgb(51,44,43);stroke-width:0.57px;"/>
                            <path d="M197.405,114.973C200.409,116.901 203.443,118.857 207.808,120.983C212.173,123.109 217.899,125.433 222.406,126.907C226.885,128.381 230.145,129.033 232.838,129.231C235.531,129.458 237.685,129.26 239.811,129.09" style="fill:none;stroke:rgb(51,44,43);stroke-width:0.57px;"/>
                            <path d="M240.435,136.375C239.244,138.926 238.054,141.506 236.891,143.235C235.701,144.992 234.539,145.899 231.704,145.389C228.898,144.879 224.447,142.951 219.26,141.307C214.072,139.663 208.176,138.302 204.094,136.743C200.013,135.156 197.773,133.37 195.506,131.613" style="fill:none;stroke:rgb(51,44,43);stroke-width:0.57px;"/>
                            <path d="M158.457,163.162C156.586,180.142 154.715,197.15 152.844,209.367C150.945,221.556 149.074,228.983 148.394,232.469C147.713,235.928 148.224,235.474 150.321,234.283C152.391,233.065 156.019,231.08 160.129,231.08C164.268,231.08 168.86,233.065 173.48,234.737C178.101,236.381 182.693,237.742 186.406,237.6C190.091,237.458 192.869,235.786 195.619,234.113" style="fill:none;stroke:rgb(51,44,43);stroke-width:0.57px;"/>
                            <path d="M256.564,145.049C253.247,173.906 249.931,202.762 248.343,225.694C246.784,248.627 246.926,265.635 247.72,274.11C248.513,282.586 249.959,282.501 251.773,282.472C253.587,282.416 255.77,282.416 256.989,281.48C258.18,280.545 258.406,278.646 259.965,264.387C261.524,250.157 264.387,223.54 266.995,207.383C269.603,191.254 271.956,185.584 273.118,181.928C274.28,178.243 274.28,176.598 274.28,174.926" style="fill:none;stroke:rgb(223,147,133);stroke-width:0.57px;"/>
                            <path d="M286.583,144.34C287.773,149.783 288.964,155.197 290.013,168.236C291.09,181.276 291.997,201.912 293.584,221.953C295.172,241.994 297.439,261.411 297.808,271.474C298.176,281.509 296.674,282.189 294.605,282.586C292.507,282.954 289.871,283.039 288.085,280.233C286.299,277.427 285.392,271.757 282.926,255.288C280.46,238.791 276.406,211.493 272.353,184.195" style="fill:none;stroke:rgb(223,147,133);stroke-width:0.57px;"/>
                            <path d="M259.37,89.745C260.334,90.737 262.375,92.069 263.849,92.721C265.294,93.345 266.173,93.317 266.967,93.543C267.761,93.742 268.469,94.224 270.397,94.337C272.353,94.45 275.528,94.195 277.795,94.11C280.035,94.025 281.367,94.11 282.444,93.742C283.55,93.402 284.428,92.608 284.91,91.644C285.392,90.68 285.506,89.546 285.477,87.761C285.392,85.975 285.165,83.565 284.825,81.553C284.457,79.569 283.975,77.981 283.266,76.989C282.557,75.997 281.65,75.628 280.828,74.608C280.006,73.587 279.241,71.915 277.143,70.98C275.046,70.044 271.616,69.817 268.98,70.441C266.343,71.093 264.529,72.595 263.31,74.239C262.091,75.855 261.439,77.584 260.447,79.172C259.483,80.759 258.151,82.205 257.783,83.537C257.443,84.898 258.038,86.145 258.293,87.109C258.52,88.072 258.406,88.753 259.37,89.745Z" style="fill:none;stroke:rgb(84,47,37);stroke-width:0.57px;"/>
                            <path d="M195.761,125.235C196.016,121.861 196.441,118.346 197.008,114.973C189.326,114.548 181.616,114.123 175.55,113.528C169.483,112.932 165.005,112.167 160.129,110.75C155.254,109.304 149.981,107.178 146.835,104.967C144.765,108.822 142.668,112.677 143.008,115.427C143.32,118.176 146.041,119.849 147.827,120.784C148.507,121.153 149.074,121.38 149.499,121.606C150.18,121.975 150.576,122.287 150.775,122.91C151.143,123.931 151.03,125.773 150.661,128.324C150.321,130.876 149.698,134.135 151.115,136.233C151.654,137.027 152.504,137.65 153.439,138.217C154.942,139.068 156.671,139.72 157.89,140.542C159.874,141.846 160.441,143.603 160.753,145.899C161.093,148.195 161.15,151.087 163.984,152.844C166.791,154.63 172.346,155.31 176.06,153.78C179.802,152.249 181.672,148.507 182.721,145.134C183.77,141.789 183.94,138.784 184.762,136.913C185.584,135.043 187.002,134.306 188.674,133.852C190.346,133.427 192.217,133.313 193.408,132.888C194.598,132.463 195.052,131.754 195.506,131.046C195.534,129.175 195.619,127.219 195.761,125.235Z" style="fill:rgb(255,223,176);stroke:rgb(255,223,176);stroke-width:0.22px;"/>
                            <path d="M210.047,75.742C210.416,78.888 211.153,83.82 211.606,86.428C212.06,89.065 212.23,89.376 213.279,89.943C213.307,89.972 213.335,90 213.364,90C214.441,90.567 216.312,91.332 218.069,91.616C219.883,91.928 221.584,91.701 223.115,91.247C224.674,90.822 226.063,90.17 227.367,89.235C227.82,88.923 228.274,88.554 228.699,88.157C229.521,87.392 230.343,86.457 231.194,85.323C232.498,83.565 233.915,81.269 234.709,79.682C235.502,78.094 235.644,77.216 235.276,76.054C234.935,74.92 234.057,73.502 233.093,72.567C232.157,71.631 231.109,71.178 230.655,70.243C230.173,69.335 230.287,67.946 229.606,66.643C228.898,65.339 227.395,64.12 226.006,63.581C224.617,63.043 223.37,63.184 222.321,63.043C221.272,62.872 220.394,62.391 219.742,62.22C219.118,62.05 218.721,62.192 218.523,62.759C218.296,63.326 218.296,64.318 217.077,64.857C215.858,65.367 213.42,65.395 212.031,66.161C210.614,66.926 210.217,68.4 209.991,69.817C209.764,71.235 209.707,72.595 210.047,75.742Z" style="fill:rgb(143,97,24);"/>
                            <path d="M227.367,89.235C226.063,90.17 224.674,90.822 223.115,91.247C221.584,91.701 219.883,91.928 218.069,91.616C216.312,91.332 214.441,90.567 213.364,90C213.449,90.454 213.506,90.935 213.534,91.389C213.591,92.069 213.534,92.75 213.392,93.402C213.25,94.054 213.024,94.649 212.769,95.216C217.984,94.876 224.192,95.386 228.444,96.094C228.217,95.386 227.962,94.677 227.792,93.94C227.594,93.231 227.424,92.494 227.65,91.417C227.82,90.51 228.246,89.348 228.699,88.157C228.274,88.554 227.82,88.923 227.367,89.235Z" style="fill:rgb(235,191,159);"/>
                            <path d="M228.444,96.094C224.192,95.386 217.984,94.876 212.769,95.216C210.784,95.357 208.913,95.641 207.354,96.066C201.657,97.654 200.069,101.509 198.709,106.838C198.085,109.304 197.49,112.082 197.008,114.973C196.441,118.346 196.016,121.861 195.761,125.235C195.619,127.219 195.534,129.175 195.506,131.046C195.506,131.216 195.506,131.414 195.506,131.613C197.773,133.37 200.013,135.156 204.094,136.743C208.176,138.302 214.072,139.663 219.26,141.307C224.447,142.951 228.898,144.879 231.704,145.389C234.539,145.899 235.701,144.992 236.891,143.235C238.054,141.506 239.244,138.926 240.435,136.375C240.293,135.099 240.18,133.767 240.066,132.435C239.981,131.329 239.868,130.224 239.783,129.09C239.754,128.721 239.726,128.353 239.698,127.984C239.613,126.595 239.499,125.235 239.386,123.846C239.131,119.991 238.847,116.164 238.535,112.734C238.45,111.969 238.394,111.231 238.309,110.494C238.082,108.369 237.827,106.441 237.543,104.825C236.778,100.715 235.786,98.731 233.631,97.54C232.413,96.888 230.825,96.491 228.728,96.123C228.614,96.123 228.529,96.094 228.444,96.094Z" style="fill:rgb(38,46,66);"/>
                            <path d="M233.631,97.54C235.786,98.731 236.778,100.715 237.543,104.825C237.827,106.441 238.082,108.369 238.309,110.494C242.929,108.624 247.55,106.724 252.283,104.769C249.08,103.124 246.019,101.055 243.383,99.78C239.499,97.88 236.551,97.71 233.631,97.54Z" style="fill:rgb(38,46,66);"/>
                            <path d="M252.028,104.769C247.266,106.724 242.674,108.624 238.054,110.494C238.11,111.231 238.195,111.94 238.28,112.706L238.28,112.734C240.18,113.868 242.079,115.03 246.161,115.994C248.627,116.561 251.858,117.071 255.175,117.184C255.543,112.592 256.28,109.559 257.698,106.894C257.386,106.809 257.046,106.753 256.734,106.668C255.146,106.214 253.559,105.534 252.028,104.769Z" style="fill:rgb(38,46,66);"/>
                            <path d="M282.529,99.95C282.331,100.176 282.246,100.346 282.359,100.573C283.663,101.395 284.712,102.416 285.534,103.748C286.157,104.372 286.668,105.052 286.724,105.732L286.753,105.732C286.809,105.761 286.866,105.732 286.894,105.704C287.206,104.995 287.49,104.287 287.688,103.635C287.745,103.181 287.773,102.699 287.745,102.189C287.688,101.112 287.376,99.978 286.951,99.298C286.951,99.298 286.923,99.298 286.923,99.269C286.413,98.844 285.704,98.532 285.024,98.476C284.485,98.561 283.975,98.787 283.55,99.043C283.068,99.326 282.728,99.666 282.529,99.95Z" style="fill:rgb(235,191,159);"/>
                            <path d="M257.698,106.894C256.28,109.559 255.543,112.592 255.175,117.184C257.357,117.298 259.597,117.213 261.638,116.901C266.74,116.107 270.68,113.754 275.046,111.883C279.439,109.984 284.287,108.539 286.072,107.121C286.554,106.753 286.809,106.384 286.923,106.016C286.838,105.761 286.753,105.506 286.668,105.25C286.413,104.627 286.129,104.031 285.789,103.493C285.676,103.38 285.534,103.238 285.392,103.096C284.145,101.877 282.869,100.828 282.246,100.318C281.594,99.78 281.594,99.78 279.865,100.8C278.135,101.849 274.677,103.918 270.539,105.449C266.655,106.866 262.205,107.83 257.698,106.894Z" style="fill:rgb(38,46,66);stroke:rgb(38,46,66);stroke-width:0.22px;"/>
                            <path d="M255.43,117.184C252.113,117.071 248.882,116.561 246.416,115.994C242.334,115.03 240.435,113.868 238.535,112.734C238.847,116.164 239.131,119.991 239.386,123.846L255.43,117.184Z" style="fill:rgb(242,182,98);"/>
                            <path d="M252.283,105.024C253.814,105.789 255.402,106.469 256.989,106.923C257.301,107.008 257.641,107.093 257.953,107.15C258.038,106.98 258.123,106.809 258.236,106.639C260.05,103.521 262.913,100.8 265.606,99.383C265.663,99.354 265.72,99.326 265.776,99.298C261.298,101.197 256.819,103.124 252.454,104.939C252.397,104.967 252.34,104.995 252.283,105.024Z" style="fill:rgb(242,182,98);"/>
                            <path d="M265.606,99.383C262.913,100.8 260.05,103.521 258.236,106.639C258.123,106.809 258.038,106.98 257.953,107.15C262.46,108.113 266.91,107.121 270.794,105.704C274.932,104.173 278.391,102.104 280.12,101.083C281.849,100.035 281.849,100.035 282.501,100.573C282.529,100.517 282.557,100.46 282.586,100.431C282.359,100.29 282.104,100.148 281.849,100.035C281.282,99.78 280.687,99.524 280.035,99.326C279.723,99.241 279.411,99.156 279.128,99.071C277.342,98.561 275.386,98.306 273.572,98.135C271.616,97.994 269.802,97.965 267.959,98.476C267.676,98.532 267.392,98.646 267.109,98.731C266.683,98.929 266.23,99.099 265.776,99.298L265.606,99.383Z" style="fill:rgb(242,182,98);"/>
                            <path d="M275.301,111.883C270.935,113.754 266.995,116.107 261.893,116.901C259.852,117.213 257.613,117.298 255.43,117.184C255.373,117.808 255.317,118.46 255.288,119.14C254.891,125.178 254.891,133.71 254.75,138.756C254.608,143.773 254.296,145.304 254.778,145.587C255.09,145.786 255.713,145.502 256.564,145.049C257.074,144.794 257.641,144.454 258.265,144.17C259.965,143.32 262.091,142.583 265.946,142.639C269.802,142.724 275.386,143.631 279.354,144.283C283.323,144.907 285.676,145.304 286.583,144.34C287.49,143.405 286.951,141.137 287.065,136.006C287.093,135.184 287.121,134.334 287.15,133.427C287.405,128.438 287.972,121.946 288.113,117.099C288.283,111.883 288,108.539 287.178,106.016C287.093,106.384 286.809,106.753 286.328,107.121C284.542,108.539 279.694,109.984 275.301,111.883Z" style="fill:rgb(244,185,95);"/>
                            <path d="M273.572,98.419C275.386,98.561 277.342,98.816 279.128,99.326C278.759,99.184 278.447,98.986 278.277,98.702C278.022,98.192 278.249,97.427 278.419,96.661C278.561,95.953 278.617,95.272 278.702,94.592C278.419,94.62 278.107,94.62 277.795,94.62C275.528,94.706 272.353,94.961 270.397,94.847C269.887,94.819 269.461,94.762 269.093,94.677C269.15,95.102 269.235,95.528 269.263,95.783C269.291,96.094 269.291,96.236 269.093,96.718C268.866,97.172 268.413,97.965 267.959,98.731C269.802,98.249 271.616,98.249 273.572,98.419Z" style="fill:rgb(236,161,138);stroke:rgb(236,161,138);stroke-width:0.22px;"/>
                            <path d="M270.397,94.847C272.353,94.961 275.528,94.706 277.795,94.62C278.107,94.62 278.419,94.62 278.702,94.592C280.403,94.564 281.509,94.564 282.444,94.252C283.55,93.912 284.428,93.118 284.91,92.154C285.392,91.191 285.506,90.057 285.477,88.271C285.392,86.485 285.165,84.076 284.825,82.063C284.457,80.079 283.975,78.491 283.266,77.499C282.557,76.507 281.65,76.139 280.828,75.118C280.006,74.098 279.241,72.425 277.143,71.49C275.046,70.554 271.616,70.328 268.98,70.951C266.343,71.603 264.529,73.106 263.31,74.75C262.091,76.365 261.439,78.094 260.447,79.682C259.483,81.269 258.151,82.715 257.783,84.047C257.443,85.408 258.038,86.655 258.293,87.619C258.52,88.583 258.406,89.263 259.37,90.255C260.334,91.247 262.375,92.58 263.849,93.231C265.294,93.855 266.173,93.827 266.967,94.054C267.534,94.195 268.072,94.507 269.093,94.677C269.461,94.762 269.887,94.819 270.397,94.847Z" style="fill:rgb(84,47,37);"/>
                            <path d="M287.858,117.099C287.717,121.946 287.15,128.438 286.894,133.427C287.972,136.602 289.049,139.776 291.26,140.712C293.471,141.647 296.787,140.372 299.395,139.38C302.003,138.416 303.902,137.735 302.939,135.609C302.003,133.483 298.233,129.94 295.087,124.781C291.94,119.594 289.446,112.819 286.923,106.016C287.745,108.539 288.028,111.883 287.858,117.099Z" style="fill:rgb(244,185,95);"/>
                            <path d="M286.583,144.34C285.676,145.304 283.323,144.907 279.354,144.283C275.386,143.631 269.802,142.724 265.946,142.639C262.091,142.583 259.965,143.32 258.265,144.17C257.641,144.454 257.074,144.794 256.564,145.049C253.247,173.906 249.931,202.762 248.343,225.694C246.784,248.627 246.926,265.635 247.72,274.11C247.918,276.378 248.202,278.022 248.485,279.213C249.307,282.529 250.441,282.501 251.773,282.472C253.587,282.416 255.77,282.416 256.989,281.48C257.131,281.367 257.272,281.225 257.414,281.055C258.265,279.836 258.605,276.803 259.965,264.387C261.524,250.157 264.387,223.54 266.995,207.383C269.121,194.202 271.077,188.022 272.353,184.195C276.406,211.493 280.46,238.791 282.926,255.288C285.392,271.757 286.299,277.427 288.085,280.233C288.907,281.509 289.899,282.189 290.92,282.501C292.167,282.898 293.471,282.784 294.605,282.586C295.597,282.387 296.476,282.132 297.071,280.743C297.694,279.298 298.006,276.605 297.808,271.474C297.439,261.411 295.172,241.994 293.584,221.953C291.997,201.912 291.09,181.276 290.013,168.236C288.964,155.197 287.773,149.783 286.583,144.34Z" style="fill:rgb(223,147,133);"/>
                            <path d="M244.346,134.589C244.772,133.569 245.083,132.35 245.14,130.932C245.225,129.515 245.083,127.899 244.431,126.822C243.78,125.745 242.646,125.206 241.795,125.49C240.917,125.773 240.321,126.879 239.698,127.984C239.726,128.353 239.754,128.721 239.783,129.09L240.066,132.435C240.18,133.767 240.293,135.099 240.435,136.375C240.463,136.545 240.463,136.743 240.491,136.942C241.257,137.055 242.022,137.169 242.674,136.8C243.326,136.46 243.893,135.609 244.346,134.589Z" style="fill:rgb(235,191,159);"/>
                            <path d="M236.891,143.235C235.701,144.992 234.539,145.899 231.704,145.389C228.898,144.879 224.447,142.951 219.26,141.307C214.072,139.663 208.176,138.302 204.094,136.743C200.013,135.156 197.773,133.37 195.506,131.613C195.477,135.439 195.619,139.039 195.789,142.328C196.072,147.402 196.356,151.767 196.016,154.828C195.676,157.89 194.712,159.647 193.72,161.518C193.096,162.737 192.444,164.041 192.387,164.976C192.359,165.458 192.501,165.883 192.926,166.11C193.691,166.507 195.335,166.337 197.83,165.827C199.191,165.543 200.806,165.146 202.677,164.693C207.921,163.417 215.121,161.603 221.357,160.611C227.594,159.647 232.894,159.477 236.665,159.704C237.997,159.789 239.131,159.931 240.094,160.044C241.852,160.243 243.014,160.413 243.553,160.214C244.375,159.874 243.78,158.57 242.901,154.12C242.164,150.378 241.257,144.425 240.491,136.942C240.463,136.743 240.463,136.545 240.435,136.375C239.244,138.926 238.054,141.506 236.891,143.235Z" style="fill:rgb(38,46,66);"/>
                            <path d="M196.016,154.828C196.356,151.767 196.072,147.402 195.789,142.328C195.619,139.039 195.477,135.439 195.506,131.613C195.506,131.414 195.506,131.216 195.506,131.046C195.052,131.754 194.598,132.463 193.408,132.888C192.217,133.313 190.346,133.427 188.674,133.852C187.002,134.306 185.584,135.043 184.762,136.913C183.94,138.784 183.77,141.789 182.721,145.134C181.672,148.507 179.802,152.249 176.06,153.78C172.346,155.31 166.791,154.63 163.984,152.844C161.15,151.087 161.093,148.195 160.753,145.899C160.441,143.603 159.874,141.846 157.89,140.542C156.671,139.72 154.942,139.068 153.439,138.217C153.241,140.372 152.929,142.611 151.88,145.587C150.775,148.734 148.819,152.702 147.77,156.076C147.685,156.331 147.628,156.557 147.543,156.813C146.58,160.328 146.75,163.106 146.863,164.75C146.948,166.394 146.948,166.904 149.131,166.11C150.973,165.458 154.346,163.871 158.457,163.162C159.25,163.02 160.101,162.907 160.951,162.85C166.195,162.482 172.261,163.899 177.109,164.778C181.956,165.657 185.528,166.054 187.88,165.997C190.233,165.94 191.31,165.458 192.387,164.976C192.444,164.041 193.096,162.737 193.72,161.518C194.712,159.647 195.676,157.89 196.016,154.828Z" style="fill:rgb(155,83,70);"/>
                            <path d="M192.387,164.976C191.31,165.458 190.233,165.94 187.88,165.997C185.528,166.054 181.956,165.657 177.109,164.778C172.261,163.899 166.195,162.482 160.951,162.85C160.101,162.907 159.25,163.02 158.457,163.162C156.586,180.142 154.715,197.15 152.844,209.367C150.945,221.556 149.074,228.983 148.394,232.469C147.713,235.928 148.224,235.474 150.321,234.283C152.079,233.235 154.97,231.676 158.315,231.222C158.91,231.137 159.534,231.08 160.129,231.08C163.332,231.08 166.819,232.271 170.362,233.575C171.411,233.943 172.431,234.34 173.48,234.737C175.635,235.502 177.761,236.211 179.83,236.721C182.183,237.317 184.422,237.685 186.406,237.6C190.091,237.458 192.869,235.786 195.619,234.113C196.157,222.18 196.157,218.381 196.441,208.375C196.724,198.34 197.263,182.098 197.83,165.827C195.335,166.337 193.691,166.507 192.926,166.11C192.501,165.883 192.359,165.458 192.387,164.976Z" style="fill:rgb(37,44,71);"/>
                            <path d="M197.83,165.827C197.263,182.098 196.724,198.34 196.441,208.375C196.157,218.381 196.157,222.18 195.619,234.113C195.109,246.076 194.031,266.173 193.521,276.917C193.38,279.751 193.266,281.934 193.238,283.606C193.124,288.312 193.521,289.134 195.024,289.531C196.129,289.814 197.802,289.871 199.446,289.474C200.863,289.134 202.28,288.454 203.272,287.348C205.37,284.91 205.54,280.375 206.589,270.113C207.638,259.824 209.622,243.808 211.89,228.756C214.157,213.704 216.737,199.644 218.466,192.614C220.195,185.584 221.102,185.584 221.414,189.524C221.726,193.436 221.414,201.317 222.406,218.92C223.37,236.551 225.638,263.906 227.537,277.654C229.436,291.43 230.939,291.572 233.291,291.203C235.616,290.806 238.791,289.899 240.463,282.954C242.135,276.009 242.277,262.998 241.739,244.488C241.228,225.95 240.009,201.912 239.613,186.917C239.244,171.921 239.669,165.969 240.094,160.044C239.131,159.931 237.997,159.789 236.665,159.704C232.894,159.477 227.594,159.647 221.357,160.611C215.121,161.603 207.921,163.417 202.677,164.693C200.806,165.146 199.191,165.543 197.83,165.827Z" style="fill:rgb(244,185,95);stroke:rgb(244,185,95);stroke-width:0.22px;"/>
                            <path d="M195.619,234.113C192.869,235.786 190.091,237.458 186.406,237.6C184.422,237.685 182.183,237.317 179.83,236.721C181.729,248.797 183.6,260.844 184.139,268.384C184.677,275.924 183.827,278.957 183.883,280.8C183.883,281.707 184.139,282.359 184.564,282.784C185.017,283.238 185.669,283.465 186.52,283.606C188.22,283.89 190.743,283.748 193.238,283.606C193.266,281.934 193.38,279.751 193.521,276.917C194.031,266.173 195.109,246.076 195.619,234.113Z" style="fill:rgb(239,200,165);"/>
                            <path d="M171.014,264.019C171.071,255.997 170.731,244.857 170.362,233.575C166.819,232.271 163.332,231.08 160.129,231.08C159.534,231.08 158.91,231.137 158.315,231.222C159.137,249.194 159.959,267.165 160.384,275.981C160.583,280.205 160.668,282.302 160.894,283.294C161.15,284.4 161.518,284.173 162.34,283.946C163.871,283.493 166.989,282.954 168.746,280.205C170.532,277.427 170.986,272.438 171.014,264.019Z" style="fill:rgb(239,200,165);"/>
                            <path d="M294.888,140.882C296.816,144.425 298.772,147.94 299.622,151.143C300.501,154.375 300.274,157.266 301.351,158.57C302.428,159.874 304.809,159.591 306.34,158.712C307.899,157.833 308.608,156.416 308.268,154.913C307.928,153.411 306.539,151.88 305.603,150.491C304.639,149.102 304.157,147.883 303.364,146.013C302.598,144.142 301.521,141.619 300.472,139.096" style="fill:none;stroke:rgb(236,161,138);stroke-width:0.57px;"/>
                            <path d="M294.888,140.627C296.816,144.142 298.772,147.685 299.622,150.888C300.501,154.091 300.274,157.011 301.351,158.315C302.428,159.619 304.809,159.307 306.34,158.457C307.899,157.578 308.608,156.132 308.268,154.658C307.928,153.156 306.539,151.597 305.603,150.236C304.639,148.847 304.157,147.628 303.364,145.757C302.598,143.887 301.521,141.364 300.472,138.841C300.189,138.926 299.934,139.039 299.65,139.124C298.176,139.691 296.476,140.343 294.888,140.627Z" style="fill:rgb(236,161,138);"/>
                            <path d="M148.025,156.076C149.074,152.702 151.03,148.734 152.135,145.587C153.184,142.611 153.496,140.372 153.694,138.217C152.759,137.65 151.909,137.027 151.37,136.233C149.953,134.135 150.576,130.876 150.917,128.324C151.285,125.773 151.398,123.931 151.03,122.91C150.831,122.287 150.435,121.975 149.754,121.606L135.921,149.584C133.143,155.197 133.143,155.197 135.099,154.97C137.083,154.743 140.995,154.29 143.717,154.602C145.616,154.8 146.891,155.395 148.025,156.076Z" style="fill:rgb(155,83,70);"/>
                            <path d="M143.461,154.602C142.696,159.392 141.931,164.211 140.627,167.641C139.351,171.071 137.537,173.112 136.772,175.266C136.035,177.42 136.318,179.688 138.302,180.794C140.258,181.871 143.887,181.814 145.729,180.85C147.6,179.915 147.657,178.101 147.402,176.485C147.146,174.841 146.523,173.424 146.778,171.723C147.005,170.022 148.082,168.066 149.131,166.11C146.948,166.904 146.948,166.394 146.863,164.75C146.75,163.106 146.58,160.328 147.543,156.813C147.628,156.557 147.685,156.331 147.77,156.104L147.77,156.076C146.636,155.395 145.361,154.8 143.461,154.602Z" style="fill:rgb(239,200,165);stroke:rgb(239,200,165);stroke-width:0.22px;"/>
                            <g>
                                <path d="M148.961,95.386L148.932,95.386C148.904,95.357 148.847,95.329 148.422,94.62C147.997,93.855 147.146,92.381 145.843,91.616C144.539,90.879 142.809,90.879 141.732,91.587C140.655,92.296 140.23,93.742 140.627,95.216C141.024,96.69 142.271,98.22 143.49,99.723C143.461,99.496 143.461,99.298 143.461,99.099C143.461,99.326 143.461,99.581 143.518,99.865L148.961,95.386ZM143.461,99.099L143.461,99.071C143.518,97.143 144.85,95.669 146.806,95.329C145.02,95.641 143.66,97.002 143.49,98.844C143.461,98.929 143.461,99.014 143.461,99.071L143.461,99.099Z" style="fill:rgb(235,191,159);"/>
                                <path id="_11" serif:id="1" d="M148.961,95.386L148.932,95.386C148.904,95.357 148.847,95.329 148.422,94.62C147.997,93.855 147.146,92.381 145.843,91.616C144.539,90.879 142.809,90.879 141.732,91.587C140.655,92.296 140.23,93.742 140.627,95.216C141.024,96.69 142.271,98.22 143.49,99.723C143.461,99.496 143.461,99.298 143.461,99.099C143.461,99.326 143.461,99.581 143.518,99.865M143.461,99.099L143.461,99.071C143.518,97.143 144.85,95.669 146.806,95.329C145.02,95.641 143.66,97.002 143.49,98.844C143.461,98.929 143.461,99.014 143.461,99.071L143.461,99.099Z" style="fill:none;stroke:rgb(235,191,159);stroke-width:0.22px;"/>
                            </g>
                            <path d="M143.178,99.553L148.649,95.074C148.762,95.102 148.904,95.102 149.046,95.131C150.265,95.386 151.654,95.839 153.298,96.321C153.326,96.321 153.326,96.321 153.354,96.35L153.383,96.35C155.055,96.86 156.983,97.398 159.392,97.965C159.534,97.994 159.676,98.022 159.817,98.05C159.987,98.079 160.129,98.107 160.271,98.164C161.178,98.362 162.17,98.561 163.219,98.787L163.247,98.787C163.956,98.929 164.721,99.071 165.487,99.213C164.721,99.071 163.956,98.929 163.247,98.787L163.219,98.787C162.227,98.589 161.235,98.362 160.271,98.135C160.271,98.107 160.271,98.107 160.299,98.079L188.901,99.751C188.929,99.78 188.929,99.836 188.929,99.865C187.625,100.233 186.208,100.517 184.649,100.687C184.62,100.687 184.592,100.715 184.564,100.715C184.507,100.715 184.422,100.715 184.365,100.715C184.422,100.715 184.507,100.715 184.564,100.715C184.592,100.715 184.62,100.687 184.649,100.687C186.86,100.46 188.674,100.006 190.318,99.468C193.039,98.617 195.335,97.569 197.49,96.917C201.061,95.868 204.35,95.953 207.609,96.066C201.912,97.654 200.324,101.509 198.964,106.838C198.34,109.304 197.745,112.082 197.263,114.973C189.581,114.548 181.899,114.123 175.805,113.528C169.739,112.932 165.26,112.167 160.384,110.75C155.509,109.304 150.236,107.178 147.09,104.967C144.595,103.181 143.405,101.225 143.178,99.553Z" style="fill:rgb(38,46,66);"/>
                            <path d="M160.271,98.22L188.872,99.95C188.391,97.398 187.909,94.876 187.654,92.324C187.398,89.688 187.342,87.052 186.888,84.302C186.406,81.524 185.499,78.661 183.997,76.422C182.466,74.211 180.369,72.624 177.732,72.113C175.096,71.631 171.978,72.227 169.512,73.162C167.046,74.098 165.288,75.345 163.984,77.386C162.68,79.427 161.83,82.261 161.49,85.209C161.121,88.157 161.235,91.219 161.093,93.43C160.98,95.556 160.639,96.888 160.271,98.22Z" style="fill:rgb(255,223,176);"/>
                            <path d="M218.409,126.198C211.153,124.724 203.811,121.578 196.469,118.431C196.157,120.728 195.931,123.024 195.761,125.235C195.619,127.219 195.534,129.175 195.506,131.046C195.506,131.216 195.506,131.414 195.506,131.613C197.773,133.37 200.013,135.156 204.094,136.743C208.176,138.302 214.072,139.663 219.26,141.307C224.447,142.951 228.898,144.879 231.704,145.389C234.539,145.899 235.701,144.992 236.891,143.235C238.054,141.506 239.244,138.926 240.435,136.375C240.293,135.099 240.18,133.767 240.066,132.435C239.981,131.329 239.868,130.224 239.783,129.09C239.754,128.721 239.726,128.353 239.698,127.984C239.698,127.757 239.669,127.531 239.669,127.332C233.858,127.474 228.047,127.587 222.18,126.822C220.932,126.68 219.685,126.454 218.409,126.198Z" style="fill:rgb(155,83,70);stroke:rgb(155,83,70);stroke-width:0.22px;"/>
                        </g>
                    </g>
                </g>
            </g>
        </g>
    </g>
</svg>
