<?xml version="1.0" encoding="UTF-8" standalone="no"?>
<!DOCTYPE svg PUBLIC "-//W3C//DTD SVG 1.1//EN" "http://www.w3.org/Graphics/SVG/1.1/DTD/svg11.dtd">
<svg width="100%" height="100%" viewBox="0 0 1336 1117" version="1.1" xmlns="http://www.w3.org/2000/svg" xmlns:xlink="http://www.w3.org/1999/xlink" xml:space="preserve" xmlns:serif="http://www.serif.com/" style="fill-rule:evenodd;clip-rule:evenodd;">
    <g transform="matrix(1,0,0,1,-4857.7,-1471)">
        <g transform="matrix(0.90671,0,0,0.944863,545.988,65.0438)">
            <rect x="4755.34" y="1488" width="1472.66" height="1182" style="fill:none;"/>
            <clipPath id="_clip1">
                <rect x="4755.34" y="1488" width="1472.66" height="1182"/>
            </clipPath>
            <g clip-path="url(#_clip1)">
                <g transform="matrix(1.10289,0,0,1.05835,-602.164,-68.8394)">
                    <path d="M4969,1910C5024.92,1869.17 5085.01,1831.37 5149.46,1805.38C5180.11,1793.03 5214.51,1780.88 5248.21,1782.31C5332.33,1785.91 5413.63,1832.07 5498.38,1811.22C5562.61,1795.42 5620.73,1760.05 5680.14,1732.27C5710.86,1717.91 5742.5,1703.31 5775.85,1696.07C5819.38,1686.62 5866.09,1691.5 5908.66,1703.23C5955.98,1716.27 6000.9,1738.98 6039.09,1769.85C6073.56,1797.72 6103.93,1831.19 6129.66,1867.23C6147.81,1892.65 6164.21,1920 6175.33,1949.31C6192.36,1994.22 6195.59,2043.44 6191.23,2090.92C6183.4,2176.18 6149.86,2258.89 6094.41,2324.36C6073.69,2348.83 6049.83,2369.32 6024.38,2388.74C5939.34,2453.61 5842.38,2509.83 5740,2542C5628.37,2577.08 5507.35,2587.83 5390.82,2587.83C5288.96,2587.83 5179.85,2577.88 5086.9,2532.92C5020.72,2500.9 4966.57,2446.62 4925.09,2386.69C4899.04,2349.06 4876.32,2307.32 4866.11,2262.36C4855.79,2216.91 4856.29,2169.13 4860.6,2122.99C4863.97,2086.95 4868.18,2049.16 4881.22,2015.21C4897.8,1972.07 4932.3,1936.8 4969,1910" style="fill:rgb(255,255,227);"/>
                    <clipPath id="_clip2">
                        <path d="M4969,1910C5024.92,1869.17 5085.01,1831.37 5149.46,1805.38C5180.11,1793.03 5214.51,1780.88 5248.21,1782.31C5332.33,1785.91 5413.63,1832.07 5498.38,1811.22C5562.61,1795.42 5620.73,1760.05 5680.14,1732.27C5710.86,1717.91 5742.5,1703.31 5775.85,1696.07C5819.38,1686.62 5866.09,1691.5 5908.66,1703.23C5955.98,1716.27 6000.9,1738.98 6039.09,1769.85C6073.56,1797.72 6103.93,1831.19 6129.66,1867.23C6147.81,1892.65 6164.21,1920 6175.33,1949.31C6192.36,1994.22 6195.59,2043.44 6191.23,2090.92C6183.4,2176.18 6149.86,2258.89 6094.41,2324.36C6073.69,2348.83 6049.83,2369.32 6024.38,2388.74C5939.34,2453.61 5842.38,2509.83 5740,2542C5628.37,2577.08 5507.35,2587.83 5390.82,2587.83C5288.96,2587.83 5179.85,2577.88 5086.9,2532.92C5020.72,2500.9 4966.57,2446.62 4925.09,2386.69C4899.04,2349.06 4876.32,2307.32 4866.11,2262.36C4855.79,2216.91 4856.29,2169.13 4860.6,2122.99C4863.97,2086.95 4868.18,2049.16 4881.22,2015.21C4897.8,1972.07 4932.3,1936.8 4969,1910"/>
                    </clipPath>

                    <g clip-path="url(#_clip2)">
                        <path d="M5525.34,2082L6090,1616.5L6270,1923L5525.34,2082Z" style="fill:rgb(255,246,190);"/>
                        <path d="M5525.34,2082L5944,2624.5L6228,2376L5525.34,2082Z" style="fill:rgb(255,246,190);"/>
                        <path d="M5525.34,2082L5525.34,2714.5L5229,2678L5525.34,2082Z" style="fill:rgb(255,246,190);"/>
                        <path d="M5525.34,2082L4755.34,2330.5L4922,2587.83L5525.34,2082Z" style="fill:rgb(255,246,190);"/>
                        <path d="M5525.34,2082L4812.34,2008.5L4916,1790.83L5525.34,2082Z" style="fill:rgb(255,246,190);"/>
                        <path d="M5525.34,2082L5408.34,1679.5L5167,1716.83L5525.34,2082Z" style="fill:rgb(255,246,190);"/>
                        <path d="M5525.34,2082L5622.34,1679.5L5760,1679.5L5525.34,2082Z" style="fill:rgb(255,246,190);"/>
                        <g transform="matrix(5.15885,0,0,5.15885,5458.12,2279.96)">
                            <g transform="matrix(1,0,0,1,-226.772,-170.079)">
                                <g id="Layer_x0020_1">
                                    <path d="M192.926,191.82L201.487,195.307C198.935,201.515 198.255,207.95 199.559,213.761C200.863,219.572 204.151,224.759 209.169,233.461C214.214,242.135 221.017,254.324 227.82,266.485L227.877,265.975L227.707,265.691L228.019,262.12L228.189,262.233L228.189,262.176C223.88,246.699 219.685,231.42 218.211,221.783C216.709,211.748 218.154,207.836 223.824,202.28C224.22,201.883 224.646,201.487 225.071,201.09C229.323,197.121 235.446,192.472 242.022,187.597C242.192,187.483 242.362,187.342 242.532,187.228C241.625,186.293 240.661,185.471 239.641,184.762C232.526,179.802 222.746,180.198 214.328,182.154C212.117,182.665 209.991,183.317 207.978,183.883C207.751,184.195 207.524,184.507 207.326,184.847C202.706,186.151 198.68,187.143 195.477,185.868C194.598,187.795 193.748,189.751 192.926,191.82Z" style="fill:rgb(240,133,25);"/>
                                    <path d="M208.431,184.734C210.444,184.139 212.57,183.515 214.781,183.005C223.2,181.02 232.98,180.624 240.094,185.613C241.115,186.321 242.079,187.143 242.986,188.05C248.485,193.55 252.255,202.394 256.054,211.238C257.698,210.246 258.917,208.346 260.05,205.455C262.375,199.531 264.331,189.411 265.465,178.98C266.598,168.548 266.939,157.776 263.565,147.26C260.22,136.715 253.219,126.454 246.189,116.164C245.82,116.561 245.282,116.844 244.29,117.099C241.71,117.751 236.183,118.148 230.655,118.573C215.546,128.041 200.438,137.537 189.921,143.66C180.51,149.102 174.784,151.909 172.517,156.189C176.202,157.55 179.858,158.939 182.976,163.672C183.288,164.154 183.572,164.636 183.883,165.175C187.172,171.156 189.723,181.616 194.513,185.074C194.967,185.386 195.449,185.669 195.959,185.868C199.304,187.285 203.528,186.151 208.431,184.734Z" style="fill:url(#_Linear3);"/>
                                    <path d="M176.145,178.894C178.157,173.424 180.652,168.576 183.203,163.871C180.113,159.137 176.428,157.748 172.772,156.387C172.488,156.898 172.261,157.436 172.091,158.003C170.532,163.304 173.339,171.099 176.145,178.894Z" style="fill:rgb(240,133,25);stroke:rgb(240,133,25);stroke-width:0.57px;"/>
                                    <path d="M207.893,184.819C205.313,188.589 202.989,192.387 201.402,196.243C198.85,202.45 198.17,208.885 199.474,214.696C200.778,220.507 204.066,225.723 209.112,234.397C214.129,243.099 220.932,255.26 227.735,267.449L228.047,263.877L228.132,263.112C223.795,247.635 219.6,232.356 218.154,222.718C216.624,212.712 218.098,208.772 223.767,203.216C224.164,202.819 224.561,202.45 224.986,202.025C229.38,197.972 235.672,193.153 242.476,188.164C241.54,187.257 240.576,186.435 239.556,185.698C232.469,180.737 222.661,181.134 214.243,183.118C212.031,183.628 209.906,184.252 207.893,184.819Z" style="fill:rgb(255,217,191);stroke:rgb(255,217,191);stroke-width:0.57px;"/>
                                    <path d="M243.071,188.249C236.296,193.238 229.975,198.057 225.609,202.11C234.567,206.419 243.383,210.557 249.137,211.89C252.227,212.598 254.409,212.485 256.139,211.436C252.34,202.592 248.57,193.72 243.071,188.249Z" style="fill:rgb(240,133,25);stroke:rgb(240,133,25);stroke-width:0.57px;"/>
                                    <path d="M268.129,80.192L261.213,99.723C258.917,101.424 256.734,103.181 254.75,105.052C251.235,108.369 248.372,112.082 247.153,114.378C246.387,115.795 246.246,116.674 245.65,117.298C245.282,117.694 244.743,117.978 243.751,118.233C241.172,118.885 235.644,119.31 230.117,119.707C230.882,115.795 231.647,111.883 231.817,110.013C231.987,108.142 231.562,108.34 227.991,108.68C224.447,109.02 217.786,109.531 212.202,107.461C206.617,105.364 202.139,100.687 199.332,95.613C196.498,90.539 195.335,85.096 195.08,82.035C194.825,78.973 195.477,78.293 196.328,77.669C197.178,77.017 198.227,76.422 199.304,75.855C201.402,79.398 203.528,82.97 205.512,85.55C207.496,88.129 209.367,89.717 212.91,90.312C216.425,90.935 221.613,90.51 225.213,90.17C228.813,89.802 230.882,89.49 234.595,85.294C234.652,85.238 234.709,85.153 234.794,85.068C238.479,80.816 243.723,72.935 247.011,69.08C250.328,65.169 251.603,65.424 252.85,65.679C253.757,65.991 255.6,66.529 256.535,66.756C256.592,68.882 256.677,70.98 256.819,72.709C256.961,74.438 257.187,75.798 258.123,77.131C259.058,78.435 260.731,79.682 262.261,80.306C263.764,80.957 265.124,80.957 266.712,80.617C267.165,80.532 267.647,80.391 268.129,80.192Z" style="fill:url(#_Linear4);"/>
                                    <path d="M217.276,72.085C218.069,73.134 219.26,74.154 220.422,75.175C221.244,74.523 223.002,73.219 224.249,73.02C223.03,70.441 221.811,67.833 220.479,66.841C219.146,65.849 217.672,66.472 216.85,67.096C216.028,67.691 215.802,68.315 215.915,69.165C216.028,69.987 216.482,71.065 217.276,72.085Z" style="fill:rgb(255,217,191);stroke:rgb(255,217,191);stroke-width:0.57px;"/>
                                    <path d="M232.101,88.413C235.814,84.161 241.058,76.28 244.318,72.425C247.663,68.513 248.91,68.769 250.186,69.024C249.307,68.683 249.364,68.598 249.704,68.031L251.461,65.282C252.227,64.091 253.134,62.702 253.191,61.625C253.276,60.548 252.51,59.754 251.972,58.422C251.433,57.118 251.121,55.276 251.178,53.745C251.235,52.243 251.631,51.109 253.106,49.436C254.608,47.764 257.159,45.609 258.491,44.589C259.824,43.597 259.965,43.795 259.994,44.391C260.05,44.957 260.022,45.978 260.022,47.169C260.022,48.331 260.05,49.72 260.164,50.967C260.277,52.243 260.476,53.405 260.702,54.255C260.929,55.077 261.213,55.587 261.921,55.814C262.602,56.069 263.735,56.041 264.529,56.041C265.351,56.041 265.861,56.098 266.003,56.523C266.117,56.948 265.861,57.742 265.436,58.195C265.039,58.649 264.501,58.734 263.707,59.159C262.942,59.556 261.921,60.293 260.759,61.427C259.569,62.532 258.236,64.035 257.244,65.594C256.224,67.124 255.515,68.712 255.146,69.506C254.806,70.328 254.778,70.356 253.871,70.101C253.928,72.198 254.013,74.324 254.154,76.054C254.296,77.783 254.494,79.143 255.458,80.447C256.394,81.78 258.066,83.027 259.569,83.65C261.099,84.274 262.46,84.302 264.047,83.962C265.635,83.622 267.449,82.913 269.717,80.22C271.984,77.528 274.677,72.822 276.123,69.08C277.569,65.31 277.739,62.504 277.257,59.102C276.746,55.701 275.584,51.676 273.713,49.38C271.843,47.083 269.235,46.488 267.987,45.609C266.74,44.759 266.825,43.597 264.869,42.293C262.913,40.989 258.917,39.515 255.458,38.721C252,37.956 249.052,37.871 246.813,39.373C244.573,40.876 243.014,43.965 242.617,46.998C242.22,50.031 242.986,53.036 242.476,55.162C241.965,57.288 240.18,58.535 237.6,60.094C235.049,61.682 231.676,63.553 228.898,64.857C226.12,66.132 223.909,66.841 223.54,69.024C223.172,71.206 224.646,74.92 226.46,78.548C228.132,81.865 230.117,85.153 232.101,88.413Z" style="fill:url(#_Linear5);stroke:rgb(106,82,158);stroke-width:0.57px;"/>
                                    <path d="M249.619,68.031C249.25,68.57 249.194,68.683 250.101,68.995C250.98,69.307 252.822,69.846 253.757,70.101C254.693,70.328 254.693,70.299 255.061,69.506C255.402,68.683 256.11,67.096 257.131,65.565C258.151,64.035 259.483,62.532 260.646,61.398C261.836,60.293 262.828,59.556 263.622,59.131C264.387,58.706 264.926,58.62 265.351,58.167C265.748,57.713 266.003,56.92 265.89,56.494C265.776,56.069 265.266,56.041 264.444,56.013C263.622,56.013 262.517,56.041 261.808,55.814C261.128,55.559 260.844,55.077 260.589,54.227C260.362,53.405 260.164,52.214 260.05,50.967C259.937,49.691 259.937,48.331 259.937,47.14C259.937,45.95 259.937,44.957 259.909,44.362C259.852,43.767 259.739,43.597 258.406,44.589C257.046,45.581 254.494,47.764 253.02,49.408C251.546,51.08 251.121,52.243 251.093,53.745C251.036,55.247 251.348,57.09 251.858,58.422C252.397,59.726 253.162,60.52 253.106,61.597C253.049,62.674 252.142,64.063 251.376,65.254L249.619,68.031Z" style="fill:url(#_Linear6);"/>
                                    <path d="M186.661,220.309C188.192,204.973 191.962,195.307 196.016,186.406C195.534,186.18 195.052,185.924 194.598,185.584C189.78,182.154 187.228,171.694 183.94,165.713C183.657,165.175 183.345,164.693 183.061,164.211C180.482,168.917 177.987,173.764 176.003,179.235C173.339,186.52 171.553,194.939 171.581,205.795C171.638,226.573 178.299,256.28 184.989,285.987L187.087,286.441C185.953,261.893 184.904,237.515 186.661,220.309Z" style="fill:rgb(255,217,191);stroke:rgb(255,217,191);stroke-width:0.57px;"/>
                                    <path d="M196.243,78.321C197.093,77.669 198.142,77.102 199.191,76.507C198.737,74.608 198.283,72.737 197.717,71.887C197.15,71.008 196.441,71.178 195.732,71.263C195.024,71.376 194.258,71.405 193.805,72C193.323,72.567 193.124,73.701 193.72,75.487C194.06,76.535 194.655,77.811 195.364,79.2C195.591,78.803 195.902,78.548 196.243,78.321Z" style="fill:rgb(255,217,191);stroke:rgb(255,217,191);stroke-width:0.57px;"/>
                                    <path d="M263.339,115.965C262.375,113.329 262.233,113.357 263.055,112.706C261.893,111.685 260.702,110.665 259.909,109.644C259.115,108.595 258.661,107.546 258.548,106.696C258.435,105.846 258.661,105.25 259.483,104.627C260.306,104.003 261.78,103.38 263.112,104.372C264.444,105.364 265.663,107.972 266.882,110.58L266.91,110.58C266.598,107.575 266.485,104.854 266.485,102.217C265.465,100.942 264.302,99.723 263.14,98.504C260.192,100.63 257.329,102.813 254.835,105.194C251.32,108.482 248.457,112.195 247.238,114.491C246.472,115.909 246.331,116.816 245.735,117.439C252.765,127.701 259.767,137.991 263.112,148.507C266.485,159.024 266.145,169.795 265.011,180.255C264.501,184.876 263.849,189.468 263.055,193.635C264.529,194.287 266.031,194.91 268.186,193.975C270.113,193.153 272.551,191.112 275.301,189.865C278.901,180.964 282.104,171.836 284.882,162.454C280.261,151.88 274.649,139.266 271.219,129.118C270.482,128.551 269.802,127.928 269.178,127.219C266.145,123.817 264.302,118.573 263.339,115.965Z" style="fill:rgb(205,81,84);stroke:rgb(205,81,84);stroke-width:0.57px;"/>
                                    <path d="M284.683,162.794C281.934,172.176 278.731,181.332 275.102,190.233C275.471,190.063 275.839,189.921 276.208,189.808C279.383,188.702 282.926,188.986 286.016,189.808C289.134,190.63 291.798,191.962 293.131,190.857C294.435,189.751 294.435,186.151 289.616,174.302C288.283,171.014 286.583,167.074 284.683,162.794Z" style="fill:rgb(205,81,84);stroke:rgb(205,81,84);stroke-width:0.57px;"/>
                                    <path d="M224.079,109.247C201.231,115.569 178.526,121.833 164.58,125.206C150.406,128.665 145.276,129.175 146.721,132.35C148.167,135.496 156.132,141.335 159.931,145.587C163.729,149.811 163.304,152.419 164.551,154.46C165.742,156.444 168.463,157.861 171.213,159.279L171.241,159.25C171.411,158.683 171.609,158.145 171.893,157.606C174.132,153.326 179.887,150.548 189.269,145.077C199.814,138.954 214.923,129.487 230.031,120.019C230.797,116.107 231.562,112.167 231.704,110.324C231.874,108.454 231.449,108.624 227.906,108.964C226.857,109.077 225.553,109.191 224.079,109.247Z" style="fill:rgb(205,81,84);stroke:rgb(205,81,84);stroke-width:0.57px;"/>
                                    <ellipse cx="254.778" cy="51.024" rx="0.369" ry="0.935" style="fill:rgb(84,59,48);stroke:rgb(84,59,48);stroke-width:0.57px;"/>
                                    <ellipse cx="260.617" cy="52.243" rx="0.369" ry="0.935" style="fill:rgb(84,59,48);stroke:rgb(84,59,48);stroke-width:0.57px;"/>
                                    <path d="M254.041,48.331C254.324,48.217 254.58,48.104 254.863,48.104C255.146,48.104 255.402,48.189 255.6,48.387C255.77,48.557 255.855,48.869 255.912,49.153" style="fill:none;stroke:rgb(51,44,43);stroke-width:0.57px;"/>
                                    <path d="M259.824,50.202C260.135,49.975 260.419,49.748 260.731,49.635C261.043,49.55 261.354,49.606 261.638,49.805C261.95,50.031 262.205,50.372 262.488,50.74" style="fill:none;stroke:rgb(51,44,43);stroke-width:0.57px;"/>
                                    <g transform="matrix(0.60867,0.16197,-0.16197,0.60867,253.611,52.1966)">
                                        <ellipse cx="0" cy="0" rx="1.417" ry="0.539" style="fill:rgb(236,110,112);stroke:rgb(236,110,112);stroke-width:0.57px;"/>
                                    </g>
                                    <g transform="matrix(0.60867,0.16197,-0.16197,0.60867,261.937,54.1057)">
                                        <ellipse cx="0" cy="0" rx="1.417" ry="0.539" style="fill:rgb(236,110,112);stroke:rgb(236,110,112);stroke-width:0.57px;"/>
                                    </g>
                                    <path d="M255.402,53.858C256.167,53.887 257.811,54.198 258.605,54.34C259.427,54.51 259.427,54.482 258.973,55.02C258.548,55.559 257.641,56.665 256.932,57.09C256.195,57.515 255.657,57.26 255.317,56.976C254.976,56.693 254.863,56.353 254.806,56.069C254.778,55.786 254.806,55.531 254.835,55.247C254.835,54.964 254.835,54.68 254.806,54.397C254.75,54.113 254.636,53.83 255.402,53.858Z" style="fill:rgb(236,110,112);"/>
                                    <path d="M254.835,54.822C255.118,54.935 255.402,55.02 255.855,55.02C256.422,55.02 257.216,54.907 257.811,54.794C258.406,54.68 258.831,54.595 259.228,54.51C259.143,54.454 258.945,54.425 258.605,54.34C257.811,54.198 256.167,53.887 255.402,53.858C254.636,53.83 254.75,54.113 254.806,54.397C254.806,54.539 254.835,54.68 254.835,54.822Z" style="fill:rgb(254,254,254);"/>
                                    <g id="_923873792">
                                        <g transform="matrix(0.179408,0.0652308,-0.0652308,0.179408,208.935,53.4969)">
                                            <rect x="0" y="0" width="25.2" height="64.063" style="fill:rgb(251,171,66);stroke:rgb(251,171,66);stroke-width:0.57px;"/>
                                        </g>
                                        <g transform="matrix(0.177176,0.0710705,-0.0710705,0.177176,200.425,62.7335)">
                                            <rect x="0" y="0" width="75.005" height="18.992" style="fill:rgb(251,171,66);stroke:rgb(251,171,66);stroke-width:0.57px;"/>
                                        </g>
                                        <path d="M197.49,64.942L214.214,71.66L213.052,74.58L196.299,67.861L197.49,64.942Z" style="fill:url(#_Linear7);stroke:rgb(251,171,66);stroke-width:0.57px;"/>
                                        <path d="M216.369,38.239L216.652,42.406L220.876,43.569L216.822,45.043L217.077,49.238L214.271,45.95L210.217,47.367L212.513,43.88L209.792,40.564L214.016,41.698L216.369,38.239Z" style="fill:none;stroke:rgb(51,44,43);stroke-width:0.57px;"/>
                                        <path d="M214.271,45.95L210.189,47.367L212.513,43.88L209.764,40.564L213.987,41.669L216.369,38.211L216.652,42.406L220.876,43.569L216.822,45.043L217.049,49.238L214.271,45.95ZM206.731,33.477C206.504,34.271 206.249,35.093 206.022,35.858C205.427,37.956 204.86,39.883 204.463,41.499C204.009,43.342 203.726,44.731 203.698,46.035C203.698,46.63 203.726,47.225 203.811,47.82C203.839,48.104 203.924,48.416 203.981,48.728C204.35,50.343 205.058,51.959 205.909,53.093C206.617,54.057 207.411,54.709 208.318,55.191C208.715,55.389 209.112,55.587 209.565,55.757C210.586,56.154 211.748,56.466 212.882,56.693C213.307,56.778 213.732,56.863 214.129,56.92C215.631,57.146 216.964,57.175 218.494,56.353C218.92,56.154 219.345,55.871 219.77,55.531C220.28,55.106 220.819,54.595 221.357,53.943C222.038,53.121 222.746,52.101 223.427,50.825C224.532,48.784 225.638,46.12 226.715,43.257C227.027,42.435 227.339,41.584 227.65,40.734C227.877,40.167 228.076,39.6 228.274,39.005C227.991,39.09 227.65,39.09 227.339,38.976L207.694,32.06C207.524,32.003 207.383,31.918 207.241,31.805C207.071,32.372 206.901,32.91 206.731,33.477Z" style="fill:url(#_Linear8);"/>
                                        <path d="M207.78,32.117L227.395,39.033C227.707,39.146 228.047,39.146 228.359,39.061C228.841,38.948 229.266,38.58 229.465,38.041L229.578,37.701C229.89,36.85 229.436,35.915 228.586,35.631L208.97,28.715C208.12,28.403 207.184,28.857 206.901,29.707L206.787,30.047C206.532,30.728 206.759,31.436 207.298,31.861C207.439,31.975 207.581,32.06 207.78,32.117Z" style="fill:rgb(255,145,0);stroke:rgb(255,145,0);stroke-width:0.22px;"/>
                                        <path d="M206.022,35.858C206.277,35.093 206.504,34.299 206.731,33.477C205.739,33.165 204.746,32.854 204.009,32.74C203.272,32.598 202.762,32.683 202.365,33.024C201.94,33.364 201.6,33.987 201.061,35.461C200.494,36.964 199.729,39.345 199.559,41.017C199.389,42.69 199.871,43.625 200.693,44.787C201.543,45.95 202.762,47.339 203.981,48.728C203.924,48.416 203.868,48.104 203.811,47.82C203.726,47.225 203.698,46.63 203.698,46.035C202.876,44.957 202.025,43.88 201.6,43.115C201.175,42.35 201.175,41.924 201.458,40.847C201.742,39.77 202.309,38.041 202.762,36.992C203.244,35.943 203.641,35.575 204.18,35.49C204.718,35.433 205.37,35.631 206.022,35.858Z" style="fill:url(#_Linear9);"/>
                                        <path d="M227.679,40.734C227.367,41.584 227.055,42.435 226.743,43.257C227.537,43.455 228.302,43.682 228.784,43.88C229.266,44.107 229.408,44.306 229.181,45.468C228.954,46.63 228.302,48.728 227.537,50.258C226.743,51.789 225.836,52.724 224.787,53.263C223.71,53.773 222.548,53.858 221.357,53.943C220.819,54.595 220.28,55.106 219.77,55.531C221.471,55.559 223.172,55.587 224.391,55.474C225.609,55.332 226.375,55.02 227.055,54.652C227.707,54.283 228.274,53.83 229.153,51.902C230.031,50.003 231.222,46.602 231.591,44.702C231.959,42.803 231.449,42.406 230.655,41.981C229.861,41.556 228.756,41.159 227.679,40.734Z" style="fill:url(#_Linear10);"/>
                                        <path d="M220.876,43.569L216.652,42.406L216.369,38.239L214.016,41.698L209.792,40.564L212.513,43.88L210.217,47.367L214.271,45.95L217.077,49.238L216.822,45.043L220.876,43.569Z" style="fill:rgb(254,254,254);stroke:rgb(254,254,254);stroke-width:0.22px;"/>
                                    </g>
                                    <path d="M229.209,88.413C227.282,88.668 225.383,88.923 222.576,89.036C219.742,89.15 216.028,89.065 212.06,86.655C208.063,84.246 203.839,79.483 201.458,77.244C199.106,75.005 198.595,75.288 197.575,76.11C196.554,76.932 194.995,78.293 195.165,81.298C195.364,84.302 197.235,88.923 199.162,92.551C201.09,96.208 203.074,98.872 205.682,101.254C208.261,103.635 211.493,105.761 215.575,106.781C219.628,107.802 224.532,107.773 227.452,107.943C230.343,108.085 231.222,108.482 231.392,110.296C231.562,112.11 230.995,115.342 230.712,117.014C230.4,118.687 230.372,118.772 231.676,119.027C232.951,119.31 235.559,119.735 238.28,119.452C241.002,119.169 243.836,118.205 245.877,116.334C247.89,114.491 249.08,111.798 250.668,109.616C252.227,107.433 254.154,105.761 256.11,104.088C251.546,103.238 246.671,101.48 242.249,98.929C237.175,96.009 232.696,92.041 229.209,88.413Z" style="fill:url(#_Linear11);"/>
                                    <path d="M229.209,88.413C232.696,92.041 236.721,97.03 242.249,98.929C254.239,103.039 259.682,102.643 268.413,89.66C271.587,84.954 270.992,81.043 269.745,75.827C266.995,64.148 255.515,84.983 247.521,83.169C245.622,82.743 232.98,76.224 231.534,75.26C230.088,74.324 229.408,73.843 228.274,72.17C227.112,70.498 225.496,69.194 224.362,68.882C223.228,68.57 222.605,69.25 221.953,70.498C221.329,71.745 220.706,73.587 220.479,75.118C220.224,76.62 220.394,77.839 223.824,82.233C225.156,83.934 226.97,86.088 229.209,88.413Z" style="fill:url(#_Linear12);"/>
                                    <path d="M271.729,127.049C270.567,121.011 268.611,112.167 266.485,102.671C266.513,105.165 266.598,107.745 266.91,110.58L266.882,110.58C265.663,107.972 264.444,105.364 263.112,104.372C261.78,103.38 260.306,104.003 259.483,104.627C258.661,105.25 258.435,105.846 258.548,106.696C258.661,107.546 259.115,108.595 259.909,109.644C260.702,110.665 261.893,111.685 263.055,112.706C262.233,113.357 262.375,113.329 263.339,115.965C264.302,118.573 266.145,123.817 269.178,127.219C269.802,127.928 270.482,128.551 271.219,129.118C271.757,130.734 272.353,132.378 272.976,134.107C272.693,132.236 272.324,129.997 271.729,127.049Z" style="fill:rgb(205,81,84);"/>
                                    <path d="M263.14,98.504C264.246,99.666 265.38,100.857 266.372,102.047C265.805,99.609 265.266,97.143 264.699,94.649C263.792,95.726 262.913,96.661 262.035,97.455L261.213,99.723C259.342,101.112 257.528,102.529 255.855,104.031C255.912,104.06 255.969,104.06 256.025,104.088C258.236,102.132 260.646,100.29 263.14,98.504Z" style="fill:rgb(205,81,84);stroke:rgb(205,81,84);stroke-width:0.22px;"/>
                                    <path d="M191.537,41.868L191.934,43.058L193.181,43.058L192.189,43.824L192.557,45.014L191.537,44.277L190.517,45.014L190.885,43.824L189.893,43.058L191.14,43.058L191.537,41.868Z" style="fill:rgb(205,81,84);stroke:rgb(205,81,84);stroke-width:0.57px;"/>
                                    <path d="M233.49,25.115L233.943,26.419L235.304,26.419L234.198,27.241L234.624,28.545L233.49,27.751L232.384,28.545L232.809,27.241L231.704,26.419L233.065,26.419L233.49,25.115Z" style="fill:rgb(255,145,0);stroke:rgb(255,145,0);stroke-width:0.57px;"/>
                                    <path d="M222.406,61.965L222.746,62.986L223.824,62.986L222.945,63.638L223.285,64.658L222.406,64.035L221.528,64.658L221.839,63.638L220.989,62.986L222.066,62.986L222.406,61.965Z" style="fill:rgb(255,247,92);stroke:rgb(255,247,92);stroke-width:0.57px;"/>
                                    <path d="M206.022,15.052L206.702,17.036L208.8,17.065L207.099,18.312L207.751,20.296L206.022,19.077L204.321,20.296L204.945,18.312L203.244,17.065L205.37,17.036L206.022,15.052Z" style="fill:rgb(255,247,92);stroke:rgb(255,247,92);stroke-width:0.57px;"/>
                                    <path d="M193.436,60.548L193.975,62.22L195.761,62.22L194.343,63.269L194.854,64.97L193.436,63.921L191.991,64.97L192.529,63.269L191.112,62.22L192.869,62.22L193.436,60.548Z" style="fill:rgb(255,247,92);stroke:rgb(255,247,92);stroke-width:0.57px;"/>
                                </g>
                            </g>
                        </g>
                    </g>
                    <g transform="matrix(5.15885,0,0,5.15885,5458.12,2279.96)">
                        <clipPath id="_clip13">
                            <rect x="-226.772" y="-170.079" width="453.543" height="142.844"/>
                        </clipPath>
                        <g clip-path="url(#_clip13)">
                            <g transform="matrix(1,0,0,1,-226.772,-170.079)">
                                <g id="Layer_x0020_11" serif:id="Layer_x0020_1">
                                    <path d="M192.926,191.82L201.487,195.307C198.935,201.515 198.255,207.95 199.559,213.761C200.863,219.572 204.151,224.759 209.169,233.461C214.214,242.135 221.017,254.324 227.82,266.485L227.877,265.975L227.707,265.691L228.019,262.12L228.189,262.233L228.189,262.176C223.88,246.699 219.685,231.42 218.211,221.783C216.709,211.748 218.154,207.836 223.824,202.28C224.22,201.883 224.646,201.487 225.071,201.09C229.323,197.121 235.446,192.472 242.022,187.597C242.192,187.483 242.362,187.342 242.532,187.228C241.625,186.293 240.661,185.471 239.641,184.762C232.526,179.802 222.746,180.198 214.328,182.154C212.117,182.665 209.991,183.317 207.978,183.883C207.751,184.195 207.524,184.507 207.326,184.847C202.706,186.151 198.68,187.143 195.477,185.868C194.598,187.795 193.748,189.751 192.926,191.82Z" style="fill:rgb(240,133,25);"/>
                                    <path d="M208.431,184.734C210.444,184.139 212.57,183.515 214.781,183.005C223.2,181.02 232.98,180.624 240.094,185.613C241.115,186.321 242.079,187.143 242.986,188.05C248.485,193.55 252.255,202.394 256.054,211.238C257.698,210.246 258.917,208.346 260.05,205.455C262.375,199.531 264.331,189.411 265.465,178.98C266.598,168.548 266.939,157.776 263.565,147.26C260.22,136.715 253.219,126.454 246.189,116.164C245.82,116.561 245.282,116.844 244.29,117.099C241.71,117.751 236.183,118.148 230.655,118.573C215.546,128.041 200.438,137.537 189.921,143.66C180.51,149.102 174.784,151.909 172.517,156.189C176.202,157.55 179.858,158.939 182.976,163.672C183.288,164.154 183.572,164.636 183.883,165.175C187.172,171.156 189.723,181.616 194.513,185.074C194.967,185.386 195.449,185.669 195.959,185.868C199.304,187.285 203.528,186.151 208.431,184.734Z" style="fill:url(#_Linear14);"/>
                                    <path d="M176.145,178.894C178.157,173.424 180.652,168.576 183.203,163.871C180.113,159.137 176.428,157.748 172.772,156.387C172.488,156.898 172.261,157.436 172.091,158.003C170.532,163.304 173.339,171.099 176.145,178.894Z" style="fill:rgb(240,133,25);stroke:rgb(240,133,25);stroke-width:0.57px;"/>
                                    <path d="M207.893,184.819C205.313,188.589 202.989,192.387 201.402,196.243C198.85,202.45 198.17,208.885 199.474,214.696C200.778,220.507 204.066,225.723 209.112,234.397C214.129,243.099 220.932,255.26 227.735,267.449L228.047,263.877L228.132,263.112C223.795,247.635 219.6,232.356 218.154,222.718C216.624,212.712 218.098,208.772 223.767,203.216C224.164,202.819 224.561,202.45 224.986,202.025C229.38,197.972 235.672,193.153 242.476,188.164C241.54,187.257 240.576,186.435 239.556,185.698C232.469,180.737 222.661,181.134 214.243,183.118C212.031,183.628 209.906,184.252 207.893,184.819Z" style="fill:rgb(255,217,191);stroke:rgb(255,217,191);stroke-width:0.57px;"/>
                                    <path d="M243.071,188.249C236.296,193.238 229.975,198.057 225.609,202.11C234.567,206.419 243.383,210.557 249.137,211.89C252.227,212.598 254.409,212.485 256.139,211.436C252.34,202.592 248.57,193.72 243.071,188.249Z" style="fill:rgb(240,133,25);stroke:rgb(240,133,25);stroke-width:0.57px;"/>
                                    <path d="M268.129,80.192L261.213,99.723C258.917,101.424 256.734,103.181 254.75,105.052C251.235,108.369 248.372,112.082 247.153,114.378C246.387,115.795 246.246,116.674 245.65,117.298C245.282,117.694 244.743,117.978 243.751,118.233C241.172,118.885 235.644,119.31 230.117,119.707C230.882,115.795 231.647,111.883 231.817,110.013C231.987,108.142 231.562,108.34 227.991,108.68C224.447,109.02 217.786,109.531 212.202,107.461C206.617,105.364 202.139,100.687 199.332,95.613C196.498,90.539 195.335,85.096 195.08,82.035C194.825,78.973 195.477,78.293 196.328,77.669C197.178,77.017 198.227,76.422 199.304,75.855C201.402,79.398 203.528,82.97 205.512,85.55C207.496,88.129 209.367,89.717 212.91,90.312C216.425,90.935 221.613,90.51 225.213,90.17C228.813,89.802 230.882,89.49 234.595,85.294C234.652,85.238 234.709,85.153 234.794,85.068C238.479,80.816 243.723,72.935 247.011,69.08C250.328,65.169 251.603,65.424 252.85,65.679C253.757,65.991 255.6,66.529 256.535,66.756C256.592,68.882 256.677,70.98 256.819,72.709C256.961,74.438 257.187,75.798 258.123,77.131C259.058,78.435 260.731,79.682 262.261,80.306C263.764,80.957 265.124,80.957 266.712,80.617C267.165,80.532 267.647,80.391 268.129,80.192Z" style="fill:url(#_Linear15);"/>
                                    <path d="M217.276,72.085C218.069,73.134 219.26,74.154 220.422,75.175C221.244,74.523 223.002,73.219 224.249,73.02C223.03,70.441 221.811,67.833 220.479,66.841C219.146,65.849 217.672,66.472 216.85,67.096C216.028,67.691 215.802,68.315 215.915,69.165C216.028,69.987 216.482,71.065 217.276,72.085Z" style="fill:rgb(255,217,191);stroke:rgb(255,217,191);stroke-width:0.57px;"/>
                                    <path d="M232.101,88.413C235.814,84.161 241.058,76.28 244.318,72.425C247.663,68.513 248.91,68.769 250.186,69.024C249.307,68.683 249.364,68.598 249.704,68.031L251.461,65.282C252.227,64.091 253.134,62.702 253.191,61.625C253.276,60.548 252.51,59.754 251.972,58.422C251.433,57.118 251.121,55.276 251.178,53.745C251.235,52.243 251.631,51.109 253.106,49.436C254.608,47.764 257.159,45.609 258.491,44.589C259.824,43.597 259.965,43.795 259.994,44.391C260.05,44.957 260.022,45.978 260.022,47.169C260.022,48.331 260.05,49.72 260.164,50.967C260.277,52.243 260.476,53.405 260.702,54.255C260.929,55.077 261.213,55.587 261.921,55.814C262.602,56.069 263.735,56.041 264.529,56.041C265.351,56.041 265.861,56.098 266.003,56.523C266.117,56.948 265.861,57.742 265.436,58.195C265.039,58.649 264.501,58.734 263.707,59.159C262.942,59.556 261.921,60.293 260.759,61.427C259.569,62.532 258.236,64.035 257.244,65.594C256.224,67.124 255.515,68.712 255.146,69.506C254.806,70.328 254.778,70.356 253.871,70.101C253.928,72.198 254.013,74.324 254.154,76.054C254.296,77.783 254.494,79.143 255.458,80.447C256.394,81.78 258.066,83.027 259.569,83.65C261.099,84.274 262.46,84.302 264.047,83.962C265.635,83.622 267.449,82.913 269.717,80.22C271.984,77.528 274.677,72.822 276.123,69.08C277.569,65.31 277.739,62.504 277.257,59.102C276.746,55.701 275.584,51.676 273.713,49.38C271.843,47.083 269.235,46.488 267.987,45.609C266.74,44.759 266.825,43.597 264.869,42.293C262.913,40.989 258.917,39.515 255.458,38.721C252,37.956 249.052,37.871 246.813,39.373C244.573,40.876 243.014,43.965 242.617,46.998C242.22,50.031 242.986,53.036 242.476,55.162C241.965,57.288 240.18,58.535 237.6,60.094C235.049,61.682 231.676,63.553 228.898,64.857C226.12,66.132 223.909,66.841 223.54,69.024C223.172,71.206 224.646,74.92 226.46,78.548C228.132,81.865 230.117,85.153 232.101,88.413Z" style="fill:url(#_Linear16);stroke:rgb(106,82,158);stroke-width:0.57px;"/>
                                    <path d="M249.619,68.031C249.25,68.57 249.194,68.683 250.101,68.995C250.98,69.307 252.822,69.846 253.757,70.101C254.693,70.328 254.693,70.299 255.061,69.506C255.402,68.683 256.11,67.096 257.131,65.565C258.151,64.035 259.483,62.532 260.646,61.398C261.836,60.293 262.828,59.556 263.622,59.131C264.387,58.706 264.926,58.62 265.351,58.167C265.748,57.713 266.003,56.92 265.89,56.494C265.776,56.069 265.266,56.041 264.444,56.013C263.622,56.013 262.517,56.041 261.808,55.814C261.128,55.559 260.844,55.077 260.589,54.227C260.362,53.405 260.164,52.214 260.05,50.967C259.937,49.691 259.937,48.331 259.937,47.14C259.937,45.95 259.937,44.957 259.909,44.362C259.852,43.767 259.739,43.597 258.406,44.589C257.046,45.581 254.494,47.764 253.02,49.408C251.546,51.08 251.121,52.243 251.093,53.745C251.036,55.247 251.348,57.09 251.858,58.422C252.397,59.726 253.162,60.52 253.106,61.597C253.049,62.674 252.142,64.063 251.376,65.254L249.619,68.031Z" style="fill:url(#_Linear17);"/>
                                    <path d="M186.661,220.309C188.192,204.973 191.962,195.307 196.016,186.406C195.534,186.18 195.052,185.924 194.598,185.584C189.78,182.154 187.228,171.694 183.94,165.713C183.657,165.175 183.345,164.693 183.061,164.211C180.482,168.917 177.987,173.764 176.003,179.235C173.339,186.52 171.553,194.939 171.581,205.795C171.638,226.573 178.299,256.28 184.989,285.987L187.087,286.441C185.953,261.893 184.904,237.515 186.661,220.309Z" style="fill:rgb(255,217,191);stroke:rgb(255,217,191);stroke-width:0.57px;"/>
                                    <path d="M196.243,78.321C197.093,77.669 198.142,77.102 199.191,76.507C198.737,74.608 198.283,72.737 197.717,71.887C197.15,71.008 196.441,71.178 195.732,71.263C195.024,71.376 194.258,71.405 193.805,72C193.323,72.567 193.124,73.701 193.72,75.487C194.06,76.535 194.655,77.811 195.364,79.2C195.591,78.803 195.902,78.548 196.243,78.321Z" style="fill:rgb(255,217,191);stroke:rgb(255,217,191);stroke-width:0.57px;"/>
                                    <path d="M263.339,115.965C262.375,113.329 262.233,113.357 263.055,112.706C261.893,111.685 260.702,110.665 259.909,109.644C259.115,108.595 258.661,107.546 258.548,106.696C258.435,105.846 258.661,105.25 259.483,104.627C260.306,104.003 261.78,103.38 263.112,104.372C264.444,105.364 265.663,107.972 266.882,110.58L266.91,110.58C266.598,107.575 266.485,104.854 266.485,102.217C265.465,100.942 264.302,99.723 263.14,98.504C260.192,100.63 257.329,102.813 254.835,105.194C251.32,108.482 248.457,112.195 247.238,114.491C246.472,115.909 246.331,116.816 245.735,117.439C252.765,127.701 259.767,137.991 263.112,148.507C266.485,159.024 266.145,169.795 265.011,180.255C264.501,184.876 263.849,189.468 263.055,193.635C264.529,194.287 266.031,194.91 268.186,193.975C270.113,193.153 272.551,191.112 275.301,189.865C278.901,180.964 282.104,171.836 284.882,162.454C280.261,151.88 274.649,139.266 271.219,129.118C270.482,128.551 269.802,127.928 269.178,127.219C266.145,123.817 264.302,118.573 263.339,115.965Z" style="fill:rgb(205,81,84);stroke:rgb(205,81,84);stroke-width:0.57px;"/>
                                    <path d="M284.683,162.794C281.934,172.176 278.731,181.332 275.102,190.233C275.471,190.063 275.839,189.921 276.208,189.808C279.383,188.702 282.926,188.986 286.016,189.808C289.134,190.63 291.798,191.962 293.131,190.857C294.435,189.751 294.435,186.151 289.616,174.302C288.283,171.014 286.583,167.074 284.683,162.794Z" style="fill:rgb(205,81,84);stroke:rgb(205,81,84);stroke-width:0.57px;"/>
                                    <path d="M224.079,109.247C201.231,115.569 178.526,121.833 164.58,125.206C150.406,128.665 145.276,129.175 146.721,132.35C148.167,135.496 156.132,141.335 159.931,145.587C163.729,149.811 163.304,152.419 164.551,154.46C165.742,156.444 168.463,157.861 171.213,159.279L171.241,159.25C171.411,158.683 171.609,158.145 171.893,157.606C174.132,153.326 179.887,150.548 189.269,145.077C199.814,138.954 214.923,129.487 230.031,120.019C230.797,116.107 231.562,112.167 231.704,110.324C231.874,108.454 231.449,108.624 227.906,108.964C226.857,109.077 225.553,109.191 224.079,109.247Z" style="fill:rgb(205,81,84);stroke:rgb(205,81,84);stroke-width:0.57px;"/>
                                    <ellipse cx="254.778" cy="51.024" rx="0.369" ry="0.935" style="fill:rgb(84,59,48);stroke:rgb(84,59,48);stroke-width:0.57px;"/>
                                    <ellipse cx="260.617" cy="52.243" rx="0.369" ry="0.935" style="fill:rgb(84,59,48);stroke:rgb(84,59,48);stroke-width:0.57px;"/>
                                    <path d="M254.041,48.331C254.324,48.217 254.58,48.104 254.863,48.104C255.146,48.104 255.402,48.189 255.6,48.387C255.77,48.557 255.855,48.869 255.912,49.153" style="fill:none;stroke:rgb(51,44,43);stroke-width:0.57px;"/>
                                    <path d="M259.824,50.202C260.135,49.975 260.419,49.748 260.731,49.635C261.043,49.55 261.354,49.606 261.638,49.805C261.95,50.031 262.205,50.372 262.488,50.74" style="fill:none;stroke:rgb(51,44,43);stroke-width:0.57px;"/>
                                    <g transform="matrix(0.60867,0.16197,-0.16197,0.60867,253.611,52.1966)">
                                        <ellipse cx="0" cy="0" rx="1.417" ry="0.539" style="fill:rgb(236,110,112);stroke:rgb(236,110,112);stroke-width:0.57px;"/>
                                    </g>
                                    <g transform="matrix(0.60867,0.16197,-0.16197,0.60867,261.937,54.1057)">
                                        <ellipse cx="0" cy="0" rx="1.417" ry="0.539" style="fill:rgb(236,110,112);stroke:rgb(236,110,112);stroke-width:0.57px;"/>
                                    </g>
                                    <path d="M255.402,53.858C256.167,53.887 257.811,54.198 258.605,54.34C259.427,54.51 259.427,54.482 258.973,55.02C258.548,55.559 257.641,56.665 256.932,57.09C256.195,57.515 255.657,57.26 255.317,56.976C254.976,56.693 254.863,56.353 254.806,56.069C254.778,55.786 254.806,55.531 254.835,55.247C254.835,54.964 254.835,54.68 254.806,54.397C254.75,54.113 254.636,53.83 255.402,53.858Z" style="fill:rgb(236,110,112);"/>
                                    <path d="M254.835,54.822C255.118,54.935 255.402,55.02 255.855,55.02C256.422,55.02 257.216,54.907 257.811,54.794C258.406,54.68 258.831,54.595 259.228,54.51C259.143,54.454 258.945,54.425 258.605,54.34C257.811,54.198 256.167,53.887 255.402,53.858C254.636,53.83 254.75,54.113 254.806,54.397C254.806,54.539 254.835,54.68 254.835,54.822Z" style="fill:rgb(254,254,254);"/>
                                    <g id="_9238737921" serif:id="_923873792">
                                        <g transform="matrix(0.179408,0.0652308,-0.0652308,0.179408,208.935,53.4969)">
                                            <rect x="0" y="0" width="25.2" height="64.063" style="fill:rgb(251,171,66);stroke:rgb(251,171,66);stroke-width:0.57px;"/>
                                        </g>
                                        <g transform="matrix(0.177176,0.0710705,-0.0710705,0.177176,200.425,62.7335)">
                                            <rect x="0" y="0" width="75.005" height="18.992" style="fill:rgb(251,171,66);stroke:rgb(251,171,66);stroke-width:0.57px;"/>
                                        </g>
                                        <path d="M197.49,64.942L214.214,71.66L213.052,74.58L196.299,67.861L197.49,64.942Z" style="fill:url(#_Linear18);stroke:rgb(251,171,66);stroke-width:0.57px;"/>
                                        <path d="M216.369,38.239L216.652,42.406L220.876,43.569L216.822,45.043L217.077,49.238L214.271,45.95L210.217,47.367L212.513,43.88L209.792,40.564L214.016,41.698L216.369,38.239Z" style="fill:none;stroke:rgb(51,44,43);stroke-width:0.57px;"/>
                                        <path d="M214.271,45.95L210.189,47.367L212.513,43.88L209.764,40.564L213.987,41.669L216.369,38.211L216.652,42.406L220.876,43.569L216.822,45.043L217.049,49.238L214.271,45.95ZM206.731,33.477C206.504,34.271 206.249,35.093 206.022,35.858C205.427,37.956 204.86,39.883 204.463,41.499C204.009,43.342 203.726,44.731 203.698,46.035C203.698,46.63 203.726,47.225 203.811,47.82C203.839,48.104 203.924,48.416 203.981,48.728C204.35,50.343 205.058,51.959 205.909,53.093C206.617,54.057 207.411,54.709 208.318,55.191C208.715,55.389 209.112,55.587 209.565,55.757C210.586,56.154 211.748,56.466 212.882,56.693C213.307,56.778 213.732,56.863 214.129,56.92C215.631,57.146 216.964,57.175 218.494,56.353C218.92,56.154 219.345,55.871 219.77,55.531C220.28,55.106 220.819,54.595 221.357,53.943C222.038,53.121 222.746,52.101 223.427,50.825C224.532,48.784 225.638,46.12 226.715,43.257C227.027,42.435 227.339,41.584 227.65,40.734C227.877,40.167 228.076,39.6 228.274,39.005C227.991,39.09 227.65,39.09 227.339,38.976L207.694,32.06C207.524,32.003 207.383,31.918 207.241,31.805C207.071,32.372 206.901,32.91 206.731,33.477Z" style="fill:url(#_Linear19);"/>
                                        <path d="M207.78,32.117L227.395,39.033C227.707,39.146 228.047,39.146 228.359,39.061C228.841,38.948 229.266,38.58 229.465,38.041L229.578,37.701C229.89,36.85 229.436,35.915 228.586,35.631L208.97,28.715C208.12,28.403 207.184,28.857 206.901,29.707L206.787,30.047C206.532,30.728 206.759,31.436 207.298,31.861C207.439,31.975 207.581,32.06 207.78,32.117Z" style="fill:rgb(255,145,0);stroke:rgb(255,145,0);stroke-width:0.22px;"/>
                                        <path d="M206.022,35.858C206.277,35.093 206.504,34.299 206.731,33.477C205.739,33.165 204.746,32.854 204.009,32.74C203.272,32.598 202.762,32.683 202.365,33.024C201.94,33.364 201.6,33.987 201.061,35.461C200.494,36.964 199.729,39.345 199.559,41.017C199.389,42.69 199.871,43.625 200.693,44.787C201.543,45.95 202.762,47.339 203.981,48.728C203.924,48.416 203.868,48.104 203.811,47.82C203.726,47.225 203.698,46.63 203.698,46.035C202.876,44.957 202.025,43.88 201.6,43.115C201.175,42.35 201.175,41.924 201.458,40.847C201.742,39.77 202.309,38.041 202.762,36.992C203.244,35.943 203.641,35.575 204.18,35.49C204.718,35.433 205.37,35.631 206.022,35.858Z" style="fill:url(#_Linear20);"/>
                                        <path d="M227.679,40.734C227.367,41.584 227.055,42.435 226.743,43.257C227.537,43.455 228.302,43.682 228.784,43.88C229.266,44.107 229.408,44.306 229.181,45.468C228.954,46.63 228.302,48.728 227.537,50.258C226.743,51.789 225.836,52.724 224.787,53.263C223.71,53.773 222.548,53.858 221.357,53.943C220.819,54.595 220.28,55.106 219.77,55.531C221.471,55.559 223.172,55.587 224.391,55.474C225.609,55.332 226.375,55.02 227.055,54.652C227.707,54.283 228.274,53.83 229.153,51.902C230.031,50.003 231.222,46.602 231.591,44.702C231.959,42.803 231.449,42.406 230.655,41.981C229.861,41.556 228.756,41.159 227.679,40.734Z" style="fill:url(#_Linear21);"/>
                                        <path d="M220.876,43.569L216.652,42.406L216.369,38.239L214.016,41.698L209.792,40.564L212.513,43.88L210.217,47.367L214.271,45.95L217.077,49.238L216.822,45.043L220.876,43.569Z" style="fill:rgb(254,254,254);stroke:rgb(254,254,254);stroke-width:0.22px;"/>
                                    </g>
                                    <path d="M229.209,88.413C227.282,88.668 225.383,88.923 222.576,89.036C219.742,89.15 216.028,89.065 212.06,86.655C208.063,84.246 203.839,79.483 201.458,77.244C199.106,75.005 198.595,75.288 197.575,76.11C196.554,76.932 194.995,78.293 195.165,81.298C195.364,84.302 197.235,88.923 199.162,92.551C201.09,96.208 203.074,98.872 205.682,101.254C208.261,103.635 211.493,105.761 215.575,106.781C219.628,107.802 224.532,107.773 227.452,107.943C230.343,108.085 231.222,108.482 231.392,110.296C231.562,112.11 230.995,115.342 230.712,117.014C230.4,118.687 230.372,118.772 231.676,119.027C232.951,119.31 235.559,119.735 238.28,119.452C241.002,119.169 243.836,118.205 245.877,116.334C247.89,114.491 249.08,111.798 250.668,109.616C252.227,107.433 254.154,105.761 256.11,104.088C251.546,103.238 246.671,101.48 242.249,98.929C237.175,96.009 232.696,92.041 229.209,88.413Z" style="fill:url(#_Linear22);"/>
                                    <path d="M229.209,88.413C232.696,92.041 236.721,97.03 242.249,98.929C254.239,103.039 259.682,102.643 268.413,89.66C271.587,84.954 270.992,81.043 269.745,75.827C266.995,64.148 255.515,84.983 247.521,83.169C245.622,82.743 232.98,76.224 231.534,75.26C230.088,74.324 229.408,73.843 228.274,72.17C227.112,70.498 225.496,69.194 224.362,68.882C223.228,68.57 222.605,69.25 221.953,70.498C221.329,71.745 220.706,73.587 220.479,75.118C220.224,76.62 220.394,77.839 223.824,82.233C225.156,83.934 226.97,86.088 229.209,88.413Z" style="fill:url(#_Linear23);"/>
                                    <path d="M271.729,127.049C270.567,121.011 268.611,112.167 266.485,102.671C266.513,105.165 266.598,107.745 266.91,110.58L266.882,110.58C265.663,107.972 264.444,105.364 263.112,104.372C261.78,103.38 260.306,104.003 259.483,104.627C258.661,105.25 258.435,105.846 258.548,106.696C258.661,107.546 259.115,108.595 259.909,109.644C260.702,110.665 261.893,111.685 263.055,112.706C262.233,113.357 262.375,113.329 263.339,115.965C264.302,118.573 266.145,123.817 269.178,127.219C269.802,127.928 270.482,128.551 271.219,129.118C271.757,130.734 272.353,132.378 272.976,134.107C272.693,132.236 272.324,129.997 271.729,127.049Z" style="fill:rgb(205,81,84);"/>
                                    <path d="M263.14,98.504C264.246,99.666 265.38,100.857 266.372,102.047C265.805,99.609 265.266,97.143 264.699,94.649C263.792,95.726 262.913,96.661 262.035,97.455L261.213,99.723C259.342,101.112 257.528,102.529 255.855,104.031C255.912,104.06 255.969,104.06 256.025,104.088C258.236,102.132 260.646,100.29 263.14,98.504Z" style="fill:rgb(205,81,84);stroke:rgb(205,81,84);stroke-width:0.22px;"/>
                                    <path d="M191.537,41.868L191.934,43.058L193.181,43.058L192.189,43.824L192.557,45.014L191.537,44.277L190.517,45.014L190.885,43.824L189.893,43.058L191.14,43.058L191.537,41.868Z" style="fill:rgb(205,81,84);stroke:rgb(205,81,84);stroke-width:0.57px;"/>
                                    <path d="M233.49,25.115L233.943,26.419L235.304,26.419L234.198,27.241L234.624,28.545L233.49,27.751L232.384,28.545L232.809,27.241L231.704,26.419L233.065,26.419L233.49,25.115Z" style="fill:rgb(255,145,0);stroke:rgb(255,145,0);stroke-width:0.57px;"/>
                                    <path d="M222.406,61.965L222.746,62.986L223.824,62.986L222.945,63.638L223.285,64.658L222.406,64.035L221.528,64.658L221.839,63.638L220.989,62.986L222.066,62.986L222.406,61.965Z" style="fill:rgb(255,247,92);stroke:rgb(255,247,92);stroke-width:0.57px;"/>
                                    <path d="M206.022,15.052L206.702,17.036L208.8,17.065L207.099,18.312L207.751,20.296L206.022,19.077L204.321,20.296L204.945,18.312L203.244,17.065L205.37,17.036L206.022,15.052Z" style="fill:rgb(255,247,92);stroke:rgb(255,247,92);stroke-width:0.57px;"/>
                                    <path d="M193.436,60.548L193.975,62.22L195.761,62.22L194.343,63.269L194.854,64.97L193.436,63.921L191.991,64.97L192.529,63.269L191.112,62.22L192.869,62.22L193.436,60.548Z" style="fill:rgb(255,247,92);stroke:rgb(255,247,92);stroke-width:0.57px;"/>
                                </g>
                            </g>
                        </g>
                    </g>
                </g>
            </g>
        </g>
    </g>
    <defs>
        <linearGradient id="_Linear3" x1="0" y1="0" x2="1" y2="0" gradientUnits="userSpaceOnUse" gradientTransform="matrix(94.4325,20.1591,-20.1591,94.4325,174.413,147.333)"><stop offset="0" style="stop-color:rgb(254,192,103);stop-opacity:1"/><stop offset="1" style="stop-color:rgb(255,132,0);stop-opacity:1"/></linearGradient>
        <linearGradient id="_Linear4" x1="0" y1="0" x2="1" y2="0" gradientUnits="userSpaceOnUse" gradientTransform="matrix(98.8084,21.0932,-21.0932,98.8084,194.237,83.6694)"><stop offset="0" style="stop-color:rgb(255,117,118);stop-opacity:1"/><stop offset="1" style="stop-color:rgb(231,69,145);stop-opacity:1"/></linearGradient>
        <linearGradient id="_Linear5" x1="0" y1="0" x2="1" y2="0" gradientUnits="userSpaceOnUse" gradientTransform="matrix(58.6182,13.3673,-13.3673,58.6182,225.544,59.6721)"><stop offset="0" style="stop-color:rgb(125,81,197);stop-opacity:1"/><stop offset="1" style="stop-color:rgb(47,49,139);stop-opacity:1"/></linearGradient>
        <linearGradient id="_Linear6" x1="0" y1="0" x2="1" y2="0" gradientUnits="userSpaceOnUse" gradientTransform="matrix(-14.3507,-7.13367,7.13367,-14.3507,262.256,62.193)"><stop offset="0" style="stop-color:rgb(255,202,166);stop-opacity:1"/><stop offset="1" style="stop-color:rgb(255,183,135);stop-opacity:1"/></linearGradient>
        <linearGradient id="_Linear7" x1="0" y1="0" x2="1" y2="0" gradientUnits="userSpaceOnUse" gradientTransform="matrix(16.7431,6.71641,-6.71641,16.7431,196.894,66.4078)"><stop offset="0" style="stop-color:rgb(251,171,66);stop-opacity:1"/><stop offset="1" style="stop-color:rgb(239,130,27);stop-opacity:1"/></linearGradient>
        <linearGradient id="_Linear8" x1="0" y1="0" x2="1" y2="0" gradientUnits="userSpaceOnUse" gradientTransform="matrix(24.5906,0,0,24.5906,203.697,44.4311)"><stop offset="0" style="stop-color:rgb(255,183,82);stop-opacity:1"/><stop offset="1" style="stop-color:rgb(243,148,35);stop-opacity:1"/></linearGradient>
        <linearGradient id="_Linear9" x1="0" y1="0" x2="1" y2="0" gradientUnits="userSpaceOnUse" gradientTransform="matrix(7.21219,0,0,7.21219,199.531,40.7044)"><stop offset="0" style="stop-color:rgb(242,182,98);stop-opacity:1"/><stop offset="1" style="stop-color:rgb(255,119,0);stop-opacity:1"/></linearGradient>
        <linearGradient id="_Linear10" x1="0" y1="0" x2="1" y2="0" gradientUnits="userSpaceOnUse" gradientTransform="matrix(11.9367,0,0,11.9367,219.775,48.1482)"><stop offset="0" style="stop-color:rgb(242,182,98);stop-opacity:1"/><stop offset="1" style="stop-color:rgb(253,126,11);stop-opacity:1"/></linearGradient>
        <linearGradient id="_Linear11" x1="0" y1="0" x2="1" y2="0" gradientUnits="userSpaceOnUse" gradientTransform="matrix(60.9378,0,0,60.9378,195.163,97.5155)"><stop offset="0" style="stop-color:rgb(255,117,118);stop-opacity:1"/><stop offset="1" style="stop-color:rgb(231,69,145);stop-opacity:1"/></linearGradient>
        <linearGradient id="_Linear12" x1="0" y1="0" x2="1" y2="0" gradientUnits="userSpaceOnUse" gradientTransform="matrix(50.3566,0,0,50.3566,220.393,85.0224)"><stop offset="0" style="stop-color:rgb(255,117,118);stop-opacity:1"/><stop offset="1" style="stop-color:rgb(231,69,145);stop-opacity:1"/></linearGradient>
        <linearGradient id="_Linear14" x1="0" y1="0" x2="1" y2="0" gradientUnits="userSpaceOnUse" gradientTransform="matrix(94.4325,20.1591,-20.1591,94.4325,174.413,147.333)"><stop offset="0" style="stop-color:rgb(254,192,103);stop-opacity:1"/><stop offset="1" style="stop-color:rgb(255,132,0);stop-opacity:1"/></linearGradient>
        <linearGradient id="_Linear15" x1="0" y1="0" x2="1" y2="0" gradientUnits="userSpaceOnUse" gradientTransform="matrix(98.8084,21.0932,-21.0932,98.8084,194.237,83.6694)"><stop offset="0" style="stop-color:rgb(255,117,118);stop-opacity:1"/><stop offset="1" style="stop-color:rgb(231,69,145);stop-opacity:1"/></linearGradient>
        <linearGradient id="_Linear16" x1="0" y1="0" x2="1" y2="0" gradientUnits="userSpaceOnUse" gradientTransform="matrix(58.6182,13.3673,-13.3673,58.6182,225.544,59.6721)"><stop offset="0" style="stop-color:rgb(125,81,197);stop-opacity:1"/><stop offset="1" style="stop-color:rgb(47,49,139);stop-opacity:1"/></linearGradient>
        <linearGradient id="_Linear17" x1="0" y1="0" x2="1" y2="0" gradientUnits="userSpaceOnUse" gradientTransform="matrix(-14.3507,-7.13367,7.13367,-14.3507,262.256,62.193)"><stop offset="0" style="stop-color:rgb(255,202,166);stop-opacity:1"/><stop offset="1" style="stop-color:rgb(255,183,135);stop-opacity:1"/></linearGradient>
        <linearGradient id="_Linear18" x1="0" y1="0" x2="1" y2="0" gradientUnits="userSpaceOnUse" gradientTransform="matrix(16.7431,6.71641,-6.71641,16.7431,196.894,66.4078)"><stop offset="0" style="stop-color:rgb(251,171,66);stop-opacity:1"/><stop offset="1" style="stop-color:rgb(239,130,27);stop-opacity:1"/></linearGradient>
        <linearGradient id="_Linear19" x1="0" y1="0" x2="1" y2="0" gradientUnits="userSpaceOnUse" gradientTransform="matrix(24.5906,0,0,24.5906,203.697,44.4311)"><stop offset="0" style="stop-color:rgb(255,183,82);stop-opacity:1"/><stop offset="1" style="stop-color:rgb(243,148,35);stop-opacity:1"/></linearGradient>
        <linearGradient id="_Linear20" x1="0" y1="0" x2="1" y2="0" gradientUnits="userSpaceOnUse" gradientTransform="matrix(7.21219,0,0,7.21219,199.531,40.7044)"><stop offset="0" style="stop-color:rgb(242,182,98);stop-opacity:1"/><stop offset="1" style="stop-color:rgb(255,119,0);stop-opacity:1"/></linearGradient>
        <linearGradient id="_Linear21" x1="0" y1="0" x2="1" y2="0" gradientUnits="userSpaceOnUse" gradientTransform="matrix(11.9367,0,0,11.9367,219.775,48.1482)"><stop offset="0" style="stop-color:rgb(242,182,98);stop-opacity:1"/><stop offset="1" style="stop-color:rgb(253,126,11);stop-opacity:1"/></linearGradient>
        <linearGradient id="_Linear22" x1="0" y1="0" x2="1" y2="0" gradientUnits="userSpaceOnUse" gradientTransform="matrix(60.9378,0,0,60.9378,195.163,97.5155)"><stop offset="0" style="stop-color:rgb(255,117,118);stop-opacity:1"/><stop offset="1" style="stop-color:rgb(231,69,145);stop-opacity:1"/></linearGradient>
        <linearGradient id="_Linear23" x1="0" y1="0" x2="1" y2="0" gradientUnits="userSpaceOnUse" gradientTransform="matrix(50.3566,0,0,50.3566,220.393,85.0224)"><stop offset="0" style="stop-color:rgb(255,117,118);stop-opacity:1"/><stop offset="1" style="stop-color:rgb(231,69,145);stop-opacity:1"/></linearGradient>
    </defs>
</svg>
