<?xml version="1.0" encoding="UTF-8" standalone="no"?>
<!DOCTYPE svg PUBLIC "-//W3C//DTD SVG 1.1//EN" "http://www.w3.org/Graphics/SVG/1.1/DTD/svg11.dtd">
<svg width="100%" height="100%" viewBox="0 0 1860 1244" version="1.1" xmlns="http://www.w3.org/2000/svg" xmlns:xlink="http://www.w3.org/1999/xlink" xml:space="preserve" xmlns:serif="http://www.serif.com/" style="fill-rule:evenodd;clip-rule:evenodd;">
    <g transform="matrix(1,0,0,1,-3702.3,-1865.28)">
        <path d="M4108.46,3026C4017.99,2995.59 3941.95,2931.88 3877.86,2863C3852.17,2835.39 3825.67,2803.92 3802.97,2773.03C3757.86,2711.66 3717.1,2642.97 3706.13,2566.38C3690.37,2456.34 3726.2,2342.75 3759.21,2239.57C3780.37,2173.43 3808.41,2106.01 3851.35,2050.81C3876.75,2018.17 3908.34,1990.49 3941.55,1966.08C3989.6,1930.75 4043.14,1901.64 4100.11,1883.55C4135.17,1872.42 4172.27,1864.7 4209.21,1865.31C4270.61,1866.33 4330.43,1887.08 4388.16,1905.64C4468.05,1931.32 4549.01,1961.61 4634.03,1962.07C4700.8,1962.43 4766.24,1946.79 4831.64,1935.58C4879.66,1927.35 4896.86,1924.49 4945.36,1921.38C5004.08,1917.62 5058.71,1931.93 5113.6,1951.67C5199.19,1982.45 5282.46,2023.17 5356.2,2076.74C5400.07,2108.62 5441.47,2145.64 5472.79,2190.25C5525.3,2265.04 5545.92,2361.01 5555.78,2450.33C5563.88,2523.62 5564.15,2598.84 5552.12,2671.73C5545.53,2711.73 5535.05,2751.53 5516.07,2787.58C5483.94,2848.62 5430.52,2899.86 5373.49,2937.79C5320.36,2973.14 5265.15,3002.99 5206.56,3028.28C5169.05,3044.47 5129.58,3060.33 5089.69,3070.18C4931.49,3109.21 4768.72,3111.2 4606.67,3108C4517.4,3106.24 4427.99,3095.61 4340.02,3080.8C4261.97,3067.66 4183.59,3051.26 4108.46,3026" style="fill:rgb(158,221,183);"/>
        <clipPath id="_clip1">
            <path d="M4108.46,3026C4017.99,2995.59 3941.95,2931.88 3877.86,2863C3852.17,2835.39 3825.67,2803.92 3802.97,2773.03C3757.86,2711.66 3717.1,2642.97 3706.13,2566.38C3690.37,2456.34 3726.2,2342.75 3759.21,2239.57C3780.37,2173.43 3808.41,2106.01 3851.35,2050.81C3876.75,2018.17 3908.34,1990.49 3941.55,1966.08C3989.6,1930.75 4043.14,1901.64 4100.11,1883.55C4135.17,1872.42 4172.27,1864.7 4209.21,1865.31C4270.61,1866.33 4330.43,1887.08 4388.16,1905.64C4468.05,1931.32 4549.01,1961.61 4634.03,1962.07C4700.8,1962.43 4766.24,1946.79 4831.64,1935.58C4879.66,1927.35 4896.86,1924.49 4945.36,1921.38C5004.08,1917.62 5058.71,1931.93 5113.6,1951.67C5199.19,1982.45 5282.46,2023.17 5356.2,2076.74C5400.07,2108.62 5441.47,2145.64 5472.79,2190.25C5525.3,2265.04 5545.92,2361.01 5555.78,2450.33C5563.88,2523.62 5564.15,2598.84 5552.12,2671.73C5545.53,2711.73 5535.05,2751.53 5516.07,2787.58C5483.94,2848.62 5430.52,2899.86 5373.49,2937.79C5320.36,2973.14 5265.15,3002.99 5206.56,3028.28C5169.05,3044.47 5129.58,3060.33 5089.69,3070.18C4931.49,3109.21 4768.72,3111.2 4606.67,3108C4517.4,3106.24 4427.99,3095.61 4340.02,3080.8C4261.97,3067.66 4183.59,3051.26 4108.46,3026"/>
        </clipPath>
        <g clip-path="url(#_clip1)">
            <g transform="matrix(1,0,0,1.62312,-1.81899e-12,-2021.87)">
                <rect x="3702.3" y="2778" width="1859.25" height="417" style="fill-opacity:0.462745;"/>
            </g>
            <g transform="matrix(1.35142,0,0,1.13144,-10505.6,6129.64)">
                <g transform="matrix(2.48436,0,0,2.44442,10465,-3768)">
                    <path d="M139.833,192.983L99.411,173.282L73.559,175.776L55.077,177.591L10.715,181.899L10.715,263.027L63.666,263.792L63.184,210.274L76.592,210.784L77.556,201.203L110.608,203.216L111.572,227.452L125.943,228.444L128.806,259.257L138.983,260.504L139.691,204.123L139.833,192.983Z" style="fill:rgb(82,197,176);stroke:rgb(82,197,176);stroke-width:0.57px;"/>
                </g>
                <g transform="matrix(2.48436,0,0,2.44442,10465,-3768)">
                    <path d="M167.556,187.172L166.989,230.428L184.564,232.554L197.773,212.825L204.18,212.513L203.698,187.143L167.556,187.172Z" style="fill:rgb(3,153,153);stroke:rgb(3,153,153);stroke-width:0.57px;"/>
                </g>
                <g transform="matrix(2.48436,0,0,2.44442,10465,-3768)">
                    <path d="M402.973,140.485L403.2,171.213L432.482,171.298L432.482,214.384L461.962,214.384L461.962,114.605L402.973,140.485Z" style="fill:rgb(83,189,161);stroke:rgb(83,189,161);stroke-width:0.57px;"/>
                </g>
                <g transform="matrix(2.48436,0,0,2.44442,10465,-3768)">
                    <path d="M484.639,106.129L483.534,207.014L561.997,207.014L561.997,40.706L537.534,62.901L508.677,64.942L485.065,66.586L484.639,106.129Z" style="fill:rgb(178,247,206);stroke:rgb(178,247,206);stroke-width:0.57px;"/>
                </g>
                <g transform="matrix(2.48436,0,0,2.44442,10465,-3768)">
                    <path d="M575.036,227.509L576.142,126.624L537.222,127.757L537.222,227.509L575.036,227.509Z" style="fill:rgb(83,189,161);stroke:rgb(83,189,161);stroke-width:0.57px;"/>
                </g>
                <g transform="matrix(2.48436,0,0,2.44442,10465,-3768)">
                    <path d="M518.995,169.115L557.887,168.009L558.34,128.438L581.953,126.794L581.272,96.406L581.272,68.06L451.247,112.422L453.43,165.43L425.055,166.45L430.951,225.609L460.205,225.723L459.978,194.995L518.995,169.115Z" style="fill:rgb(158,221,183);stroke:rgb(158,221,183);stroke-width:0.57px;"/>
                </g>
                <g transform="matrix(2.48436,0,0,2.44442,10465,-3768)">
                    <rect x="439.087" y="171.099" width="10.517" height="61.909" style="fill:rgb(68,163,149);stroke:rgb(68,163,149);stroke-width:0.57px;"/>
                </g>
                <g transform="matrix(2.48436,0,0,2.44442,10465,-3768)">
                    <path d="M150.151,234.964L152.504,146.976L119.254,150.038L121.436,51.449L17.631,98.277L12.529,174.728L38.381,172.205L78.803,191.934L78.661,203.046L125.802,203.017L126.425,236.098L150.151,234.964Z" style="fill:rgb(158,221,183);stroke:rgb(158,221,183);stroke-width:0.57px;"/>
                </g>
                <g transform="matrix(2.48436,0,0,2.44442,10465,-3768)">
                    <path d="M59.981,181.786L59.528,29.565L15.619,48.076L15.619,186.094L59.981,181.786Z" style="fill:rgb(158,221,183);stroke:rgb(158,221,183);stroke-width:0.57px;"/>
                </g>
                <g transform="matrix(2.48436,0,0,2.44442,10465,-3768)">
                    <path d="M219.118,116.306C217.361,120.019 215.575,123.732 207.014,125.603C198.454,127.446 183.09,127.417 170.617,127.417C158.117,127.417 148.479,127.417 139.918,126.17C131.386,124.923 123.931,122.428 116.617,119.934C109.304,117.468 102.161,114.973 95.839,112.28C89.49,109.616 83.991,106.724 78.463,103.861" style="fill:none;stroke:rgb(51,44,43);stroke-width:0.57px;"/>
                </g>
                <g transform="matrix(2.48436,0,0,2.44442,10465,-3768)">
                    <path d="M223.313,185.074C223.398,185.669 223.313,185.868 223.37,186.236C223.455,187.143 223.228,186.69 223.54,187.313L224.107,187.597C226.488,186.321 225.808,188.306 228.359,188.561C230.655,188.759 233.546,188.646 235.928,188.702L235.899,190.545C233.66,190.828 230.769,190.006 228.869,190.885C230.939,191.622 235.786,190.573 237.26,191.509L237.657,191.509C238.847,191.565 238.11,191.594 238.167,190.602C238.195,189.978 237.94,189.439 237.742,188.872L237.317,187.824C237.373,187.087 237.402,186.293 237.345,185.556C237.26,183.912 237.657,184.365 236.806,183.912L224.702,184.394C223.257,184.564 223.767,183.94 223.313,185.074Z" style="fill:rgb(6,88,95);"/>
                </g>
                <g transform="matrix(2.48436,0,0,2.44442,10465,-3768)">
                    <path d="M223.313,185.074C223.767,183.94 223.257,184.564 224.702,184.394L236.806,183.912L236.551,184.082C235.191,183.6 228.813,183.77 226.772,183.77L226.828,182.268L226.318,182.268L226.205,183.657L223.654,183.6L223.172,182.268L217.559,182.268L217.587,186.463L222.435,186.52L223.313,185.074Z" style="fill:rgb(0,68,78);"/>
                </g>
                <g transform="matrix(2.48436,0,0,2.44442,10465,-3768)">
                    <path d="M240.605,191.055C239.499,191.197 239.641,190.63 239.443,189.865C240.151,189.326 239.924,189.354 241.483,189.269C241.342,190.658 241.739,190.885 240.605,191.055ZM237.317,187.909L237.317,187.824L237.742,188.872C238.394,189.524 238.11,189.014 238.365,190.517L238.507,191.367C239.953,191.622 241.994,192.047 243.609,191.962L243.609,188.901L242.249,189.354L242.022,182.863L241.342,184.025C240.945,185.131 241.2,184.054 241.115,185.216C241.002,186.548 241.512,186.86 240.633,187.625C240.123,186.973 239.981,188.589 240.321,186.378L241.172,182.891L241.2,182.268L240.661,182.268C240.52,183.487 240.293,184.62 239.924,185.839C239.386,187.767 239.329,187.569 237.317,187.909Z" style="fill:rgb(11,130,124);"/>
                </g>
                <g transform="matrix(2.48436,0,0,2.44442,10465,-3768)">
                    <path d="M236.551,184.082L236.353,182.268L226.828,182.268L226.772,183.77C228.813,183.77 235.191,183.6 236.551,184.082Z" style="fill:rgb(3,77,86);"/>
                </g>
                <g transform="matrix(2.48436,0,0,2.44442,10465,-3768)">
                    <path d="M236.551,184.082L236.806,183.912C237.657,184.365 237.26,183.912 237.345,185.556C237.402,186.293 237.373,187.087 237.317,187.824L237.317,187.909L237.883,187.002C237.912,186.945 237.997,186.888 238.054,186.831C238.819,185.981 238.507,186.633 239.074,184.876C239.216,184.422 239.272,184.025 239.357,183.798C239.471,183.543 239.556,183.487 239.839,183.175L240.633,182.268L236.353,182.268L236.551,184.082Z" style="fill:rgb(83,188,163);"/>
                </g>
                <g transform="matrix(2.48436,0,0,2.44442,10465,-3768)">
                    <path d="M237.317,187.909C239.329,187.569 239.386,187.767 239.924,185.839C240.293,184.62 240.52,183.487 240.661,182.268L240.633,182.268L239.839,183.175C239.556,183.487 239.471,183.543 239.357,183.798C239.272,184.025 239.216,184.422 239.074,184.876C238.507,186.633 238.819,185.981 238.054,186.831C237.997,186.888 237.912,186.945 237.883,187.002L237.317,187.909Z" style="fill:rgb(73,182,165);"/>
                </g>
                <g transform="matrix(2.48436,0,0,2.44442,10465,-3768)">
                    <path d="M242.022,182.863L242.249,189.354C242.986,187.228 242.589,186.633 242.192,184.592C242.249,184.535 242.391,184.422 242.391,184.507L243.609,184.309L243.609,182.268L241.2,182.268L241.172,182.891L242.022,182.863Z" style="fill:rgb(85,194,171);"/>
                </g>
                <g transform="matrix(2.48436,0,0,2.44442,10465,-3768)">
                    <path d="M242.249,189.354L243.609,188.901L243.609,184.309L242.391,184.507C242.391,184.422 242.249,184.535 242.192,184.592C242.589,186.633 242.986,187.228 242.249,189.354Z" style="fill:rgb(92,202,180);"/>
                </g>
                <g transform="matrix(2.48436,0,0,2.44442,10465,-3768)">
                    <path d="M226.318,182.268L223.172,182.268L223.654,183.6L226.205,183.657L226.318,182.268Z" style="fill:rgb(5,85,93);"/>
                </g>
                <g transform="matrix(2.48436,0,0,2.44442,10465,-3768)">
                    <path d="M242.022,182.863L241.172,182.891L240.321,186.378C239.981,188.589 240.123,186.973 240.633,187.625C241.512,186.86 241.002,186.548 241.115,185.216C241.2,184.054 240.945,185.131 241.342,184.025L242.022,182.863Z" style="fill:rgb(55,168,154);"/>
                </g>
                <g transform="matrix(2.48436,0,0,2.44442,10465,-3768)">
                    <path d="M213.987,182.268L211.465,182.268L213.109,183.26C213.194,183.317 213.222,183.458 213.902,183.6L213.987,182.268Z" style="fill:rgb(10,91,99);"/>
                </g>
                <g transform="matrix(2.48436,0,0,2.44442,10465,-3768)">
                    <rect x="210.841" y="144.454" width="151.569" height="8.476" style="fill:rgb(0,64,76);stroke:rgb(0,64,76);stroke-width:0.57px;"/>
                </g>
                <g transform="matrix(2.48436,0,0,2.44442,10465,-3768)">
                    <path d="M207.978,144.425L365.187,146.523L364.28,144.907L360.709,137.48L360.567,136.885L358.328,129.94L357.647,129.94L353.083,117.553L319.011,116.447L315.836,115.71L247.833,113.698L248.4,112.706C247.833,112.904 247.266,113.102 243.893,113.131C240.52,113.187 234.312,113.102 230.91,113.102C227.537,113.102 226.942,113.187 226.545,113.159C226.176,113.131 225.978,112.989 225.694,112.876C225.411,112.791 225.071,112.734 223.285,112.649C221.499,112.564 218.296,112.45 216.454,112.649C214.639,112.847 214.186,113.386 213.959,113.839C213.732,114.321 213.761,114.718 213.817,115.115C213.874,115.512 213.987,115.88 213.902,116.135C213.817,116.362 213.506,116.476 213.25,116.646C212.995,116.816 212.797,117.014 212.173,120.189C211.578,123.335 210.529,129.402 210.019,132.945C209.509,136.46 209.48,137.395 209.254,138.472C208.998,139.55 208.545,140.74 208.261,142.129C208.12,142.838 208.035,143.631 207.978,144.425Z" style="fill:rgb(6,88,95);stroke:rgb(6,88,95);stroke-width:0.57px;"/>
                </g>
                <g transform="matrix(2.48436,0,0,2.44442,10465,-3768)">
                    <path d="M338.683,150.265C339.08,149.754 337.833,149.868 339.506,149.868L339.817,150.491C340.724,150.661 341.263,151.228 342.992,150.888C343.106,150.888 343.191,150.831 343.304,150.803C343.417,150.775 343.502,150.746 343.587,150.718C346.734,149.924 344.863,150.86 347.698,150.973C348.803,151.002 348.718,150.86 349.313,150.775C351.184,150.491 350.249,150.917 352.545,151.002L353.254,150.321C353.764,150.009 353.282,150.009 354.161,150.038C355.096,150.038 355.578,150.661 356.23,151.002C358.129,150.888 357.307,150.236 359.263,150.605C361.956,151.143 358.753,151.257 362.92,150.888C364.479,150.775 363.487,150.803 365.187,151.257L365.187,147.458L363.969,147.458L362.324,143.858C361.134,144.227 361.956,144.369 361.106,145.162C358.157,145.219 357.534,144.964 357.874,142.866L208.715,142.866C207.666,144.113 207.099,147.203 207.071,149.187C207.524,149.159 207.751,149.131 208.205,149.046C208.29,149.017 208.431,148.989 208.545,148.961C208.63,148.932 208.743,148.904 208.828,148.876C212.882,147.827 209.764,149.726 214.016,148.791C216.227,148.309 214.668,148.564 216.283,148.876C218.154,149.301 220.507,148.762 221.471,149.046C222.803,149.471 221.754,149.839 223.313,149.811C225.071,149.811 223.965,149.272 225.496,149.159C228.217,148.932 225.383,150.888 229.55,149.414C232.894,148.252 230.513,149.924 234.227,149.272C237.515,148.706 234.822,150.066 238.819,149.329C241.994,148.762 239.046,150.094 242.192,149.471C244.29,149.046 242.391,148.904 244.176,149.386C244.97,149.584 243.836,149.613 245.367,149.584C246.444,149.584 246.813,149.216 247.408,149.074C249.222,150.009 247.776,149.556 250.639,149.669C252.312,149.754 258.35,149.981 259.625,149.669L261.383,149.102C263.424,150.831 263.792,149.499 266.457,149.669C267.817,149.754 271.02,149.896 272.608,149.811L288.085,149.698C289.361,149.783 289.361,150.151 290.891,150.009C292.592,149.868 291.175,149.443 293.669,149.754C295.342,149.981 294.123,150.208 296.249,149.868C300.472,149.187 297.496,151.087 301.635,150.208C305.603,149.329 302.854,150.633 305.49,150.321C306.198,150.236 305.717,150.151 306.907,149.896C308.324,150.208 307.559,150.208 308.041,150.293C308.75,150.435 308.296,150.463 309.203,150.35C311.839,150.066 310.394,149.556 313.37,150.265C316.687,151.03 315.581,150.123 317.083,149.641C318.444,150.094 317.82,150.435 319.55,150.973C321.562,150.321 319.635,149.613 322.356,150.208C325.757,150.945 323.688,150.293 326.069,149.924C327.798,150.803 325.786,151.427 328.932,150.746C331.965,150.094 329.924,150.605 332.589,151.002L334.148,149.953C336.699,150.208 333.808,150.18 336.331,150.52C338.4,150.803 338.683,150.265 338.683,150.265Z" style="fill:rgb(6,88,95);"/>
                </g>
                <g transform="matrix(2.48436,0,0,2.44442,10465,-3768)">
                    <path d="M361.389,142.866L359.348,142.866C360.057,143.235 358.328,143.178 360.539,143.291C361.701,143.376 361.219,143.15 361.389,142.866Z" style="fill:rgb(6,88,95);stroke:rgb(6,88,95);stroke-width:0.22px;"/>
                </g>
                <g transform="matrix(2.48436,0,0,2.44442,10465,-3768)">
                    <path d="M362.494,141.194L364.564,147.458" style="fill:none;stroke:rgb(6,88,95);stroke-width:0.57px;"/>
                </g>
                <g transform="matrix(2.48436,0,0,2.44442,10465,-3768)">
                    <path d="M361.106,145.162C361.956,144.369 361.134,144.227 362.324,143.858L363.543,146.494L363.969,147.458L364.564,147.458L364.252,146.523L363.033,142.866L361.389,142.866C361.219,143.15 361.701,143.376 360.539,143.291C358.328,143.178 360.057,143.235 359.348,142.866L357.874,142.866C357.534,144.964 358.157,145.219 361.106,145.162Z" style="fill:rgb(6,88,95);stroke:rgb(6,88,95);stroke-width:0.57px;"/>
                </g>
                <g transform="matrix(2.48436,0,0,2.44442,10465,-3768)">
                    <path d="M209.877,133.994L262.715,134.872L296.164,135.893" style="fill:none;stroke:rgb(51,44,43);stroke-width:0.57px;"/>
                </g>
                <g transform="matrix(2.48436,0,0,2.44442,10465,-3768)">
                    <path d="M209.65,135.694L231.562,135.298L272.268,136.091L295.852,136.913L308.891,135.298L360.709,137.48" style="fill:none;stroke:rgb(51,44,43);stroke-width:0.57px;"/>
                </g>
                <g transform="matrix(2.48436,0,0,2.44442,10465,-3768)">
                    <path d="M209.65,135.694L231.562,135.298L272.268,136.091L295.852,136.913L308.891,135.298L360.709,137.48L360.567,136.885L309.798,134.277L296.164,135.893L262.715,134.872L209.877,133.994C209.764,134.674 209.707,135.241 209.65,135.694Z" style="fill:rgb(0,64,76);stroke:rgb(0,64,76);stroke-width:0.57px;"/>
                </g>
                <g transform="matrix(2.48436,0,0,2.44442,10465,-3768)">
                    <rect x="210.841" y="152.929" width="151.852" height="55.02" style="fill:rgb(12,84,97);stroke:rgb(12,84,97);stroke-width:0.57px;"/>
                </g>
                <g transform="matrix(2.48436,0,0,2.44442,10465,-3768)">
                    <rect x="225.354" y="152.929" width="120.444" height="25.342" style="fill:rgb(0,43,51);stroke:rgb(0,43,51);stroke-width:0.57px;"/>
                </g>
                <g transform="matrix(2.48436,0,0,2.44442,10465,-3768)">
                    <rect x="210.841" y="178.157" width="24.293" height="29.792" style="fill:rgb(0,64,76);stroke:rgb(6,88,95);stroke-width:0.57px;"/>
                </g>
                <g transform="matrix(2.48436,0,0,2.44442,10465,-3768)">
                    <rect x="235.134" y="178.157" width="11.197" height="29.792" style="fill:none;stroke:rgb(51,44,43);stroke-width:0.57px;"/>
                </g>
                <g transform="matrix(2.48436,0,0,2.44442,10465,-3768)">
                    <rect x="261.978" y="191.169" width="24.775" height="16.781" style="fill:rgb(0,64,76);stroke:rgb(0,64,76);stroke-width:0.57px;"/>
                </g>
                <g transform="matrix(2.48436,0,0,2.44442,10465,-3768)">
                    <rect x="267.676" y="178.271" width="48.813" height="15.761" style="fill:rgb(0,64,76);stroke:rgb(0,64,76);stroke-width:0.57px;"/>
                </g>
                <g transform="matrix(2.48436,0,0,2.44442,10465,-3768)">
                    <rect x="286.753" y="194.031" width="37.899" height="13.946" style="fill:none;stroke:rgb(51,44,43);stroke-width:0.57px;"/>
                </g>
                <g transform="matrix(2.48436,0,0,2.44442,10465,-3768)">
                    <rect x="316.517" y="178.271" width="15.874" height="29.707" style="fill:none;stroke:rgb(51,44,43);stroke-width:0.57px;"/>
                </g>
                <g transform="matrix(2.48436,0,0,2.44442,10465,-3768)">
                    <rect x="332.391" y="178.271" width="15.449" height="29.707" style="fill:rgb(0,64,76);stroke:rgb(51,44,43);stroke-width:0.57px;"/>
                </g>
                <g transform="matrix(2.48436,0,0,2.44442,10465,-3768)">
                    <rect x="347.839" y="178.271" width="14.854" height="22.876" style="fill:none;stroke:rgb(51,44,43);stroke-width:0.57px;"/>
                </g>
                <g transform="matrix(2.48436,0,0,2.44442,10465,-3768)">
                    <path d="M246.331,207.978L246.331,178.271L235.134,178.271L235.134,207.978L246.331,207.978Z" style="fill:rgb(12,76,87);stroke:rgb(12,76,87);stroke-width:0.57px;"/>
                </g>
                <g transform="matrix(2.48436,0,0,2.44442,10465,-3768)">
                    <path d="M246.331,178.271L246.331,207.978L261.978,207.978L261.978,191.169L267.676,191.169L267.676,178.271L246.331,178.271Z" style="fill:rgb(0,60,71);stroke:rgb(0,60,71);stroke-width:0.57px;"/>
                </g>
                <g transform="matrix(2.48436,0,0,2.44442,10465,-3768)">
                    <path d="M286.753,194.031L286.753,207.978L316.517,207.978L316.517,194.031L304.724,194.031L286.753,194.031Z" style="fill:rgb(12,84,97);stroke:rgb(12,84,97);stroke-width:0.57px;"/>
                </g>
                <g transform="matrix(2.48436,0,0,2.44442,10465,-3768)">
                    <path d="M316.517,178.271L316.517,194.031L324.652,194.031L324.652,207.978L332.391,207.978L332.391,178.271L316.517,178.271Z" style="fill:rgb(12,76,87);stroke:rgb(12,76,87);stroke-width:0.57px;"/>
                </g>
                <g transform="matrix(2.48436,0,0,2.44442,10465,-3768)">
                    <path d="M347.839,178.271L347.839,201.146L362.693,201.146L362.693,178.271L347.839,178.271Z" style="fill:rgb(12,84,97);stroke:rgb(12,84,97);stroke-width:0.57px;"/>
                </g>
                <g transform="matrix(2.48436,0,0,2.44442,10465,-3768)">
                    <path d="M324.652,207.978L324.652,194.031L316.517,194.031L316.517,207.978L324.652,207.978Z" style="fill:rgb(0,60,71);stroke:rgb(0,60,71);stroke-width:0.57px;"/>
                </g>
                <g transform="matrix(2.48436,0,0,2.44442,10465,-3768)">
                    <path d="M247.294,178.271C251.972,181.106 256.649,183.912 262.517,185.046C268.384,186.151 275.443,185.528 282.217,184.11C288.992,182.693 295.512,180.482 302.003,178.271" style="fill:none;stroke:rgb(51,44,43);stroke-width:0.57px;"/>
                </g>
                <g transform="matrix(2.48436,0,0,2.44442,10465,-3768)">
                    <path d="M247.294,178.271C251.972,181.106 256.649,183.912 262.517,185.046C264.161,185.357 265.89,185.528 267.676,185.584L267.676,178.271L247.294,178.271Z" style="fill:rgb(12,84,97);stroke:rgb(12,84,97);stroke-width:0.57px;"/>
                </g>
                <g transform="matrix(2.48436,0,0,2.44442,10465,-3768)">
                    <path d="M267.676,178.271L267.676,185.584C272.296,185.754 277.342,185.131 282.217,184.11C288.992,182.693 295.512,180.482 302.003,178.271L267.676,178.271Z" style="fill:rgb(12,84,97);stroke:rgb(12,84,97);stroke-width:0.57px;"/>
                </g>
                <g transform="matrix(2.48436,0,0,2.44442,10465,-3768)">
                    <rect x="210.841" y="207.978" width="5.131" height="83.962" style="fill:rgb(11,65,74);stroke:rgb(11,65,74);stroke-width:0.57px;"/>
                </g>
                <g transform="matrix(2.48436,0,0,2.44442,10465,-3768)">
                    <rect x="215.972" y="207.978" width="141.789" height="83.962" style="fill:none;stroke:rgb(51,44,43);stroke-width:0.57px;"/>
                </g>
                <g transform="matrix(2.48436,0,0,2.44442,10465,-3768)">
                    <path d="M215.972,216.879L357.761,208.205" style="fill:none;stroke:rgb(51,44,43);stroke-width:0.57px;"/>
                </g>
                <g transform="matrix(2.48436,0,0,2.44442,10465,-3768)">
                    <path d="M215.972,216.879L357.761,208.205L357.761,207.978L347.839,207.978L332.391,207.978L324.652,207.978L316.517,207.978L286.753,207.978L261.978,207.978L246.331,207.978L235.134,207.978L215.972,207.978L215.972,216.879Z" style="fill:rgb(0,39,46);stroke:rgb(0,39,46);stroke-width:0.57px;"/>
                </g>
                <g transform="matrix(2.48436,0,0,2.44442,10465,-3768)">
                    <path d="M315.071,210.387L315.921,218.126C316.29,217.559 316.488,217.106 316.743,216.935C316.998,216.794 317.254,216.85 317.622,217.049L316.857,210.246L316.602,210.274L315.071,210.387Z" style="fill:rgb(11,65,74);stroke:rgb(11,65,74);stroke-width:0.57px;"/>
                </g>
                <g transform="matrix(2.48436,0,0,2.44442,10465,-3768)">
                    <rect x="215.235" y="229.124" width="45.354" height="31.294" style="fill:none;stroke:rgb(51,44,43);stroke-width:0.57px;"/>
                </g>
                <g transform="matrix(2.48436,0,0,2.44442,10465,-3768)">
                    <rect x="215.235" y="260.447" width="45.354" height="4.082" style="fill:none;stroke:rgb(51,44,43);stroke-width:0.57px;"/>
                </g>
                <g transform="matrix(2.48436,0,0,2.44442,10465,-3768)">
                    <rect x="256.479" y="264.529" width="4.11" height="23.102" style="fill:none;stroke:rgb(51,44,43);stroke-width:0.57px;"/>
                </g>
                <g transform="matrix(2.48436,0,0,2.44442,10465,-3768)">
                    <rect x="252.68" y="264.529" width="3.798" height="23.102" style="fill:none;stroke:rgb(51,44,43);stroke-width:0.57px;"/>
                </g>
                <g transform="matrix(2.48436,0,0,2.44442,10465,-3768)">
                    <rect x="247.124" y="264.529" width="5.556" height="22.819" style="fill:none;stroke:rgb(51,44,43);stroke-width:0.57px;"/>
                </g>
                <g transform="matrix(2.48436,0,0,2.44442,10465,-3768)">
                    <rect x="241.994" y="264.529" width="5.131" height="23.981" style="fill:none;stroke:rgb(51,44,43);stroke-width:0.57px;"/>
                </g>
                <g transform="matrix(2.48436,0,0,2.44442,10465,-3768)">
                    <rect x="236.58" y="264.529" width="5.414" height="24.293" style="fill:none;stroke:rgb(51,44,43);stroke-width:0.57px;"/>
                </g>
                <g transform="matrix(2.48436,0,0,2.44442,10465,-3768)">
                    <rect x="231.619" y="264.529" width="4.961" height="24.435" style="fill:none;stroke:rgb(51,44,43);stroke-width:0.57px;"/>
                </g>
                <g transform="matrix(2.48436,0,0,2.44442,10465,-3768)">
                    <rect x="224.589" y="264.529" width="7.03" height="24.86" style="fill:none;stroke:rgb(51,44,43);stroke-width:0.57px;"/>
                </g>
                <g transform="matrix(2.48436,0,0,2.44442,10465,-3768)">
                    <rect x="215.518" y="264.529" width="9.071" height="25.313" style="fill:none;stroke:rgb(51,44,43);stroke-width:0.57px;"/>
                </g>
                <g transform="matrix(2.48436,0,0,2.44442,10465,-3768)">
                    <path d="M215.235,260.447L260.589,260.447L260.589,229.124L215.235,229.124L215.235,260.447Z" style="fill:rgb(0,39,46);stroke:rgb(0,39,46);stroke-width:0.57px;"/>
                </g>
                <g transform="matrix(2.48436,0,0,2.44442,10465,-3768)">
                    <path d="M219.288,229.039L262.942,229.039L262.942,220.706L212.315,220.706L212.315,229.039L219.288,229.039Z" style="fill:rgb(0,39,46);stroke:rgb(0,39,46);stroke-width:0.57px;"/>
                </g>
                <g transform="matrix(2.48436,0,0,2.44442,10465,-3768)">
                    <path d="M224.589,264.529L215.518,264.529L215.518,289.843L224.589,289.843L224.589,289.417L224.589,287.66L224.589,264.529Z" style="fill:rgb(12,84,97);stroke:rgb(12,84,97);stroke-width:0.57px;"/>
                </g>
                <g transform="matrix(2.48436,0,0,2.44442,10465,-3768)">
                    <path d="M224.589,264.529L260.589,264.529L260.589,260.447L215.235,260.447L215.235,264.529L224.589,264.529Z" style="fill:rgb(8,60,69);stroke:rgb(8,60,69);stroke-width:0.57px;"/>
                </g>
                <g transform="matrix(2.48436,0,0,2.44442,10465,-3768)">
                    <path d="M231.619,287.66L231.619,264.529L224.589,264.529L224.589,287.66L231.619,287.66Z" style="fill:rgb(11,65,74);stroke:rgb(11,65,74);stroke-width:0.57px;"/>
                </g>
                <g transform="matrix(2.48436,0,0,2.44442,10465,-3768)">
                    <path d="M231.619,264.529L231.619,288.964L236.58,288.964L236.58,288.822L236.58,287.66L236.58,264.529L231.619,264.529Z" style="fill:rgb(12,84,97);stroke:rgb(12,84,97);stroke-width:0.57px;"/>
                </g>
                <g transform="matrix(2.48436,0,0,2.44442,10465,-3768)">
                    <path d="M236.58,264.529L236.58,288.822L241.994,288.822L241.994,288.539L241.994,287.66L241.994,264.529L236.58,264.529Z" style="fill:rgb(11,65,74);stroke:rgb(11,65,74);stroke-width:0.57px;"/>
                </g>
                <g transform="matrix(2.48436,0,0,2.44442,10465,-3768)">
                    <path d="M241.994,264.529L241.994,287.66L247.124,287.66L247.124,287.348L247.124,264.529L241.994,264.529Z" style="fill:rgb(12,76,87);stroke:rgb(12,76,87);stroke-width:0.57px;"/>
                </g>
                <g transform="matrix(2.48436,0,0,2.44442,10465,-3768)">
                    <path d="M247.124,264.529L247.124,287.348L252.68,287.348L252.68,264.529L247.124,264.529Z" style="fill:rgb(11,65,74);stroke:rgb(11,65,74);stroke-width:0.57px;"/>
                </g>
                <g transform="matrix(2.48436,0,0,2.44442,10465,-3768)">
                    <path d="M252.68,264.529L252.68,287.66L256.479,287.66L256.479,264.529L252.68,264.529Z" style="fill:rgb(12,76,87);stroke:rgb(12,76,87);stroke-width:0.57px;"/>
                </g>
                <g transform="matrix(2.48436,0,0,2.44442,10465,-3768)">
                    <path d="M256.479,264.529L256.479,287.66L260.589,287.66L260.589,264.529L256.479,264.529Z" style="fill:rgb(11,65,74);stroke:rgb(11,65,74);stroke-width:0.57px;"/>
                </g>
                <g transform="matrix(2.48436,0,0,2.44442,10465,-3768)">
                    <path d="M261.298,286.781L215.235,286.781L215.235,291.6L261.298,291.6L261.298,286.781Z" style="fill:rgb(8,60,69);stroke:rgb(8,60,69);stroke-width:0.57px;"/>
                </g>
                <g transform="matrix(2.48436,0,0,2.44442,10465,-3768)">
                    <path d="M231.42,227.849L231.931,215.065L229.635,215.121L229.975,228.076C230.457,227.877 230.939,227.82 231.42,227.849Z" style="fill:rgb(11,65,74);stroke:rgb(11,65,74);stroke-width:0.57px;"/>
                </g>
                <g transform="matrix(2.48436,0,0,2.44442,10465,-3768)">
                    <path d="M229.975,228.076L229.635,215.121L210.784,215.717C210.756,217.219 210.699,218.693 211.323,220.082C211.946,221.499 213.222,222.803 214.98,224.192C216.765,225.581 219.005,226.998 221.046,228.076C223.115,229.153 224.957,229.861 226.431,229.691C227.877,229.521 228.926,228.501 229.975,228.076Z" style="fill:rgb(17,77,87);stroke:rgb(17,77,87);stroke-width:0.57px;"/>
                </g>
                <g transform="matrix(2.48436,0,0,2.44442,10465,-3768)">
                    <rect x="301.38" y="224.362" width="56.381" height="67.408" style="fill:rgb(0,39,46);stroke:rgb(0,39,46);stroke-width:0.57px;"/>
                </g>
                <g transform="matrix(2.48436,0,0,2.44442,10465,-3768)">
                    <rect x="260.589" y="227.82" width="100.035" height="4.904" style="fill:rgb(12,76,87);stroke:rgb(12,76,87);stroke-width:0.57px;"/>
                </g>
                <g transform="matrix(2.48436,0,0,2.44442,10465,-3768)">
                    <rect x="357.761" y="205.483" width="5.301" height="86.287" style="fill:rgb(11,65,74);stroke:rgb(11,65,74);stroke-width:0.57px;"/>
                </g>
                <g transform="matrix(2.48436,0,0,2.44442,10465,-3768)">
                    <rect x="333.865" y="213.165" width="5.074" height="16.072" style="fill:rgb(12,76,87);stroke:rgb(12,76,87);stroke-width:0.57px;"/>
                </g>
                <g transform="matrix(2.48436,0,0,2.44442,10465,-3768)">
                    <path d="M325.417,220.422C322.639,220.054 320.797,219.203 319.465,218.353C318.699,217.843 318.076,217.332 317.622,217.077L317.594,217.049C317.254,216.85 316.97,216.794 316.743,216.935C316.488,217.106 316.29,217.559 315.921,218.126C315.496,218.75 314.872,219.572 313.682,220.337C311.443,221.811 307.191,223.228 301.38,224.362L333.865,224.362L333.865,220.28C330.52,220.706 327.657,220.706 325.417,220.422Z" style="fill:rgb(0,39,46);stroke:rgb(0,39,46);stroke-width:0.57px;"/>
                </g>
                <g transform="matrix(2.48436,0,0,2.44442,10465,-3768)">
                    <path d="M338.939,219.373L338.939,224.362L357.761,224.362L357.761,209.906C357.137,210.472 356.542,211.039 355.975,211.578C353.991,213.449 352.29,214.923 348.945,216.34C346.28,217.474 342.539,218.608 338.939,219.373Z" style="fill:rgb(0,39,46);stroke:rgb(0,39,46);stroke-width:0.57px;"/>
                </g>
                <g transform="matrix(2.48436,0,0,2.44442,10465,-3768)">
                    <path d="M316.857,210.359L317.622,217.077C318.076,217.332 318.699,217.843 319.465,218.353C320.797,219.203 322.639,220.054 325.417,220.422C328.195,220.791 331.909,220.677 336.274,219.912C340.611,219.146 345.6,217.757 348.945,216.34C352.29,214.923 353.991,213.449 355.975,211.578C357.959,209.735 360.198,207.496 362.438,205.285L316.857,210.359Z" style="fill:rgb(17,77,87);stroke:rgb(17,77,87);stroke-width:0.57px;"/>
                </g>
                <g transform="matrix(2.48436,0,0,2.44442,10465,-3768)">
                    <path d="M267.846,225.043C264.898,224.504 263.622,224.277 262.942,223.965L262.942,227.82L301.38,227.82L301.38,224.362C295.54,225.496 288.142,226.346 281.962,226.375C275.811,226.403 270.907,225.581 267.846,225.043Z" style="fill:rgb(0,39,46);stroke:rgb(0,39,46);stroke-width:0.57px;"/>
                </g>
                <g transform="matrix(2.48436,0,0,2.44442,10465,-3768)">
                    <rect x="260.589" y="222.038" width="3.685" height="69.902" style="fill:rgb(12,84,97);stroke:rgb(12,84,97);stroke-width:0.57px;"/>
                </g>
                <g transform="matrix(2.48436,0,0,2.44442,10465,-3768)">
                    <path d="M260.561,214.157L261.354,224.391C261.666,223.965 261.808,223.625 261.921,223.483C262.12,223.172 262.233,223.597 262.885,223.909L262.885,223.937L261.978,214.129L260.561,214.157Z" style="fill:rgb(11,65,74);stroke:rgb(11,65,74);stroke-width:0.57px;"/>
                </g>
                <g transform="matrix(2.48436,0,0,2.44442,10465,-3768)">
                    <path d="M231.931,215.065L231.42,227.849C231.931,227.877 232.413,228.019 232.809,228.189C233.603,228.501 234.198,228.898 235.899,229.606C237.6,230.315 240.406,231.307 243.298,231.335C246.189,231.364 249.165,230.485 252.113,229.408C255.061,228.331 258.038,227.083 259.682,225.95C260.532,225.383 261.043,224.816 261.354,224.391L260.561,214.157L231.931,215.065Z" style="fill:rgb(17,77,87);stroke:rgb(17,77,87);stroke-width:0.57px;"/>
                </g>
                <g transform="matrix(2.48436,0,0,2.44442,10465,-3768)">
                    <path d="M261.978,214.129L262.885,223.937C263.565,224.249 264.813,224.504 267.846,225.043C270.907,225.581 275.811,226.403 281.962,226.375C288.142,226.346 295.54,225.496 301.38,224.362C307.191,223.228 311.443,221.811 313.682,220.337C314.872,219.572 315.496,218.75 315.921,218.126L315.071,210.387L262.176,214.129L261.978,214.129Z" style="fill:rgb(17,77,87);stroke:rgb(17,77,87);stroke-width:0.57px;"/>
                </g>
                <g transform="matrix(2.48436,0,0,2.44442,10465,-3768)">
                    <rect x="264.274" y="232.724" width="37.106" height="59.046" style="fill:rgb(0,39,46);stroke:rgb(0,39,46);stroke-width:0.57px;"/>
                </g>
                <g transform="matrix(2.48436,0,0,2.44442,10465,-3768)">
                    <rect x="301.38" y="227.82" width="4.11" height="64.12" style="fill:rgb(12,76,87);stroke:rgb(12,76,87);stroke-width:0.57px;"/>
                </g>
                <g transform="matrix(2.48436,0,0,2.44442,10465,-3768)">
                    <rect x="261.298" y="286.781" width="101.735" height="4.989" style="fill:rgb(12,76,87);stroke:rgb(12,76,87);stroke-width:0.57px;"/>
                </g>
                <g transform="matrix(2.48436,0,0,2.44442,10465,-3768)">
                    <rect x="264.274" y="232.724" width="9.666" height="54.057" style="fill:rgb(12,76,87);stroke:rgb(12,76,87);stroke-width:0.57px;"/>
                </g>
                <g transform="matrix(2.48436,0,0,2.44442,10465,-3768)">
                    <rect x="273.94" y="232.724" width="9.156" height="44.447" style="fill:rgb(8,60,69);stroke:rgb(8,60,69);stroke-width:0.57px;"/>
                </g>
                <g transform="matrix(2.48436,0,0,2.44442,10465,-3768)">
                    <rect x="293.074" y="232.724" width="8.306" height="51.165" style="fill:rgb(8,60,69);stroke:rgb(8,60,69);stroke-width:0.57px;"/>
                </g>
                <g transform="matrix(2.48436,0,0,2.44442,10465,-3768)">
                    <path d="M356.06,288.482L357.506,288.255L357.506,284.825L355.776,285.279L355.039,287.49L356.06,288.482Z" style="fill:rgb(1,42,58);"/>
                </g>
                <g transform="matrix(2.48436,0,0,2.44442,10465,-3768)">
                    <path d="M426.246,279.156L463.068,289.474L476.532,284.457L492.888,278.391L426.246,279.156Z" style="fill:rgb(6,88,95);stroke:rgb(51,44,43);stroke-width:0.57px;"/>
                </g>
                <g transform="matrix(2.48436,0,0,2.44442,10465,-3768)">
                    <path d="M363.033,256.422L404.334,250.838L441.184,230.967L508.961,247.465L570.614,228.926" style="fill:none;stroke:rgb(51,44,43);stroke-width:0.57px;"/>
                </g>
                <g transform="matrix(2.48436,0,0,2.44442,10465,-3768)">
                    <path d="M404.334,250.838L363.033,256.422L363.033,279.921L416.296,279.298L420.038,277.427L423.609,278.447L426.246,279.156L463.068,289.474L476.532,284.457L523.162,267.137L528.123,258.945L530.872,251.915L570.614,228.926L565.965,230.315L565.965,230.967L563.783,230.967L508.961,247.465L441.184,230.967L404.334,250.838Z" style="fill:rgb(0,56,69);stroke:rgb(0,56,69);stroke-width:0.57px;"/>
                </g>
                <g transform="matrix(2.48436,0,0,2.44442,10465,-3768)">
                    <path d="M420.038,277.427L416.296,279.298L415.616,279.638L423.609,278.447L420.038,277.427Z" style="fill:rgb(0,56,69);stroke:rgb(0,56,69);stroke-width:0.57px;"/>
                </g>
                <g transform="matrix(2.48436,0,0,2.44442,10465,-3768)">
                    <path d="M404.334,250.838L431.603,266.712L426.246,279.156" style="fill:none;stroke:rgb(51,44,43);stroke-width:0.57px;"/>
                </g>
                <g transform="matrix(2.48436,0,0,2.44442,10465,-3768)">
                    <path d="M431.603,266.712L495.496,244.205L518.117,274.507" style="fill:none;stroke:rgb(51,44,43);stroke-width:0.57px;"/>
                </g>
                <g transform="matrix(2.48436,0,0,2.44442,10465,-3768)">
                    <path d="M470.183,253.106L463.068,289.474" style="fill:none;stroke:rgb(51,44,43);stroke-width:0.57px;"/>
                </g>
                <g transform="matrix(2.48436,0,0,2.44442,10465,-3768)">
                    <path d="M431.603,266.712L404.334,250.838L363.033,256.422L363.033,279.921L407.254,279.383L416.296,279.298L418.054,278.419L420.038,277.427L422.249,278.05L426.898,277.625L431.603,266.712Z" style="fill:rgb(0,77,84);stroke:rgb(0,77,84);stroke-width:0.57px;"/>
                </g>
                <g transform="matrix(2.48436,0,0,2.44442,10465,-3768)">
                    <path d="M418.649,215.263L398.806,226.375L412.271,246.557L441.184,230.967L441.184,225.638L430.951,225.609L429.902,215.263L418.649,215.263Z" style="fill:rgb(3,153,153);stroke:rgb(3,153,153);stroke-width:0.57px;"/>
                </g>
                <g transform="matrix(2.48436,0,0,2.44442,10465,-3768)">
                    <path d="M424.488,175.38L390.926,175.493L362.693,201.146L428.513,201.146L425.934,175.38L424.488,175.38Z" style="fill:rgb(3,153,153);stroke:rgb(3,153,153);stroke-width:0.57px;"/>
                </g>
                <g transform="matrix(2.48436,0,0,2.44442,10465,-3768)">
                    <path d="M428.513,201.146L374.598,201.146L374.598,215.263L391.38,215.263L398.806,226.375L418.649,215.263L429.902,215.263L428.513,201.146Z" style="fill:rgb(3,153,153);stroke:rgb(3,153,153);stroke-width:0.57px;"/>
                </g>
                <g transform="matrix(2.48436,0,0,2.44442,10465,-3768)">
                    <path d="M424.63,174.954L427.209,206.901L428.598,224.391L429.619,237.231L439.88,237.288L439.88,223.313L439.88,193.805L439.88,192.926L439.88,180.255L439.88,174.898L431.15,174.926L424.63,174.954Z" style="fill:rgb(68,163,149);stroke:rgb(68,163,149);stroke-width:0.57px;"/>
                </g>
                <g transform="matrix(2.48436,0,0,2.44442,10465,-3768)">
                    <path d="M404.334,250.838L431.603,266.712L470.183,253.106L495.496,244.205L441.184,230.967L404.334,250.838Z" style="fill:rgb(0,63,69);stroke:rgb(0,63,69);stroke-width:0.57px;"/>
                </g>
                <g transform="matrix(2.48436,0,0,2.44442,10465,-3768)">
                    <path d="M470.183,253.106L465.165,278.702L463.068,289.474L476.532,284.457L514.913,270.198L495.496,244.205L470.183,253.106Z" style="fill:rgb(0,69,84);stroke:rgb(0,69,84);stroke-width:0.57px;"/>
                </g>
                <g transform="matrix(2.48436,0,0,2.44442,10465,-3768)">
                    <path d="M495.496,244.205L514.913,270.198L523.162,267.137L528.123,258.945L530.872,251.915L570.614,228.926L565.965,230.315L565.965,230.967L563.783,230.967L508.961,247.465L495.496,244.205Z" style="fill:rgb(12,78,84);stroke:rgb(12,78,84);stroke-width:0.57px;"/>
                </g>
                <g transform="matrix(2.48436,0,0,2.44442,10465,-3768)">
                    <path d="M465.165,278.702L470.183,253.106L431.603,266.712L426.898,277.625L426.246,279.156L463.068,289.474L465.165,278.702Z" style="fill:rgb(0,69,84);stroke:rgb(0,69,84);stroke-width:0.57px;"/>
                </g>
                <g transform="matrix(2.48436,0,0,2.44442,10465,-3768)">
                    <path d="M430.384,112.819L430.951,118.006L493.257,119.537" style="fill:none;stroke:rgb(51,44,43);stroke-width:0.57px;"/>
                </g>
                <g transform="matrix(2.48436,0,0,2.44442,10465,-3768)">
                    <path d="M391.209,131.839L430.951,118.006L424.375,132.406L424.488,175.38" style="fill:none;stroke:rgb(51,44,43);stroke-width:0.57px;"/>
                </g>
                <g transform="matrix(2.48436,0,0,2.44442,10465,-3768)">
                    <path d="M424.375,137.424L494.476,137.594L494.759,141.874L423.099,143.036" style="fill:none;stroke:rgb(51,44,43);stroke-width:0.57px;"/>
                </g>
                <g transform="matrix(2.48436,0,0,2.44442,10465,-3768)">
                    <path d="M424.431,160.243L495.496,160.838" style="fill:none;stroke:rgb(51,44,43);stroke-width:0.57px;"/>
                </g>
                <g transform="matrix(2.48436,0,0,2.44442,10465,-3768)">
                    <path d="M424.431,153.893L495.553,154.205" style="fill:none;stroke:rgb(51,44,43);stroke-width:0.57px;"/>
                </g>
                <g transform="matrix(2.48436,0,0,2.44442,10465,-3768)">
                    <path d="M427.436,127.502L493.795,127.332" style="fill:none;stroke:rgb(51,44,43);stroke-width:0.57px;"/>
                </g>
                <g transform="matrix(2.48436,0,0,2.44442,10465,-3768)">
                    <path d="M424.431,153.893L424.403,143.008L424.375,137.424L424.375,132.406L430.951,118.006L391.209,131.839L390.926,175.493L424.488,175.38L424.431,160.243L424.431,153.893Z" style="fill:rgb(3,153,153);stroke:rgb(3,153,153);stroke-width:0.22px;"/>
                </g>
                <g transform="matrix(2.48436,0,0,2.44442,10465,-3768)">
                    <path d="M463.465,160.554L424.431,160.243L424.488,175.38L496.97,175.209L495.553,154.205L484.498,154.148L484.441,160.753L463.465,160.554Z" style="fill:rgb(68,163,149);"/>
                </g>
                <g transform="matrix(2.48436,0,0,2.44442,10465,-3768)">
                    <path d="M391.209,131.839L430.951,118.006L430.384,112.819L380.75,130.62L380.75,131.357L391.209,131.839Z" style="fill:rgb(82,197,176);stroke:rgb(82,197,176);stroke-width:0.57px;"/>
                </g>
                <g transform="matrix(2.48436,0,0,2.44442,10465,-3768)">
                    <path d="M430.951,118.006L448.016,118.403L462.104,118.772L493.257,119.537L493.03,116.164L430.384,112.819L430.951,118.006Z" style="fill:rgb(82,197,176);stroke:rgb(82,197,176);stroke-width:0.57px;"/>
                </g>
                <g transform="matrix(2.48436,0,0,2.44442,10465,-3768)">
                    <path d="M494.759,141.874L441.383,142.724L438.151,142.781L424.403,143.008L424.431,153.893L463.521,154.063L484.498,154.148L495.553,154.205L494.759,141.874Z" style="fill:rgb(68,163,149);"/>
                </g>
                <g transform="matrix(2.48436,0,0,2.44442,10465,-3768)">
                    <path d="M441.298,137.48L494.476,137.594L493.795,127.332L462.132,127.417L445.635,127.474L448.016,118.403L430.951,118.006L424.375,132.406L424.375,137.424L438.066,137.452L441.298,137.48Z" style="fill:rgb(68,163,149);"/>
                </g>
                <g transform="matrix(2.48436,0,0,2.44442,10465,-3768)">
                    <path d="M463.465,160.554L463.521,154.063L424.431,153.893L424.431,160.243L463.465,160.554Z" style="fill:rgb(81,198,181);stroke:rgb(81,198,181);stroke-width:0.57px;"/>
                </g>
                <g transform="matrix(2.48436,0,0,2.44442,10465,-3768)">
                    <path d="M438.151,142.781L438.066,137.452L424.375,137.424L424.403,143.008L438.151,142.781Z" style="fill:rgb(81,198,181);stroke:rgb(81,198,181);stroke-width:0.57px;"/>
                </g>
                <g transform="matrix(2.48436,0,0,2.44442,10465,-3768)">
                    <rect x="441.184" y="189.893" width="124.781" height="41.074" style="fill:rgb(0,125,125);stroke:rgb(0,125,125);stroke-width:0.57px;"/>
                </g>
                <g transform="matrix(2.48436,0,0,2.44442,10465,-3768)">
                    <rect x="535.805" y="190.063" width="29.934" height="40.365" style="fill:rgb(0,125,125);stroke:rgb(0,125,125);stroke-width:0.57px;"/>
                </g>
                <g transform="matrix(2.48436,0,0,2.44442,10465,-3768)">
                    <rect x="441.184" y="190.602" width="29.934" height="40.365" style="fill:rgb(0,125,125);stroke:rgb(0,125,125);stroke-width:0.57px;"/>
                </g>
                <g transform="matrix(2.48436,0,0,2.44442,10465,-3768)">
                    <path d="M569.083,148.082L447.647,145.814L433.984,160.072L578.75,161.32L569.083,148.082Z" style="fill:none;stroke:rgb(51,44,43);stroke-width:0.57px;"/>
                </g>
                <g transform="matrix(2.48436,0,0,2.44442,10465,-3768)">
                    <path d="M484.498,154.148L463.521,154.063L463.465,160.554L484.441,160.753L484.498,154.148Z" style="fill:rgb(81,198,181);stroke:rgb(81,198,181);stroke-width:0.57px;"/>
                </g>
                <g transform="matrix(2.48436,0,0,2.44442,10465,-3768)">
                    <path d="M569.083,148.082L447.647,145.814L433.984,160.072L578.75,161.32L569.083,148.082Z" style="fill:rgb(8,128,128);stroke:rgb(8,128,128);stroke-width:0.57px;"/>
                </g>
                <g transform="matrix(2.48436,0,0,2.44442,10465,-3768)">
                    <rect x="441.184" y="161.49" width="23.584" height="28.375" style="fill:rgb(8,128,128);stroke:rgb(8,128,128);stroke-width:0.57px;"/>
                </g>
                <g transform="matrix(2.48436,0,0,2.44442,10465,-3768)">
                    <rect x="541.757" y="160.271" width="23.584" height="28.375" style="fill:rgb(8,128,128);stroke:rgb(8,128,128);stroke-width:0.57px;"/>
                </g>
                <g transform="matrix(2.48436,0,0,2.44442,10465,-3768)">
                    <rect x="464.797" y="164.494" width="76.989" height="15.165" style="fill:rgb(81,198,181);stroke:rgb(81,198,181);stroke-width:0.57px;"/>
                </g>
                <g transform="matrix(2.48436,0,0,2.44442,10465,-3768)">
                    <rect x="441.184" y="179.66" width="124.157" height="10.942" style="fill:rgb(0,107,107);stroke:rgb(0,107,107);stroke-width:0.57px;"/>
                </g>
                <g transform="matrix(2.48436,0,0,2.44442,10465,-3768)">
                    <rect x="440.929" y="160.157" width="125.15" height="4.337" style="fill:rgb(0,107,107);stroke:rgb(0,107,107);stroke-width:0.57px;"/>
                </g>
                <g transform="matrix(2.48436,0,0,2.44442,10465,-3768)">
                    <path d="M441.014,160.328C446.797,163.049 452.608,165.77 458.731,167.414C464.854,169.03 471.317,169.54 477.439,168.888C483.562,168.236 489.345,166.45 494.901,166.025C500.428,165.628 505.729,166.62 513.921,165.543C520.129,164.75 527.981,162.765 536.23,160.498L441.014,160.328Z" style="fill:rgb(0,107,107);stroke:rgb(0,107,107);stroke-width:0.57px;"/>
                </g>
                <g transform="matrix(2.48436,0,0,2.44442,10465,-3768)">
                    <path d="M441.184,190.602L567.213,197.83L565.342,190.602" style="fill:none;stroke:rgb(51,44,43);stroke-width:0.57px;"/>
                </g>
                <g transform="matrix(2.48436,0,0,2.44442,10465,-3768)">
                    <path d="M441.184,190.602L567.213,197.83L565.342,190.602L441.184,190.602Z" style="fill:rgb(0,89,89);stroke:rgb(0,89,89);stroke-width:0.57px;"/>
                </g>
                <g transform="matrix(2.48436,0,0,2.44442,10465,-3768)">
                    <path d="M485.518,193.124L441.184,190.602C442.63,192.359 444.104,194.117 447.477,195.761C450.85,197.405 456.123,198.935 461.849,199.361C467.546,199.757 473.669,199.049 480.557,199.361C482.145,199.417 483.817,199.531 485.518,199.672L485.518,193.124Z" style="fill:rgb(0,89,89);stroke:rgb(0,89,89);stroke-width:0.57px;"/>
                </g>
                <g transform="matrix(2.48436,0,0,2.44442,10465,-3768)">
                    <path d="M485.518,193.124L485.518,199.672C491.102,200.154 497.367,200.863 504.964,200.58C514.885,200.239 527.131,198.227 534.841,196.157C535.039,196.101 535.266,196.044 535.465,195.987L485.518,193.124Z" style="fill:rgb(0,89,89);stroke:rgb(0,89,89);stroke-width:0.57px;"/>
                </g>
                <g transform="matrix(2.48436,0,0,2.44442,10465,-3768)">
                    <path d="M485.518,193.124L535.465,195.987C541.871,194.23 545.017,192.416 547.767,190.602L485.518,190.602L441.184,190.602L485.518,193.124Z" style="fill:rgb(0,89,89);stroke:rgb(0,89,89);stroke-width:0.57px;"/>
                </g>
                <g transform="matrix(2.48436,0,0,2.44442,10465,-3768)">
                    <path d="M441.184,230.967L495.496,244.205L508.961,247.465L563.783,230.967L491.811,230.967L491.811,237.883L480.614,237.883L474.831,230.967L471.118,230.967L441.184,230.967Z" style="fill:rgb(0,125,125);stroke:rgb(0,125,125);stroke-width:0.57px;"/>
                </g>
                <g transform="matrix(2.48436,0,0,2.44442,10465,-3768)">
                    <path d="M474.831,230.967L480.614,237.883L491.811,237.883L491.811,230.967L474.831,230.967Z" style="fill:rgb(0,125,125);stroke:rgb(0,125,125);stroke-width:0.57px;"/>
                </g>
                <g transform="matrix(2.48436,0,0,2.44442,10465,-3768)">
                    <path d="M438.066,137.452L438.151,142.781" style="fill:none;stroke:rgb(51,44,43);stroke-width:0.57px;"/>
                </g>
                <g transform="matrix(2.48436,0,0,2.44442,10465,-3768)">
                    <path d="M441.298,137.48L441.383,142.724" style="fill:none;stroke:rgb(51,44,43);stroke-width:0.57px;"/>
                </g>
                <g transform="matrix(2.48436,0,0,2.44442,10465,-3768)">
                    <path d="M494.476,137.594L441.298,137.48L441.383,142.724L494.759,141.874L494.476,137.594Z" style="fill:rgb(81,198,181);stroke:rgb(81,198,181);stroke-width:0.57px;"/>
                </g>
                <g transform="matrix(2.48436,0,0,2.44442,10465,-3768)">
                    <path d="M438.066,137.452L438.151,142.781L441.383,142.724L441.298,137.48L438.066,137.452Z" style="fill:rgb(68,163,149);stroke:rgb(68,163,149);stroke-width:0.57px;"/>
                </g>
                <g transform="matrix(2.48436,0,0,2.44442,10465,-3768)">
                    <path d="M166.989,230.428L167.584,254.409L139.663,266.967" style="fill:none;stroke:rgb(51,44,43);stroke-width:0.57px;"/>
                </g>
                <g transform="matrix(2.48436,0,0,2.44442,10465,-3768)">
                    <path d="M150.661,215.972L167.187,216.198" style="fill:none;stroke:rgb(51,44,43);stroke-width:0.57px;"/>
                </g>
                <g transform="matrix(2.48436,0,0,2.44442,10465,-3768)">
                    <path d="M374.598,201.146L374.598,215.263" style="fill:none;stroke:rgb(51,44,43);stroke-width:0.57px;"/>
                </g>
                <g transform="matrix(2.48436,0,0,2.44442,10465,-3768)">
                    <path d="M411.902,246.728L398.438,226.545L391.011,215.433L374.23,215.433L362.693,215.433L362.693,256.592L403.994,251.008L411.902,246.728Z" style="fill:rgb(68,163,149);stroke:rgb(68,163,149);stroke-width:0.57px;"/>
                </g>
                <g transform="matrix(2.48436,0,0,2.44442,10465,-3768)">
                    <path d="M167.584,254.409L139.663,266.967L139.833,282.557L176.939,282.104L180.652,273.458C181.247,273.26 181.843,273.061 182.494,272.863L182.494,232.299L166.989,230.428L167.584,254.409Z" style="fill:rgb(3,153,153);stroke:rgb(3,153,153);stroke-width:0.57px;"/>
                </g>
                <g transform="matrix(2.48436,0,0,2.44442,10465,-3768)">
                    <path d="M76.224,258.321L76.224,210.784L63.184,210.274L63.609,257.669L64.913,258.945L70.157,262.318L76.535,259.058C76.365,258.86 76.224,258.605 76.224,258.321Z" style="fill:rgb(81,198,181);stroke:rgb(81,198,181);stroke-width:0.57px;"/>
                </g>
                <g transform="matrix(2.48436,0,0,2.44442,10465,-3768)">
                    <path d="M139.294,236.268L139.663,266.967L167.584,254.409L166.989,230.428L167.187,216.198L150.661,215.972L150.151,234.964L139.294,235.474L139.294,236.268Z" style="fill:rgb(82,197,176);stroke:rgb(82,197,176);stroke-width:0.57px;"/>
                </g>
                <g transform="matrix(2.48436,0,0,2.44442,10465,-3768)">
                    <path d="M186.888,229.068L186.888,271.502L192.387,267.25L197.83,267.25L210.841,273.033L210.841,261.326L203.244,259.313L204.18,212.513L197.773,212.825L186.888,229.068Z" style="fill:rgb(3,153,153);stroke:rgb(3,153,153);stroke-width:0.57px;"/>
                </g>
                <g transform="matrix(2.48436,0,0,2.44442,10465,-3768)">
                    <path d="M204.18,212.513L203.244,259.313L210.841,261.326L210.841,218.098C210.756,217.332 210.784,216.51 210.784,215.717L210.841,215.717L210.841,207.978L210.841,186.86C210.699,186.831 210.557,186.775 210.444,186.746C208.205,189.439 205.994,192.132 203.839,194.598L204.18,212.513Z" style="fill:rgb(68,163,149);stroke:rgb(68,163,149);stroke-width:0.57px;"/>
                </g>
                <g transform="matrix(2.48436,0,0,2.44442,10465,-3768)">
                    <path d="M167.187,216.198L167.471,193.521L151.625,180.567L150.661,215.972L167.187,216.198Z" style="fill:rgb(82,197,176);stroke:rgb(82,197,176);stroke-width:0.57px;"/>
                </g>
                <g transform="matrix(2.48436,0,0,2.44442,10465,-3768)">
                    <path d="M151.625,180.567L167.471,193.521L167.556,187.172L182.494,187.143L182.494,184.847L152.135,160.951L151.625,180.567Z" style="fill:rgb(82,197,176);stroke:rgb(82,197,176);stroke-width:0.57px;"/>
                </g>
                <g transform="matrix(2.48436,0,0,2.44442,10465,-3768)">
                    <path d="M152.135,160.951L182.494,184.847L182.494,160.781L152.135,160.951Z" style="fill:rgb(82,197,176);stroke:rgb(82,197,176);stroke-width:0.57px;"/>
                </g>
                <g transform="matrix(2.48436,0,0,2.44442,10465,-3768)">
                    <path d="M355.606,83.764L355.975,123.732L358.271,129.94L358.923,129.94L361.191,136.885L361.304,137.48L363.09,141.194L363.883,142.866L365.783,142.866L365.783,146.494L365.811,146.523L365.783,146.523L365.783,151.257C364.082,150.803 365.074,150.775 363.515,150.888C363.317,150.917 363.146,150.917 363.005,150.945L363.005,152.929L363.288,152.929L363.288,201.146L391.55,175.493L391.833,131.839L381.345,131.357L379.502,131.272L381.345,130.62L405.241,122.06L405.269,63.496L355.606,83.764Z" style="fill:rgb(178,247,206);stroke:rgb(178,247,206);stroke-width:0.57px;"/>
                </g>
                <g transform="matrix(2.48436,0,0,2.44442,10465,-3768)">
                    <path d="M405.439,63.241L405.439,121.776L431.178,112.564L450.397,113.584L451.616,64.63L405.439,63.241Z" style="fill:rgb(178,247,206);stroke:rgb(178,247,206);stroke-width:0.57px;"/>
                </g>
                <g transform="matrix(2.48436,0,0,2.44442,10465,-3768)">
                    <path d="M374.598,201.146L362.693,201.146L362.693,205.483L363.033,205.483L363.033,215.263L374.598,215.263L374.598,201.146Z" style="fill:rgb(178,247,206);stroke:rgb(178,247,206);stroke-width:0.57px;"/>
                </g>
                <g transform="matrix(2.48436,0,0,2.44442,10465,-3768)">
                    <path d="M493.965,127.531L493.427,119.707L484.668,119.48L462.161,118.942L453.203,118.715L451.672,118.687L448.186,118.602L447.506,121.209L445.805,127.644L452.041,127.616L462.161,127.587L484.583,127.531L493.965,127.531Z" style="fill:rgb(68,163,149);stroke:rgb(68,163,149);stroke-width:0.57px;"/>
                </g>
                <g transform="matrix(2.48436,0,0,2.44442,10465,-3768)">
                    <path d="M441.184,230.967L441.184,225.638L441.184,214.384L441.184,190.602L441.184,189.893L441.184,179.66L441.184,175.351L439.88,175.351L439.087,175.351L432.482,175.38L425.934,175.38L424.658,175.38L426.728,201.146L427.209,206.901L427.861,215.263L428.598,224.391L429.619,237.203L439.087,232.101L439.88,231.676L441.184,230.967Z" style="fill:rgb(68,163,149);stroke:rgb(68,163,149);stroke-width:0.57px;"/>
                </g>
                <g transform="matrix(2.48436,0,0,2.44442,10465,-3768)">
                    <path d="M186.888,160.894L210.841,160.894" style="fill:none;stroke:rgb(51,44,43);stroke-width:0.57px;"/>
                </g>
                <g transform="matrix(2.48436,0,0,2.44442,10465,-3768)">
                    <path d="M210.841,160.894L186.888,160.894L186.888,187.143L203.698,187.143L203.839,194.598C205.994,192.132 208.205,189.439 210.444,186.746C210.557,186.576 210.699,186.406 210.841,186.265L210.841,178.157L210.841,160.894Z" style="fill:rgb(82,197,176);stroke:rgb(82,197,176);stroke-width:0.57px;"/>
                </g>
                <g transform="matrix(2.48436,0,0,2.44442,10465,-3768)">
                    <path d="M186.888,148.521C186.888,148.357 186.778,148.224 186.643,148.224L182.739,148.224C182.604,148.224 182.494,148.357 182.494,148.521L182.494,288.015C182.494,288.179 182.604,288.312 182.739,288.312L186.643,288.312C186.778,288.312 186.888,288.179 186.888,288.015L186.888,148.521Z" style="fill:rgb(0,28,42);stroke:rgb(0,28,42);stroke-width:0.57px;"/>
                </g>
                <g transform="matrix(2.48436,0,0,2.44442,10465,-3768)">
                    <path d="M180.652,273.458C181.956,273.033 183.288,272.58 185.301,272.098C187.285,271.587 190.006,271.049 192.246,271.446C194.485,271.871 196.271,273.26 197.603,274.791C198.935,276.293 199.814,277.909 200.863,278.901C201.883,279.893 203.074,280.261 203.414,281.027C203.726,281.792 203.187,282.983 202.62,284.173" style="fill:none;stroke:rgb(51,44,43);stroke-width:0.57px;"/>
                </g>
                <g transform="matrix(2.48436,0,0,2.44442,10465,-3768)">
                    <path d="M219.175,290.268C218.438,288.624 217.672,287.008 216.652,286.299C215.631,285.591 214.384,285.789 213.052,285.902C211.72,285.987 210.302,285.987 209.452,285.364C208.573,284.712 208.205,283.436 207.298,282.614C206.362,281.792 204.888,281.424 203.414,281.027" style="fill:none;stroke:rgb(51,44,43);stroke-width:0.57px;"/>
                </g>
                <g transform="matrix(2.48436,0,0,2.44442,10465,-3768)">
                    <path d="M199.219,276.86C202.054,276.605 204.888,276.35 206.561,276.406C208.261,276.491 208.772,276.888 209.055,277.512C209.367,278.107 209.452,278.957 210.784,279.383C212.145,279.78 214.781,279.78 216.425,280.29C218.098,280.828 218.835,281.849 219.827,283.323C220.819,284.797 222.094,286.696 222.491,288.028C222.888,289.332 222.406,290.041 221.924,290.75" style="fill:none;stroke:rgb(51,44,43);stroke-width:0.57px;"/>
                </g>
                <g transform="matrix(2.48436,0,0,2.44442,10465,-3768)">
                    <path d="M192.246,271.446C190.431,271.106 188.277,271.417 186.491,271.814C186.066,271.899 185.669,272.013 185.301,272.098C183.288,272.58 181.956,273.033 180.652,273.458L202.62,284.173C203.187,282.983 203.726,281.792 203.414,281.027C203.074,280.261 201.883,279.893 200.863,278.901C200.296,278.362 199.786,277.654 199.219,276.86C198.737,276.18 198.227,275.471 197.603,274.791C196.271,273.26 194.485,271.871 192.246,271.446Z" style="fill:rgb(1,53,65);stroke:rgb(1,53,65);stroke-width:0.57px;"/>
                </g>
                <g transform="matrix(2.48436,0,0,2.44442,10465,-3768)">
                    <path d="M192.246,271.446C194.485,271.871 196.271,273.26 197.603,274.791C198.227,275.471 198.737,276.18 199.219,276.86C202.054,276.605 204.888,276.35 206.561,276.406C208.261,276.491 208.772,276.888 209.055,277.512C209.367,278.107 209.452,278.957 210.784,279.383C211.124,279.468 211.521,279.553 211.946,279.609L211.55,273.345L197.83,267.25L192.387,267.25L186.491,271.814C188.277,271.417 190.431,271.106 192.246,271.446Z" style="fill:rgb(12,84,97);stroke:rgb(12,84,97);stroke-width:0.57px;"/>
                </g>
                <g transform="matrix(2.48436,0,0,2.44442,10465,-3768)">
                    <path d="M206.561,276.406C204.888,276.35 202.054,276.605 199.219,276.86C199.786,277.654 200.296,278.362 200.863,278.901C201.883,279.893 203.074,280.261 203.414,281.027C204.888,281.424 206.362,281.792 207.298,282.614C208.205,283.436 208.573,284.712 209.452,285.364C210.302,285.987 211.72,285.987 213.052,285.902C214.384,285.789 215.631,285.591 216.652,286.299C217.672,287.008 218.438,288.624 219.175,290.268L221.924,290.75C222.406,290.041 222.888,289.332 222.491,288.028C222.094,286.696 220.819,284.797 219.827,283.323C218.835,281.849 218.098,280.828 216.425,280.29C215.178,279.921 213.335,279.808 211.946,279.609C211.521,279.553 211.124,279.468 210.784,279.383C209.452,278.957 209.367,278.107 209.055,277.512C208.772,276.888 208.261,276.491 206.561,276.406Z" style="fill:rgb(12,76,87);stroke:rgb(12,76,87);stroke-width:0.57px;"/>
                </g>
                <g transform="matrix(2.48436,0,0,2.44442,10465,-3768)">
                    <path d="M213.052,285.902C211.72,285.987 210.302,285.987 209.452,285.364C208.573,284.712 208.205,283.436 207.298,282.614C206.362,281.792 204.888,281.424 203.414,281.027C203.726,281.792 203.187,282.983 202.62,284.173L212.74,289.077L219.175,290.268C218.438,288.624 217.672,287.008 216.652,286.299C215.631,285.591 214.384,285.789 213.052,285.902Z" style="fill:rgb(0,91,107);stroke:rgb(0,91,107);stroke-width:0.57px;"/>
                </g>
                <g transform="matrix(2.48436,0,0,2.44442,10465,-3768)">
                    <path d="M125.943,228.444L111.572,227.452L110.608,203.216L107.717,203.046L81.95,203.046L81.95,254.863L82.318,254.58L89.065,272.239L91.616,271.843L91.672,271.928L136.715,282.586L139.833,282.557L139.663,266.967L139.294,236.268L138.983,260.504L128.806,259.257L126.652,236.069L126.425,236.098L126.369,232.923L125.943,228.444Z" style="fill:rgb(82,197,176);stroke:rgb(82,197,176);stroke-width:0.57px;"/>
                </g>
                <g transform="matrix(2.48436,0,0,2.44442,10465,-3768)">
                    <path d="M81.95,105.676C115.483,132.066 148.989,158.457 182.494,184.847" style="fill:none;stroke:rgb(51,44,43);stroke-width:0.57px;"/>
                </g>
                <g transform="matrix(2.48436,0,0,2.44442,10465,-3768)">
                    <path d="M77.386,119.962C113.896,149.754 150.406,179.575 186.888,209.395" style="fill:none;stroke:rgb(51,44,43);stroke-width:0.57px;"/>
                </g>
                <g transform="matrix(2.48436,0,0,2.44442,10465,-3768)">
                    <path d="M185.641,189.043C188.532,189.043 191.424,189.043 193.918,187.965C196.413,186.888 198.482,184.762 201.317,181.757C204.151,178.753 207.694,174.898 211.266,171.014" style="fill:none;stroke:rgb(51,44,43);stroke-width:0.57px;"/>
                </g>
                <g transform="matrix(2.48436,0,0,2.44442,10465,-3768)">
                    <path d="M186.746,205.54C190.517,204.406 194.287,203.244 196.838,201.061C199.361,198.85 200.636,195.619 202.847,190.431C205.03,185.244 208.148,178.129 211.266,171.014" style="fill:none;stroke:rgb(51,44,43);stroke-width:0.57px;"/>
                </g>
                <g transform="matrix(2.48436,0,0,2.44442,10465,-3768)">
                    <path d="M78.463,103.861C72.227,106.923 65.991,110.013 55.531,107.291C45.043,104.57 30.331,96.038 15.619,87.534" style="fill:none;stroke:rgb(51,44,43);stroke-width:0.57px;"/>
                </g>
                <g transform="matrix(2.48436,0,0,2.44442,10465,-3768)">
                    <path d="M81.95,123.676C77.556,125.745 73.134,127.786 67.181,129.402C61.257,131.017 53.802,132.18 44.957,131.471C36.085,130.791 25.852,128.211 15.619,125.66" style="fill:none;stroke:rgb(51,44,43);stroke-width:0.57px;"/>
                </g>
                <g transform="matrix(2.48436,0,0,2.44442,10465,-3768)">
                    <rect x="57.883" y="101.877" width="45.468" height="4.195" style="fill:rgb(0,28,42);stroke:rgb(0,28,42);stroke-width:0.57px;"/>
                </g>
                <g transform="matrix(2.48436,0,0,2.44442,10465,-3768)">
                    <rect x="57.373" y="110.183" width="45.468" height="4.195" style="fill:rgb(0,28,42);stroke:rgb(0,28,42);stroke-width:0.57px;"/>
                </g>
                <g transform="matrix(2.48436,0,0,2.44442,10465,-3768)">
                    <rect x="76.224" y="129.146" width="15.902" height="26.929" style="fill:rgb(0,28,42);stroke:rgb(0,28,42);stroke-width:0.57px;"/>
                </g>
                <g transform="matrix(2.48436,0,0,2.44442,10465,-3768)">
                    <rect x="169.512" y="157.833" width="28.998" height="4.195" style="fill:rgb(0,28,42);stroke:rgb(0,28,42);stroke-width:0.57px;"/>
                </g>
                <g transform="matrix(2.48436,0,0,2.44442,10465,-3768)">
                    <rect x="169.2" y="166.139" width="28.998" height="4.195" style="fill:rgb(0,28,42);stroke:rgb(0,28,42);stroke-width:0.57px;"/>
                </g>
                <g transform="matrix(2.48436,0,0,2.44442,10465,-3768)">
                    <rect x="187.058" y="182.353" width="7.965" height="17.32" style="fill:rgb(0,28,42);stroke:rgb(0,28,42);stroke-width:0.57px;"/>
                </g>
                <g transform="matrix(2.48436,0,0,2.44442,10465,-3768)">
                    <path d="M81.95,92.363C81.95,92.154 81.81,91.984 81.637,91.984L76.536,91.984C76.364,91.984 76.224,92.154 76.224,92.363L76.224,259.019C76.224,259.229 76.364,259.398 76.536,259.398L81.637,259.398C81.81,259.398 81.95,259.229 81.95,259.019L81.95,92.363Z" style="fill:rgb(0,28,42);stroke:rgb(0,28,42);stroke-width:0.57px;"/>
                </g>
                <g transform="matrix(2.48436,0,0,2.44442,10465,-3768)">
                    <path d="M76.224,110.183C70.753,112.961 65.282,115.739 57.43,116.561C49.606,117.354 39.43,116.192 32.088,114.378C24.718,112.592 20.183,110.126 15.619,107.688" style="fill:none;stroke:rgb(51,44,43);stroke-width:0.57px;"/>
                </g>
                <g transform="matrix(2.48436,0,0,2.44442,10465,-3768)">
                    <path d="M84.869,114.378C90.935,120.557 96.973,126.709 108.935,131.414C120.869,136.12 138.699,139.38 156.784,137.962C174.841,136.517 193.153,130.394 211.436,124.243" style="fill:none;stroke:rgb(51,44,43);stroke-width:0.57px;"/>
                </g>
                <g transform="matrix(2.48436,0,0,2.44442,10465,-3768)">
                    <clipPath id="_clip2">
                        <rect x="18.794" y="31.181" width="552.954" height="784.176"/>
                    </clipPath>
                    <g clip-path="url(#_clip2)">
                        <rect x="499.691" y="146.92" width="7.143" height="134.079" style="fill:rgb(1,35,54);stroke:rgb(1,35,54);stroke-width:0.57px;"/>
                        <path d="M523.162,267.137L476.532,284.457L495.553,287.49L523.162,271.616L528.123,258.945L523.162,267.137Z" style="fill:rgb(0,56,69);stroke:rgb(0,56,69);stroke-width:0.57px;"/>
                        <rect x="489.742" y="152.731" width="28.431" height="4.195" style="fill:rgb(0,28,42);stroke:rgb(0,28,42);stroke-width:0.57px;"/>
                        <rect x="489.43" y="161.036" width="28.431" height="4.195" style="fill:rgb(0,28,42);stroke:rgb(0,28,42);stroke-width:0.57px;"/>
                        <rect x="402.945" y="98.164" width="7.143" height="160.328" style="fill:rgb(1,77,85);stroke:rgb(1,77,85);stroke-width:0.57px;"/>
                        <path d="M407.735,117.553C392.627,122.854 377.49,128.126 369.099,130.11C360.709,132.066 359.093,130.734 357.449,129.373" style="fill:none;stroke:rgb(1,35,54);stroke-width:0.57px;"/>
                        <rect x="389.82" y="105.109" width="35.943" height="5.017" style="fill:rgb(1,77,85);stroke:rgb(1,77,85);stroke-width:0.57px;"/>
                        <rect x="390.019" y="115.058" width="35.433" height="5.017" style="fill:rgb(1,77,85);stroke:rgb(1,77,85);stroke-width:0.57px;"/>
                        <path d="M410.088,110.126C417.118,119.225 424.176,128.353 432.822,136.687C441.468,145.02 451.729,152.589 463.124,155.82C474.548,159.08 487.106,158.003 499.691,156.926" style="fill:none;stroke:rgb(1,35,54);stroke-width:0.57px;"/>
                        <path d="M410.088,125.263C418.961,135.921 427.833,146.58 440.135,153.128C452.466,159.676 468.227,162.085 479.849,161.461C491.443,160.866 498.926,157.209 506.381,153.581" style="fill:none;stroke:rgb(1,35,54);stroke-width:0.57px;"/>
                        <path d="M410.088,137.367C414.85,143.943 419.641,150.491 428.088,155.055C436.535,159.647 448.611,162.198 461.14,162.17C473.698,162.142 486.68,159.534 499.691,156.926" style="fill:none;stroke:rgb(1,35,54);stroke-width:0.57px;"/>
                        <path d="M503.972,154.828C508.592,156.898 513.241,158.967 523.587,159.846C533.934,160.753 550.006,160.441 559.162,159.137C568.318,157.833 570.557,155.509 572.797,153.184" style="fill:none;stroke:rgb(1,35,54);stroke-width:0.57px;"/>
                        <path d="M410.088,110.126C400.762,112.479 391.408,114.803 382.195,116.957C372.954,119.112 363.827,121.068 354.699,123.024" style="fill:none;stroke:rgb(1,77,85);stroke-width:0.57px;"/>
                        <path d="M405.241,115.058C397.729,118.602 390.189,122.145 382.139,124.299C374.088,126.454 365.499,127.219 356.939,127.984" style="fill:none;stroke:rgb(1,77,85);stroke-width:0.57px;"/>
                    </g>
                </g>
            </g>
            <g transform="matrix(2.76572,0,0,2.76572,3812.35,1852.85)">
                <circle cx="195.987" cy="64.602" r="22.847" style="fill:rgb(232,255,243);stroke:rgb(232,255,243);stroke-width:0.57px;"/>
            </g>
            <g transform="matrix(6.31752,0,0,6.31752,4835.45,2463.4)">
                <g transform="matrix(1,0,0,1,-226.772,-170.079)">
                    <g id="Layer_x0020_1">
                        <path d="M144.425,173.169C142.441,173.934 140.457,174.728 138.472,175.493" style="fill:none;stroke:rgb(51,44,43);stroke-width:0.57px;"/>
                        <path d="M142.781,181.956C140.23,180.057 137.679,178.129 135.78,175.89C133.88,173.679 132.633,171.099 132.803,168.435C132.973,165.742 134.589,162.964 136.517,160.724C138.416,158.513 140.655,156.898 144.113,156.586C147.572,156.246 152.249,157.266 155.112,158.882C157.975,160.498 159.052,162.737 159.619,163.984C160.186,165.203 160.243,165.458 160.441,166.167C160.639,166.847 160.923,168.009 161.235,169.143" style="fill:none;stroke:rgb(51,44,43);stroke-width:0.57px;"/>
                        <path d="M90.34,186.945C88.044,190.318 85.776,193.691 86.315,199.389C86.882,205.058 90.283,213.08 93.742,219.345C97.2,225.638 100.687,230.202 102.671,232.413C104.655,234.652 105.08,234.51 107.631,233.008C110.183,231.534 114.86,228.699 118.743,226.602C122.627,224.476 125.688,223.058 126.709,220.989C127.729,218.92 126.709,216.198 125.802,213.647C124.894,211.096 124.157,208.687 123.562,207.269C122.995,205.824 122.627,205.37 123.165,204.265C123.704,203.131 125.178,201.373 126.51,199.417C127.843,197.461 129.061,195.307 130.252,193.181" style="fill:none;stroke:rgb(51,44,43);stroke-width:0.57px;"/>
                        <path d="M124.328,209.367C129.628,207.439 134.901,205.512 140.202,203.613" style="fill:none;stroke:rgb(51,44,43);stroke-width:0.57px;"/>
                        <path d="M157.833,183.458C159.137,184.422 160.441,185.357 162.057,187.143C163.701,188.901 165.657,191.537 165.118,195.307C164.608,199.049 161.575,203.981 158.287,208.431C154.97,212.882 151.398,216.879 147.798,220.847" style="fill:none;stroke:rgb(51,44,43);stroke-width:0.57px;"/>
                        <path d="M135.099,222.463C133.994,225.893 132.888,229.294 131.783,232.724" style="fill:none;stroke:rgb(51,44,43);stroke-width:0.57px;"/>
                        <path d="M106.611,233.603C111.883,237.402 117.184,241.172 122.485,244.97" style="fill:none;stroke:rgb(51,44,43);stroke-width:0.57px;"/>
                        <path d="M160.157,157.663C160.923,157.493 161.66,157.323 162.34,156.983C162.992,156.614 163.559,156.047 164.126,155.083C164.665,154.091 165.26,152.702 165.969,151.654C166.649,150.605 167.499,149.924 168.378,149.329C169.285,148.706 170.192,148.139 171.865,147.855C173.537,147.543 175.975,147.515 177.732,147.657C179.518,147.827 180.652,148.167 181.786,148.507" style="fill:none;stroke:rgb(51,44,43);stroke-width:0.57px;"/>
                        <path d="M136.517,160.724C138.416,158.513 140.655,156.898 144.113,156.586C147.572,156.246 152.249,157.266 155.112,158.882C157.975,160.498 159.052,162.737 159.619,163.984C160.186,165.203 160.243,165.458 160.441,166.167L161.235,169.143C160.923,167.811 160.498,166.394 160.101,164.976C160.299,162.709 160.498,160.441 160.129,158.769C159.789,157.068 158.882,155.962 157.493,155.112C156.104,154.233 154.233,153.638 150.265,153.326C146.324,152.986 140.287,152.929 133.058,154.743C125.83,156.557 117.439,160.243 111.855,163.616C106.299,167.017 103.578,170.107 100.261,173.254C96.945,176.428 93.033,179.631 90.369,181.474C87.704,183.288 86.287,183.77 86.485,184.337C86.683,184.932 88.526,185.641 90.34,186.945C92.154,188.249 93.969,190.148 97.852,192.501C101.707,194.825 107.603,197.603 111.146,198.312C114.69,199.02 115.852,197.66 118.743,196.299C121.635,194.967 126.255,193.635 130.252,193.181C134.249,192.728 137.622,193.153 140.967,193.578C141.137,192.076 141.307,190.573 141.477,189.241C141.874,186.293 142.328,184.139 142.781,181.956C140.23,180.057 137.679,178.129 135.78,175.89C133.88,173.679 132.633,171.099 132.803,168.435C132.973,165.742 134.589,162.964 136.517,160.724Z" style="fill:rgb(247,239,230);stroke:rgb(247,239,230);stroke-width:0.57px;"/>
                        <path d="M138.302,251.291C137.877,251.121 137.65,251.518 136.63,250.696C136.431,250.554 136.063,250.469 135.893,250.129C135.269,252 134.844,253.814 134.816,255.146C134.759,256.479 135.496,257.754 136.375,256.847C137.48,255.685 136.687,255.118 137.14,253.843C137.48,252.992 137.735,252.057 138.302,251.291Z" style="fill:rgb(247,164,129);"/>
                        <g id="_915547680">
                            <path d="M134.702,231.08L143.603,232.98C143.036,234.397 142.526,235.701 142.044,236.863C141.874,237.317 141.704,237.742 141.562,238.139C139.89,242.391 139.691,243.411 140.202,244.602C140.712,245.792 141.959,247.153 143.206,248.57C143.603,249.024 144,249.477 144.425,249.902C145.276,250.809 146.183,251.66 147.175,252.198C148.62,253.02 150.293,253.191 152.022,254.013C153.751,254.835 155.537,256.337 155.367,257.187C155.197,258.009 153.099,258.208 151.569,257.924C150.066,257.613 149.159,256.819 148.025,256.082C146.863,255.317 145.446,254.608 144.624,254.438C143.773,254.268 143.546,254.608 143.348,255.033C143.15,255.458 143.036,255.94 143.348,256.535C143.688,257.131 144.454,257.811 144.369,258.208C144.255,258.605 143.235,258.746 142.668,258.321C142.072,257.896 141.902,256.876 141.534,255.685C141.165,254.494 140.598,253.106 139.861,252.34C139.521,252 139.124,251.802 138.756,251.631C138.302,251.461 137.877,251.348 137.509,251.178C136.828,250.866 136.375,250.356 135.865,249.931C135.694,249.789 135.496,249.676 135.298,249.307C134.986,248.627 134.702,247.209 134.589,243.609C134.532,241.767 134.504,239.329 134.532,236.665C134.561,234.879 134.617,232.98 134.702,231.08Z" style="fill:rgb(245,199,169);"/>
                            <path d="M143.603,232.98C143.036,234.397 142.526,235.701 142.044,236.863C141.874,237.317 141.704,237.742 141.562,238.139C139.89,242.391 139.691,243.411 140.202,244.602C140.712,245.792 141.959,247.153 143.206,248.57C143.603,249.024 144,249.477 144.425,249.902C145.276,250.809 146.183,251.66 147.175,252.198C148.62,253.02 150.293,253.191 152.022,254.013C153.751,254.835 155.537,256.337 155.367,257.187C155.197,258.009 153.099,258.208 151.569,257.924C150.066,257.613 149.159,256.819 148.025,256.082C146.863,255.317 145.446,254.608 144.624,254.438C143.773,254.268 143.546,254.608 143.348,255.033C143.15,255.458 143.036,255.94 143.348,256.535C143.688,257.131 144.454,257.811 144.369,258.208C144.255,258.605 143.235,258.746 142.668,258.321C142.072,257.896 141.902,256.876 141.534,255.685C141.165,254.494 140.598,253.106 139.861,252.34C139.521,252 139.124,251.802 138.756,251.631C138.302,251.461 137.877,251.348 137.509,251.178C136.828,250.866 136.375,250.356 135.865,249.931C135.694,249.789 135.496,249.676 135.298,249.307C134.986,248.627 134.702,247.209 134.589,243.609C134.532,241.767 134.504,239.329 134.532,236.665C134.561,234.879 134.617,232.98 134.702,231.08" style="fill:none;stroke:rgb(245,199,169);stroke-width:0.57px;"/>
                        </g>
                        <path d="M136.602,231.506L143.717,232.668C143.688,232.781 143.631,232.894 143.603,232.98L136.602,231.506Z" style="fill:rgb(238,238,239);stroke:rgb(238,238,239);stroke-width:0.22px;"/>
                        <path d="M136.602,231.506L143.717,232.668C145.162,228.983 146.806,224.674 147.883,220.932C147.94,220.819 147.969,220.677 147.997,220.535C149.698,214.668 149.953,210.331 150.463,207.213C150.973,204.094 151.71,202.195 152.447,199.871C153.156,197.518 153.893,194.74 154.346,192.643C154.8,190.573 154.97,189.156 156.019,186.945C156.501,185.924 157.181,184.734 157.918,183.543C158.74,182.154 159.647,180.709 160.328,179.49C161.603,177.25 162.198,175.776 162.057,173.48C162.057,173.169 162.028,172.857 161.972,172.517C161.858,171.524 161.603,170.391 161.32,169.228L160.526,166.252C160.328,165.543 160.271,165.288 159.704,164.069C159.137,162.822 158.06,160.583 155.197,158.967C152.334,157.351 147.657,156.331 144.198,156.643C140.74,156.954 138.501,158.598 136.602,160.809C134.674,163.02 133.058,165.827 132.888,168.52C132.718,171.184 133.965,173.764 135.865,175.975C137.764,178.214 140.315,180.142 142.866,182.041C142.413,184.224 141.959,186.378 141.562,189.326C141.392,190.658 141.222,192.132 141.052,193.635C140.74,196.639 140.428,199.701 140.145,201.742C140.031,202.592 139.918,203.272 139.805,203.868C139.493,205.37 139.124,206.192 138.472,207.638C137.622,209.622 136.261,212.825 135.439,219.912C135.354,220.734 135.269,221.613 135.184,222.52C134.957,225.184 134.787,228.161 134.702,231.08L136.602,231.506Z" style="fill:rgb(247,239,230);stroke:rgb(238,238,239);stroke-width:0.22px;"/>
                        <path d="M130.252,193.181C126.255,193.635 121.635,194.967 118.743,196.299C115.852,197.66 114.69,199.02 111.146,198.312C107.603,197.603 101.707,194.825 97.852,192.501C93.969,190.148 92.154,188.249 90.34,186.945C88.044,190.318 85.776,193.691 86.315,199.389C86.882,205.058 90.283,213.08 93.742,219.345C97.2,225.638 100.687,230.202 102.671,232.413C104.343,234.312 104.91,234.482 106.611,233.603C106.894,233.433 107.235,233.235 107.631,233.008C110.183,231.534 114.86,228.699 118.743,226.602C122.627,224.476 127.417,228.189 128.438,226.12C129.458,224.05 126.539,215.688 125.802,213.647C125.093,211.578 124.781,210.614 124.328,209.367C124.044,208.545 123.789,207.836 123.562,207.269C122.995,205.824 122.627,205.37 123.165,204.265C123.704,203.131 125.178,201.373 126.51,199.417C127.843,197.461 129.061,195.307 130.252,193.181Z" style="fill:rgb(48,36,46);stroke:rgb(48,36,46);stroke-width:0.57px;"/>
                        <path d="M130.252,193.181C129.061,195.307 127.843,197.461 126.51,199.417C125.178,201.373 123.704,203.131 123.165,204.265C122.627,205.37 122.995,205.824 123.562,207.269C123.789,207.836 124.044,208.545 124.328,209.367L139.72,203.783C139.833,203.187 139.946,202.535 140.06,201.685C140.343,199.616 140.655,196.554 140.967,193.578C137.622,193.153 134.249,192.728 130.252,193.181Z" style="fill:rgb(48,36,46);stroke:rgb(48,36,46);stroke-width:0.57px;"/>
                        <path d="M154.261,192.586C153.836,194.655 153.099,197.433 152.362,199.786C151.625,202.11 150.888,204.038 150.378,207.128C149.868,210.246 149.613,214.583 147.912,220.479C147.912,220.564 147.883,220.677 147.855,220.791C151.427,216.822 154.998,212.854 158.287,208.431C161.575,203.981 164.608,199.049 165.118,195.307C165.657,191.537 163.701,188.901 162.057,187.143C160.441,185.357 159.137,184.422 157.833,183.458C157.124,184.677 156.444,185.839 155.934,186.86C154.885,189.071 154.715,190.488 154.261,192.586Z" style="fill:rgb(48,36,46);stroke:rgb(48,36,46);stroke-width:0.57px;"/>
                        <g id="_915547272">
                            <path d="M86.882,228.898L86.23,239.499C86.173,239.499 86.145,239.499 86.088,239.499C84.784,239.471 83.254,239.471 82.431,239.471C81.978,239.471 81.723,239.471 81.496,239.329C81.326,239.216 81.156,238.989 80.901,238.62C80.306,237.742 79.313,236.041 78.888,234.539C78.435,233.036 78.576,231.761 79.058,230.457C79.54,229.124 80.334,227.764 81.326,227.367C82.29,226.97 83.452,227.565 84.926,228.161C85.521,228.416 86.145,228.643 86.882,228.898Z" style="fill:rgb(247,239,230);stroke:rgb(247,239,230);stroke-width:0.22px;"/>
                            <path d="M86.23,239.499C86.173,239.499 86.145,239.499 86.088,239.499C84.784,239.471 83.254,239.471 82.431,239.471C81.978,239.471 81.723,239.471 81.496,239.329C81.326,239.216 81.156,238.989 80.901,238.62C80.306,237.742 79.313,236.041 78.888,234.539C78.435,233.036 78.576,231.761 79.058,230.457C79.54,229.124 80.334,227.764 81.326,227.367C82.29,226.97 83.452,227.565 84.926,228.161C85.521,228.416 86.145,228.643 86.882,228.898" style="fill:none;stroke:rgb(247,239,230);stroke-width:0.57px;"/>
                        </g>
                        <g id="_915547032">
                            <path d="M86.882,228.898L86.23,239.499C87.477,239.528 88.696,239.641 94.224,242.107C99.893,244.658 110.154,249.704 116.476,252.113C122.769,254.523 125.15,254.296 127.417,253.928C129.685,253.587 131.868,253.106 133.2,252.283C134.561,251.461 135.071,250.328 135.326,249.732L135.609,249.165C135.269,248.513 134.986,247.096 134.872,243.468C134.816,241.625 134.787,239.216 134.844,236.523C134.135,234.737 133.427,232.923 132.661,231.165C132.236,230.258 131.839,229.323 131.386,228.444C130.082,225.836 128.58,223.398 127.077,220.932C126.057,223.002 122.995,224.419 119.112,226.545C115.257,228.671 110.58,231.506 108,232.98C107.631,233.206 107.263,233.405 106.98,233.575C105.279,234.454 104.712,234.255 103.039,232.384L100.885,231.987C98.702,231.619 94.394,230.854 91.304,230.145C89.433,229.72 88.044,229.294 86.882,228.898Z" style="fill:rgb(48,36,46);stroke:rgb(48,36,46);stroke-width:0.22px;"/>
                            <path d="M86.23,239.499C87.477,239.528 88.696,239.641 94.224,242.107C99.893,244.658 110.154,249.704 116.476,252.113C122.769,254.523 125.15,254.296 127.417,253.928C129.685,253.587 131.868,253.106 133.2,252.283C134.561,251.461 135.071,250.328 135.326,249.732L135.609,249.165C135.269,248.513 134.986,247.096 134.872,243.468C134.816,241.625 134.787,239.216 134.844,236.523C134.135,234.737 133.427,232.923 132.661,231.165C132.236,230.258 131.839,229.323 131.386,228.444C130.082,225.836 128.58,223.398 127.077,220.932C126.057,223.002 122.995,224.419 119.112,226.545C115.257,228.671 110.58,231.506 108,232.98C107.631,233.206 107.263,233.405 106.98,233.575C105.279,234.454 104.712,234.255 103.039,232.384L100.885,231.987C98.702,231.619 94.394,230.854 91.304,230.145C89.433,229.72 88.044,229.294 86.882,228.898" style="fill:none;stroke:rgb(48,36,46);stroke-width:0.57px;"/>
                        </g>
                        <path d="M135.099,222.463L132.293,231.222C133.058,232.98 133.767,234.765 134.476,236.58C134.532,232.044 134.731,226.828 135.099,222.463Z" style="fill:rgb(48,36,46);stroke:rgb(48,36,46);stroke-width:0.57px;"/>
                        <path d="M146.098,242.702C144.68,241.143 143.405,239.216 142.129,237.26C141.931,237.713 141.761,238.139 141.619,238.535C139.946,242.787 139.748,243.808 140.258,245.027C140.769,246.217 142.016,247.578 143.263,248.967C143.688,249.42 144.085,249.874 144.482,250.299C146.863,250.413 149.187,250.498 151.143,250.498C153.269,250.469 154.913,250.328 155.537,249.987C156.161,249.647 155.764,249.109 155.225,248.57C154.658,248.06 153.978,247.521 153.298,247.011C152.476,246.954 151.512,246.699 150.406,246.132C149.074,245.452 147.515,244.261 146.098,242.702Z" style="fill:rgb(187,81,50);stroke:rgb(187,81,50);stroke-width:0.57px;"/>
                        <path d="M69.335,226.006C70.186,224.872 71.32,223.937 72.482,223.002C70.866,223.143 69.109,223.483 67.606,224.135C65.225,225.156 63.468,226.942 62.929,228.983C62.391,231.052 63.043,233.348 62.731,235.928C62.447,238.507 61.2,241.342 60.803,243.666C60.435,245.991 60.917,247.805 61.795,249.194C62.674,250.583 63.978,251.518 65.849,252.283C64.885,250.838 63.921,249.392 63.354,248.117C62.787,246.841 62.646,245.735 62.504,244.687C62.391,243.638 62.306,242.646 63.128,241.087C63.95,239.556 65.65,237.43 66.472,235.559C67.323,233.688 67.266,232.101 67.521,230.513C67.776,228.926 68.343,227.339 69.335,226.006Z" style="fill:rgb(238,238,239);stroke:rgb(238,238,239);stroke-width:0.57px;"/>
                        <path d="M72,223.172C70.809,224.107 69.676,225.043 68.854,226.176C67.861,227.509 67.294,229.068 67.039,230.655C66.756,232.271 66.813,233.858 65.991,235.729C65.169,237.6 63.439,239.726 62.646,241.257C61.824,242.816 61.909,243.78 62.022,244.828C62.135,245.877 62.306,247.011 62.872,248.287C63.439,249.562 64.403,251.008 65.339,252.454C67.238,253.191 69.704,253.729 71.15,253.984C72.624,254.211 73.049,254.183 73.219,253.644C73.417,253.134 73.332,252.17 73.162,251.065C73.02,249.987 72.794,248.797 72.652,247.918C72.51,247.068 72.425,246.557 73.304,245.877C74.154,245.197 75.997,244.346 77.499,243.269C79.002,242.192 80.22,240.86 81.411,239.528C81.241,239.414 81.071,239.216 80.816,238.819C80.22,237.969 79.228,236.239 78.803,234.737C78.35,233.263 78.491,231.987 78.973,230.655C79.455,229.323 80.249,227.962 81.241,227.594C81.326,227.537 81.411,227.509 81.524,227.48C80.816,226.46 80.107,225.524 79.398,224.844C78.123,223.597 76.847,223.2 74.721,223.115C73.899,223.087 72.964,223.087 72,223.172Z" style="fill:rgb(187,81,50);stroke:rgb(187,81,50);stroke-width:0.57px;"/>
                        <path d="M172.658,168.151C172.8,168.435 172.97,168.69 173.112,168.973C173.169,169.03 173.197,169.087 173.225,169.143C173.792,170.022 174.359,170.759 174.983,171.269C175.351,171.354 175.805,171.411 176.287,171.326C177.364,171.156 178.724,170.391 179.972,169.682C181.219,168.973 182.353,168.293 183.288,167.726C184.195,167.159 184.904,166.734 185.244,166.365C185.443,166.139 185.499,165.969 185.499,165.742C185.386,165.061 185.301,164.183 185.301,163.417C185.272,162.425 185.357,161.631 185.754,160.866C185.868,160.611 186.038,160.384 186.208,160.129C186.236,160.072 186.265,160.016 186.293,159.959C186.576,159.335 186.888,158.655 187.087,157.861C187.285,157.096 187.37,156.217 187.342,155.367C187.285,154.488 187.143,153.638 186.945,152.674C186.746,151.71 186.52,150.633 185.811,149.613C185.074,148.592 183.883,147.628 182.778,146.891C181.644,146.183 180.624,145.729 179.291,145.474C177.931,145.219 176.258,145.191 174.501,145.332C172.743,145.474 170.872,145.786 169.455,146.183C168.066,146.608 167.131,147.146 166.365,148.082C165.6,148.989 165.005,150.265 164.494,151.285C164.013,152.306 163.587,153.071 163.02,153.978C162.425,154.885 161.688,155.934 160.98,156.331C160.243,156.728 159.562,156.472 158.882,156.246C159.335,156.841 159.619,157.521 159.817,158.343C160.157,160.044 159.959,162.312 159.789,164.551C160.186,165.969 160.583,167.386 160.923,168.718C161.065,169.285 161.178,169.852 161.291,170.391C162.227,169.994 163.162,169.625 164.324,169.228C165.487,168.831 166.904,168.435 167.981,168.18C169.03,167.924 169.739,167.811 170.504,167.924C171.269,168.009 172.063,168.35 172.885,168.661C172.8,168.491 172.715,168.321 172.658,168.151ZM170.504,163.729C170.759,164.296 171.014,164.863 171.468,165.713C171.808,166.422 172.29,167.357 172.658,168.151C171.921,166.819 171.213,165.288 170.504,163.729Z" style="fill:rgb(237,199,176);stroke:rgb(237,199,176);stroke-width:0.57px;"/>
                        <path d="M187.228,153.581C186.094,153.751 184.677,153.099 183.402,152.022C182.126,150.945 180.964,149.443 180.397,148.706C179.802,147.969 179.802,147.969 179.008,148.932C178.214,149.896 176.598,151.824 175.209,152.929C173.849,154.006 172.715,154.29 172.035,154.091C171.383,153.921 171.213,153.269 170.816,152.844C170.447,152.447 169.88,152.277 169.285,152.249C168.69,152.22 168.094,152.334 167.556,152.589C167.046,152.844 166.564,153.269 166.791,153.893C167.017,154.517 167.896,155.339 168.265,155.849C168.633,156.359 168.491,156.529 167.896,156.898C167.329,157.266 166.365,157.89 165.203,157.89C164.069,157.89 162.737,157.323 161.603,156.501C160.469,155.679 159.534,154.63 159.591,153.383C159.647,152.107 160.696,150.633 161.008,148.904C161.348,147.175 160.951,145.134 161.546,143.348C162.142,141.562 163.729,139.975 165.175,138.983C166.62,137.962 167.924,137.537 169.569,137.537C171.241,137.537 173.254,137.962 175.436,137.877C177.591,137.792 179.943,137.197 181.672,137.254C183.43,137.31 184.564,138.019 185.499,139.124C186.406,140.258 187.115,141.761 187.852,143.887C188.589,146.013 189.354,148.734 189.298,150.605C189.241,152.447 188.391,153.439 187.228,153.581Z" style="fill:none;stroke:rgb(51,44,43);stroke-width:0.57px;"/>
                        <path d="M183.402,152.022C184.677,153.099 186.094,153.751 187.228,153.581C187.285,153.581 187.313,153.581 187.37,153.581C187.342,153.411 187.313,153.241 187.257,153.071C187.087,152.107 186.831,151.058 186.123,150.038C185.414,149.017 184.224,148.025 183.09,147.317C181.984,146.58 180.964,146.126 179.603,145.871C178.271,145.644 176.598,145.616 174.841,145.757C173.055,145.871 171.184,146.183 169.795,146.608C168.378,147.033 167.471,147.572 166.706,148.479C165.94,149.386 165.345,150.661 164.835,151.682C164.324,152.702 163.928,153.468 163.332,154.375C162.85,155.14 162.227,156.019 161.631,156.529C161.858,156.699 162.085,156.841 162.312,156.983C163.276,157.521 164.296,157.89 165.203,157.89C166.365,157.89 167.329,157.266 167.896,156.898C168.491,156.529 168.633,156.359 168.265,155.849C167.896,155.339 167.017,154.517 166.791,153.893C166.564,153.269 167.046,152.844 167.556,152.589C168.094,152.334 168.69,152.22 169.285,152.249C169.88,152.277 170.447,152.447 170.816,152.844C171.213,153.269 171.383,153.921 172.035,154.091C172.715,154.29 173.849,154.006 175.209,152.929C176.598,151.824 178.214,149.896 179.008,148.932C179.802,147.969 179.802,147.969 180.397,148.706C180.964,149.443 182.126,150.945 183.402,152.022Z" style="fill:rgb(255,247,237);stroke:rgb(51,44,43);stroke-width:0.57px;"/>
                        <path d="M174.841,145.757C176.598,145.616 178.271,145.644 179.603,145.871C180.964,146.126 181.984,146.58 183.09,147.317C184.224,148.025 185.414,149.017 186.123,150.038C186.831,151.058 187.087,152.107 187.257,153.071C187.285,153.128 187.285,153.156 187.313,153.184C187.342,153.298 187.398,153.439 187.427,153.553C188.476,153.326 189.241,152.334 189.298,150.605C189.354,148.734 188.589,146.013 187.852,143.887C187.115,141.761 186.406,140.258 185.499,139.124C184.564,138.019 183.43,137.31 181.672,137.254C179.943,137.197 177.591,137.792 175.436,137.877C173.254,137.962 171.241,137.537 169.569,137.537C167.924,137.537 166.62,137.962 165.175,138.983C163.729,139.975 162.142,141.562 161.546,143.348C160.951,145.134 161.348,147.175 161.008,148.904C160.696,150.633 159.647,152.107 159.591,153.383C159.534,154.63 160.469,155.679 161.603,156.501C161.603,156.501 161.603,156.529 161.631,156.529C162.227,156.019 162.85,155.14 163.332,154.375C163.928,153.468 164.324,152.702 164.835,151.682C165.345,150.661 165.94,149.386 166.706,148.479C167.471,147.572 168.378,147.033 169.795,146.608C171.184,146.183 173.055,145.871 174.841,145.757Z" style="fill:rgb(99,53,42);stroke:rgb(99,53,42);stroke-width:0.57px;"/>
                        <path d="M179.603,145.871C178.271,145.644 176.598,145.616 174.841,145.757C173.055,145.871 171.184,146.183 169.795,146.608C168.378,147.033 167.471,147.572 166.706,148.479C165.94,149.386 165.345,150.661 164.835,151.682C164.324,152.702 163.928,153.468 163.332,154.375C162.85,155.14 162.227,156.019 161.631,156.529C161.858,156.699 162.085,156.841 162.312,156.983C163.276,157.521 164.296,157.89 165.203,157.89C166.365,157.89 167.329,157.266 167.896,156.898C168.491,156.529 168.633,156.359 168.265,155.849C167.896,155.339 167.017,154.517 166.791,153.893C166.564,153.269 167.046,152.844 167.556,152.589C168.094,152.334 168.69,152.22 169.285,152.249C169.88,152.277 170.447,152.447 170.816,152.844C171.213,153.269 171.383,153.921 172.035,154.091C172.715,154.29 173.849,154.006 175.209,152.929C176.598,151.824 178.214,149.896 179.008,148.932C179.802,147.969 179.802,147.969 180.397,148.706C180.964,149.443 182.126,150.945 183.402,152.022C184.677,153.099 186.094,153.751 187.228,153.581C187.285,153.581 187.313,153.581 187.37,153.581C187.342,153.411 187.313,153.241 187.257,153.071C187.087,152.107 186.831,151.058 186.123,150.038C185.414,149.017 184.224,148.025 183.09,147.317C181.984,146.58 180.964,146.126 179.603,145.871Z" style="fill:rgb(99,53,42);stroke:rgb(99,53,42);stroke-width:0.57px;"/>
                        <g transform="matrix(0.406339,0.288864,-0.223178,0.525933,184.297,158.304)">
                            <ellipse cx="0" cy="0" rx="0.935" ry="2.636" style="fill:rgb(99,53,42);stroke:rgb(99,53,42);stroke-width:0.57px;"/>
                        </g>
                        <path d="M183.543,155.083C184.11,154.885 184.677,154.658 185.159,154.658C185.641,154.658 186.066,154.913 186.35,155.225C186.605,155.537 186.718,155.934 186.86,156.302" style="fill:none;stroke:rgb(99,53,42);stroke-width:0.57px;"/>
                        <circle cx="177.789" cy="159.874" r="2.438" style="fill:rgb(238,147,125);stroke:rgb(238,147,125);stroke-width:0.57px;"/>
                        <path d="M138.104,171.354C137.735,173.31 137.367,175.238 137.962,176.882C138.557,178.526 140.145,179.858 141.052,180.964C141.931,182.041 142.157,182.92 142.044,184.989C141.931,187.058 141.449,190.318 140.967,193.578" style="fill:none;stroke:rgb(201,202,202);stroke-width:0.57px;"/>
                        <path d="M160.328,156.529C159.846,156.586 159.364,156.416 158.882,156.246C158.91,156.246 158.91,156.274 158.91,156.274C159.335,156.869 159.647,157.55 159.817,158.343C160.157,159.987 159.987,162.113 159.789,164.296L159.789,164.551C160.186,165.969 160.583,167.386 160.923,168.718C161.065,169.285 161.178,169.852 161.291,170.391C161.376,170.334 161.461,170.306 161.575,170.277C162.085,170.05 162.595,169.852 163.134,169.654C163.191,169.54 163.219,169.455 163.247,169.37C163.417,168.548 163.219,167.613 162.879,166.025C162.567,164.438 162.113,162.17 161.802,160.469C161.518,159.137 161.32,158.145 161.036,157.465C160.951,157.238 160.866,157.068 160.753,156.926C160.611,156.756 160.469,156.643 160.328,156.529Z" style="fill:rgb(254,254,254);stroke:rgb(201,202,202);stroke-width:0.57px;"/>
                        <path d="M90.34,186.945C89.83,187.682 89.348,188.391 88.894,189.156C89.036,189.439 89.32,189.808 89.915,190.233C91.219,191.225 93.969,192.643 97.625,194.457C101.254,196.299 105.846,198.51 108.539,199.672C111.231,200.806 112.082,200.863 112.932,200.381C113.811,199.928 114.661,198.935 115.54,197.943C114.321,198.454 113.102,198.709 111.146,198.312C107.603,197.603 101.707,194.825 97.852,192.501C93.969,190.148 92.154,188.249 90.34,186.945Z" style="fill:rgb(137,120,112);stroke:rgb(137,120,112);stroke-width:0.57px;"/>
                    </g>
                </g>
            </g>
        </g>
    </g>
</svg>
