<?xml version="1.0" encoding="UTF-8" standalone="no"?>
<!DOCTYPE svg PUBLIC "-//W3C//DTD SVG 1.1//EN" "http://www.w3.org/Graphics/SVG/1.1/DTD/svg11.dtd">
<svg width="100%" height="100%" viewBox="0 0 1248 965" version="1.1" xmlns="http://www.w3.org/2000/svg" xmlns:xlink="http://www.w3.org/1999/xlink" xml:space="preserve" xmlns:serif="http://www.serif.com/" style="fill-rule:evenodd;clip-rule:evenodd;">
    <g transform="matrix(1,0,0,1,-3628,-984.478)">
        <g transform="matrix(0.930197,0,0,1,253.245,-20.7578)">
            <rect x="3628" y="1005.24" width="1341" height="964.829" style="fill:none;"/>
            <g transform="matrix(1.07504,0,0,1,-759.503,-344)">
                <g transform="matrix(1,0,0,0.865973,0,293.373)">
                    <path d="M4095,1748C4100.64,1674.71 4148,1593.67 4198,1553C4248,1512.33 4334.25,1533.8 4395,1504C4465.67,1469.33 4530.75,1359.4 4622,1345C4722.33,1329.17 4892.33,1363.75 4997,1409C5097.11,1452.28 5198.89,1520.14 5250,1616.5C5302.33,1715.17 5357.83,1887.25 5311,2001C5264.17,2114.75 5112.73,2252.04 4969,2299C4817,2348.67 4533.83,2341 4399,2299C4288.47,2264.57 4210.67,2138.83 4160,2047C4110.73,1957.7 4088.67,1830.33 4095,1748Z" style="fill:rgb(244,244,244);"/>
                    <clipPath id="_clip1">
                        <path d="M4095,1748C4100.64,1674.71 4148,1593.67 4198,1553C4248,1512.33 4334.25,1533.8 4395,1504C4465.67,1469.33 4530.75,1359.4 4622,1345C4722.33,1329.17 4892.33,1363.75 4997,1409C5097.11,1452.28 5198.89,1520.14 5250,1616.5C5302.33,1715.17 5357.83,1887.25 5311,2001C5264.17,2114.75 5112.73,2252.04 4969,2299C4817,2348.67 4533.83,2341 4399,2299C4288.47,2264.57 4210.67,2138.83 4160,2047C4110.73,1957.7 4088.67,1830.33 4095,1748Z"/>
                    </clipPath>
                    <g clip-path="url(#_clip1)">
                        <g transform="matrix(1,0,0,1.15477,0,-361.148)">
                            <path d="M4179,2157C4203.83,2118.17 4295.75,2078.51 4363,2072C4437,2064.83 4535.25,2111.21 4623,2114C4727.67,2117.33 4878.67,2080.83 4991,2092C5096.71,2102.51 5294.67,2125.33 5297,2181C5299.33,2236.67 5131.23,2411.55 5005,2426C4824.5,2446.67 4351.67,2349.83 4214,2305C4165.8,2289.3 4154.17,2195.83 4179,2157Z" style="fill-opacity:0.0392157;"/>
                        </g>
                        <g transform="matrix(3.73451,0,0,4.31251,4738.12,1814.9)">
                            <g transform="matrix(1,0,0,1,-226.772,-170.079)">
                                <g id="Layer_x0020_1">
                                    <path d="M198.794,280.29L212.598,277.71C212.683,277.54 212.769,277.342 212.825,277.143C212.854,277.143 212.854,277.115 212.854,277.087C212.882,277.002 212.91,276.917 212.967,276.831C213.024,276.831 213.109,276.831 213.165,276.831L215.546,274.932L220.847,270.624C220.791,270.595 220.762,270.595 220.706,270.567C221.272,269.348 221.924,267.761 222.661,265.606C223.087,264.444 223.512,263.14 223.994,261.609C226.828,252.482 230.939,236.523 235.276,219.373C236.211,215.717 237.146,211.975 238.082,208.261C237.402,207.099 236.806,206.164 236.296,205.512C235.389,204.35 234.737,203.924 233.858,203.471C233.008,203.017 231.931,202.479 231.024,201.855C230.769,201.657 230.485,201.458 230.23,201.26L240.265,191.112C241.285,191.254 242.277,191.395 243.269,191.537C244.318,188.957 245.367,186.378 246.132,183.317C246.869,180.227 247.351,176.655 247.068,174.047C246.813,171.638 245.934,170.05 244.998,168.548C244.602,169.058 244.148,169.54 243.609,170.022C241.512,171.751 237.997,173.169 236.013,173.735C234.028,174.302 233.603,174.019 233.405,173.424C233.178,172.857 233.178,171.978 233.15,171.298C233.15,170.617 233.121,170.135 232.923,169.909C232.724,169.682 232.356,169.767 231.789,169.427C231.25,169.058 230.513,168.293 230.031,166.989C229.55,165.685 229.323,163.814 230.372,160.724C231.052,158.655 232.299,156.076 233.717,153.666C234.425,152.447 235.191,151.257 235.928,150.236C237.685,147.798 239.357,146.211 241.427,144.34L242.249,143.575L241.427,143.688C241.37,143.802 241.285,143.887 241.2,144C240.633,144.709 239.443,145.786 238.224,147.118C237.033,148.422 235.786,149.981 234.822,151.37C233.83,152.759 233.121,153.978 232.413,154.658C231.704,155.339 230.995,155.48 229.096,155.764C227.197,156.019 224.107,156.416 220.649,156.671C217.191,156.898 213.392,157.011 210.132,157.55C206.901,158.06 204.236,158.995 202.45,159.534C201.26,159.902 200.466,160.101 199.956,160.072L198.879,160.441L198.794,161.915C197.575,161.66 196.384,161.433 195.165,161.206C189.298,160.129 183.373,159.194 177.902,158.854C177.761,159.194 177.619,159.562 177.506,159.931L177.08,158.797C175.294,158.683 173.509,158.655 171.836,158.683C164.75,158.854 158.769,160.384 155.395,162.822C152.022,165.231 151.2,168.548 150.52,171.751C149.896,174.586 149.329,177.364 155.565,181.162C156.274,181.587 157.068,182.041 157.946,182.494C166.677,187.002 184.734,192.983 197.32,198.17C205.285,201.43 211.039,204.406 215.065,206.787C214.214,209.14 213.335,211.493 211.181,219.6C210.898,220.592 210.614,221.669 210.331,222.831C207.553,233.433 203.017,251.943 200.523,262.375L199.162,268.781C199.191,268.781 199.219,268.781 199.247,268.809C199.219,268.838 199.162,268.866 199.134,268.894L198.68,280.205C198.737,280.176 198.765,280.176 198.822,280.148L199.247,268.809L198.822,280.148C198.794,280.205 198.794,280.261 198.794,280.29Z" style="fill:rgb(57,37,42);"/>
                                    <path d="M254.126,132.888C253.814,133.002 253.672,133.03 253.502,133.087C249.732,136.63 245.991,140.173 243.071,142.809C242.504,143.348 241.937,143.858 241.427,144.34C239.357,146.211 237.685,147.798 235.928,150.236C235.191,151.257 234.425,152.447 233.717,153.666C232.299,156.076 231.052,158.655 230.372,160.724C229.323,163.814 229.55,165.685 230.031,166.989C230.513,168.293 231.25,169.058 231.789,169.427C232.356,169.767 232.724,169.682 232.923,169.909C233.121,170.135 233.15,170.617 233.15,171.298C233.178,171.978 233.178,172.857 233.405,173.424C233.603,174.019 234.028,174.302 236.013,173.735C237.997,173.169 241.512,171.751 243.609,170.022C244.233,169.483 244.743,168.917 245.169,168.293C246.104,166.876 246.557,165.203 247.011,162.992C247.635,159.761 248.287,155.395 248.939,152.844C249.619,150.265 250.299,149.556 252.539,148.224C254.778,146.92 258.576,145.02 261.694,143.065C264.841,141.109 267.335,139.096 268.923,137.764C270.482,136.46 271.162,135.865 271.332,134.929C271.531,134.022 271.219,132.746 270.879,131.811C270.567,130.989 270.255,130.394 269.915,129.855C269.887,129.77 269.83,129.713 269.802,129.657C269.093,129.628 268.413,129.6 267.364,129.543C266.287,129.487 264.869,129.402 263.225,129.713C261.581,129.997 259.71,130.706 258.18,131.301C256.649,131.896 255.43,132.406 254.721,132.69C254.466,132.775 254.296,132.86 254.126,132.888Z" style="fill:rgb(242,195,163);stroke:rgb(242,195,163);stroke-width:0.57px;"/>
                                    <path d="M170.504,145.786C170.844,141.902 171.354,135.326 170.901,121.606C170.476,107.887 169.115,87.052 168.69,75.203C168.265,63.326 168.775,60.463 179.15,58.819C189.553,57.175 209.792,56.721 225.213,56.92C240.633,57.09 251.235,57.855 255.628,62.759C260.022,67.691 258.18,76.706 256.479,85.266C254.806,93.827 253.247,101.906 251.546,109.616C249.846,117.326 248.06,124.668 247.606,131.811C247.153,138.954 248.031,145.899 240.945,149.698C233.858,153.496 218.778,154.176 205.597,154.035C192.416,153.893 181.106,152.929 175.55,151.852C169.994,150.803 170.164,149.641 170.504,145.786Z" style="fill:rgb(238,127,114);stroke:rgb(238,127,114);stroke-width:0.57px;"/>
                                    <rect x="86.91" y="148.479" width="266.939" height="9.383" style="fill:none;stroke:rgb(51,44,43);stroke-width:0.57px;"/>
                                    <path d="M286.384,148.479L286.639,142.413L309.005,142.554L309.005,148.479" style="fill:none;stroke:rgb(51,44,43);stroke-width:0.57px;"/>
                                    <path d="M296.872,142.469L325.956,96.009L328.564,97.313L299.877,142.498" style="fill:none;stroke:rgb(51,44,43);stroke-width:0.57px;"/>
                                    <path d="M327.515,103.181L329.329,101.112L284.769,73.474L283.068,75.94L327.515,103.181Z" style="fill:none;stroke:rgb(51,44,43);stroke-width:0.57px;"/>
                                    <path d="M288.85,79.512L259.2,79.455" style="fill:none;stroke:rgb(51,44,43);stroke-width:0.57px;"/>
                                    <path d="M259.2,79.455C259.427,77.726 259.654,75.997 260.759,73.871C261.865,71.773 263.849,69.307 266.627,67.55C269.376,65.82 272.891,64.828 276.35,65.14C279.808,65.424 283.181,67.039 285.42,68.627C287.66,70.214 288.765,71.773 289.417,73.191C290.069,74.58 290.296,75.827 290.523,77.046" style="fill:none;stroke:rgb(51,44,43);stroke-width:0.57px;"/>
                                    <path d="M218.069,75.175C221.216,74.948 224.504,76.677 228.557,78.35C232.611,80.05 237.43,81.723 240.491,83.197C243.553,84.671 244.857,85.946 246.557,88.356C248.287,90.794 250.413,94.337 254.381,100.743C258.378,107.15 264.189,116.419 267.279,121.408C270.397,126.397 270.737,127.077 270.369,127.247C269.972,127.417 268.809,127.02 267.08,126.964C265.323,126.879 262.998,127.077 260.731,127.729C258.463,128.381 256.28,129.487 255.005,129.997C253.757,130.535 253.417,130.507 251.802,128.806C250.186,127.134 247.294,123.789 245.254,121.408C243.213,118.998 242.05,117.553 241.37,117.156C240.69,116.759 240.463,117.439 240.236,119.31C240.009,121.209 239.783,124.328 240.038,128.013C240.265,131.698 240.945,135.921 241.313,138.189C241.682,140.457 241.767,140.797 241.2,141.506C240.633,142.214 239.443,143.291 238.224,144.595C237.033,145.928 235.786,147.487 234.822,148.876C233.83,150.236 233.121,151.455 232.413,152.135C231.704,152.816 230.995,152.986 229.096,153.241C227.197,153.524 224.107,153.893 220.649,154.148C217.191,154.403 213.392,154.517 210.132,155.027C206.901,155.537 204.236,156.472 202.45,157.011C200.665,157.578 199.786,157.748 199.332,157.294C198.879,156.869 198.879,155.82 198.68,154.658C198.51,153.468 198.17,152.164 197.065,147.969C195.987,143.773 194.145,136.687 191.65,129.487C189.156,122.315 186.038,115.087 184.479,111.458C182.92,107.83 182.92,107.83 182.438,108.737C181.928,109.616 180.935,111.43 180.425,113.811C179.887,116.192 179.83,119.14 179.065,120.331C178.299,121.55 176.825,120.983 175.663,120.302C174.472,119.622 173.594,118.828 173.14,118.431C172.687,118.035 172.687,118.035 172.885,117.383C173.083,116.702 173.48,115.398 174.472,110.92C175.465,106.441 177.052,98.844 178.243,93.827C179.405,88.838 180.17,86.457 180.539,85.266C180.935,84.076 180.935,84.076 181.417,83.707C181.899,83.339 182.891,82.602 183.94,81.921C184.989,81.241 186.094,80.617 186.888,79.994C187.71,79.37 188.164,78.718 188.504,78.009C188.844,77.329 189.043,76.592 189.383,75.26C189.751,73.956 190.233,72.057 190.658,71.178C191.055,70.271 191.367,70.356 192.416,70.611C193.465,70.866 195.222,71.291 196.809,72.737C198.397,74.183 199.814,76.62 201.798,77.953C203.783,79.285 206.306,79.483 209.083,78.52C211.861,77.528 214.894,75.373 218.069,75.175Z" style="fill:rgb(222,211,198);stroke:rgb(222,211,198);stroke-width:0.57px;"/>
                                    <path d="M274.734,65.112L274.847,62.504L276.406,62.504L276.35,65.14" style="fill:none;stroke:rgb(242,182,98);stroke-width:0.57px;"/>
                                    <path d="M156.501,148.479L101.225,148.479L86.91,148.479L86.91,157.861L353.849,157.861L353.849,148.479L324.68,148.479L309.005,148.479L286.384,148.479L220.365,148.479L156.501,148.479Z" style="fill:rgb(137,120,112);stroke:rgb(137,120,112);stroke-width:0.57px;"/>
                                    <path d="M101.594,148.252L156.869,148.252L156.869,140.967L155.282,140.967L105.761,140.967L101.594,140.967L101.594,148.252Z" style="fill:rgb(201,202,202);stroke:rgb(201,202,202);stroke-width:0.57px;"/>
                                    <path d="M105.42,140.91L154.942,140.91L154.942,134.901L152.844,134.901L105.42,134.901L105.42,140.91Z" style="fill:rgb(222,211,198);stroke:rgb(222,211,198);stroke-width:0.57px;"/>
                                    <path d="M105.42,135.326L152.844,135.326L152.844,131.216L100.46,131.216L100.46,135.326L105.42,135.326Z" style="fill:rgb(201,202,202);stroke:rgb(201,202,202);stroke-width:0.57px;"/>
                                    <path d="M101.31,130.961L153.694,130.961L153.694,127.786L151.342,127.786L104.23,127.786L101.31,127.786L101.31,130.961Z" style="fill:rgb(238,238,239);stroke:rgb(238,238,239);stroke-width:0.57px;"/>
                                    <path d="M103.776,127.587L150.888,127.587L150.888,122.173L103.776,122.173L103.776,127.587Z" style="fill:rgb(222,211,198);stroke:rgb(222,211,198);stroke-width:0.57px;"/>
                                    <path d="M264.841,79.483L283.493,79.483L288.85,79.512L283.068,75.94L284.769,73.474L290.523,77.046C290.296,75.827 290.069,74.58 289.417,73.191C288.765,71.773 287.66,70.214 285.42,68.627C283.181,67.039 279.808,65.424 276.35,65.14C275.811,65.083 275.272,65.055 274.734,65.083C271.814,65.169 268.951,66.104 266.627,67.55C263.849,69.307 261.865,71.773 260.759,73.871C259.654,75.997 259.427,77.726 259.2,79.455L264.841,79.483Z" style="fill:rgb(242,182,98);stroke:rgb(242,182,98);stroke-width:0.57px;"/>
                                    <path d="M283.068,75.94L288.85,79.512L323.121,100.517L324.595,98.164L290.523,77.046L284.769,73.474L283.068,75.94Z" style="fill:rgb(107,57,45);stroke:rgb(107,57,45);stroke-width:0.57px;"/>
                                    <path d="M323.121,100.517L309.26,122.683L310.819,125.263L325.587,102.019L323.121,100.517Z" style="fill:rgb(107,57,45);stroke:rgb(107,57,45);stroke-width:0.57px;"/>
                                    <path d="M323.121,100.517L325.587,102.019L327.061,99.694L324.595,98.164L323.121,100.517Z" style="fill:rgb(107,57,45);stroke:rgb(107,57,45);stroke-width:0.57px;"/>
                                    <path d="M324.595,98.164L327.061,99.694L328.564,97.313L325.956,96.009L324.595,98.164Z" style="fill:rgb(107,57,45);stroke:rgb(107,57,45);stroke-width:0.57px;"/>
                                    <path d="M327.061,99.694L325.587,102.019L327.515,103.181L329.329,101.112L327.061,99.694Z" style="fill:rgb(107,57,45);stroke:rgb(107,57,45);stroke-width:0.57px;"/>
                                    <path d="M296.447,142.328L308.835,122.513L283.039,79.342L264.387,79.313L219.94,148.309L285.959,148.309L286.214,142.243L296.447,142.328Z" style="fill:rgb(255,253,133);fill-opacity:0.54902;stroke:rgb(255,253,133);stroke-opacity:0.54902;stroke-width:0.57px;"/>
                                    <path d="M246.529,148.422L301.805,148.422L301.805,141.109L300.246,141.109L250.696,141.109L246.529,141.109L246.529,148.422Z" style="fill:rgb(201,202,202);stroke:rgb(201,202,202);stroke-width:0.57px;"/>
                                    <path d="M250.356,141.959L299.877,141.959L299.877,135.95L297.78,135.95L250.356,135.95L250.356,141.959Z" style="fill:rgb(222,211,198);stroke:rgb(222,211,198);stroke-width:0.57px;"/>
                                    <path d="M250.356,136.375L297.78,136.375L297.78,132.265L245.395,132.265L245.395,136.375L250.356,136.375Z" style="fill:rgb(201,202,202);stroke:rgb(201,202,202);stroke-width:0.57px;"/>
                                    <path d="M246.246,132.009L298.63,132.009L298.63,128.806L296.306,128.806L249.165,128.806L246.246,128.806L246.246,132.009Z" style="fill:rgb(238,238,239);stroke:rgb(238,238,239);stroke-width:0.57px;"/>
                                    <path d="M248.712,128.608L295.824,128.608L295.824,123.222L248.712,123.222L248.712,128.608Z" style="fill:rgb(222,211,198);stroke:rgb(222,211,198);stroke-width:0.57px;"/>
                                    <path d="M309.005,142.554L299.877,142.498L296.872,142.469L286.639,142.413L286.384,148.479L309.005,148.479L309.005,142.554Z" style="fill:rgb(120,64,56);stroke:rgb(120,64,56);stroke-width:0.57px;"/>
                                    <path d="M299.877,142.498L309.005,142.554L309.005,148.479L324.68,148.479L310.819,125.263L299.877,142.498Z" style="fill:rgb(255,253,133);stroke:rgb(255,253,133);stroke-width:0.57px;"/>
                                    <path d="M299.877,142.498L310.819,125.263L309.26,122.683L296.872,142.469L299.877,142.498Z" style="fill:rgb(107,57,45);stroke:rgb(107,57,45);stroke-width:0.57px;"/>
                                    <path d="M196.271,72.964C197.036,73.417 198.68,74.835 199.786,75.742C200.891,76.677 201.487,77.102 202.054,77.357C202.62,77.584 203.159,77.641 204.293,77.131C205.398,76.62 207.071,75.543 208.913,73.871C210.756,72.198 212.797,69.931 213.817,68.797C214.809,67.663 214.809,67.663 214.838,67.861C214.838,68.031 214.866,68.428 214.894,69.137C214.923,69.846 214.98,70.894 215.263,71.575C215.575,72.283 216.142,72.624 216.652,72.964C217.162,73.332 217.644,73.672 217.587,74.778C217.559,75.883 216.964,77.754 215.348,80.646C213.704,83.565 211.011,87.506 209.65,89.49C208.318,91.446 208.318,91.446 208.12,91.502C207.95,91.559 207.581,91.644 207.071,91.446C206.561,91.247 205.909,90.737 204.775,89.376C203.641,88.016 202.054,85.805 200.863,83.934C199.701,82.035 198.935,80.504 198.198,79.002C197.461,77.528 196.724,76.139 196.328,75.203C195.902,74.296 195.789,73.871 195.704,73.417C195.591,72.964 195.506,72.482 196.271,72.964Z" style="fill:rgb(240,175,132);stroke:rgb(240,175,132);stroke-width:0.57px;"/>
                                    <path d="M189.099,55.106C189.411,57.09 189.524,59.131 189.723,61.03C189.921,62.901 190.261,64.602 191.112,66.387C191.962,68.202 193.323,70.044 195.08,71.802C196.838,73.531 198.935,75.146 200.409,76.337C201.855,77.499 202.677,78.208 204.208,77.528C205.739,76.876 208.035,74.806 209.849,73.049C211.691,71.291 213.052,69.846 213.959,68.825C214.894,67.805 215.348,67.266 215.631,64.97C215.943,62.674 216.113,58.677 216.227,55.956C216.34,53.235 216.397,51.789 216.454,50.627C216.482,49.465 216.51,48.557 215.83,47.254C215.15,45.95 213.732,44.22 212.23,42.718C210.728,41.216 209.112,39.912 206.844,39.345C204.605,38.778 201.685,38.976 199.134,39.345C196.583,39.713 194.4,40.28 192.529,41.981C190.687,43.682 189.128,46.488 188.646,48.869C188.164,51.222 188.759,53.121 189.099,55.106Z" style="fill:rgb(242,195,163);"/>
                                    <path d="M200.551,159.846C199.446,160.243 198.34,160.639 197.235,161.008" style="fill:none;stroke:rgb(51,44,43);stroke-width:0.57px;"/>
                                    <path d="M219.317,166.28C211.294,164.494 203.272,162.709 195.165,161.206C187.058,159.732 178.894,158.513 171.836,158.683C164.75,158.854 158.769,160.384 155.395,162.822C152.022,165.231 151.2,168.548 150.52,171.751C149.811,174.926 149.216,177.987 157.946,182.494C166.677,187.002 184.734,192.983 197.32,198.17C209.906,203.329 217.02,207.723 220.422,210.302C223.852,212.91 223.569,213.704 223.313,213.222C223.058,212.769 222.775,211.039 222.973,209.197C223.172,207.326 223.852,205.342 225.439,203.244C227.027,201.146 229.55,198.964 232.072,196.696C234.595,194.457 237.118,192.132 238.677,190.885C240.236,189.666 240.831,189.524 239.641,188.957C238.45,188.391 235.474,187.398 232.072,186.605C228.699,185.811 224.901,185.216 216.85,181.928C208.772,178.639 196.413,172.658 184.082,166.706" style="fill:none;stroke:rgb(51,44,43);stroke-width:0.57px;"/>
                                    <path d="M244.772,168.18C245.792,169.824 246.784,171.439 247.068,174.047C247.351,176.655 246.869,180.227 246.132,183.317C245.367,186.406 244.29,189.014 243.241,191.594" style="fill:none;stroke:rgb(51,44,43);stroke-width:0.57px;"/>
                                    <path d="M238.677,190.885C241.795,191.31 244.913,191.764 247.521,192.132C250.129,192.529 252.255,192.841 253.219,194.315C254.183,195.761 253.984,198.369 253.899,200.296C253.786,202.224 253.786,203.471 254.183,204.973C254.58,206.447 255.373,208.176 255.883,210.699C256.365,213.222 256.564,216.567 256.535,219.883C256.507,223.2 256.252,226.517 255.317,228.841C254.381,231.165 252.794,232.498 251.631,233.093C250.469,233.688 249.732,233.546 248.542,231.25C247.351,228.954 245.679,224.532 244.091,220.706C242.504,216.879 240.973,213.704 239.641,211.153C238.309,208.573 237.203,206.674 236.296,205.512C235.389,204.35 234.737,203.924 233.858,203.471C233.008,203.017 231.931,202.479 231.024,201.855C230.117,201.231 229.38,200.551 228.387,199.587C227.395,198.624 226.148,197.405 224.901,196.157" style="fill:none;stroke:rgb(51,44,43);stroke-width:0.57px;"/>
                                    <path d="M198.964,269.206C198.113,273.231 198.113,274.706 198.879,275.556M198.964,269.206M198.964,269.206C199.304,267.562 199.786,265.493 200.409,262.857C200.438,262.687 200.494,262.545 200.523,262.375M200.523,262.375C203.017,251.943 207.553,233.433 210.331,222.831C213.137,212.06 214.101,209.424 215.065,206.787" style="fill:none;stroke:rgb(51,44,43);stroke-width:0.57px;"/>
                                    <path d="M198.879,275.556C199.02,275.726 199.191,275.868 199.417,276.009C201.146,277.115 204.86,277.569 207.439,277.625C210.047,277.71 211.493,277.37 212.967,276.831C214.413,276.293 215.887,275.584 217.417,274.677C218.92,273.77 220.535,272.721 223.994,261.609C227.424,250.526 232.753,229.38 238.082,208.261" style="fill:none;stroke:rgb(51,44,43);stroke-width:0.57px;"/>
                                    <path d="M198.652,280.828M198.652,280.828C198.397,281.877 198.028,282.954 197.49,284.145C196.101,287.206 193.578,290.778 192.217,294.605C190.857,298.403 190.658,302.457 190.658,304.923C190.658,307.389 190.857,308.239 192.416,308.353C193.975,308.438 196.894,307.786 199.757,307.049C202.592,306.312 205.398,305.518 207.043,303.591C208.715,301.663 209.225,298.602 209.509,295.313C209.764,292.054 209.764,288.51 210.302,285.392C210.841,282.274 211.89,279.553 212.967,276.831M199.417,276.009C199.247,277.569 199.077,279.128 198.652,280.828" style="fill:none;stroke:rgb(51,44,43);stroke-width:0.57px;"/>
                                    <path d="M155.565,181.162C151.172,190.743 146.806,200.324 146.353,206.702C145.899,213.109 149.357,216.283 160.809,217.899C172.261,219.515 191.707,219.572 211.181,219.6" style="fill:none;stroke:rgb(51,44,43);stroke-width:0.57px;"/>
                                    <path d="M193.833,219.515C195.676,224.022 197.546,228.529 198.397,236.863C199.247,245.197 199.049,257.386 198.879,269.575" style="fill:none;stroke:rgb(51,44,43);stroke-width:0.57px;"/>
                                    <path d="M220.706,270.567C228.217,273.061 235.729,275.556 241.795,279.836C247.89,284.145 252.539,290.239 254.523,293.301C256.507,296.362 255.855,296.362 254.239,296.901C252.652,297.411 250.129,298.488 248.003,297.298C245.877,296.079 244.148,292.649 240.917,288.907C237.657,285.194 232.866,281.225 227.962,279.156C223.058,277.115 218.013,276.973 212.967,276.831" style="fill:none;stroke:rgb(51,44,43);stroke-width:0.57px;"/>
                                    <path d="M222.661,265.606C230.712,261.666 238.762,257.698 246.302,255.912C253.843,254.126 260.901,254.523 264.274,255.6C267.676,256.649 267.392,258.378 265.408,259.455C263.424,260.504 259.682,260.901 255.657,261.099C251.603,261.298 247.209,261.298 242.646,262.687C238.054,264.104 233.263,266.882 230.06,268.583C226.828,270.283 225.156,270.879 223.483,271.502" style="fill:none;stroke:rgb(51,44,43);stroke-width:0.57px;"/>
                                    <path d="M194.202,71.291C193.946,71.15 194.003,71.263 194.031,71.348C194.343,73.077 194.655,74.806 196.441,78.18C198.227,81.581 201.515,86.627 203.698,89.461C205.88,92.296 206.929,92.92 207.836,93.033C208.743,93.118 209.452,92.665 210.898,90.652C212.315,88.639 214.441,85.068 216.085,82.431C217.729,79.767 218.863,77.981 219.515,76.904C219.883,76.224 220.082,75.827 220.195,75.487C220.28,75.26 220.309,75.09 220.365,74.92C219.515,74.636 218.665,74.353 217.814,74.069C217.729,74.466 217.616,74.863 217.474,75.345C217.191,76.195 216.765,77.301 215.83,79.03C214.384,81.723 211.776,85.975 210.246,88.271C208.715,90.539 208.261,90.879 207.241,90.255C206.22,89.603 204.605,87.987 202.791,85.465C201.005,82.913 199.02,79.427 197.858,77.131C196.668,74.806 196.299,73.644 196.016,72.992C195.959,72.879 195.902,72.737 195.874,72.652C195.704,72.283 195.562,72.17 195.279,72C195.25,71.943 195.194,71.915 195.137,71.887C194.825,71.66 194.4,71.405 194.202,71.291Z" style="fill:rgb(254,254,254);stroke:rgb(254,254,254);stroke-width:0.57px;"/>
                                    <path d="M175.918,120.387C175.351,119.764 174.387,118.913 173.934,118.403C173.452,117.921 173.48,117.808 174.104,115.342C174.728,112.847 175.946,108.028 176.769,104.315C177.619,100.602 178.101,98.022 178.639,95.357C179.15,92.693 179.745,89.915 180.34,88.016C180.907,86.117 181.474,85.068 182.183,84.246C182.891,83.424 183.742,82.828 184.904,81.978C186.066,81.128 187.54,80.022 188.561,78.576C189.553,77.131 190.091,75.317 190.772,73.276C191.48,71.235 192.359,68.967 192.557,67.72C192.756,66.472 192.302,66.246 191.565,66.217C190.8,66.161 189.78,66.274 189.496,66.047C189.241,65.82 189.694,65.254 190.431,64.488C191.169,63.723 192.189,62.759 192.643,61.965C193.096,61.2 192.954,60.605 192.472,60.35C192.019,60.094 191.197,60.208 189.723,61.143C188.249,62.079 186.094,63.836 183.997,65.367C181.871,66.926 179.802,68.287 177.959,70.98C176.117,73.672 174.501,77.698 173.452,80.135C172.375,82.602 171.865,83.48 171.978,84.756C172.12,86.031 172.913,87.704 170.901,92.58C168.917,97.455 164.126,105.506 161.263,110.636C158.372,115.767 157.408,117.921 157.096,120.444C156.756,122.995 157.096,125.858 157.521,128.098C157.946,130.309 158.457,131.868 159.619,132.831C160.781,133.795 162.595,134.164 163.899,133.824C165.203,133.455 166.025,132.378 167.329,131.102C168.661,129.798 170.476,128.268 172.148,126.68C173.82,125.065 175.351,123.42 176.031,122.4C176.683,121.38 176.485,121.011 175.918,120.387Z" style="fill:rgb(242,195,163);stroke:rgb(242,195,163);stroke-width:0.57px;"/>
                                    <path d="M198.879,160.441C198.85,161.008 198.794,161.603 198.765,162.17" style="fill:none;stroke:rgb(51,44,43);stroke-width:0.57px;"/>
                                    <path d="M241.427,143.688C241.71,143.66 241.994,143.603 242.249,143.575" style="fill:none;stroke:rgb(51,44,43);stroke-width:0.57px;"/>
                                    <path d="M240.265,191.112C236.92,194.485 233.575,197.887 230.23,201.26" style="fill:none;stroke:rgb(51,44,43);stroke-width:0.57px;"/>
                                    <path d="M198.397,274.592C198.539,274.791 198.68,274.989 198.879,275.216" style="fill:none;stroke:rgb(51,44,43);stroke-width:0.57px;"/>
                                    <path d="M198.879,275.216C199.134,275.471 199.446,275.726 199.899,275.981C200.721,276.406 202.025,276.831 203.726,277.087C205.398,277.37 207.468,277.483 209.083,277.398C210.671,277.342 211.833,277.087 213.024,276.661C214.214,276.265 215.433,275.669 216.482,275.074C217.502,274.479 218.296,273.883 219.09,273.26" style="fill:none;stroke:rgb(51,44,43);stroke-width:0.57px;"/>
                                    <path d="M199.587,268.441L199.134,279.751C192.076,281.679 185.017,283.635 178.923,286.299C172.772,288.992 167.584,292.45 164.353,294.123C161.093,295.767 159.761,295.654 159.222,294.86C158.683,294.038 158.967,292.592 160.894,290.608C162.822,288.595 166.394,286.072 171.241,283.493C176.088,280.913 182.211,278.249 187.143,275.726C191.934,273.26 195.647,270.935 199.332,268.583C199.389,268.554 199.417,268.526 199.446,268.526C199.446,268.526 199.446,268.498 199.474,268.498C199.502,268.498 199.531,268.469 199.587,268.441Z" style="fill:rgb(150,114,108);stroke:rgb(150,114,108);stroke-width:0.22px;"/>
                                    <path d="M200.494,262.828L199.049,269.178L199.02,269.178C198.964,269.178 198.935,269.15 198.879,269.121C197.235,268.554 195.902,267.364 194.315,266.513C192.614,265.606 190.63,265.068 187.427,264.132C184.252,263.197 179.858,261.893 175.748,261.354C171.638,260.816 167.783,261.071 165.317,261.468C162.879,261.893 161.802,262.403 161.206,261.609C160.611,260.816 160.498,258.69 161.546,257.499C162.595,256.309 164.863,256.025 168.718,255.572C172.573,255.118 178.016,254.438 183.543,255.713C188.617,256.847 193.805,259.597 198.964,262.517C199.446,262.772 199.899,263.027 200.381,263.31C200.438,263.14 200.466,262.97 200.494,262.828Z" style="fill:rgb(150,114,108);stroke:rgb(150,114,108);stroke-width:0.22px;"/>
                                    <path d="M200.523,262.375L199.049,268.753C199.106,268.753 199.134,268.753 199.162,268.781L200.523,262.375Z" style="fill:rgb(57,37,42);"/>
                                    <path d="M198.794,280.29L212.598,277.71C211.663,280.148 210.784,282.614 210.302,285.392C209.764,288.51 209.764,292.054 209.509,295.313C209.225,298.602 208.715,301.663 207.043,303.591C205.398,305.518 202.592,306.312 199.757,307.049C196.894,307.786 193.975,308.438 192.416,308.353C190.857,308.239 190.658,307.389 190.658,304.923C190.658,302.457 190.857,298.403 192.217,294.605C193.578,290.778 196.101,287.206 197.49,284.145C198.028,282.954 198.397,281.877 198.652,280.828C198.709,280.658 198.737,280.488 198.794,280.29Z" style="fill:rgb(180,181,181);stroke:rgb(180,181,181);stroke-width:0.22px;"/>
                                    <path d="M220.847,270.624L215.546,274.932L220.904,270.652C220.904,270.624 220.876,270.624 220.847,270.624Z" style="fill:rgb(57,37,42);"/>
                                    <path d="M215.546,274.932L213.222,276.831C213.194,276.831 213.194,276.831 213.165,276.831L215.546,274.932Z" style="fill:rgb(57,37,42);"/>
                                    <path d="M215.291,275.046L212.967,276.945C213.08,276.945 213.165,276.945 213.279,276.945L220.932,270.822C220.847,270.794 220.762,270.765 220.677,270.737L215.291,275.046ZM213.279,276.945L220.932,270.822C221.726,271.077 222.491,271.332 223.257,271.587C229.805,273.798 236.239,276.18 241.54,279.95C247.635,284.23 252.283,290.353 254.268,293.414C256.252,296.447 255.6,296.447 254.013,296.986C252.397,297.524 249.874,298.573 247.748,297.383C245.65,296.192 243.921,292.734 240.661,289.02C237.402,285.307 232.611,281.31 227.707,279.269C222.973,277.285 218.126,277.087 213.279,276.945Z" style="fill:rgb(150,114,108);stroke:rgb(150,114,108);stroke-width:0.22px;"/>
                                    <path d="M189.553,59.443C190.063,59.074 190.573,58.706 191.055,58.309C191.82,57.713 192.586,57.061 193.266,56.296C194.57,54.879 195.704,53.093 196.271,52.696C196.838,52.271 196.838,53.235 197.461,53.915C198.085,54.595 199.361,54.992 201.005,55.672C202.677,56.353 204.718,57.317 206.617,57.883C208.488,58.45 210.161,58.62 211.946,58.649C213.704,58.706 215.546,58.649 216.454,58.791C216.964,58.876 217.191,59.017 217.361,59.102C217.531,59.159 217.644,59.187 217.899,59.102C218.438,58.932 219.543,58.195 219.94,56.58C220.365,54.935 220.11,52.356 219.146,49.72C218.183,47.083 216.51,44.362 214.271,42.378C212.031,40.394 209.225,39.118 206.702,38.721C204.208,38.324 201.997,38.778 200.239,39.146C198.454,39.487 197.093,39.713 195.364,39.997C193.946,40.195 192.274,40.45 191.055,41.216C190.8,41.386 190.573,41.556 190.346,41.783C189.156,43.002 188.872,45.156 187.739,47.537C186.605,49.918 184.649,52.498 184.876,55.276C185.102,58.054 187.54,61.03 189.978,63.978C189.808,62.532 189.723,60.973 189.553,59.443Z" style="fill:rgb(133,78,27);stroke:rgb(133,78,27);stroke-width:0.22px;"/>
                                    <ellipse cx="195.137" cy="63.269" rx="0.539" ry="0.595" style="fill:rgb(107,57,45);stroke:rgb(107,57,45);stroke-width:0.57px;"/>
                                    <path d="M191.707,60.35C191.395,60.378 191.48,60.803 191.792,61.257C192.104,61.682 192.643,62.107 193.351,62.391C194.06,62.702 194.939,62.844 195.591,62.787C196.243,62.731 196.668,62.447 197.065,62.079C197.433,61.682 197.773,61.2 197.943,60.803C198.113,60.406 198.142,60.094 198.113,59.981C198.085,59.839 198,59.896 197.83,60.038C197.688,60.208 197.433,60.435 197.036,60.661C196.639,60.888 196.072,61.058 195.562,61.172C195.052,61.257 194.57,61.285 194.202,61.228C193.861,61.2 193.635,61.087 193.181,60.86C192.728,60.633 191.991,60.293 191.707,60.35Z" style="fill:rgb(107,57,45);stroke:rgb(107,57,45);stroke-width:0.57px;"/>
                                    <path d="M192.954,64.063C192.756,64.091 192.813,64.375 193.011,64.658C193.238,64.942 193.578,65.225 194.031,65.424C194.513,65.594 195.08,65.707 195.534,65.65C195.959,65.622 196.243,65.452 196.498,65.197C196.753,64.942 196.951,64.63 197.065,64.346C197.178,64.091 197.206,63.893 197.178,63.808C197.15,63.723 197.093,63.751 197.008,63.865C196.894,63.95 196.753,64.12 196.469,64.261C196.214,64.403 195.846,64.517 195.506,64.602C195.165,64.658 194.825,64.658 194.598,64.63C194.372,64.63 194.23,64.545 193.918,64.403C193.606,64.261 193.153,64.035 192.954,64.063Z" style="fill:rgb(237,153,98);stroke:rgb(237,153,98);stroke-width:0.57px;"/>
                                    <ellipse cx="207.751" cy="62.957" rx="0.539" ry="0.595" style="fill:rgb(107,57,45);stroke:rgb(107,57,45);stroke-width:0.57px;"/>
                                    <path d="M204.321,60.038C204.009,60.066 204.123,60.491 204.435,60.945C204.746,61.37 205.285,61.795 205.994,62.079C206.674,62.391 207.553,62.532 208.233,62.476C208.885,62.419 209.31,62.135 209.679,61.767C210.076,61.37 210.416,60.888 210.586,60.491C210.756,60.094 210.756,59.783 210.728,59.669C210.699,59.528 210.614,59.584 210.472,59.726C210.302,59.896 210.076,60.151 209.679,60.35C209.282,60.576 208.715,60.746 208.176,60.86C207.666,60.945 207.184,60.973 206.844,60.917C206.476,60.888 206.277,60.775 205.795,60.548C205.342,60.35 204.633,59.981 204.321,60.038Z" style="fill:rgb(107,57,45);stroke:rgb(107,57,45);stroke-width:0.57px;"/>
                                    <path d="M205.569,63.751C205.37,63.78 205.427,64.063 205.654,64.346C205.852,64.63 206.192,64.913 206.674,65.112C207.128,65.282 207.723,65.395 208.148,65.339C208.573,65.31 208.857,65.14 209.112,64.885C209.367,64.63 209.594,64.318 209.707,64.035C209.82,63.78 209.82,63.581 209.82,63.496C209.792,63.411 209.735,63.439 209.622,63.553C209.537,63.638 209.367,63.808 209.112,63.95C208.857,64.091 208.46,64.205 208.12,64.29C207.78,64.346 207.468,64.346 207.241,64.346C207.014,64.318 206.872,64.233 206.561,64.091C206.249,63.95 205.767,63.723 205.569,63.751Z" style="fill:rgb(237,153,98);stroke:rgb(237,153,98);stroke-width:0.57px;"/>
                                    <path d="M199.276,58.819C199.502,58.904 199.757,58.989 200.296,58.932C200.835,58.847 201.657,58.62 202.479,58.394" style="fill:none;stroke:rgb(120,64,56);stroke-width:0.57px;"/>
                                    <path d="M199.814,59.783C200.268,59.783 200.721,59.811 201.146,59.726C201.572,59.613 201.969,59.414 202.365,59.216" style="fill:none;stroke:rgb(120,64,56);stroke-width:0.57px;"/>
                                    <path d="M199.049,70.072C199.276,69.761 199.474,69.449 200.438,69.279C201.402,69.08 203.131,69.052 204.066,69.024C205.002,68.995 205.143,68.995 205.483,69.165C205.824,69.335 206.362,69.647 206.872,69.959" style="fill:none;stroke:rgb(237,153,98);stroke-width:0.57px;"/>
                                    <path d="M240.265,191.112L230.23,201.26C230.485,201.458 230.769,201.657 231.024,201.855C231.222,201.997 231.392,202.11 231.591,202.224C232.044,202.479 232.498,202.734 232.923,202.961C233.235,203.131 233.546,203.301 233.858,203.471C234.737,203.924 235.389,204.35 236.296,205.512C236.806,206.164 237.402,207.099 238.082,208.261C238.564,209.112 239.074,210.076 239.641,211.153C240.973,213.704 242.504,216.879 244.091,220.706C245.679,224.532 247.351,228.954 248.542,231.25C249.732,233.546 250.469,233.688 251.631,233.093C252.794,232.498 254.381,231.165 255.317,228.841C256.252,226.517 256.507,223.2 256.535,219.883C256.564,216.567 256.365,213.222 255.883,210.699C255.373,208.176 254.58,206.447 254.183,204.973C253.786,203.471 253.786,202.224 253.899,200.296C253.984,198.369 254.183,195.761 253.219,194.315C252.255,192.841 250.129,192.529 247.521,192.132C246.189,191.934 244.772,191.735 243.269,191.537L240.265,191.112Z" style="fill:rgb(180,181,181);stroke:rgb(180,181,181);stroke-width:0.22px;"/>
                                    <path d="M246.302,255.912C238.762,257.698 230.712,261.666 222.661,265.606C221.924,267.761 221.272,269.348 220.706,270.567C220.762,270.595 220.791,270.595 220.847,270.624C220.876,270.624 220.904,270.624 220.904,270.652C221.783,270.935 222.633,271.219 223.483,271.502C225.156,270.879 226.828,270.283 230.06,268.583C233.263,266.882 238.054,264.104 242.646,262.687C247.209,261.298 251.603,261.298 255.657,261.099C259.682,260.901 263.424,260.504 265.408,259.455C267.392,258.378 267.676,256.649 264.274,255.6C260.901,254.523 253.843,254.126 246.302,255.912Z" style="fill:rgb(150,114,108);stroke:rgb(150,114,108);stroke-width:0.22px;"/>
                                    <path d="M200.523,262.375C203.017,251.943 207.553,233.433 210.331,222.831C210.614,221.669 210.898,220.592 211.181,219.6C205.313,219.6 199.474,219.572 193.833,219.515C195.676,224.022 197.546,228.529 198.397,236.863C199.077,243.581 199.077,252.822 198.964,262.517C193.805,259.597 188.617,256.847 183.543,255.713C178.016,254.438 172.573,255.118 168.718,255.572C164.863,256.025 162.595,256.309 161.546,257.499C160.498,258.69 160.611,260.816 161.206,261.609C161.802,262.403 162.879,261.893 165.317,261.468C167.783,261.071 171.638,260.816 175.748,261.354C179.858,261.893 184.252,263.197 187.427,264.132C190.63,265.068 192.614,265.606 194.315,266.513C195.817,267.307 197.121,268.413 198.624,269.036L198.964,269.15L199.02,269.178L199.049,269.178L199.134,268.753L199.077,268.753L199.049,268.753L200.523,262.375Z" style="fill:rgb(150,114,108);stroke:rgb(150,114,108);stroke-width:0.22px;"/>
                                    <path d="M160.809,217.899C168.803,219.033 180.737,219.402 193.833,219.515C199.474,219.572 205.313,219.6 211.181,219.6C213.335,211.493 214.214,209.14 215.065,206.787C211.039,204.406 205.285,201.43 197.32,198.17C184.734,192.983 166.677,187.002 157.946,182.494C157.068,182.041 156.274,181.587 155.565,181.162C151.172,190.743 146.806,200.324 146.353,206.702C145.899,213.109 149.357,216.283 160.809,217.899Z" style="fill:rgb(238,127,114);stroke:rgb(238,127,114);stroke-width:0.22px;"/>
                                    <path d="M274.847,62.504L274.734,65.083C271.814,65.169 268.951,66.104 266.627,67.55C263.849,69.307 261.865,71.773 260.759,73.871C259.654,75.997 259.427,77.726 259.2,79.455L264.302,79.483L264.387,79.313L283.039,79.342L283.153,79.483L283.493,79.483L288.85,79.512L283.068,75.94L284.769,73.474L290.523,77.046C290.296,75.827 290.069,74.58 289.417,73.191C288.765,71.773 287.66,70.214 285.42,68.627C283.181,67.039 279.808,65.424 276.35,65.14L276.406,62.504L274.847,62.504Z" style="fill:rgb(242,182,98);stroke:rgb(242,182,98);stroke-width:0.57px;"/>
                                    <rect x="98.306" y="157.861" width="246.076" height="25.115" style="fill:rgb(119,97,94);stroke:rgb(119,97,94);stroke-width:0.57px;"/>
                                    <g transform="matrix(1,0,0,1.79946,0,-145.874)">
                                        <rect x="98.306" y="182.976" width="8.872" height="68.287" style="fill:rgb(119,97,94);"/>
                                    </g>
                                    <g transform="matrix(1,0,0,1.79946,0,-145.874)">
                                        <rect x="334.998" y="182.466" width="8.872" height="68.287" style="fill:rgb(119,97,94);"/>
                                    </g>
                                    <path d="M168.236,50.173C169.087,49.691 169.909,49.209 170.617,49.181C171.326,49.181 171.95,49.606 172.318,50.428C172.687,51.25 172.8,52.469 173.65,52.866C174.501,53.263 176.06,52.809 176.967,52.639C177.846,52.441 178.072,52.469 178.384,52.923C178.668,53.348 179.065,54.17 179.49,54.652C179.887,55.134 180.34,55.247 180.765,55.389" style="fill:none;stroke:rgb(238,127,114);stroke-width:0.57px;"/>
                                    <path d="M166.961,43.512C167.783,42.86 168.605,42.208 169.285,42.435C169.937,42.661 170.476,43.739 171.326,44.334C172.148,44.901 173.339,45.014 174.189,44.787C175.039,44.561 175.55,44.05 176.428,44.022C177.335,43.994 178.583,44.476 179.235,44.957C179.858,45.439 179.858,45.921 180.028,46.602C180.198,47.31 180.539,48.217 181.276,48.529C181.984,48.813 183.061,48.529 184.139,48.217" style="fill:none;stroke:rgb(238,127,114);stroke-width:0.57px;"/>
                                    <path d="M220.649,47.707C221.074,46.658 221.528,45.609 222.35,45.128C223.172,44.646 224.391,44.731 225.213,44.504C226.035,44.277 226.46,43.71 226.913,43.058C227.339,42.406 227.764,41.669 228.784,41.272C229.776,40.876 231.335,40.819 232.384,40.819C233.433,40.819 233.943,40.876 234.454,40.167C234.935,39.43 235.417,37.956 236.098,37.162C236.778,36.369 237.628,36.227 238.365,36.369C239.102,36.482 239.726,36.879 240.038,37.191C240.321,37.474 240.321,37.701 240.321,37.928" style="fill:none;stroke:rgb(238,127,114);stroke-width:0.57px;"/>
                                    <path d="M222.208,51.987C222.633,50.967 223.087,49.918 223.767,49.38C224.419,48.869 225.326,48.869 226.035,48.869C226.743,48.869 227.197,48.869 227.764,48.246C228.331,47.622 228.983,46.346 230.173,45.78C231.392,45.213 233.121,45.354 234.283,45.298C235.474,45.213 236.069,44.957 236.58,44.362C237.118,43.739 237.543,42.775 238.252,42.35C238.989,41.924 239.981,42.009 240.973,42.094" style="fill:none;stroke:rgb(238,127,114);stroke-width:0.57px;"/>
                                    <circle cx="195.364" cy="62.759" r="3.912" style="fill:none;stroke:rgb(238,127,114);stroke-width:0.57px;"/>
                                    <circle cx="207.751" cy="62.362" r="3.912" style="fill:none;stroke:rgb(238,127,114);stroke-width:0.57px;"/>
                                    <path d="M199.247,62.192L203.839,62.362" style="fill:none;stroke:rgb(238,127,114);stroke-width:0.57px;"/>
                                    <path d="M211.663,62.362L216,60.463" style="fill:none;stroke:rgb(238,127,114);stroke-width:0.57px;"/>
                                    <path d="M191.594,63.298L189.808,62.107" style="fill:none;stroke:rgb(238,127,114);stroke-width:0.57px;"/>
                                </g>
                            </g>
                        </g>
                    </g>
                </g>
                <g transform="matrix(3.73451,0,0,3.73451,4738.12,1884.4)">
                    <clipPath id="_clip2">
                        <rect x="-226.772" y="-170.079" width="453.543" height="170.079"/>
                    </clipPath>
                    <g clip-path="url(#_clip2)">
                        <g transform="matrix(1,0,0,1,-226.772,-170.079)">
                            <g id="Layer_x0020_11" serif:id="Layer_x0020_1">
                                <path d="M198.794,280.29L212.598,277.71C212.683,277.54 212.769,277.342 212.825,277.143C212.854,277.143 212.854,277.115 212.854,277.087C212.882,277.002 212.91,276.917 212.967,276.831C213.024,276.831 213.109,276.831 213.165,276.831L215.546,274.932L220.847,270.624C220.791,270.595 220.762,270.595 220.706,270.567C221.272,269.348 221.924,267.761 222.661,265.606C223.087,264.444 223.512,263.14 223.994,261.609C226.828,252.482 230.939,236.523 235.276,219.373C236.211,215.717 237.146,211.975 238.082,208.261C237.402,207.099 236.806,206.164 236.296,205.512C235.389,204.35 234.737,203.924 233.858,203.471C233.008,203.017 231.931,202.479 231.024,201.855C230.769,201.657 230.485,201.458 230.23,201.26L240.265,191.112C241.285,191.254 242.277,191.395 243.269,191.537C244.318,188.957 245.367,186.378 246.132,183.317C246.869,180.227 247.351,176.655 247.068,174.047C246.813,171.638 245.934,170.05 244.998,168.548C244.602,169.058 244.148,169.54 243.609,170.022C241.512,171.751 237.997,173.169 236.013,173.735C234.028,174.302 233.603,174.019 233.405,173.424C233.178,172.857 233.178,171.978 233.15,171.298C233.15,170.617 233.121,170.135 232.923,169.909C232.724,169.682 232.356,169.767 231.789,169.427C231.25,169.058 230.513,168.293 230.031,166.989C229.55,165.685 229.323,163.814 230.372,160.724C231.052,158.655 232.299,156.076 233.717,153.666C234.425,152.447 235.191,151.257 235.928,150.236C237.685,147.798 239.357,146.211 241.427,144.34L242.249,143.575L241.427,143.688C241.37,143.802 241.285,143.887 241.2,144C240.633,144.709 239.443,145.786 238.224,147.118C237.033,148.422 235.786,149.981 234.822,151.37C233.83,152.759 233.121,153.978 232.413,154.658C231.704,155.339 230.995,155.48 229.096,155.764C227.197,156.019 224.107,156.416 220.649,156.671C217.191,156.898 213.392,157.011 210.132,157.55C206.901,158.06 204.236,158.995 202.45,159.534C201.26,159.902 200.466,160.101 199.956,160.072L198.879,160.441L198.794,161.915C197.575,161.66 196.384,161.433 195.165,161.206C189.298,160.129 183.373,159.194 177.902,158.854C177.761,159.194 177.619,159.562 177.506,159.931L177.08,158.797C175.294,158.683 173.509,158.655 171.836,158.683C164.75,158.854 158.769,160.384 155.395,162.822C152.022,165.231 151.2,168.548 150.52,171.751C149.896,174.586 149.329,177.364 155.565,181.162C156.274,181.587 157.068,182.041 157.946,182.494C166.677,187.002 184.734,192.983 197.32,198.17C205.285,201.43 211.039,204.406 215.065,206.787C214.214,209.14 213.335,211.493 211.181,219.6C210.898,220.592 210.614,221.669 210.331,222.831C207.553,233.433 203.017,251.943 200.523,262.375L199.162,268.781C199.191,268.781 199.219,268.781 199.247,268.809C199.219,268.838 199.162,268.866 199.134,268.894L198.68,280.205C198.737,280.176 198.765,280.176 198.822,280.148L199.247,268.809L198.822,280.148C198.794,280.205 198.794,280.261 198.794,280.29Z" style="fill:rgb(57,37,42);"/>
                                <path d="M254.126,132.888C253.814,133.002 253.672,133.03 253.502,133.087C249.732,136.63 245.991,140.173 243.071,142.809C242.504,143.348 241.937,143.858 241.427,144.34C239.357,146.211 237.685,147.798 235.928,150.236C235.191,151.257 234.425,152.447 233.717,153.666C232.299,156.076 231.052,158.655 230.372,160.724C229.323,163.814 229.55,165.685 230.031,166.989C230.513,168.293 231.25,169.058 231.789,169.427C232.356,169.767 232.724,169.682 232.923,169.909C233.121,170.135 233.15,170.617 233.15,171.298C233.178,171.978 233.178,172.857 233.405,173.424C233.603,174.019 234.028,174.302 236.013,173.735C237.997,173.169 241.512,171.751 243.609,170.022C244.233,169.483 244.743,168.917 245.169,168.293C246.104,166.876 246.557,165.203 247.011,162.992C247.635,159.761 248.287,155.395 248.939,152.844C249.619,150.265 250.299,149.556 252.539,148.224C254.778,146.92 258.576,145.02 261.694,143.065C264.841,141.109 267.335,139.096 268.923,137.764C270.482,136.46 271.162,135.865 271.332,134.929C271.531,134.022 271.219,132.746 270.879,131.811C270.567,130.989 270.255,130.394 269.915,129.855C269.887,129.77 269.83,129.713 269.802,129.657C269.093,129.628 268.413,129.6 267.364,129.543C266.287,129.487 264.869,129.402 263.225,129.713C261.581,129.997 259.71,130.706 258.18,131.301C256.649,131.896 255.43,132.406 254.721,132.69C254.466,132.775 254.296,132.86 254.126,132.888Z" style="fill:rgb(242,195,163);stroke:rgb(242,195,163);stroke-width:0.57px;"/>
                                <path d="M170.504,145.786C170.844,141.902 171.354,135.326 170.901,121.606C170.476,107.887 169.115,87.052 168.69,75.203C168.265,63.326 168.775,60.463 179.15,58.819C189.553,57.175 209.792,56.721 225.213,56.92C240.633,57.09 251.235,57.855 255.628,62.759C260.022,67.691 258.18,76.706 256.479,85.266C254.806,93.827 253.247,101.906 251.546,109.616C249.846,117.326 248.06,124.668 247.606,131.811C247.153,138.954 248.031,145.899 240.945,149.698C233.858,153.496 218.778,154.176 205.597,154.035C192.416,153.893 181.106,152.929 175.55,151.852C169.994,150.803 170.164,149.641 170.504,145.786Z" style="fill:rgb(238,127,114);stroke:rgb(238,127,114);stroke-width:0.57px;"/>
                                <rect x="86.91" y="148.479" width="266.939" height="9.383" style="fill:none;stroke:rgb(51,44,43);stroke-width:0.57px;"/>
                                <path d="M286.384,148.479L286.639,142.413L309.005,142.554L309.005,148.479" style="fill:none;stroke:rgb(51,44,43);stroke-width:0.57px;"/>
                                <path d="M296.872,142.469L325.956,96.009L328.564,97.313L299.877,142.498" style="fill:none;stroke:rgb(51,44,43);stroke-width:0.57px;"/>
                                <path d="M327.515,103.181L329.329,101.112L284.769,73.474L283.068,75.94L327.515,103.181Z" style="fill:none;stroke:rgb(51,44,43);stroke-width:0.57px;"/>
                                <path d="M288.85,79.512L259.2,79.455" style="fill:none;stroke:rgb(51,44,43);stroke-width:0.57px;"/>
                                <path d="M259.2,79.455C259.427,77.726 259.654,75.997 260.759,73.871C261.865,71.773 263.849,69.307 266.627,67.55C269.376,65.82 272.891,64.828 276.35,65.14C279.808,65.424 283.181,67.039 285.42,68.627C287.66,70.214 288.765,71.773 289.417,73.191C290.069,74.58 290.296,75.827 290.523,77.046" style="fill:none;stroke:rgb(51,44,43);stroke-width:0.57px;"/>
                                <path d="M218.069,75.175C221.216,74.948 224.504,76.677 228.557,78.35C232.611,80.05 237.43,81.723 240.491,83.197C243.553,84.671 244.857,85.946 246.557,88.356C248.287,90.794 250.413,94.337 254.381,100.743C258.378,107.15 264.189,116.419 267.279,121.408C270.397,126.397 270.737,127.077 270.369,127.247C269.972,127.417 268.809,127.02 267.08,126.964C265.323,126.879 262.998,127.077 260.731,127.729C258.463,128.381 256.28,129.487 255.005,129.997C253.757,130.535 253.417,130.507 251.802,128.806C250.186,127.134 247.294,123.789 245.254,121.408C243.213,118.998 242.05,117.553 241.37,117.156C240.69,116.759 240.463,117.439 240.236,119.31C240.009,121.209 239.783,124.328 240.038,128.013C240.265,131.698 240.945,135.921 241.313,138.189C241.682,140.457 241.767,140.797 241.2,141.506C240.633,142.214 239.443,143.291 238.224,144.595C237.033,145.928 235.786,147.487 234.822,148.876C233.83,150.236 233.121,151.455 232.413,152.135C231.704,152.816 230.995,152.986 229.096,153.241C227.197,153.524 224.107,153.893 220.649,154.148C217.191,154.403 213.392,154.517 210.132,155.027C206.901,155.537 204.236,156.472 202.45,157.011C200.665,157.578 199.786,157.748 199.332,157.294C198.879,156.869 198.879,155.82 198.68,154.658C198.51,153.468 198.17,152.164 197.065,147.969C195.987,143.773 194.145,136.687 191.65,129.487C189.156,122.315 186.038,115.087 184.479,111.458C182.92,107.83 182.92,107.83 182.438,108.737C181.928,109.616 180.935,111.43 180.425,113.811C179.887,116.192 179.83,119.14 179.065,120.331C178.299,121.55 176.825,120.983 175.663,120.302C174.472,119.622 173.594,118.828 173.14,118.431C172.687,118.035 172.687,118.035 172.885,117.383C173.083,116.702 173.48,115.398 174.472,110.92C175.465,106.441 177.052,98.844 178.243,93.827C179.405,88.838 180.17,86.457 180.539,85.266C180.935,84.076 180.935,84.076 181.417,83.707C181.899,83.339 182.891,82.602 183.94,81.921C184.989,81.241 186.094,80.617 186.888,79.994C187.71,79.37 188.164,78.718 188.504,78.009C188.844,77.329 189.043,76.592 189.383,75.26C189.751,73.956 190.233,72.057 190.658,71.178C191.055,70.271 191.367,70.356 192.416,70.611C193.465,70.866 195.222,71.291 196.809,72.737C198.397,74.183 199.814,76.62 201.798,77.953C203.783,79.285 206.306,79.483 209.083,78.52C211.861,77.528 214.894,75.373 218.069,75.175Z" style="fill:rgb(222,211,198);stroke:rgb(222,211,198);stroke-width:0.57px;"/>
                                <path d="M274.734,65.112L274.847,62.504L276.406,62.504L276.35,65.14" style="fill:none;stroke:rgb(242,182,98);stroke-width:0.57px;"/>
                                <path d="M156.501,148.479L101.225,148.479L86.91,148.479L86.91,157.861L353.849,157.861L353.849,148.479L324.68,148.479L309.005,148.479L286.384,148.479L220.365,148.479L156.501,148.479Z" style="fill:rgb(137,120,112);stroke:rgb(137,120,112);stroke-width:0.57px;"/>
                                <path d="M101.594,148.252L156.869,148.252L156.869,140.967L155.282,140.967L105.761,140.967L101.594,140.967L101.594,148.252Z" style="fill:rgb(201,202,202);stroke:rgb(201,202,202);stroke-width:0.57px;"/>
                                <path d="M105.42,140.91L154.942,140.91L154.942,134.901L152.844,134.901L105.42,134.901L105.42,140.91Z" style="fill:rgb(222,211,198);stroke:rgb(222,211,198);stroke-width:0.57px;"/>
                                <path d="M105.42,135.326L152.844,135.326L152.844,131.216L100.46,131.216L100.46,135.326L105.42,135.326Z" style="fill:rgb(201,202,202);stroke:rgb(201,202,202);stroke-width:0.57px;"/>
                                <path d="M101.31,130.961L153.694,130.961L153.694,127.786L151.342,127.786L104.23,127.786L101.31,127.786L101.31,130.961Z" style="fill:rgb(238,238,239);stroke:rgb(238,238,239);stroke-width:0.57px;"/>
                                <path d="M103.776,127.587L150.888,127.587L150.888,122.173L103.776,122.173L103.776,127.587Z" style="fill:rgb(222,211,198);stroke:rgb(222,211,198);stroke-width:0.57px;"/>
                                <path d="M264.841,79.483L283.493,79.483L288.85,79.512L283.068,75.94L284.769,73.474L290.523,77.046C290.296,75.827 290.069,74.58 289.417,73.191C288.765,71.773 287.66,70.214 285.42,68.627C283.181,67.039 279.808,65.424 276.35,65.14C275.811,65.083 275.272,65.055 274.734,65.083C271.814,65.169 268.951,66.104 266.627,67.55C263.849,69.307 261.865,71.773 260.759,73.871C259.654,75.997 259.427,77.726 259.2,79.455L264.841,79.483Z" style="fill:rgb(242,182,98);stroke:rgb(242,182,98);stroke-width:0.57px;"/>
                                <path d="M283.068,75.94L288.85,79.512L323.121,100.517L324.595,98.164L290.523,77.046L284.769,73.474L283.068,75.94Z" style="fill:rgb(107,57,45);stroke:rgb(107,57,45);stroke-width:0.57px;"/>
                                <path d="M323.121,100.517L309.26,122.683L310.819,125.263L325.587,102.019L323.121,100.517Z" style="fill:rgb(107,57,45);stroke:rgb(107,57,45);stroke-width:0.57px;"/>
                                <path d="M323.121,100.517L325.587,102.019L327.061,99.694L324.595,98.164L323.121,100.517Z" style="fill:rgb(107,57,45);stroke:rgb(107,57,45);stroke-width:0.57px;"/>
                                <path d="M324.595,98.164L327.061,99.694L328.564,97.313L325.956,96.009L324.595,98.164Z" style="fill:rgb(107,57,45);stroke:rgb(107,57,45);stroke-width:0.57px;"/>
                                <path d="M327.061,99.694L325.587,102.019L327.515,103.181L329.329,101.112L327.061,99.694Z" style="fill:rgb(107,57,45);stroke:rgb(107,57,45);stroke-width:0.57px;"/>
                                <path d="M296.447,142.328L308.835,122.513L283.039,79.342L264.387,79.313L219.94,148.309L285.959,148.309L286.214,142.243L296.447,142.328Z" style="fill:rgb(255,253,133);fill-opacity:0.54902;stroke:rgb(255,253,133);stroke-opacity:0.54902;stroke-width:0.57px;"/>
                                <path d="M246.529,148.422L301.805,148.422L301.805,141.109L300.246,141.109L250.696,141.109L246.529,141.109L246.529,148.422Z" style="fill:rgb(201,202,202);stroke:rgb(201,202,202);stroke-width:0.57px;"/>
                                <path d="M250.356,141.959L299.877,141.959L299.877,135.95L297.78,135.95L250.356,135.95L250.356,141.959Z" style="fill:rgb(222,211,198);stroke:rgb(222,211,198);stroke-width:0.57px;"/>
                                <path d="M250.356,136.375L297.78,136.375L297.78,132.265L245.395,132.265L245.395,136.375L250.356,136.375Z" style="fill:rgb(201,202,202);stroke:rgb(201,202,202);stroke-width:0.57px;"/>
                                <path d="M246.246,132.009L298.63,132.009L298.63,128.806L296.306,128.806L249.165,128.806L246.246,128.806L246.246,132.009Z" style="fill:rgb(238,238,239);stroke:rgb(238,238,239);stroke-width:0.57px;"/>
                                <path d="M248.712,128.608L295.824,128.608L295.824,123.222L248.712,123.222L248.712,128.608Z" style="fill:rgb(222,211,198);stroke:rgb(222,211,198);stroke-width:0.57px;"/>
                                <path d="M309.005,142.554L299.877,142.498L296.872,142.469L286.639,142.413L286.384,148.479L309.005,148.479L309.005,142.554Z" style="fill:rgb(120,64,56);stroke:rgb(120,64,56);stroke-width:0.57px;"/>
                                <path d="M299.877,142.498L309.005,142.554L309.005,148.479L324.68,148.479L310.819,125.263L299.877,142.498Z" style="fill:rgb(255,253,133);stroke:rgb(255,253,133);stroke-width:0.57px;"/>
                                <path d="M299.877,142.498L310.819,125.263L309.26,122.683L296.872,142.469L299.877,142.498Z" style="fill:rgb(107,57,45);stroke:rgb(107,57,45);stroke-width:0.57px;"/>
                                <path d="M196.271,72.964C197.036,73.417 198.68,74.835 199.786,75.742C200.891,76.677 201.487,77.102 202.054,77.357C202.62,77.584 203.159,77.641 204.293,77.131C205.398,76.62 207.071,75.543 208.913,73.871C210.756,72.198 212.797,69.931 213.817,68.797C214.809,67.663 214.809,67.663 214.838,67.861C214.838,68.031 214.866,68.428 214.894,69.137C214.923,69.846 214.98,70.894 215.263,71.575C215.575,72.283 216.142,72.624 216.652,72.964C217.162,73.332 217.644,73.672 217.587,74.778C217.559,75.883 216.964,77.754 215.348,80.646C213.704,83.565 211.011,87.506 209.65,89.49C208.318,91.446 208.318,91.446 208.12,91.502C207.95,91.559 207.581,91.644 207.071,91.446C206.561,91.247 205.909,90.737 204.775,89.376C203.641,88.016 202.054,85.805 200.863,83.934C199.701,82.035 198.935,80.504 198.198,79.002C197.461,77.528 196.724,76.139 196.328,75.203C195.902,74.296 195.789,73.871 195.704,73.417C195.591,72.964 195.506,72.482 196.271,72.964Z" style="fill:rgb(240,175,132);stroke:rgb(240,175,132);stroke-width:0.57px;"/>
                                <path d="M189.099,55.106C189.411,57.09 189.524,59.131 189.723,61.03C189.921,62.901 190.261,64.602 191.112,66.387C191.962,68.202 193.323,70.044 195.08,71.802C196.838,73.531 198.935,75.146 200.409,76.337C201.855,77.499 202.677,78.208 204.208,77.528C205.739,76.876 208.035,74.806 209.849,73.049C211.691,71.291 213.052,69.846 213.959,68.825C214.894,67.805 215.348,67.266 215.631,64.97C215.943,62.674 216.113,58.677 216.227,55.956C216.34,53.235 216.397,51.789 216.454,50.627C216.482,49.465 216.51,48.557 215.83,47.254C215.15,45.95 213.732,44.22 212.23,42.718C210.728,41.216 209.112,39.912 206.844,39.345C204.605,38.778 201.685,38.976 199.134,39.345C196.583,39.713 194.4,40.28 192.529,41.981C190.687,43.682 189.128,46.488 188.646,48.869C188.164,51.222 188.759,53.121 189.099,55.106Z" style="fill:rgb(242,195,163);"/>
                                <path d="M200.551,159.846C199.446,160.243 198.34,160.639 197.235,161.008" style="fill:none;stroke:rgb(51,44,43);stroke-width:0.57px;"/>
                                <path d="M219.317,166.28C211.294,164.494 203.272,162.709 195.165,161.206C187.058,159.732 178.894,158.513 171.836,158.683C164.75,158.854 158.769,160.384 155.395,162.822C152.022,165.231 151.2,168.548 150.52,171.751C149.811,174.926 149.216,177.987 157.946,182.494C166.677,187.002 184.734,192.983 197.32,198.17C209.906,203.329 217.02,207.723 220.422,210.302C223.852,212.91 223.569,213.704 223.313,213.222C223.058,212.769 222.775,211.039 222.973,209.197C223.172,207.326 223.852,205.342 225.439,203.244C227.027,201.146 229.55,198.964 232.072,196.696C234.595,194.457 237.118,192.132 238.677,190.885C240.236,189.666 240.831,189.524 239.641,188.957C238.45,188.391 235.474,187.398 232.072,186.605C228.699,185.811 224.901,185.216 216.85,181.928C208.772,178.639 196.413,172.658 184.082,166.706" style="fill:none;stroke:rgb(51,44,43);stroke-width:0.57px;"/>
                                <path d="M244.772,168.18C245.792,169.824 246.784,171.439 247.068,174.047C247.351,176.655 246.869,180.227 246.132,183.317C245.367,186.406 244.29,189.014 243.241,191.594" style="fill:none;stroke:rgb(51,44,43);stroke-width:0.57px;"/>
                                <path d="M238.677,190.885C241.795,191.31 244.913,191.764 247.521,192.132C250.129,192.529 252.255,192.841 253.219,194.315C254.183,195.761 253.984,198.369 253.899,200.296C253.786,202.224 253.786,203.471 254.183,204.973C254.58,206.447 255.373,208.176 255.883,210.699C256.365,213.222 256.564,216.567 256.535,219.883C256.507,223.2 256.252,226.517 255.317,228.841C254.381,231.165 252.794,232.498 251.631,233.093C250.469,233.688 249.732,233.546 248.542,231.25C247.351,228.954 245.679,224.532 244.091,220.706C242.504,216.879 240.973,213.704 239.641,211.153C238.309,208.573 237.203,206.674 236.296,205.512C235.389,204.35 234.737,203.924 233.858,203.471C233.008,203.017 231.931,202.479 231.024,201.855C230.117,201.231 229.38,200.551 228.387,199.587C227.395,198.624 226.148,197.405 224.901,196.157" style="fill:none;stroke:rgb(51,44,43);stroke-width:0.57px;"/>
                                <path d="M198.964,269.206C198.113,273.231 198.113,274.706 198.879,275.556M198.964,269.206M198.964,269.206C199.304,267.562 199.786,265.493 200.409,262.857C200.438,262.687 200.494,262.545 200.523,262.375M200.523,262.375C203.017,251.943 207.553,233.433 210.331,222.831C213.137,212.06 214.101,209.424 215.065,206.787" style="fill:none;stroke:rgb(51,44,43);stroke-width:0.57px;"/>
                                <path d="M198.879,275.556C199.02,275.726 199.191,275.868 199.417,276.009C201.146,277.115 204.86,277.569 207.439,277.625C210.047,277.71 211.493,277.37 212.967,276.831C214.413,276.293 215.887,275.584 217.417,274.677C218.92,273.77 220.535,272.721 223.994,261.609C227.424,250.526 232.753,229.38 238.082,208.261" style="fill:none;stroke:rgb(51,44,43);stroke-width:0.57px;"/>
                                <path d="M198.652,280.828M198.652,280.828C198.397,281.877 198.028,282.954 197.49,284.145C196.101,287.206 193.578,290.778 192.217,294.605C190.857,298.403 190.658,302.457 190.658,304.923C190.658,307.389 190.857,308.239 192.416,308.353C193.975,308.438 196.894,307.786 199.757,307.049C202.592,306.312 205.398,305.518 207.043,303.591C208.715,301.663 209.225,298.602 209.509,295.313C209.764,292.054 209.764,288.51 210.302,285.392C210.841,282.274 211.89,279.553 212.967,276.831M199.417,276.009C199.247,277.569 199.077,279.128 198.652,280.828" style="fill:none;stroke:rgb(51,44,43);stroke-width:0.57px;"/>
                                <path d="M155.565,181.162C151.172,190.743 146.806,200.324 146.353,206.702C145.899,213.109 149.357,216.283 160.809,217.899C172.261,219.515 191.707,219.572 211.181,219.6" style="fill:none;stroke:rgb(51,44,43);stroke-width:0.57px;"/>
                                <path d="M193.833,219.515C195.676,224.022 197.546,228.529 198.397,236.863C199.247,245.197 199.049,257.386 198.879,269.575" style="fill:none;stroke:rgb(51,44,43);stroke-width:0.57px;"/>
                                <path d="M220.706,270.567C228.217,273.061 235.729,275.556 241.795,279.836C247.89,284.145 252.539,290.239 254.523,293.301C256.507,296.362 255.855,296.362 254.239,296.901C252.652,297.411 250.129,298.488 248.003,297.298C245.877,296.079 244.148,292.649 240.917,288.907C237.657,285.194 232.866,281.225 227.962,279.156C223.058,277.115 218.013,276.973 212.967,276.831" style="fill:none;stroke:rgb(51,44,43);stroke-width:0.57px;"/>
                                <path d="M222.661,265.606C230.712,261.666 238.762,257.698 246.302,255.912C253.843,254.126 260.901,254.523 264.274,255.6C267.676,256.649 267.392,258.378 265.408,259.455C263.424,260.504 259.682,260.901 255.657,261.099C251.603,261.298 247.209,261.298 242.646,262.687C238.054,264.104 233.263,266.882 230.06,268.583C226.828,270.283 225.156,270.879 223.483,271.502" style="fill:none;stroke:rgb(51,44,43);stroke-width:0.57px;"/>
                                <path d="M194.202,71.291C193.946,71.15 194.003,71.263 194.031,71.348C194.343,73.077 194.655,74.806 196.441,78.18C198.227,81.581 201.515,86.627 203.698,89.461C205.88,92.296 206.929,92.92 207.836,93.033C208.743,93.118 209.452,92.665 210.898,90.652C212.315,88.639 214.441,85.068 216.085,82.431C217.729,79.767 218.863,77.981 219.515,76.904C219.883,76.224 220.082,75.827 220.195,75.487C220.28,75.26 220.309,75.09 220.365,74.92C219.515,74.636 218.665,74.353 217.814,74.069C217.729,74.466 217.616,74.863 217.474,75.345C217.191,76.195 216.765,77.301 215.83,79.03C214.384,81.723 211.776,85.975 210.246,88.271C208.715,90.539 208.261,90.879 207.241,90.255C206.22,89.603 204.605,87.987 202.791,85.465C201.005,82.913 199.02,79.427 197.858,77.131C196.668,74.806 196.299,73.644 196.016,72.992C195.959,72.879 195.902,72.737 195.874,72.652C195.704,72.283 195.562,72.17 195.279,72C195.25,71.943 195.194,71.915 195.137,71.887C194.825,71.66 194.4,71.405 194.202,71.291Z" style="fill:rgb(254,254,254);stroke:rgb(254,254,254);stroke-width:0.57px;"/>
                                <path d="M175.918,120.387C175.351,119.764 174.387,118.913 173.934,118.403C173.452,117.921 173.48,117.808 174.104,115.342C174.728,112.847 175.946,108.028 176.769,104.315C177.619,100.602 178.101,98.022 178.639,95.357C179.15,92.693 179.745,89.915 180.34,88.016C180.907,86.117 181.474,85.068 182.183,84.246C182.891,83.424 183.742,82.828 184.904,81.978C186.066,81.128 187.54,80.022 188.561,78.576C189.553,77.131 190.091,75.317 190.772,73.276C191.48,71.235 192.359,68.967 192.557,67.72C192.756,66.472 192.302,66.246 191.565,66.217C190.8,66.161 189.78,66.274 189.496,66.047C189.241,65.82 189.694,65.254 190.431,64.488C191.169,63.723 192.189,62.759 192.643,61.965C193.096,61.2 192.954,60.605 192.472,60.35C192.019,60.094 191.197,60.208 189.723,61.143C188.249,62.079 186.094,63.836 183.997,65.367C181.871,66.926 179.802,68.287 177.959,70.98C176.117,73.672 174.501,77.698 173.452,80.135C172.375,82.602 171.865,83.48 171.978,84.756C172.12,86.031 172.913,87.704 170.901,92.58C168.917,97.455 164.126,105.506 161.263,110.636C158.372,115.767 157.408,117.921 157.096,120.444C156.756,122.995 157.096,125.858 157.521,128.098C157.946,130.309 158.457,131.868 159.619,132.831C160.781,133.795 162.595,134.164 163.899,133.824C165.203,133.455 166.025,132.378 167.329,131.102C168.661,129.798 170.476,128.268 172.148,126.68C173.82,125.065 175.351,123.42 176.031,122.4C176.683,121.38 176.485,121.011 175.918,120.387Z" style="fill:rgb(242,195,163);stroke:rgb(242,195,163);stroke-width:0.57px;"/>
                                <path d="M198.879,160.441C198.85,161.008 198.794,161.603 198.765,162.17" style="fill:none;stroke:rgb(51,44,43);stroke-width:0.57px;"/>
                                <path d="M241.427,143.688C241.71,143.66 241.994,143.603 242.249,143.575" style="fill:none;stroke:rgb(51,44,43);stroke-width:0.57px;"/>
                                <path d="M240.265,191.112C236.92,194.485 233.575,197.887 230.23,201.26" style="fill:none;stroke:rgb(51,44,43);stroke-width:0.57px;"/>
                                <path d="M198.397,274.592C198.539,274.791 198.68,274.989 198.879,275.216" style="fill:none;stroke:rgb(51,44,43);stroke-width:0.57px;"/>
                                <path d="M198.879,275.216C199.134,275.471 199.446,275.726 199.899,275.981C200.721,276.406 202.025,276.831 203.726,277.087C205.398,277.37 207.468,277.483 209.083,277.398C210.671,277.342 211.833,277.087 213.024,276.661C214.214,276.265 215.433,275.669 216.482,275.074C217.502,274.479 218.296,273.883 219.09,273.26" style="fill:none;stroke:rgb(51,44,43);stroke-width:0.57px;"/>
                                <path d="M199.587,268.441L199.134,279.751C192.076,281.679 185.017,283.635 178.923,286.299C172.772,288.992 167.584,292.45 164.353,294.123C161.093,295.767 159.761,295.654 159.222,294.86C158.683,294.038 158.967,292.592 160.894,290.608C162.822,288.595 166.394,286.072 171.241,283.493C176.088,280.913 182.211,278.249 187.143,275.726C191.934,273.26 195.647,270.935 199.332,268.583C199.389,268.554 199.417,268.526 199.446,268.526C199.446,268.526 199.446,268.498 199.474,268.498C199.502,268.498 199.531,268.469 199.587,268.441Z" style="fill:rgb(150,114,108);stroke:rgb(150,114,108);stroke-width:0.22px;"/>
                                <path d="M200.494,262.828L199.049,269.178L199.02,269.178C198.964,269.178 198.935,269.15 198.879,269.121C197.235,268.554 195.902,267.364 194.315,266.513C192.614,265.606 190.63,265.068 187.427,264.132C184.252,263.197 179.858,261.893 175.748,261.354C171.638,260.816 167.783,261.071 165.317,261.468C162.879,261.893 161.802,262.403 161.206,261.609C160.611,260.816 160.498,258.69 161.546,257.499C162.595,256.309 164.863,256.025 168.718,255.572C172.573,255.118 178.016,254.438 183.543,255.713C188.617,256.847 193.805,259.597 198.964,262.517C199.446,262.772 199.899,263.027 200.381,263.31C200.438,263.14 200.466,262.97 200.494,262.828Z" style="fill:rgb(150,114,108);stroke:rgb(150,114,108);stroke-width:0.22px;"/>
                                <path d="M200.523,262.375L199.049,268.753C199.106,268.753 199.134,268.753 199.162,268.781L200.523,262.375Z" style="fill:rgb(57,37,42);"/>
                                <path d="M198.794,280.29L212.598,277.71C211.663,280.148 210.784,282.614 210.302,285.392C209.764,288.51 209.764,292.054 209.509,295.313C209.225,298.602 208.715,301.663 207.043,303.591C205.398,305.518 202.592,306.312 199.757,307.049C196.894,307.786 193.975,308.438 192.416,308.353C190.857,308.239 190.658,307.389 190.658,304.923C190.658,302.457 190.857,298.403 192.217,294.605C193.578,290.778 196.101,287.206 197.49,284.145C198.028,282.954 198.397,281.877 198.652,280.828C198.709,280.658 198.737,280.488 198.794,280.29Z" style="fill:rgb(180,181,181);stroke:rgb(180,181,181);stroke-width:0.22px;"/>
                                <path d="M220.847,270.624L215.546,274.932L220.904,270.652C220.904,270.624 220.876,270.624 220.847,270.624Z" style="fill:rgb(57,37,42);"/>
                                <path d="M215.546,274.932L213.222,276.831C213.194,276.831 213.194,276.831 213.165,276.831L215.546,274.932Z" style="fill:rgb(57,37,42);"/>
                                <path d="M215.291,275.046L212.967,276.945C213.08,276.945 213.165,276.945 213.279,276.945L220.932,270.822C220.847,270.794 220.762,270.765 220.677,270.737L215.291,275.046ZM213.279,276.945L220.932,270.822C221.726,271.077 222.491,271.332 223.257,271.587C229.805,273.798 236.239,276.18 241.54,279.95C247.635,284.23 252.283,290.353 254.268,293.414C256.252,296.447 255.6,296.447 254.013,296.986C252.397,297.524 249.874,298.573 247.748,297.383C245.65,296.192 243.921,292.734 240.661,289.02C237.402,285.307 232.611,281.31 227.707,279.269C222.973,277.285 218.126,277.087 213.279,276.945Z" style="fill:rgb(150,114,108);stroke:rgb(150,114,108);stroke-width:0.22px;"/>
                                <path d="M189.553,59.443C190.063,59.074 190.573,58.706 191.055,58.309C191.82,57.713 192.586,57.061 193.266,56.296C194.57,54.879 195.704,53.093 196.271,52.696C196.838,52.271 196.838,53.235 197.461,53.915C198.085,54.595 199.361,54.992 201.005,55.672C202.677,56.353 204.718,57.317 206.617,57.883C208.488,58.45 210.161,58.62 211.946,58.649C213.704,58.706 215.546,58.649 216.454,58.791C216.964,58.876 217.191,59.017 217.361,59.102C217.531,59.159 217.644,59.187 217.899,59.102C218.438,58.932 219.543,58.195 219.94,56.58C220.365,54.935 220.11,52.356 219.146,49.72C218.183,47.083 216.51,44.362 214.271,42.378C212.031,40.394 209.225,39.118 206.702,38.721C204.208,38.324 201.997,38.778 200.239,39.146C198.454,39.487 197.093,39.713 195.364,39.997C193.946,40.195 192.274,40.45 191.055,41.216C190.8,41.386 190.573,41.556 190.346,41.783C189.156,43.002 188.872,45.156 187.739,47.537C186.605,49.918 184.649,52.498 184.876,55.276C185.102,58.054 187.54,61.03 189.978,63.978C189.808,62.532 189.723,60.973 189.553,59.443Z" style="fill:rgb(133,78,27);stroke:rgb(133,78,27);stroke-width:0.22px;"/>
                                <ellipse cx="195.137" cy="63.269" rx="0.539" ry="0.595" style="fill:rgb(107,57,45);stroke:rgb(107,57,45);stroke-width:0.57px;"/>
                                <path d="M191.707,60.35C191.395,60.378 191.48,60.803 191.792,61.257C192.104,61.682 192.643,62.107 193.351,62.391C194.06,62.702 194.939,62.844 195.591,62.787C196.243,62.731 196.668,62.447 197.065,62.079C197.433,61.682 197.773,61.2 197.943,60.803C198.113,60.406 198.142,60.094 198.113,59.981C198.085,59.839 198,59.896 197.83,60.038C197.688,60.208 197.433,60.435 197.036,60.661C196.639,60.888 196.072,61.058 195.562,61.172C195.052,61.257 194.57,61.285 194.202,61.228C193.861,61.2 193.635,61.087 193.181,60.86C192.728,60.633 191.991,60.293 191.707,60.35Z" style="fill:rgb(107,57,45);stroke:rgb(107,57,45);stroke-width:0.57px;"/>
                                <path d="M192.954,64.063C192.756,64.091 192.813,64.375 193.011,64.658C193.238,64.942 193.578,65.225 194.031,65.424C194.513,65.594 195.08,65.707 195.534,65.65C195.959,65.622 196.243,65.452 196.498,65.197C196.753,64.942 196.951,64.63 197.065,64.346C197.178,64.091 197.206,63.893 197.178,63.808C197.15,63.723 197.093,63.751 197.008,63.865C196.894,63.95 196.753,64.12 196.469,64.261C196.214,64.403 195.846,64.517 195.506,64.602C195.165,64.658 194.825,64.658 194.598,64.63C194.372,64.63 194.23,64.545 193.918,64.403C193.606,64.261 193.153,64.035 192.954,64.063Z" style="fill:rgb(237,153,98);stroke:rgb(237,153,98);stroke-width:0.57px;"/>
                                <ellipse cx="207.751" cy="62.957" rx="0.539" ry="0.595" style="fill:rgb(107,57,45);stroke:rgb(107,57,45);stroke-width:0.57px;"/>
                                <path d="M204.321,60.038C204.009,60.066 204.123,60.491 204.435,60.945C204.746,61.37 205.285,61.795 205.994,62.079C206.674,62.391 207.553,62.532 208.233,62.476C208.885,62.419 209.31,62.135 209.679,61.767C210.076,61.37 210.416,60.888 210.586,60.491C210.756,60.094 210.756,59.783 210.728,59.669C210.699,59.528 210.614,59.584 210.472,59.726C210.302,59.896 210.076,60.151 209.679,60.35C209.282,60.576 208.715,60.746 208.176,60.86C207.666,60.945 207.184,60.973 206.844,60.917C206.476,60.888 206.277,60.775 205.795,60.548C205.342,60.35 204.633,59.981 204.321,60.038Z" style="fill:rgb(107,57,45);stroke:rgb(107,57,45);stroke-width:0.57px;"/>
                                <path d="M205.569,63.751C205.37,63.78 205.427,64.063 205.654,64.346C205.852,64.63 206.192,64.913 206.674,65.112C207.128,65.282 207.723,65.395 208.148,65.339C208.573,65.31 208.857,65.14 209.112,64.885C209.367,64.63 209.594,64.318 209.707,64.035C209.82,63.78 209.82,63.581 209.82,63.496C209.792,63.411 209.735,63.439 209.622,63.553C209.537,63.638 209.367,63.808 209.112,63.95C208.857,64.091 208.46,64.205 208.12,64.29C207.78,64.346 207.468,64.346 207.241,64.346C207.014,64.318 206.872,64.233 206.561,64.091C206.249,63.95 205.767,63.723 205.569,63.751Z" style="fill:rgb(237,153,98);stroke:rgb(237,153,98);stroke-width:0.57px;"/>
                                <path d="M199.276,58.819C199.502,58.904 199.757,58.989 200.296,58.932C200.835,58.847 201.657,58.62 202.479,58.394" style="fill:none;stroke:rgb(120,64,56);stroke-width:0.57px;"/>
                                <path d="M199.814,59.783C200.268,59.783 200.721,59.811 201.146,59.726C201.572,59.613 201.969,59.414 202.365,59.216" style="fill:none;stroke:rgb(120,64,56);stroke-width:0.57px;"/>
                                <path d="M199.049,70.072C199.276,69.761 199.474,69.449 200.438,69.279C201.402,69.08 203.131,69.052 204.066,69.024C205.002,68.995 205.143,68.995 205.483,69.165C205.824,69.335 206.362,69.647 206.872,69.959" style="fill:none;stroke:rgb(237,153,98);stroke-width:0.57px;"/>
                                <path d="M240.265,191.112L230.23,201.26C230.485,201.458 230.769,201.657 231.024,201.855C231.222,201.997 231.392,202.11 231.591,202.224C232.044,202.479 232.498,202.734 232.923,202.961C233.235,203.131 233.546,203.301 233.858,203.471C234.737,203.924 235.389,204.35 236.296,205.512C236.806,206.164 237.402,207.099 238.082,208.261C238.564,209.112 239.074,210.076 239.641,211.153C240.973,213.704 242.504,216.879 244.091,220.706C245.679,224.532 247.351,228.954 248.542,231.25C249.732,233.546 250.469,233.688 251.631,233.093C252.794,232.498 254.381,231.165 255.317,228.841C256.252,226.517 256.507,223.2 256.535,219.883C256.564,216.567 256.365,213.222 255.883,210.699C255.373,208.176 254.58,206.447 254.183,204.973C253.786,203.471 253.786,202.224 253.899,200.296C253.984,198.369 254.183,195.761 253.219,194.315C252.255,192.841 250.129,192.529 247.521,192.132C246.189,191.934 244.772,191.735 243.269,191.537L240.265,191.112Z" style="fill:rgb(180,181,181);stroke:rgb(180,181,181);stroke-width:0.22px;"/>
                                <path d="M246.302,255.912C238.762,257.698 230.712,261.666 222.661,265.606C221.924,267.761 221.272,269.348 220.706,270.567C220.762,270.595 220.791,270.595 220.847,270.624C220.876,270.624 220.904,270.624 220.904,270.652C221.783,270.935 222.633,271.219 223.483,271.502C225.156,270.879 226.828,270.283 230.06,268.583C233.263,266.882 238.054,264.104 242.646,262.687C247.209,261.298 251.603,261.298 255.657,261.099C259.682,260.901 263.424,260.504 265.408,259.455C267.392,258.378 267.676,256.649 264.274,255.6C260.901,254.523 253.843,254.126 246.302,255.912Z" style="fill:rgb(150,114,108);stroke:rgb(150,114,108);stroke-width:0.22px;"/>
                                <path d="M200.523,262.375C203.017,251.943 207.553,233.433 210.331,222.831C210.614,221.669 210.898,220.592 211.181,219.6C205.313,219.6 199.474,219.572 193.833,219.515C195.676,224.022 197.546,228.529 198.397,236.863C199.077,243.581 199.077,252.822 198.964,262.517C193.805,259.597 188.617,256.847 183.543,255.713C178.016,254.438 172.573,255.118 168.718,255.572C164.863,256.025 162.595,256.309 161.546,257.499C160.498,258.69 160.611,260.816 161.206,261.609C161.802,262.403 162.879,261.893 165.317,261.468C167.783,261.071 171.638,260.816 175.748,261.354C179.858,261.893 184.252,263.197 187.427,264.132C190.63,265.068 192.614,265.606 194.315,266.513C195.817,267.307 197.121,268.413 198.624,269.036L198.964,269.15L199.02,269.178L199.049,269.178L199.134,268.753L199.077,268.753L199.049,268.753L200.523,262.375Z" style="fill:rgb(150,114,108);stroke:rgb(150,114,108);stroke-width:0.22px;"/>
                                <path d="M160.809,217.899C168.803,219.033 180.737,219.402 193.833,219.515C199.474,219.572 205.313,219.6 211.181,219.6C213.335,211.493 214.214,209.14 215.065,206.787C211.039,204.406 205.285,201.43 197.32,198.17C184.734,192.983 166.677,187.002 157.946,182.494C157.068,182.041 156.274,181.587 155.565,181.162C151.172,190.743 146.806,200.324 146.353,206.702C145.899,213.109 149.357,216.283 160.809,217.899Z" style="fill:rgb(238,127,114);stroke:rgb(238,127,114);stroke-width:0.22px;"/>
                                <path d="M274.847,62.504L274.734,65.083C271.814,65.169 268.951,66.104 266.627,67.55C263.849,69.307 261.865,71.773 260.759,73.871C259.654,75.997 259.427,77.726 259.2,79.455L264.302,79.483L264.387,79.313L283.039,79.342L283.153,79.483L283.493,79.483L288.85,79.512L283.068,75.94L284.769,73.474L290.523,77.046C290.296,75.827 290.069,74.58 289.417,73.191C288.765,71.773 287.66,70.214 285.42,68.627C283.181,67.039 279.808,65.424 276.35,65.14L276.406,62.504L274.847,62.504Z" style="fill:rgb(242,182,98);stroke:rgb(242,182,98);stroke-width:0.57px;"/>
                                <rect x="98.306" y="157.861" width="246.076" height="25.115" style="fill:rgb(119,97,94);stroke:rgb(119,97,94);stroke-width:0.57px;"/>
                                <g transform="matrix(1,0,0,1.79946,0,-145.874)">
                                    <rect x="98.306" y="182.976" width="8.872" height="68.287" style="fill:rgb(119,97,94);"/>
                                </g>
                                <g transform="matrix(1,0,0,1.79946,0,-145.874)">
                                    <rect x="334.998" y="182.466" width="8.872" height="68.287" style="fill:rgb(119,97,94);"/>
                                </g>
                                <path d="M168.236,50.173C169.087,49.691 169.909,49.209 170.617,49.181C171.326,49.181 171.95,49.606 172.318,50.428C172.687,51.25 172.8,52.469 173.65,52.866C174.501,53.263 176.06,52.809 176.967,52.639C177.846,52.441 178.072,52.469 178.384,52.923C178.668,53.348 179.065,54.17 179.49,54.652C179.887,55.134 180.34,55.247 180.765,55.389" style="fill:none;stroke:rgb(238,127,114);stroke-width:0.57px;"/>
                                <path d="M166.961,43.512C167.783,42.86 168.605,42.208 169.285,42.435C169.937,42.661 170.476,43.739 171.326,44.334C172.148,44.901 173.339,45.014 174.189,44.787C175.039,44.561 175.55,44.05 176.428,44.022C177.335,43.994 178.583,44.476 179.235,44.957C179.858,45.439 179.858,45.921 180.028,46.602C180.198,47.31 180.539,48.217 181.276,48.529C181.984,48.813 183.061,48.529 184.139,48.217" style="fill:none;stroke:rgb(238,127,114);stroke-width:0.57px;"/>
                                <path d="M220.649,47.707C221.074,46.658 221.528,45.609 222.35,45.128C223.172,44.646 224.391,44.731 225.213,44.504C226.035,44.277 226.46,43.71 226.913,43.058C227.339,42.406 227.764,41.669 228.784,41.272C229.776,40.876 231.335,40.819 232.384,40.819C233.433,40.819 233.943,40.876 234.454,40.167C234.935,39.43 235.417,37.956 236.098,37.162C236.778,36.369 237.628,36.227 238.365,36.369C239.102,36.482 239.726,36.879 240.038,37.191C240.321,37.474 240.321,37.701 240.321,37.928" style="fill:none;stroke:rgb(238,127,114);stroke-width:0.57px;"/>
                                <path d="M222.208,51.987C222.633,50.967 223.087,49.918 223.767,49.38C224.419,48.869 225.326,48.869 226.035,48.869C226.743,48.869 227.197,48.869 227.764,48.246C228.331,47.622 228.983,46.346 230.173,45.78C231.392,45.213 233.121,45.354 234.283,45.298C235.474,45.213 236.069,44.957 236.58,44.362C237.118,43.739 237.543,42.775 238.252,42.35C238.989,41.924 239.981,42.009 240.973,42.094" style="fill:none;stroke:rgb(238,127,114);stroke-width:0.57px;"/>
                                <circle cx="195.364" cy="62.759" r="3.912" style="fill:none;stroke:rgb(238,127,114);stroke-width:0.57px;"/>
                                <circle cx="207.751" cy="62.362" r="3.912" style="fill:none;stroke:rgb(238,127,114);stroke-width:0.57px;"/>
                                <path d="M199.247,62.192L203.839,62.362" style="fill:none;stroke:rgb(238,127,114);stroke-width:0.57px;"/>
                                <path d="M211.663,62.362L216,60.463" style="fill:none;stroke:rgb(238,127,114);stroke-width:0.57px;"/>
                                <path d="M191.594,63.298L189.808,62.107" style="fill:none;stroke:rgb(238,127,114);stroke-width:0.57px;"/>
                            </g>
                        </g>
                    </g>
                </g>
            </g>
        </g>
    </g>
</svg>
