<?xml version="1.0" encoding="UTF-8" standalone="no"?>
<!DOCTYPE svg PUBLIC "-//W3C//DTD SVG 1.1//EN" "http://www.w3.org/Graphics/SVG/1.1/DTD/svg11.dtd">
<svg width="100%" height="100%" viewBox="0 0 1299 933" version="1.1" xmlns="http://www.w3.org/2000/svg" xmlns:xlink="http://www.w3.org/1999/xlink" xml:space="preserve" xmlns:serif="http://www.serif.com/" style="fill-rule:evenodd;clip-rule:evenodd;">
    <g transform="matrix(1,0,0,1,-4876.92,-56.7649)">
        <g transform="matrix(0.954933,0,0,1,278.304,0)">
            <rect x="4815.65" y="56.765" width="1359.68" height="932.564" style="fill:none;"/>
            <g transform="matrix(1.04719,0,0,1,-236.985,-751)">
                <path d="M4830,1333.99C4824.39,1270.1 4819.55,1202.18 4837.85,1139.64C4854.26,1083.55 4891.44,1031.52 4932.4,990.626C4958.33,964.738 4989.2,939.41 5025.47,930.168C5070.44,918.709 5120.65,928.726 5165.77,930.915C5193.52,932.261 5220.07,929.473 5246.75,921.715C5298.03,906.804 5344.36,877.998 5396.32,865.08C5422.04,858.685 5453.7,855.903 5478.65,854.455C5527.97,851.594 5578.04,852.888 5626.55,862.99C5681.6,874.453 5735.67,895.768 5785.98,920.771C5816.97,936.169 5847.66,953.708 5874.24,976.059C5885.33,985.384 5896.19,995.586 5904.53,1007.57C5945.85,1066.92 5926.62,1146.77 5961,1208.65C5987.9,1257.06 6043.39,1279.8 6078.95,1320.08C6107.27,1352.16 6118.17,1396.44 6122.6,1437.84C6124.97,1460.04 6121.31,1484.55 6115.21,1505.62C6089.25,1595.34 6008.31,1656.59 5924.59,1689.96C5906.75,1697.07 5890.69,1701.65 5871.84,1706.3C5837.27,1714.84 5798.94,1721.14 5764.56,1725.79C5715.54,1732.41 5659.44,1737.05 5609.97,1739C5558.29,1741.04 5503.85,1740.74 5452.23,1738.06C5399.08,1735.31 5349.51,1730.53 5297,1722C5251.3,1714.58 5196.43,1702.4 5152,1689.64C5108.82,1677.24 5065.12,1662.7 5025,1642C4981.01,1619.3 4939.75,1584.7 4909.46,1545.51C4889.95,1520.26 4873.1,1496.11 4860.64,1466.95C4842.69,1424.94 4833.98,1379.3 4830,1333.99" style="fill:rgb(161,255,245);"/>
                <clipPath id="_clip1">
                    <path d="M4830,1333.99C4824.39,1270.1 4819.55,1202.18 4837.85,1139.64C4854.26,1083.55 4891.44,1031.52 4932.4,990.626C4958.33,964.738 4989.2,939.41 5025.47,930.168C5070.44,918.709 5120.65,928.726 5165.77,930.915C5193.52,932.261 5220.07,929.473 5246.75,921.715C5298.03,906.804 5344.36,877.998 5396.32,865.08C5422.04,858.685 5453.7,855.903 5478.65,854.455C5527.97,851.594 5578.04,852.888 5626.55,862.99C5681.6,874.453 5735.67,895.768 5785.98,920.771C5816.97,936.169 5847.66,953.708 5874.24,976.059C5885.33,985.384 5896.19,995.586 5904.53,1007.57C5945.85,1066.92 5926.62,1146.77 5961,1208.65C5987.9,1257.06 6043.39,1279.8 6078.95,1320.08C6107.27,1352.16 6118.17,1396.44 6122.6,1437.84C6124.97,1460.04 6121.31,1484.55 6115.21,1505.62C6089.25,1595.34 6008.31,1656.59 5924.59,1689.96C5906.75,1697.07 5890.69,1701.65 5871.84,1706.3C5837.27,1714.84 5798.94,1721.14 5764.56,1725.79C5715.54,1732.41 5659.44,1737.05 5609.97,1739C5558.29,1741.04 5503.85,1740.74 5452.23,1738.06C5399.08,1735.31 5349.51,1730.53 5297,1722C5251.3,1714.58 5196.43,1702.4 5152,1689.64C5108.82,1677.24 5065.12,1662.7 5025,1642C4981.01,1619.3 4939.75,1584.7 4909.46,1545.51C4889.95,1520.26 4873.1,1496.11 4860.64,1466.95C4842.69,1424.94 4833.98,1379.3 4830,1333.99"/>
                </clipPath>
                <g clip-path="url(#_clip1)">
                    <path d="M4830,1333.99C4824.39,1270.1 4819.55,1202.18 4837.85,1139.64C4854.26,1083.55 4891.44,1031.52 4932.4,990.626C4958.33,964.738 4989.2,939.41 5025.47,930.168C5070.44,918.709 5120.65,928.726 5165.77,930.915C5193.52,932.261 5220.07,929.473 5246.75,921.715C5298.03,906.804 5344.36,877.998 5396.32,865.08C5422.04,858.685 5453.7,855.903 5478.65,854.455C5527.97,851.594 5578.04,852.888 5626.55,862.99C5681.6,874.453 5735.67,895.768 5785.98,920.771C5816.97,936.169 5847.66,953.708 5874.24,976.059C5885.33,985.384 5896.19,995.586 5904.53,1007.57C5945.85,1066.92 5926.62,1146.77 5961,1208.65C5987.9,1257.06 6043.39,1279.8 6078.95,1320.08C6107.27,1352.16 6118.17,1396.44 6122.6,1437.84C6124.97,1460.04 6121.31,1484.55 6115.21,1505.62C6089.25,1595.34 6008.31,1656.59 5924.59,1689.96C5906.75,1697.07 5890.69,1701.65 5871.84,1706.3C5837.27,1714.84 5798.94,1721.14 5764.56,1725.79C5715.54,1732.41 5659.44,1737.05 5609.97,1739C5558.29,1741.04 5503.85,1740.74 5452.23,1738.06C5399.08,1735.31 5349.51,1730.53 5297,1722C5251.3,1714.58 5196.43,1702.4 5152,1689.64C5108.82,1677.24 5065.12,1662.7 5025,1642C4981.01,1619.3 4939.75,1584.7 4909.46,1545.51C4889.95,1520.26 4873.1,1496.11 4860.64,1466.95C4842.69,1424.94 4833.98,1379.3 4830,1333.99" style="fill:url(#_Linear2);"/>
                    <g id="_-Curve-" serif:id="(Curve)" transform="matrix(1,0,0,1,-112.11,684.901)">
                        <path d="M4876.92,878C4860.86,817.152 5014.59,784.818 5094,769C5180.18,751.833 5301.17,785.833 5394,775C5482.28,764.698 5563,713.667 5651,704C5739,694.333 5849.33,704.333 5922,717C5980,727.11 6034.17,770.5 6087.01,780C6136.91,788.973 6215.01,729.329 6239,774C6266.17,824.588 6347.65,1050 6250,1083.53C6075.23,1143.54 5419.24,1168.34 5190.39,1134.09C5056.95,1114.11 4892.99,938.848 4876.92,878Z" style="fill-opacity:0.0666667;"/>
                    </g>
                    <g transform="matrix(2.47333,0,0,2.47333,5474.12,1273.65)">
                        <g transform="matrix(1,0,0,1,-226.772,-226.772)">
                            <g id="Layer_x0020_1">
                                <path d="M240.917,75.033L253.701,113.811L294.151,98.957L269.631,132.463L307.304,152.702L263.934,155.707L270.454,195.817L240.917,166.054L211.38,195.817L217.899,155.707L174.557,152.702L212.23,132.463L187.71,98.957L228.161,113.811L240.917,75.033Z" style="fill:rgb(255,253,133);fill-opacity:0.74902;stroke:rgb(255,253,133);stroke-opacity:0.74902;stroke-width:0.57px;"/>
                                <path d="M133.455,179.688C135.95,182.693 138.472,186.463 140.003,189.071C141.534,191.679 142.072,193.124 142.356,194.372C142.639,195.619 142.639,196.696 142.696,198.142C142.724,199.587 142.838,201.43 142.441,203.102C142.072,204.803 141.25,206.362 140.23,207.269C139.209,208.176 137.991,208.46 136.063,208.8C134.107,209.14 131.414,209.537 129.09,209.934C126.794,210.302 124.838,210.699 123.109,211.266C121.408,211.861 119.906,212.627 118.998,213.25C118.063,213.874 117.694,214.356 116.617,214.356C115.569,214.356 113.811,213.874 112.025,213.846C110.268,213.789 108.51,214.186 106.809,214.753C105.08,215.32 103.408,216.113 102.217,217.219C100.998,218.324 100.261,219.77 100.942,219.543C101.65,219.288 103.776,217.361 105.364,215.376C106.923,213.392 107.943,211.38 108.369,210.019C108.794,208.658 108.595,207.978 107.688,206.986C106.753,205.965 105.08,204.605 103.465,202.195C101.849,199.786 100.261,196.299 99.383,193.209C98.504,190.12 98.306,187.427 98.589,185.046C98.872,182.693 99.609,180.652 100.545,178.668C101.452,176.683 102.586,174.756 104.06,173.452C105.534,172.148 107.405,171.468 109.219,170.901C111.005,170.306 112.791,169.824 114.406,169.54C116.022,169.257 117.496,169.172 119.395,169.654C121.323,170.135 123.619,171.184 126.028,172.828C128.438,174.472 130.961,176.683 133.455,179.688Z" style="fill:rgb(242,195,163);stroke:rgb(242,195,163);stroke-width:0.57px;"/>
                                <path d="M222.548,179.66L227.82,187.087C228.699,186.435 229.521,185.868 230.202,185.357C233.036,183.317 234.198,182.693 235.984,182.296C237.77,181.899 240.18,181.729 242.22,181.559C244.233,181.417 245.906,181.247 247.606,180.794C249.307,180.34 251.065,179.603 252.907,178.498C254.75,177.392 256.677,175.918 258.18,174.047C259.654,172.176 260.731,169.909 260.844,168.746C260.957,167.613 260.135,167.584 258.52,167.811C256.904,168.009 254.523,168.463 252.227,168.746C249.959,169.058 247.776,169.2 246.189,169.2C244.602,169.2 243.609,169.115 242.901,168.661C242.22,168.236 241.824,167.443 241.569,166.819C241.313,166.195 241.143,165.713 241.625,165.628C242.107,165.543 243.213,165.883 244.233,166.025C245.254,166.195 246.161,166.195 247.153,166.139C248.145,166.054 249.194,165.94 249.902,165.572C250.583,165.231 250.923,164.665 251.065,164.324C251.235,163.984 251.235,163.843 250.724,163.899C250.186,163.956 249.137,164.183 247.748,163.984C246.387,163.757 244.63,163.106 243.553,162.595C242.476,162.085 242.05,161.745 241.427,161.376C240.831,161.008 240.009,160.583 239.102,160.696C238.167,160.809 237.09,161.433 235.984,161.887C234.907,162.34 233.773,162.624 233.093,163.049C232.384,163.446 232.129,163.984 231.732,166.11C231.335,168.236 230.797,171.921 230.23,174.189C229.663,176.457 229.096,177.25 226.573,178.271C225.553,178.696 224.164,179.178 222.548,179.66Z" style="fill:rgb(242,195,163);stroke:rgb(242,195,163);stroke-width:0.22px;"/>
                                <path d="M218.806,155.395C218.466,156.104 218.211,156.643 218.069,156.898C217.729,157.436 217.899,156.416 218.353,155.82C218.466,155.622 218.636,155.48 218.806,155.395ZM218.806,155.395C219.231,154.488 219.798,153.354 220.479,152.249C221.754,150.265 223.455,148.422 224.249,146.835C225.043,145.247 224.986,143.915 224.787,143.178C224.589,142.469 224.306,142.356 221.924,144.624C219.572,146.92 215.178,151.597 213.109,155.395C211.039,159.222 211.294,162.17 211.918,165.969C212.57,169.739 213.591,174.302 213.817,176.939C214.044,179.575 213.506,180.283 211.975,181.956C210.472,183.657 208.006,186.35 205.512,189.043C207.241,188.22 208.885,187.455 210.472,186.69C214.809,184.564 218.806,182.296 220.989,180.709C223.172,179.121 223.54,178.186 223.54,175.861C223.54,173.962 223.313,171.071 223.143,168.917C222.123,167.357 221.102,165.77 220.677,163.729C220.252,161.688 220.422,159.165 220.45,157.606C220.479,156.047 220.365,155.452 219.94,155.254C219.628,155.083 219.203,155.14 218.806,155.395Z" style="fill:rgb(240,175,132);"/>
                                <path d="M118.998,243.184C121.521,242.334 124.072,241.483 127.757,239.811C131.414,238.11 136.233,235.616 144.17,231.902C152.135,228.189 163.247,223.285 171.553,218.863C179.858,214.413 185.414,210.472 190.942,206.504C185.216,208.573 179.235,210.132 175.38,211.096C170.901,212.202 169.285,212.542 163.786,214.98C158.287,217.446 148.904,222.038 140.797,226.091C132.69,230.145 125.858,233.66 122.542,235.587C119.225,237.515 119.452,237.827 119.339,239.584C119.282,240.463 119.14,241.682 118.998,243.184Z" style="fill:rgb(57,37,42);stroke:rgb(57,37,42);stroke-width:0.22px;"/>
                                <rect x="226.942" y="119.14" width="32.031" height="41.471" style="fill:rgb(190,191,201);stroke:rgb(190,191,201);stroke-width:0.57px;"/>
                                <path d="M359.546,200.239C362.409,207.128 365.301,214.016 367.483,219.94C369.694,225.836 371.197,230.797 371.849,235.077C372.501,239.357 372.302,242.986 372.416,246.416C372.501,249.817 372.869,253.02 373.209,255.203C373.55,257.386 373.89,258.576 374.712,258.52C375.562,258.463 376.951,257.159 378.17,255.487C379.389,253.843 380.438,251.83 381.26,250.243C382.082,248.627 382.649,247.436 382.309,245.565C381.94,243.694 380.693,241.115 379.757,239.046C378.822,236.976 378.198,235.417 377.433,232.356C376.696,229.294 375.817,224.731 374.882,220.564C373.946,216.397 372.926,212.627 372.302,208.29C371.679,203.924 371.424,198.964 371.169,194.003" style="fill:none;stroke:rgb(51,44,43);stroke-width:0.57px;"/>
                                <path d="M355.294,111.912C358.781,111.175 361.729,111.175 364.564,111.317C365.187,111.345 365.811,111.402 366.435,111.43C367.03,111.317 367.54,111.061 367.909,110.438C368.589,109.247 368.646,106.724 368.306,104.003C368.05,101.934 367.569,99.751 367.654,98.164C367.682,97.682 367.795,97.257 367.965,96.888C368.731,95.471 370.97,95.528 373.578,91.871C376.157,88.214 375.024,80.731 375.761,74.693C376.469,68.655 374.967,63.95 373.181,60.208C371.395,56.438 369.326,53.631 366.208,51.506C363.061,49.38 358.866,47.934 353.225,47.735C347.556,47.565 344.494,48.699 339.165,52.186C333.865,55.644 330.35,61.54 329.017,67.124C327.713,72.737 328.592,78.066 329.159,82.148C329.726,86.258 329.981,89.15 329.414,93.742C329.244,95.102 329.017,96.605 328.649,98.164C327.827,101.962 326.381,106.214 323.773,109.928C320.088,115.172 314.079,119.367 310.479,124.923C306.879,130.45 305.688,137.339 306.992,142.271C308.324,147.175 312.123,150.123 313.512,153.241C314.872,156.387 313.824,159.704 313.965,162.737C314.135,165.77 315.496,168.52 317.65,170.22C319.805,171.95 322.724,172.602 325.616,173.254C326.268,169.342 326.948,165.43 327.855,160.101C328.791,154.743 329.981,147.997 332.164,140.542C334.346,133.087 337.55,124.951 341.717,119.877C345.883,114.803 351.014,112.791 355.294,111.912Z" style="fill:rgb(133,78,27);stroke:rgb(133,78,27);stroke-width:0.22px;"/>
                                <path d="M346.649,376.441L354.557,378.142C354.104,380.948 354.189,383.102 355.039,385.285C355.975,387.723 357.846,390.246 358.923,392.003C359.972,393.732 360.227,394.753 359.858,396.822C359.49,398.891 358.469,402.009 355.776,405.071C353.083,408.132 348.718,411.137 344.154,413.972C339.562,416.778 334.8,419.414 330.605,420.038C326.438,420.661 322.781,419.272 322.356,417.6C321.931,415.899 324.68,413.915 326.92,411.704C329.187,409.521 330.945,407.14 332.674,404.561C334.431,402.009 336.189,399.26 337.323,396.057C338.457,392.882 338.939,389.225 340.639,386.362C342.312,383.499 345.146,381.402 346.649,376.441Z" style="fill:rgb(190,191,201);stroke:rgb(190,191,201);stroke-width:0.22px;"/>
                                <path d="M398.806,363.94L390.189,370.091C389.877,367.767 389.395,365.329 388.715,362.806C386.532,354.813 382.139,346.167 377.887,337.153C373.635,328.139 369.496,318.756 365.981,311.726C365.244,310.252 364.535,308.863 363.827,307.531C363.09,316.885 362.353,326.268 361.361,335.906C360.369,345.543 359.093,355.436 357.846,362.494C356.598,369.581 355.351,373.833 354.728,377.15C354.643,377.49 354.586,377.83 354.557,378.142L346.649,376.441C346.677,376.384 346.677,376.328 346.706,376.271C348.208,371.197 348.321,363.203 347.641,347.726C346.961,332.277 345.458,309.345 342.567,291.317C339.704,273.288 335.452,260.164 332.447,249.08C329.443,237.997 327.685,228.983 327.118,219.572C326.721,213.024 326.92,206.277 326.948,200.211L354.019,193.039C354.529,195.137 354.869,197.008 355.096,198.397C355.521,200.92 355.663,201.798 358.299,200.778C358.668,200.636 359.093,200.438 359.546,200.239C362.409,207.128 365.301,214.016 367.483,219.94C368.674,223.143 369.666,226.063 370.431,228.756C369.269,234.397 368.164,240.009 368.419,247.578C368.731,256.649 370.998,268.554 372.189,277.172C373.38,285.817 373.493,291.203 374.372,294.633C375.25,298.091 376.894,299.594 379.247,302.967C381.628,306.34 384.775,311.613 387.581,321.25C390.416,330.888 392.91,344.92 395.348,353.934C396.51,358.271 397.672,361.446 398.806,363.94ZM369.978,188.787L373.38,187.88C373.918,194.882 374.173,199.361 373.946,204.435C373.805,207.156 373.521,210.076 373.153,213.024C372.841,211.493 372.557,209.934 372.302,208.29C371.679,203.924 371.424,198.964 371.169,194.003C372.416,193.294 372.728,192.926 372.331,192.274C371.934,191.594 370.828,190.63 369.978,188.787Z"/>
                                <path d="M398.806,363.94L390.189,370.091C390.898,375.222 390.841,379.843 390.728,383.414C390.529,388.602 390.161,391.606 389.395,395.065C388.658,398.494 387.524,402.378 385.824,405.581C384.151,408.756 381.883,411.279 381.005,413.348C380.126,415.417 380.636,417.033 381.146,417.855C381.628,418.649 382.139,418.649 383.754,418.535C385.398,418.422 388.148,418.167 391.72,415.417C395.291,412.639 399.657,407.395 402.491,402.576C405.298,397.757 406.545,393.364 407.877,390.359C409.181,387.354 410.57,385.739 410.57,384.038C410.57,382.337 409.181,380.608 407.622,378.397C406.063,376.214 404.306,373.578 402.236,370.261C401.159,368.532 399.997,366.633 398.806,363.94Z" style="fill:rgb(190,191,201);stroke:rgb(190,191,201);stroke-width:0.22px;"/>
                                <path d="M359.546,200.239C363.402,198.17 367.285,196.072 371.169,194.003" style="fill:none;stroke:rgb(51,44,43);stroke-width:0.57px;"/>
                                <path d="M371.169,194.003L359.546,200.239C362.409,207.128 365.301,214.016 367.483,219.94C368.674,223.143 369.666,226.063 370.431,228.756C371.055,231.024 371.537,233.121 371.849,235.077C372.501,239.357 372.302,242.986 372.416,246.416C372.501,249.817 372.869,253.02 373.209,255.203C373.55,257.386 373.89,258.576 374.712,258.52C375.562,258.463 376.951,257.159 378.17,255.487C379.389,253.843 380.438,251.83 381.26,250.243C382.082,248.627 382.649,247.436 382.309,245.565C381.94,243.694 380.693,241.115 379.757,239.046C378.822,236.976 378.198,235.417 377.433,232.356C376.696,229.294 375.817,224.731 374.882,220.564C374.287,217.956 373.691,215.546 373.153,213.024C372.841,211.493 372.557,209.934 372.302,208.29C371.679,203.924 371.424,198.964 371.169,194.003Z" style="fill:rgb(240,175,132);stroke:rgb(240,175,132);stroke-width:0.22px;"/>
                                <path d="M347.471,106.356C347.726,107.065 348.775,107.66 350.192,107.263C351.609,106.866 353.395,105.449 355.011,103.776C356.655,102.104 358.129,100.176 358.866,99.213C359.603,98.277 359.603,98.249 359.008,96.293C358.413,94.309 357.222,90.34 355.89,87.619C354.529,84.898 353.055,83.367 352.431,81.694C351.836,80.022 352.091,78.18 352.318,76.876C352.545,75.572 352.715,74.806 352.828,74.126C352.942,73.446 352.998,72.85 352.772,72.113C352.573,71.376 352.091,70.498 351.213,70.044C350.362,69.562 349.115,69.506 347.556,69.25C345.969,68.995 344.069,68.542 342.085,69.279C340.101,70.016 338.003,71.915 336.671,74.835C335.367,77.754 334.8,81.694 334.8,84.728C334.772,87.761 335.339,89.915 335.82,91.559C336.331,93.203 336.784,94.365 337.748,95.698C338.74,97.03 340.214,98.532 341.461,99.468C342.709,100.431 343.757,100.8 344.92,101.254C346.11,101.707 347.443,102.217 348.038,102.699C348.633,103.153 348.52,103.606 348.18,104.23C347.811,104.854 347.244,105.647 347.471,106.356Z" style="fill:rgb(240,175,132);stroke:rgb(240,175,132);stroke-width:0.57px;"/>
                                <path d="M326.92,203.017C334.176,203.131 341.433,203.272 347.017,203.131C352.573,202.989 356.457,202.592 360.369,202.195" style="fill:none;stroke:rgb(51,44,43);stroke-width:0.57px;"/>
                                <path d="M352.573,186.775C350.986,182.551 348.605,178.299 345.997,171.128C343.361,163.956 340.469,153.893 339.874,146.466C339.279,139.039 340.98,134.306 342.539,131.102C344.098,127.899 345.543,126.283 348.265,125.745C350.986,125.206 355.011,125.773 358.072,127.162C361.134,128.523 363.26,130.734 365.074,137.906C366.888,145.049 368.391,157.209 368.844,166.309C369.269,175.436 368.646,181.502 369.326,185.301C370.006,189.128 371.991,190.658 372.557,191.594C372.954,192.274 372.643,192.614 371.395,193.351C371.452,194.627 371.509,195.931 371.594,197.206L374.173,195.817C374.003,191.792 373.606,187.2 373.096,180.68C372.217,169.597 370.97,152.957 369.411,141.109C367.824,129.288 365.953,122.287 364.45,116.277C363.969,114.293 363.515,112.394 363.09,110.608C362.494,108.085 361.928,105.704 361.417,103.38L360.709,100.233L359.575,96.888C359.773,97.682 359.603,97.88 359.093,98.561C358.356,99.524 356.882,101.452 355.238,103.124C355.153,103.209 355.068,103.294 354.983,103.38C353.424,104.939 351.751,106.214 350.419,106.611C349.002,107.008 347.953,106.413 347.698,105.704C347.584,105.335 347.669,104.967 347.839,104.598C346.706,106.157 344.835,108.227 342.595,110.211C340.044,112.507 337.039,114.633 333.836,119.282C330.661,123.902 327.26,131.046 325.644,137.679C324.028,144.312 324.142,150.435 324.198,156.387C324.255,161.887 324.255,167.187 324.765,172.375C324.794,172.8 324.85,173.225 324.879,173.679C325.531,179.235 326.778,184.62 327.09,192.189C327.203,195.279 327.175,198.737 327.146,202.365C334.148,202.479 341.178,202.592 346.677,202.479C346.847,202.479 347.046,202.479 347.216,202.479C352.8,202.337 356.683,201.94 360.567,201.543C360.312,200.891 360.028,200.239 359.745,199.587C359.291,199.786 358.866,199.984 358.498,200.126C355.89,201.146 355.748,200.268 355.323,197.745C354.869,195.194 354.132,190.998 352.573,186.775Z" style="stroke:black;stroke-width:0.22px;"/>
                                <path d="M342.68,131.216C344.239,128.013 345.685,126.397 348.406,125.858C351.128,125.32 355.153,125.887 358.214,127.276C361.276,128.636 363.402,130.847 365.216,137.991C367.03,145.162 368.532,157.323 368.986,166.422C369.411,175.521 368.787,181.616 369.468,185.414C370.148,189.241 372.132,190.772 372.699,191.707C373.266,192.643 372.416,192.983 369.411,194.627C366.406,196.243 361.276,199.191 358.639,200.239C356.031,201.26 355.89,200.381 355.465,197.858C355.011,195.307 354.274,191.112 352.715,186.888C351.128,182.665 348.746,178.413 346.139,171.241C343.502,164.069 340.611,154.006 340.016,146.58C339.42,139.153 341.121,134.391 342.68,131.216Z" style="fill:rgb(219,127,41);stroke:rgb(219,127,41);stroke-width:0.57px;"/>
                                <g transform="matrix(0.608979,-0.198278,0.198278,0.608979,338.893,84.1924)">
                                    <ellipse cx="0" cy="0" rx="1.134" ry="3.798" style="fill:rgb(57,37,42);stroke:rgb(57,37,42);stroke-width:0.57px;"/>
                                </g>
                                <circle cx="345.005" cy="89.943" r="2.494" style="fill:rgb(241,155,145);stroke:rgb(241,155,145);stroke-width:0.57px;"/>
                                <path d="M128.211,176.939C127.843,178.016 127.474,179.121 126.624,180.113C125.802,181.134 124.469,182.041 123.137,182.948" style="fill:none;stroke:rgb(79,45,41);stroke-width:0.57px;"/>
                                <path d="M111.855,207.865C112.28,207.326 112.309,205.994 112.224,205.03C112.139,204.066 111.969,203.499 111.203,203.244C110.409,202.989 109.049,203.074 107.518,202.62C106.016,202.139 104.4,201.146 103.209,199.644C102.019,198.17 101.254,196.157 101.424,194.74C101.594,193.351 102.671,192.557 104.117,192.019C105.562,191.509 107.348,191.254 108.794,191.735C110.211,192.246 111.317,193.465 112.195,194.627C113.102,195.761 113.839,196.809 114.321,197.405C114.803,198 115.058,198.113 115.285,198.028C115.512,197.972 115.739,197.717 115.909,197.178C116.079,196.639 116.164,195.846 116.306,195.506C116.447,195.165 116.617,195.279 116.731,194.967C116.816,194.655 116.872,193.918 116.816,193.068C116.759,192.217 116.589,191.282 117.071,190.375C117.553,189.496 118.63,188.674 118.998,188.532C119.367,188.419 118.998,188.986 118.658,189.609C118.318,190.205 117.978,190.857 118.375,190.97C118.8,191.055 119.962,190.63 121.72,190.12C123.449,189.581 125.802,188.957 128.013,187.654C130.252,186.378 132.35,184.394 133.569,182.466C134.816,180.539 135.156,178.611 135.269,177.137C135.354,175.663 135.213,174.614 135.213,174.217C135.184,173.792 135.326,174.019 135.694,174.898C136.063,175.776 136.658,177.307 137.112,178.554C137.537,179.83 137.849,180.822 138.019,181.984C138.217,183.146 138.302,184.479 138.387,184.876C138.501,185.272 138.614,184.706 138.954,183.883C139.266,183.061 139.776,182.041 139.946,181.049C140.117,180.057 139.946,179.15 139.805,178.186C139.663,177.25 139.55,176.287 139.209,175.209C138.898,174.161 138.331,172.998 138.104,172.233C137.849,171.468 137.934,171.099 138.019,170.901C138.104,170.702 138.189,170.702 138.501,170.929C138.813,171.128 139.351,171.553 139.691,172.091C140.06,172.63 140.23,173.254 140.23,173.254C140.23,173.254 140.06,172.63 139.861,171.978C139.691,171.326 139.493,170.646 138.019,169.483C136.545,168.35 133.824,166.706 132.18,165.6C130.535,164.494 129.997,163.899 128.069,162.85C126.142,161.83 122.825,160.356 120.076,159.874C117.326,159.392 115.143,159.902 112.706,160.299C110.268,160.696 107.546,161.008 104.315,161.66C101.083,162.312 97.313,163.332 95.017,164.466C92.75,165.628 91.956,166.904 91.644,167.783C91.304,168.661 91.446,169.143 90.794,169.795C90.142,170.419 88.668,171.241 87.902,173.537C87.109,175.805 86.995,179.546 87.959,183.912C88.923,188.277 90.935,193.238 92.353,196.214C93.77,199.191 94.564,200.154 96.321,200.92C98.05,201.713 100.715,202.337 102.643,203.131C104.57,203.924 105.761,204.888 106.809,205.71C107.887,206.561 108.794,207.241 109.672,207.723C110.551,208.176 111.402,208.431 111.855,207.865Z" style="fill:rgb(186,125,67);stroke:rgb(186,125,67);stroke-width:0.57px;"/>
                                <path d="M131.924,177.222C131.698,178.526 131.443,179.802 130.989,181.02C130.507,182.239 129.798,183.402 129.317,184.082C128.806,184.762 128.494,184.961 128.211,185.159" style="fill:none;stroke:rgb(51,44,43);stroke-width:2.13px;"/>
                                <ellipse cx="130.535" cy="193.691" rx="3.827" ry="3.033" style="fill:rgb(238,127,114);stroke:rgb(238,127,114);stroke-width:0.57px;"/>
                                <path d="M225.581,188.646C224.22,185.556 222.86,182.466 222.18,180.907L221.471,179.348" style="fill:none;stroke:rgb(51,44,43);stroke-width:0.57px;"/>
                                <path d="M108.34,292.932C115.569,292.989 124.328,293.159 133.654,293.414C142.951,293.641 152.759,293.981 158.598,295.087C164.409,296.22 166.224,298.12 166.309,302.683C166.394,307.276 164.75,314.504 161.206,323.178C157.691,331.824 152.277,341.887 147.798,350.22C143.32,358.554 139.748,365.187 137.934,368.504C136.148,371.82 136.148,371.82 133.115,372.643C130.054,373.493 123.959,375.165 121.578,374.967C119.197,374.769 120.529,372.699 121.606,370.602C122.683,368.476 123.534,366.293 124.214,363.231C124.894,360.142 125.433,356.145 126.057,352.403C126.652,348.661 127.332,345.175 127.729,340.724C128.126,336.246 128.239,330.803 128.098,328.45C127.984,326.098 127.644,326.863 122.287,328.507C116.957,330.18 106.639,332.731 98.079,334.006C89.546,335.282 82.8,335.282 76.507,332.589C70.243,329.924 64.46,324.595 61.115,321.562C57.77,318.529 56.863,317.792 56.636,314.844C56.381,311.924 56.778,306.822 57.515,303.024C58.252,299.225 59.301,296.731 61.512,295.512C63.723,294.293 67.096,294.321 72.028,294.094C76.932,293.839 83.395,293.357 89.433,293.102C95.499,292.847 101.14,292.847 108.34,292.932Z" style="fill:rgb(180,181,181);stroke:rgb(180,181,181);stroke-width:0.57px;"/>
                                <path d="M166.592,195.959C161.745,198.595 159.307,200.126 156.331,200.92C153.354,201.685 151.002,201.94 147.061,202.62C144.68,203.046 144.482,202.989 138.813,204.236C133.143,205.483 115.852,212.57 112.11,213.562C108.34,214.583 111.26,213.789 110.835,213.902C108.765,214.469 107.008,214.894 105.506,215.263C105.42,215.291 105.364,215.32 105.279,215.32C104.003,215.631 102.898,215.915 101.877,216.142C96.917,220.082 92.92,223.285 88.186,229.805C83.452,236.324 77.216,246.643 74.693,256.564C72.198,266.513 69.024,276.86 67.72,281.537C66.387,286.186 65.594,286.98 64.403,288.539C63.496,289.729 63.128,290.013 61.682,291.572C60.208,293.131 61.143,297.723 61.824,298.913C62.476,300.132 65.509,300.132 70.668,299.735C75.798,299.339 83.055,298.573 90.028,298.261C92.721,298.148 95.357,298.091 97.795,298.091C101.622,298.091 104.91,298.176 106.951,298.233C110.296,298.318 110.296,298.318 110.211,297.071C110.154,295.795 109.304,298.148 109.899,295.427C110.523,292.706 112.252,294.491 114.548,289.162C116.844,283.833 120.387,266.457 121.635,260.731C122.854,255.005 122.088,251.32 122.542,248.315C122.967,245.509 124.469,243.326 125.773,240.973C125.858,240.803 125.943,240.661 126.028,240.52C127.361,237.997 128.409,235.247 133.228,231.732C138.019,228.189 146.58,223.88 153.581,220.479C160.554,217.106 165.969,214.639 171.241,213.137C176.513,211.635 181.644,211.124 191.14,206.901C191.991,206.532 192.869,206.107 193.776,205.682C193.805,205.682 193.833,205.654 193.861,205.654C193.89,205.625 193.946,205.597 193.975,205.597C200.239,202.62 207.978,198.425 216.17,193.805C220.195,191.537 224.362,189.184 228.501,186.831L227.877,185.443L225.071,179.065L224.731,178.271C224.22,178.809 223.455,179.235 222.321,179.688C221.414,180.085 220.252,180.482 218.891,180.907C217.361,181.757 215.66,182.636 213.874,183.487C212.287,184.28 210.671,185.017 208.942,185.868C209.906,184.819 210.869,183.77 211.776,182.778C211.408,182.863 211.068,182.92 210.699,183.005C208.97,183.373 207.213,183.713 205.342,184.11C205.37,184.11 205.398,184.082 205.427,184.054C205.002,184.167 206.816,183.77 204.094,184.337C201.373,184.932 193.55,184.167 186.491,186.775C179.405,189.383 171.439,193.294 166.592,195.959Z" style="stroke:black;stroke-width:0.22px;"/>
                                <path d="M71.291,374.939C68.825,375.279 67.635,374.485 66.331,372.246C65.027,370.006 63.581,366.321 61.115,364.677C58.62,363.005 55.106,363.373 52.781,364.847C50.457,366.321 49.323,368.872 48.161,370.8C46.998,372.728 45.751,374.003 44.306,374.372C42.888,374.769 41.216,374.23 39.231,375.619C37.219,377.008 34.866,380.296 32.854,382.819C30.813,385.313 29.112,387.043 29.339,387.751C29.565,388.46 31.748,388.205 47.367,387.581C55.162,387.269 66.274,386.872 77.329,386.476L72.709,374.655C72.198,374.797 71.745,374.882 71.291,374.939Z" style="fill:rgb(51,44,43);stroke:rgb(51,44,43);stroke-width:0.22px;"/>
                                <path d="M120.671,384.378C123.392,385.71 127.134,386.986 129.6,387.723C132.038,388.488 133.228,388.687 134.929,389.509C136.63,390.302 138.869,391.691 142.611,392.117C146.353,392.542 151.597,392.003 155.31,391.578C159.052,391.153 161.291,390.841 163.106,388.857C164.92,386.872 166.309,383.244 165.883,381.118C165.458,378.992 163.219,378.34 161.235,378.227C159.279,378.142 157.55,378.567 155.055,379.049C152.532,379.502 149.244,380.041 146.58,379.049C143.887,378.028 141.874,375.449 140.06,373.55C138.246,371.622 136.63,370.346 136.63,368.419C136.63,368.249 136.658,368.107 136.687,367.937C136.035,368.589 135.269,368.787 133.597,369.241C130.535,370.091 124.441,371.764 122.06,371.565C121.55,371.537 121.238,371.395 121.011,371.225C120.954,371.537 120.869,371.877 120.841,372.189C120.331,375.704 121.55,379.077 121.606,380.948C121.606,381.997 121.266,382.592 118.346,383.017C118.998,383.499 119.792,383.924 120.671,384.378Z" style="fill:rgb(51,44,43);stroke:rgb(51,44,43);stroke-width:0.22px;"/>
                                <path d="M79.455,372.132C76.876,373.238 73.871,374.457 71.49,375.024L76.11,386.844C87.279,386.419 98.362,385.994 105.959,385.654C112.62,385.342 116.589,385.087 118.913,384.746C121.833,384.321 122.202,383.726 122.173,382.677C122.145,380.778 120.898,377.433 121.408,373.918C121.465,373.578 121.521,373.266 121.606,372.926C121.238,372.614 121.238,372.104 121.436,371.509C121.663,370.743 122.202,369.836 122.683,368.901C123.761,366.803 124.583,364.62 125.263,361.531C125.915,358.639 126.425,354.926 126.992,351.411C127.02,351.071 127.049,350.759 127.049,350.447C127.191,347.528 127.219,346.45 124.809,343.077C122.372,339.704 117.496,334.006 114.831,330.378C114.548,330.009 114.293,329.669 114.066,329.329C109.332,330.491 103.975,331.625 99.156,332.334C90.595,333.609 83.849,333.581 77.584,330.917C77.244,330.775 76.904,330.633 76.592,330.463C76.11,331.824 76.932,333.609 78.69,336.529C80.504,339.534 83.282,343.757 87.931,348.463C92.58,353.197 99.071,358.413 102.416,361.502C105.761,364.564 105.902,365.471 102.869,366.265C99.836,367.058 93.6,367.767 89.263,368.702C84.954,369.638 82.545,370.8 79.455,372.132Z" style="fill:rgb(161,161,161);stroke:rgb(161,161,161);stroke-width:0.22px;"/>
                                <path d="M226.942,119.14L231.42,117.723L262.573,117.723L258.945,119.14" style="fill:none;stroke:rgb(51,44,43);stroke-width:0.57px;"/>
                                <path d="M262.573,117.723L262.743,157.606L258.945,160.611" style="fill:none;stroke:rgb(51,44,43);stroke-width:0.57px;"/>
                                <path d="M226.942,119.14L258.945,119.14L262.573,117.723L231.42,117.723L226.942,119.14Z" style="fill:rgb(139,139,140);stroke:rgb(139,139,140);stroke-width:0.22px;"/>
                                <path d="M258.945,119.14L258.945,160.611L262.743,157.606L262.573,117.723L258.945,119.14Z" style="fill:rgb(139,139,140);stroke:rgb(139,139,140);stroke-width:0.22px;"/>
                                <path d="M145.077,179.745C144.765,178.526 144.822,175.436 145.134,173.764C145.474,172.091 146.126,171.865 146.778,172.091C147.458,172.29 148.195,172.97 148.45,173.82C148.734,174.671 148.535,175.691 148.167,176.655C147.798,177.647 147.26,178.611 146.665,179.433C146.069,180.255 145.389,180.935 145.077,179.745Z" style="fill:rgb(0,162,233);stroke:rgb(0,162,233);stroke-width:0.57px;"/>
                                <path d="M147.288,182.211C147.288,181.701 148.337,180.482 149.074,180.028C149.783,179.575 150.18,179.858 150.435,180.255C150.718,180.624 150.86,181.106 150.661,181.474C150.463,181.843 149.924,182.098 149.131,182.296C148.337,182.523 147.288,182.721 147.288,182.211Z" style="fill:rgb(0,162,233);stroke:rgb(0,162,233);stroke-width:0.57px;"/>
                                <g transform="matrix(0.521998,-0.251849,0.419852,0.870212,133.927,185.463)">
                                    <ellipse cx="0" cy="0" rx="1.304" ry="2.863" style="fill:rgb(79,45,41);stroke:rgb(79,45,41);stroke-width:0.57px;"/>
                                </g>
                                <path d="M335.934,82.035C336.246,81.694 336.557,81.354 337.011,81.128C337.436,80.901 337.975,80.787 338.485,80.249C338.967,79.739 339.42,78.803 339.506,78.208C339.591,77.613 339.307,77.329 338.995,77.074" style="fill:none;stroke:rgb(51,44,43);stroke-width:0.57px;"/>
                                <path d="M340.129,96.746C340.384,95.868 340.668,94.989 341.206,94.422C341.745,93.827 342.595,93.543 343.417,93.231" style="fill:none;stroke:rgb(224,85,84);stroke-width:0.57px;"/>
                            </g>
                        </g>
                    </g>
                </g>
                <g transform="matrix(2.47333,0,0,2.47333,5474.12,1273.65)">
                    <clipPath id="_clip3">
                        <rect x="-226.772" y="-226.772" width="453.543" height="212.573"/>
                    </clipPath>
                    <g clip-path="url(#_clip3)">
                        <g transform="matrix(1,0,0,1,-226.772,-226.772)">
                            <g id="Layer_x0020_11" serif:id="Layer_x0020_1">
                                <path d="M240.917,75.033L253.701,113.811L294.151,98.957L269.631,132.463L307.304,152.702L263.934,155.707L270.454,195.817L240.917,166.054L211.38,195.817L217.899,155.707L174.557,152.702L212.23,132.463L187.71,98.957L228.161,113.811L240.917,75.033Z" style="fill:rgb(255,253,133);fill-opacity:0.74902;stroke:rgb(255,253,133);stroke-opacity:0.74902;stroke-width:0.57px;"/>
                                <path d="M133.455,179.688C135.95,182.693 138.472,186.463 140.003,189.071C141.534,191.679 142.072,193.124 142.356,194.372C142.639,195.619 142.639,196.696 142.696,198.142C142.724,199.587 142.838,201.43 142.441,203.102C142.072,204.803 141.25,206.362 140.23,207.269C139.209,208.176 137.991,208.46 136.063,208.8C134.107,209.14 131.414,209.537 129.09,209.934C126.794,210.302 124.838,210.699 123.109,211.266C121.408,211.861 119.906,212.627 118.998,213.25C118.063,213.874 117.694,214.356 116.617,214.356C115.569,214.356 113.811,213.874 112.025,213.846C110.268,213.789 108.51,214.186 106.809,214.753C105.08,215.32 103.408,216.113 102.217,217.219C100.998,218.324 100.261,219.77 100.942,219.543C101.65,219.288 103.776,217.361 105.364,215.376C106.923,213.392 107.943,211.38 108.369,210.019C108.794,208.658 108.595,207.978 107.688,206.986C106.753,205.965 105.08,204.605 103.465,202.195C101.849,199.786 100.261,196.299 99.383,193.209C98.504,190.12 98.306,187.427 98.589,185.046C98.872,182.693 99.609,180.652 100.545,178.668C101.452,176.683 102.586,174.756 104.06,173.452C105.534,172.148 107.405,171.468 109.219,170.901C111.005,170.306 112.791,169.824 114.406,169.54C116.022,169.257 117.496,169.172 119.395,169.654C121.323,170.135 123.619,171.184 126.028,172.828C128.438,174.472 130.961,176.683 133.455,179.688Z" style="fill:rgb(242,195,163);stroke:rgb(242,195,163);stroke-width:0.57px;"/>
                                <path d="M222.548,179.66L227.82,187.087C228.699,186.435 229.521,185.868 230.202,185.357C233.036,183.317 234.198,182.693 235.984,182.296C237.77,181.899 240.18,181.729 242.22,181.559C244.233,181.417 245.906,181.247 247.606,180.794C249.307,180.34 251.065,179.603 252.907,178.498C254.75,177.392 256.677,175.918 258.18,174.047C259.654,172.176 260.731,169.909 260.844,168.746C260.957,167.613 260.135,167.584 258.52,167.811C256.904,168.009 254.523,168.463 252.227,168.746C249.959,169.058 247.776,169.2 246.189,169.2C244.602,169.2 243.609,169.115 242.901,168.661C242.22,168.236 241.824,167.443 241.569,166.819C241.313,166.195 241.143,165.713 241.625,165.628C242.107,165.543 243.213,165.883 244.233,166.025C245.254,166.195 246.161,166.195 247.153,166.139C248.145,166.054 249.194,165.94 249.902,165.572C250.583,165.231 250.923,164.665 251.065,164.324C251.235,163.984 251.235,163.843 250.724,163.899C250.186,163.956 249.137,164.183 247.748,163.984C246.387,163.757 244.63,163.106 243.553,162.595C242.476,162.085 242.05,161.745 241.427,161.376C240.831,161.008 240.009,160.583 239.102,160.696C238.167,160.809 237.09,161.433 235.984,161.887C234.907,162.34 233.773,162.624 233.093,163.049C232.384,163.446 232.129,163.984 231.732,166.11C231.335,168.236 230.797,171.921 230.23,174.189C229.663,176.457 229.096,177.25 226.573,178.271C225.553,178.696 224.164,179.178 222.548,179.66Z" style="fill:rgb(242,195,163);stroke:rgb(242,195,163);stroke-width:0.22px;"/>
                                <path d="M218.806,155.395C218.466,156.104 218.211,156.643 218.069,156.898C217.729,157.436 217.899,156.416 218.353,155.82C218.466,155.622 218.636,155.48 218.806,155.395ZM218.806,155.395C219.231,154.488 219.798,153.354 220.479,152.249C221.754,150.265 223.455,148.422 224.249,146.835C225.043,145.247 224.986,143.915 224.787,143.178C224.589,142.469 224.306,142.356 221.924,144.624C219.572,146.92 215.178,151.597 213.109,155.395C211.039,159.222 211.294,162.17 211.918,165.969C212.57,169.739 213.591,174.302 213.817,176.939C214.044,179.575 213.506,180.283 211.975,181.956C210.472,183.657 208.006,186.35 205.512,189.043C207.241,188.22 208.885,187.455 210.472,186.69C214.809,184.564 218.806,182.296 220.989,180.709C223.172,179.121 223.54,178.186 223.54,175.861C223.54,173.962 223.313,171.071 223.143,168.917C222.123,167.357 221.102,165.77 220.677,163.729C220.252,161.688 220.422,159.165 220.45,157.606C220.479,156.047 220.365,155.452 219.94,155.254C219.628,155.083 219.203,155.14 218.806,155.395Z" style="fill:rgb(240,175,132);"/>
                                <path d="M118.998,243.184C121.521,242.334 124.072,241.483 127.757,239.811C131.414,238.11 136.233,235.616 144.17,231.902C152.135,228.189 163.247,223.285 171.553,218.863C179.858,214.413 185.414,210.472 190.942,206.504C185.216,208.573 179.235,210.132 175.38,211.096C170.901,212.202 169.285,212.542 163.786,214.98C158.287,217.446 148.904,222.038 140.797,226.091C132.69,230.145 125.858,233.66 122.542,235.587C119.225,237.515 119.452,237.827 119.339,239.584C119.282,240.463 119.14,241.682 118.998,243.184Z" style="fill:rgb(57,37,42);stroke:rgb(57,37,42);stroke-width:0.22px;"/>
                                <rect x="226.942" y="119.14" width="32.031" height="41.471" style="fill:rgb(190,191,201);stroke:rgb(190,191,201);stroke-width:0.57px;"/>
                                <path d="M359.546,200.239C362.409,207.128 365.301,214.016 367.483,219.94C369.694,225.836 371.197,230.797 371.849,235.077C372.501,239.357 372.302,242.986 372.416,246.416C372.501,249.817 372.869,253.02 373.209,255.203C373.55,257.386 373.89,258.576 374.712,258.52C375.562,258.463 376.951,257.159 378.17,255.487C379.389,253.843 380.438,251.83 381.26,250.243C382.082,248.627 382.649,247.436 382.309,245.565C381.94,243.694 380.693,241.115 379.757,239.046C378.822,236.976 378.198,235.417 377.433,232.356C376.696,229.294 375.817,224.731 374.882,220.564C373.946,216.397 372.926,212.627 372.302,208.29C371.679,203.924 371.424,198.964 371.169,194.003" style="fill:none;stroke:rgb(51,44,43);stroke-width:0.57px;"/>
                                <path d="M355.294,111.912C358.781,111.175 361.729,111.175 364.564,111.317C365.187,111.345 365.811,111.402 366.435,111.43C367.03,111.317 367.54,111.061 367.909,110.438C368.589,109.247 368.646,106.724 368.306,104.003C368.05,101.934 367.569,99.751 367.654,98.164C367.682,97.682 367.795,97.257 367.965,96.888C368.731,95.471 370.97,95.528 373.578,91.871C376.157,88.214 375.024,80.731 375.761,74.693C376.469,68.655 374.967,63.95 373.181,60.208C371.395,56.438 369.326,53.631 366.208,51.506C363.061,49.38 358.866,47.934 353.225,47.735C347.556,47.565 344.494,48.699 339.165,52.186C333.865,55.644 330.35,61.54 329.017,67.124C327.713,72.737 328.592,78.066 329.159,82.148C329.726,86.258 329.981,89.15 329.414,93.742C329.244,95.102 329.017,96.605 328.649,98.164C327.827,101.962 326.381,106.214 323.773,109.928C320.088,115.172 314.079,119.367 310.479,124.923C306.879,130.45 305.688,137.339 306.992,142.271C308.324,147.175 312.123,150.123 313.512,153.241C314.872,156.387 313.824,159.704 313.965,162.737C314.135,165.77 315.496,168.52 317.65,170.22C319.805,171.95 322.724,172.602 325.616,173.254C326.268,169.342 326.948,165.43 327.855,160.101C328.791,154.743 329.981,147.997 332.164,140.542C334.346,133.087 337.55,124.951 341.717,119.877C345.883,114.803 351.014,112.791 355.294,111.912Z" style="fill:rgb(133,78,27);stroke:rgb(133,78,27);stroke-width:0.22px;"/>
                                <path d="M346.649,376.441L354.557,378.142C354.104,380.948 354.189,383.102 355.039,385.285C355.975,387.723 357.846,390.246 358.923,392.003C359.972,393.732 360.227,394.753 359.858,396.822C359.49,398.891 358.469,402.009 355.776,405.071C353.083,408.132 348.718,411.137 344.154,413.972C339.562,416.778 334.8,419.414 330.605,420.038C326.438,420.661 322.781,419.272 322.356,417.6C321.931,415.899 324.68,413.915 326.92,411.704C329.187,409.521 330.945,407.14 332.674,404.561C334.431,402.009 336.189,399.26 337.323,396.057C338.457,392.882 338.939,389.225 340.639,386.362C342.312,383.499 345.146,381.402 346.649,376.441Z" style="fill:rgb(190,191,201);stroke:rgb(190,191,201);stroke-width:0.22px;"/>
                                <path d="M398.806,363.94L390.189,370.091C389.877,367.767 389.395,365.329 388.715,362.806C386.532,354.813 382.139,346.167 377.887,337.153C373.635,328.139 369.496,318.756 365.981,311.726C365.244,310.252 364.535,308.863 363.827,307.531C363.09,316.885 362.353,326.268 361.361,335.906C360.369,345.543 359.093,355.436 357.846,362.494C356.598,369.581 355.351,373.833 354.728,377.15C354.643,377.49 354.586,377.83 354.557,378.142L346.649,376.441C346.677,376.384 346.677,376.328 346.706,376.271C348.208,371.197 348.321,363.203 347.641,347.726C346.961,332.277 345.458,309.345 342.567,291.317C339.704,273.288 335.452,260.164 332.447,249.08C329.443,237.997 327.685,228.983 327.118,219.572C326.721,213.024 326.92,206.277 326.948,200.211L354.019,193.039C354.529,195.137 354.869,197.008 355.096,198.397C355.521,200.92 355.663,201.798 358.299,200.778C358.668,200.636 359.093,200.438 359.546,200.239C362.409,207.128 365.301,214.016 367.483,219.94C368.674,223.143 369.666,226.063 370.431,228.756C369.269,234.397 368.164,240.009 368.419,247.578C368.731,256.649 370.998,268.554 372.189,277.172C373.38,285.817 373.493,291.203 374.372,294.633C375.25,298.091 376.894,299.594 379.247,302.967C381.628,306.34 384.775,311.613 387.581,321.25C390.416,330.888 392.91,344.92 395.348,353.934C396.51,358.271 397.672,361.446 398.806,363.94ZM369.978,188.787L373.38,187.88C373.918,194.882 374.173,199.361 373.946,204.435C373.805,207.156 373.521,210.076 373.153,213.024C372.841,211.493 372.557,209.934 372.302,208.29C371.679,203.924 371.424,198.964 371.169,194.003C372.416,193.294 372.728,192.926 372.331,192.274C371.934,191.594 370.828,190.63 369.978,188.787Z"/>
                                <path d="M398.806,363.94L390.189,370.091C390.898,375.222 390.841,379.843 390.728,383.414C390.529,388.602 390.161,391.606 389.395,395.065C388.658,398.494 387.524,402.378 385.824,405.581C384.151,408.756 381.883,411.279 381.005,413.348C380.126,415.417 380.636,417.033 381.146,417.855C381.628,418.649 382.139,418.649 383.754,418.535C385.398,418.422 388.148,418.167 391.72,415.417C395.291,412.639 399.657,407.395 402.491,402.576C405.298,397.757 406.545,393.364 407.877,390.359C409.181,387.354 410.57,385.739 410.57,384.038C410.57,382.337 409.181,380.608 407.622,378.397C406.063,376.214 404.306,373.578 402.236,370.261C401.159,368.532 399.997,366.633 398.806,363.94Z" style="fill:rgb(190,191,201);stroke:rgb(190,191,201);stroke-width:0.22px;"/>
                                <path d="M359.546,200.239C363.402,198.17 367.285,196.072 371.169,194.003" style="fill:none;stroke:rgb(51,44,43);stroke-width:0.57px;"/>
                                <path d="M371.169,194.003L359.546,200.239C362.409,207.128 365.301,214.016 367.483,219.94C368.674,223.143 369.666,226.063 370.431,228.756C371.055,231.024 371.537,233.121 371.849,235.077C372.501,239.357 372.302,242.986 372.416,246.416C372.501,249.817 372.869,253.02 373.209,255.203C373.55,257.386 373.89,258.576 374.712,258.52C375.562,258.463 376.951,257.159 378.17,255.487C379.389,253.843 380.438,251.83 381.26,250.243C382.082,248.627 382.649,247.436 382.309,245.565C381.94,243.694 380.693,241.115 379.757,239.046C378.822,236.976 378.198,235.417 377.433,232.356C376.696,229.294 375.817,224.731 374.882,220.564C374.287,217.956 373.691,215.546 373.153,213.024C372.841,211.493 372.557,209.934 372.302,208.29C371.679,203.924 371.424,198.964 371.169,194.003Z" style="fill:rgb(240,175,132);stroke:rgb(240,175,132);stroke-width:0.22px;"/>
                                <path d="M347.471,106.356C347.726,107.065 348.775,107.66 350.192,107.263C351.609,106.866 353.395,105.449 355.011,103.776C356.655,102.104 358.129,100.176 358.866,99.213C359.603,98.277 359.603,98.249 359.008,96.293C358.413,94.309 357.222,90.34 355.89,87.619C354.529,84.898 353.055,83.367 352.431,81.694C351.836,80.022 352.091,78.18 352.318,76.876C352.545,75.572 352.715,74.806 352.828,74.126C352.942,73.446 352.998,72.85 352.772,72.113C352.573,71.376 352.091,70.498 351.213,70.044C350.362,69.562 349.115,69.506 347.556,69.25C345.969,68.995 344.069,68.542 342.085,69.279C340.101,70.016 338.003,71.915 336.671,74.835C335.367,77.754 334.8,81.694 334.8,84.728C334.772,87.761 335.339,89.915 335.82,91.559C336.331,93.203 336.784,94.365 337.748,95.698C338.74,97.03 340.214,98.532 341.461,99.468C342.709,100.431 343.757,100.8 344.92,101.254C346.11,101.707 347.443,102.217 348.038,102.699C348.633,103.153 348.52,103.606 348.18,104.23C347.811,104.854 347.244,105.647 347.471,106.356Z" style="fill:rgb(240,175,132);stroke:rgb(240,175,132);stroke-width:0.57px;"/>
                                <path d="M326.92,203.017C334.176,203.131 341.433,203.272 347.017,203.131C352.573,202.989 356.457,202.592 360.369,202.195" style="fill:none;stroke:rgb(51,44,43);stroke-width:0.57px;"/>
                                <path d="M352.573,186.775C350.986,182.551 348.605,178.299 345.997,171.128C343.361,163.956 340.469,153.893 339.874,146.466C339.279,139.039 340.98,134.306 342.539,131.102C344.098,127.899 345.543,126.283 348.265,125.745C350.986,125.206 355.011,125.773 358.072,127.162C361.134,128.523 363.26,130.734 365.074,137.906C366.888,145.049 368.391,157.209 368.844,166.309C369.269,175.436 368.646,181.502 369.326,185.301C370.006,189.128 371.991,190.658 372.557,191.594C372.954,192.274 372.643,192.614 371.395,193.351C371.452,194.627 371.509,195.931 371.594,197.206L374.173,195.817C374.003,191.792 373.606,187.2 373.096,180.68C372.217,169.597 370.97,152.957 369.411,141.109C367.824,129.288 365.953,122.287 364.45,116.277C363.969,114.293 363.515,112.394 363.09,110.608C362.494,108.085 361.928,105.704 361.417,103.38L360.709,100.233L359.575,96.888C359.773,97.682 359.603,97.88 359.093,98.561C358.356,99.524 356.882,101.452 355.238,103.124C355.153,103.209 355.068,103.294 354.983,103.38C353.424,104.939 351.751,106.214 350.419,106.611C349.002,107.008 347.953,106.413 347.698,105.704C347.584,105.335 347.669,104.967 347.839,104.598C346.706,106.157 344.835,108.227 342.595,110.211C340.044,112.507 337.039,114.633 333.836,119.282C330.661,123.902 327.26,131.046 325.644,137.679C324.028,144.312 324.142,150.435 324.198,156.387C324.255,161.887 324.255,167.187 324.765,172.375C324.794,172.8 324.85,173.225 324.879,173.679C325.531,179.235 326.778,184.62 327.09,192.189C327.203,195.279 327.175,198.737 327.146,202.365C334.148,202.479 341.178,202.592 346.677,202.479C346.847,202.479 347.046,202.479 347.216,202.479C352.8,202.337 356.683,201.94 360.567,201.543C360.312,200.891 360.028,200.239 359.745,199.587C359.291,199.786 358.866,199.984 358.498,200.126C355.89,201.146 355.748,200.268 355.323,197.745C354.869,195.194 354.132,190.998 352.573,186.775Z" style="stroke:black;stroke-width:0.22px;"/>
                                <path d="M342.68,131.216C344.239,128.013 345.685,126.397 348.406,125.858C351.128,125.32 355.153,125.887 358.214,127.276C361.276,128.636 363.402,130.847 365.216,137.991C367.03,145.162 368.532,157.323 368.986,166.422C369.411,175.521 368.787,181.616 369.468,185.414C370.148,189.241 372.132,190.772 372.699,191.707C373.266,192.643 372.416,192.983 369.411,194.627C366.406,196.243 361.276,199.191 358.639,200.239C356.031,201.26 355.89,200.381 355.465,197.858C355.011,195.307 354.274,191.112 352.715,186.888C351.128,182.665 348.746,178.413 346.139,171.241C343.502,164.069 340.611,154.006 340.016,146.58C339.42,139.153 341.121,134.391 342.68,131.216Z" style="fill:rgb(219,127,41);stroke:rgb(219,127,41);stroke-width:0.57px;"/>
                                <g transform="matrix(0.608979,-0.198278,0.198278,0.608979,338.893,84.1924)">
                                    <ellipse cx="0" cy="0" rx="1.134" ry="3.798" style="fill:rgb(57,37,42);stroke:rgb(57,37,42);stroke-width:0.57px;"/>
                                </g>
                                <circle cx="345.005" cy="89.943" r="2.494" style="fill:rgb(241,155,145);stroke:rgb(241,155,145);stroke-width:0.57px;"/>
                                <path d="M128.211,176.939C127.843,178.016 127.474,179.121 126.624,180.113C125.802,181.134 124.469,182.041 123.137,182.948" style="fill:none;stroke:rgb(79,45,41);stroke-width:0.57px;"/>
                                <path d="M111.855,207.865C112.28,207.326 112.309,205.994 112.224,205.03C112.139,204.066 111.969,203.499 111.203,203.244C110.409,202.989 109.049,203.074 107.518,202.62C106.016,202.139 104.4,201.146 103.209,199.644C102.019,198.17 101.254,196.157 101.424,194.74C101.594,193.351 102.671,192.557 104.117,192.019C105.562,191.509 107.348,191.254 108.794,191.735C110.211,192.246 111.317,193.465 112.195,194.627C113.102,195.761 113.839,196.809 114.321,197.405C114.803,198 115.058,198.113 115.285,198.028C115.512,197.972 115.739,197.717 115.909,197.178C116.079,196.639 116.164,195.846 116.306,195.506C116.447,195.165 116.617,195.279 116.731,194.967C116.816,194.655 116.872,193.918 116.816,193.068C116.759,192.217 116.589,191.282 117.071,190.375C117.553,189.496 118.63,188.674 118.998,188.532C119.367,188.419 118.998,188.986 118.658,189.609C118.318,190.205 117.978,190.857 118.375,190.97C118.8,191.055 119.962,190.63 121.72,190.12C123.449,189.581 125.802,188.957 128.013,187.654C130.252,186.378 132.35,184.394 133.569,182.466C134.816,180.539 135.156,178.611 135.269,177.137C135.354,175.663 135.213,174.614 135.213,174.217C135.184,173.792 135.326,174.019 135.694,174.898C136.063,175.776 136.658,177.307 137.112,178.554C137.537,179.83 137.849,180.822 138.019,181.984C138.217,183.146 138.302,184.479 138.387,184.876C138.501,185.272 138.614,184.706 138.954,183.883C139.266,183.061 139.776,182.041 139.946,181.049C140.117,180.057 139.946,179.15 139.805,178.186C139.663,177.25 139.55,176.287 139.209,175.209C138.898,174.161 138.331,172.998 138.104,172.233C137.849,171.468 137.934,171.099 138.019,170.901C138.104,170.702 138.189,170.702 138.501,170.929C138.813,171.128 139.351,171.553 139.691,172.091C140.06,172.63 140.23,173.254 140.23,173.254C140.23,173.254 140.06,172.63 139.861,171.978C139.691,171.326 139.493,170.646 138.019,169.483C136.545,168.35 133.824,166.706 132.18,165.6C130.535,164.494 129.997,163.899 128.069,162.85C126.142,161.83 122.825,160.356 120.076,159.874C117.326,159.392 115.143,159.902 112.706,160.299C110.268,160.696 107.546,161.008 104.315,161.66C101.083,162.312 97.313,163.332 95.017,164.466C92.75,165.628 91.956,166.904 91.644,167.783C91.304,168.661 91.446,169.143 90.794,169.795C90.142,170.419 88.668,171.241 87.902,173.537C87.109,175.805 86.995,179.546 87.959,183.912C88.923,188.277 90.935,193.238 92.353,196.214C93.77,199.191 94.564,200.154 96.321,200.92C98.05,201.713 100.715,202.337 102.643,203.131C104.57,203.924 105.761,204.888 106.809,205.71C107.887,206.561 108.794,207.241 109.672,207.723C110.551,208.176 111.402,208.431 111.855,207.865Z" style="fill:rgb(186,125,67);stroke:rgb(186,125,67);stroke-width:0.57px;"/>
                                <path d="M131.924,177.222C131.698,178.526 131.443,179.802 130.989,181.02C130.507,182.239 129.798,183.402 129.317,184.082C128.806,184.762 128.494,184.961 128.211,185.159" style="fill:none;stroke:rgb(51,44,43);stroke-width:2.13px;"/>
                                <ellipse cx="130.535" cy="193.691" rx="3.827" ry="3.033" style="fill:rgb(238,127,114);stroke:rgb(238,127,114);stroke-width:0.57px;"/>
                                <path d="M225.581,188.646C224.22,185.556 222.86,182.466 222.18,180.907L221.471,179.348" style="fill:none;stroke:rgb(51,44,43);stroke-width:0.57px;"/>
                                <path d="M108.34,292.932C115.569,292.989 124.328,293.159 133.654,293.414C142.951,293.641 152.759,293.981 158.598,295.087C164.409,296.22 166.224,298.12 166.309,302.683C166.394,307.276 164.75,314.504 161.206,323.178C157.691,331.824 152.277,341.887 147.798,350.22C143.32,358.554 139.748,365.187 137.934,368.504C136.148,371.82 136.148,371.82 133.115,372.643C130.054,373.493 123.959,375.165 121.578,374.967C119.197,374.769 120.529,372.699 121.606,370.602C122.683,368.476 123.534,366.293 124.214,363.231C124.894,360.142 125.433,356.145 126.057,352.403C126.652,348.661 127.332,345.175 127.729,340.724C128.126,336.246 128.239,330.803 128.098,328.45C127.984,326.098 127.644,326.863 122.287,328.507C116.957,330.18 106.639,332.731 98.079,334.006C89.546,335.282 82.8,335.282 76.507,332.589C70.243,329.924 64.46,324.595 61.115,321.562C57.77,318.529 56.863,317.792 56.636,314.844C56.381,311.924 56.778,306.822 57.515,303.024C58.252,299.225 59.301,296.731 61.512,295.512C63.723,294.293 67.096,294.321 72.028,294.094C76.932,293.839 83.395,293.357 89.433,293.102C95.499,292.847 101.14,292.847 108.34,292.932Z" style="fill:rgb(180,181,181);stroke:rgb(180,181,181);stroke-width:0.57px;"/>
                                <path d="M166.592,195.959C161.745,198.595 159.307,200.126 156.331,200.92C153.354,201.685 151.002,201.94 147.061,202.62C144.68,203.046 144.482,202.989 138.813,204.236C133.143,205.483 115.852,212.57 112.11,213.562C108.34,214.583 111.26,213.789 110.835,213.902C108.765,214.469 107.008,214.894 105.506,215.263C105.42,215.291 105.364,215.32 105.279,215.32C104.003,215.631 102.898,215.915 101.877,216.142C96.917,220.082 92.92,223.285 88.186,229.805C83.452,236.324 77.216,246.643 74.693,256.564C72.198,266.513 69.024,276.86 67.72,281.537C66.387,286.186 65.594,286.98 64.403,288.539C63.496,289.729 63.128,290.013 61.682,291.572C60.208,293.131 61.143,297.723 61.824,298.913C62.476,300.132 65.509,300.132 70.668,299.735C75.798,299.339 83.055,298.573 90.028,298.261C92.721,298.148 95.357,298.091 97.795,298.091C101.622,298.091 104.91,298.176 106.951,298.233C110.296,298.318 110.296,298.318 110.211,297.071C110.154,295.795 109.304,298.148 109.899,295.427C110.523,292.706 112.252,294.491 114.548,289.162C116.844,283.833 120.387,266.457 121.635,260.731C122.854,255.005 122.088,251.32 122.542,248.315C122.967,245.509 124.469,243.326 125.773,240.973C125.858,240.803 125.943,240.661 126.028,240.52C127.361,237.997 128.409,235.247 133.228,231.732C138.019,228.189 146.58,223.88 153.581,220.479C160.554,217.106 165.969,214.639 171.241,213.137C176.513,211.635 181.644,211.124 191.14,206.901C191.991,206.532 192.869,206.107 193.776,205.682C193.805,205.682 193.833,205.654 193.861,205.654C193.89,205.625 193.946,205.597 193.975,205.597C200.239,202.62 207.978,198.425 216.17,193.805C220.195,191.537 224.362,189.184 228.501,186.831L227.877,185.443L225.071,179.065L224.731,178.271C224.22,178.809 223.455,179.235 222.321,179.688C221.414,180.085 220.252,180.482 218.891,180.907C217.361,181.757 215.66,182.636 213.874,183.487C212.287,184.28 210.671,185.017 208.942,185.868C209.906,184.819 210.869,183.77 211.776,182.778C211.408,182.863 211.068,182.92 210.699,183.005C208.97,183.373 207.213,183.713 205.342,184.11C205.37,184.11 205.398,184.082 205.427,184.054C205.002,184.167 206.816,183.77 204.094,184.337C201.373,184.932 193.55,184.167 186.491,186.775C179.405,189.383 171.439,193.294 166.592,195.959Z" style="stroke:black;stroke-width:0.22px;"/>
                                <path d="M71.291,374.939C68.825,375.279 67.635,374.485 66.331,372.246C65.027,370.006 63.581,366.321 61.115,364.677C58.62,363.005 55.106,363.373 52.781,364.847C50.457,366.321 49.323,368.872 48.161,370.8C46.998,372.728 45.751,374.003 44.306,374.372C42.888,374.769 41.216,374.23 39.231,375.619C37.219,377.008 34.866,380.296 32.854,382.819C30.813,385.313 29.112,387.043 29.339,387.751C29.565,388.46 31.748,388.205 47.367,387.581C55.162,387.269 66.274,386.872 77.329,386.476L72.709,374.655C72.198,374.797 71.745,374.882 71.291,374.939Z" style="fill:rgb(51,44,43);stroke:rgb(51,44,43);stroke-width:0.22px;"/>
                                <path d="M120.671,384.378C123.392,385.71 127.134,386.986 129.6,387.723C132.038,388.488 133.228,388.687 134.929,389.509C136.63,390.302 138.869,391.691 142.611,392.117C146.353,392.542 151.597,392.003 155.31,391.578C159.052,391.153 161.291,390.841 163.106,388.857C164.92,386.872 166.309,383.244 165.883,381.118C165.458,378.992 163.219,378.34 161.235,378.227C159.279,378.142 157.55,378.567 155.055,379.049C152.532,379.502 149.244,380.041 146.58,379.049C143.887,378.028 141.874,375.449 140.06,373.55C138.246,371.622 136.63,370.346 136.63,368.419C136.63,368.249 136.658,368.107 136.687,367.937C136.035,368.589 135.269,368.787 133.597,369.241C130.535,370.091 124.441,371.764 122.06,371.565C121.55,371.537 121.238,371.395 121.011,371.225C120.954,371.537 120.869,371.877 120.841,372.189C120.331,375.704 121.55,379.077 121.606,380.948C121.606,381.997 121.266,382.592 118.346,383.017C118.998,383.499 119.792,383.924 120.671,384.378Z" style="fill:rgb(51,44,43);stroke:rgb(51,44,43);stroke-width:0.22px;"/>
                                <path d="M79.455,372.132C76.876,373.238 73.871,374.457 71.49,375.024L76.11,386.844C87.279,386.419 98.362,385.994 105.959,385.654C112.62,385.342 116.589,385.087 118.913,384.746C121.833,384.321 122.202,383.726 122.173,382.677C122.145,380.778 120.898,377.433 121.408,373.918C121.465,373.578 121.521,373.266 121.606,372.926C121.238,372.614 121.238,372.104 121.436,371.509C121.663,370.743 122.202,369.836 122.683,368.901C123.761,366.803 124.583,364.62 125.263,361.531C125.915,358.639 126.425,354.926 126.992,351.411C127.02,351.071 127.049,350.759 127.049,350.447C127.191,347.528 127.219,346.45 124.809,343.077C122.372,339.704 117.496,334.006 114.831,330.378C114.548,330.009 114.293,329.669 114.066,329.329C109.332,330.491 103.975,331.625 99.156,332.334C90.595,333.609 83.849,333.581 77.584,330.917C77.244,330.775 76.904,330.633 76.592,330.463C76.11,331.824 76.932,333.609 78.69,336.529C80.504,339.534 83.282,343.757 87.931,348.463C92.58,353.197 99.071,358.413 102.416,361.502C105.761,364.564 105.902,365.471 102.869,366.265C99.836,367.058 93.6,367.767 89.263,368.702C84.954,369.638 82.545,370.8 79.455,372.132Z" style="fill:rgb(161,161,161);stroke:rgb(161,161,161);stroke-width:0.22px;"/>
                                <path d="M226.942,119.14L231.42,117.723L262.573,117.723L258.945,119.14" style="fill:none;stroke:rgb(51,44,43);stroke-width:0.57px;"/>
                                <path d="M262.573,117.723L262.743,157.606L258.945,160.611" style="fill:none;stroke:rgb(51,44,43);stroke-width:0.57px;"/>
                                <path d="M226.942,119.14L258.945,119.14L262.573,117.723L231.42,117.723L226.942,119.14Z" style="fill:rgb(139,139,140);stroke:rgb(139,139,140);stroke-width:0.22px;"/>
                                <path d="M258.945,119.14L258.945,160.611L262.743,157.606L262.573,117.723L258.945,119.14Z" style="fill:rgb(139,139,140);stroke:rgb(139,139,140);stroke-width:0.22px;"/>
                                <path d="M145.077,179.745C144.765,178.526 144.822,175.436 145.134,173.764C145.474,172.091 146.126,171.865 146.778,172.091C147.458,172.29 148.195,172.97 148.45,173.82C148.734,174.671 148.535,175.691 148.167,176.655C147.798,177.647 147.26,178.611 146.665,179.433C146.069,180.255 145.389,180.935 145.077,179.745Z" style="fill:rgb(0,162,233);stroke:rgb(0,162,233);stroke-width:0.57px;"/>
                                <path d="M147.288,182.211C147.288,181.701 148.337,180.482 149.074,180.028C149.783,179.575 150.18,179.858 150.435,180.255C150.718,180.624 150.86,181.106 150.661,181.474C150.463,181.843 149.924,182.098 149.131,182.296C148.337,182.523 147.288,182.721 147.288,182.211Z" style="fill:rgb(0,162,233);stroke:rgb(0,162,233);stroke-width:0.57px;"/>
                                <g transform="matrix(0.521998,-0.251849,0.419852,0.870212,133.927,185.463)">
                                    <ellipse cx="0" cy="0" rx="1.304" ry="2.863" style="fill:rgb(79,45,41);stroke:rgb(79,45,41);stroke-width:0.57px;"/>
                                </g>
                                <path d="M335.934,82.035C336.246,81.694 336.557,81.354 337.011,81.128C337.436,80.901 337.975,80.787 338.485,80.249C338.967,79.739 339.42,78.803 339.506,78.208C339.591,77.613 339.307,77.329 338.995,77.074" style="fill:none;stroke:rgb(51,44,43);stroke-width:0.57px;"/>
                                <path d="M340.129,96.746C340.384,95.868 340.668,94.989 341.206,94.422C341.745,93.827 342.595,93.543 343.417,93.231" style="fill:none;stroke:rgb(224,85,84);stroke-width:0.57px;"/>
                            </g>
                        </g>
                    </g>
                </g>
            </g>
        </g>
    </g>
    <defs>
        <linearGradient id="_Linear2" x1="0" y1="0" x2="1" y2="0" gradientUnits="userSpaceOnUse" gradientTransform="matrix(-978,-537,537,-978,6002,1544)"><stop offset="0" style="stop-color:rgb(167,255,175);stop-opacity:1"/><stop offset="1" style="stop-color:rgb(167,255,175);stop-opacity:0"/></linearGradient>
    </defs>
</svg>
